<?xml version="1.0" encoding="utf-8"?>
<!-- Generator: Adobe Illustrator 16.0.0, SVG Export Plug-In . SVG Version: 6.00 Build 0)  -->
<!DOCTYPE svg PUBLIC "-//W3C//DTD SVG 1.1//EN" "http://www.w3.org/Graphics/SVG/1.1/DTD/svg11.dtd">
<svg version="1.1" id="Ebene_1" xmlns="http://www.w3.org/2000/svg" xmlns:xlink="http://www.w3.org/1999/xlink" x="0px" y="0px"
	 width="358.189px" height="136.496px" viewBox="0 0 358.189 136.496" enable-background="new 0 0 358.189 136.496"
	 xml:space="preserve">
<g>
	<polygon fill="#59829C" points="60.4,75 47,51.5 60.4,28 87.203,28 100.604,51.5 87.203,75 	"/>
	<polygon fill="#9AC3D8" points="13.4,47 0,23.5 13.4,0 40.203,0 53.604,23.5 40.203,47 	"/>
	<polygon fill="#305876" points="13.4,103 0,79.5 13.4,56 40.203,56 53.604,79.5 40.203,103 	"/>
</g>
<g>
	<path fill="#1F1F1F" d="M91.792,110.979c0,0.898-0.201,1.563-0.601,1.992c-0.4,0.43-0.952,0.645-1.655,0.645H73.628
		c0,1.113,0.132,2.124,0.396,3.032s0.684,1.681,1.26,2.314c0.576,0.635,1.318,1.118,2.227,1.45s1.997,0.498,3.267,0.498
		c1.289,0,2.421-0.092,3.398-0.278c0.977-0.186,1.821-0.391,2.534-0.615c0.713-0.224,1.304-0.429,1.772-0.615
		c0.469-0.186,0.85-0.278,1.143-0.278c0.176,0,0.322,0.034,0.439,0.103c0.117,0.069,0.215,0.19,0.293,0.366
		c0.078,0.176,0.132,0.425,0.161,0.747s0.044,0.728,0.044,1.216c0,0.43-0.01,0.796-0.029,1.099c-0.02,0.304-0.049,0.562-0.088,0.776
		c-0.04,0.215-0.098,0.396-0.176,0.542c-0.078,0.146-0.181,0.288-0.308,0.425c-0.127,0.137-0.474,0.322-1.04,0.557
		c-0.567,0.234-1.289,0.465-2.168,0.688s-1.885,0.42-3.018,0.586c-1.133,0.165-2.344,0.249-3.633,0.249
		c-2.325,0-4.361-0.293-6.108-0.879c-1.748-0.586-3.208-1.475-4.38-2.666s-2.046-2.695-2.622-4.512
		c-0.576-1.816-0.864-3.945-0.864-6.387c0-2.324,0.303-4.419,0.908-6.284c0.605-1.864,1.484-3.446,2.637-4.746
		c1.152-1.299,2.553-2.29,4.204-2.974c1.65-0.684,3.511-1.025,5.581-1.025c2.187,0,4.058,0.322,5.61,0.967s2.827,1.538,3.823,2.681
		s1.729,2.495,2.197,4.058s0.703,3.262,0.703,5.098V110.979z M84.644,108.869c0.059-2.07-0.356-3.695-1.245-4.878
		c-0.889-1.182-2.261-1.772-4.116-1.772c-0.938,0-1.753,0.176-2.446,0.527c-0.693,0.352-1.27,0.825-1.729,1.421
		c-0.459,0.597-0.811,1.3-1.055,2.109c-0.245,0.811-0.386,1.675-0.425,2.593H84.644z"/>
	<path fill="#1F1F1F" d="M122.642,124.807c0,0.215-0.049,0.396-0.146,0.542c-0.098,0.146-0.264,0.269-0.498,0.366
		s-0.552,0.166-0.952,0.205c-0.4,0.039-0.894,0.059-1.479,0.059c-0.625,0-1.133-0.02-1.523-0.059
		c-0.391-0.039-0.708-0.107-0.952-0.205c-0.245-0.098-0.42-0.22-0.527-0.366c-0.107-0.146-0.161-0.327-0.161-0.542v-2.9
		c-1.348,1.445-2.759,2.568-4.233,3.369c-1.475,0.801-3.11,1.201-4.907,1.201c-1.992,0-3.677-0.386-5.054-1.157
		s-2.5-1.812-3.369-3.12c-0.869-1.309-1.499-2.837-1.89-4.585c-0.391-1.747-0.586-3.589-0.586-5.522c0-2.324,0.249-4.414,0.747-6.27
		s1.226-3.438,2.183-4.746c0.957-1.309,2.148-2.314,3.574-3.018c1.425-0.703,3.066-1.055,4.922-1.055
		c1.465,0,2.793,0.298,3.984,0.894c1.191,0.597,2.373,1.47,3.545,2.622v-14.15c0-0.195,0.054-0.371,0.161-0.527
		c0.107-0.156,0.303-0.288,0.586-0.396c0.283-0.106,0.659-0.19,1.128-0.249s1.064-0.088,1.787-0.088
		c0.722,0,1.318,0.029,1.787,0.088s0.839,0.143,1.113,0.249c0.273,0.107,0.469,0.239,0.586,0.396s0.176,0.332,0.176,0.527V124.807z
		 M115.318,107.346c-1.055-1.328-2.065-2.344-3.032-3.047s-1.978-1.055-3.032-1.055c-0.957,0-1.783,0.239-2.476,0.718
		c-0.693,0.479-1.25,1.118-1.67,1.919c-0.42,0.801-0.732,1.695-0.938,2.681c-0.205,0.986-0.308,1.997-0.308,3.032
		c0,1.094,0.088,2.158,0.264,3.193s0.464,1.959,0.864,2.769c0.4,0.811,0.933,1.46,1.597,1.948c0.664,0.488,1.504,0.732,2.52,0.732
		c0.508,0,1-0.073,1.479-0.22c0.479-0.146,0.967-0.386,1.465-0.718s1.011-0.766,1.538-1.304c0.527-0.537,1.103-1.196,1.729-1.978
		V107.346z"/>
	<path fill="#1F1F1F" d="M154.839,124.807c0,0.195-0.049,0.366-0.146,0.513c-0.098,0.146-0.269,0.269-0.513,0.366
		c-0.245,0.098-0.567,0.171-0.967,0.22c-0.4,0.048-0.904,0.073-1.509,0.073c-0.645,0-1.167-0.025-1.567-0.073
		c-0.4-0.049-0.718-0.122-0.952-0.22s-0.4-0.22-0.498-0.366c-0.098-0.146-0.146-0.317-0.146-0.513v-3.018
		c-1.446,1.563-2.915,2.734-4.409,3.516s-3.042,1.172-4.644,1.172c-1.797,0-3.306-0.293-4.526-0.879
		c-1.221-0.586-2.208-1.387-2.959-2.402c-0.752-1.016-1.289-2.192-1.611-3.53c-0.322-1.337-0.483-3.003-0.483-4.995V98.674
		c0-0.195,0.054-0.366,0.161-0.513c0.107-0.146,0.303-0.269,0.586-0.366c0.283-0.098,0.664-0.171,1.143-0.22
		c0.479-0.048,1.069-0.073,1.772-0.073c0.722,0,1.318,0.025,1.787,0.073c0.469,0.049,0.845,0.122,1.128,0.22
		c0.283,0.098,0.483,0.22,0.601,0.366s0.176,0.317,0.176,0.513v14.766c0,1.367,0.088,2.412,0.264,3.135s0.444,1.344,0.806,1.86
		c0.361,0.518,0.82,0.919,1.377,1.201c0.557,0.283,1.206,0.425,1.948,0.425c0.938,0,1.879-0.342,2.827-1.025
		c0.947-0.684,1.958-1.68,3.032-2.988V98.674c0-0.195,0.054-0.366,0.161-0.513c0.107-0.146,0.303-0.269,0.586-0.366
		c0.283-0.098,0.659-0.171,1.128-0.22c0.469-0.048,1.064-0.073,1.787-0.073c0.722,0,1.318,0.025,1.787,0.073
		c0.469,0.049,0.839,0.122,1.113,0.22c0.273,0.098,0.469,0.22,0.586,0.366s0.176,0.317,0.176,0.513V124.807z"/>
	<path fill="#1F1F1F" d="M175.201,111.066c0,1.133-0.107,1.924-0.322,2.373c-0.215,0.449-0.557,0.674-1.025,0.674h-12.188
		c-0.488,0-0.84-0.229-1.055-0.688c-0.215-0.458-0.322-1.245-0.322-2.358c0-1.094,0.107-1.865,0.322-2.314
		c0.215-0.449,0.566-0.674,1.055-0.674h12.188c0.234,0,0.435,0.049,0.601,0.146c0.166,0.098,0.308,0.264,0.425,0.498
		s0.2,0.547,0.249,0.938C175.176,110.051,175.201,110.52,175.201,111.066z"/>
	<path fill="#1F1F1F" d="M199.02,117.424c0,1.484-0.279,2.793-0.836,3.926s-1.343,2.08-2.357,2.842
		c-1.016,0.762-2.217,1.333-3.604,1.714c-1.388,0.381-2.891,0.571-4.512,0.571c-0.978,0-1.91-0.073-2.799-0.22
		s-1.684-0.333-2.387-0.557s-1.289-0.454-1.758-0.688s-0.811-0.454-1.026-0.659s-0.381-0.527-0.498-0.967s-0.176-1.089-0.176-1.948
		c0-0.566,0.019-1.021,0.059-1.362c0.039-0.341,0.098-0.615,0.176-0.82c0.078-0.205,0.176-0.341,0.293-0.41
		c0.117-0.068,0.264-0.103,0.44-0.103c0.215,0,0.531,0.122,0.951,0.366c0.42,0.245,0.942,0.513,1.568,0.806
		c0.625,0.293,1.352,0.566,2.182,0.82s1.773,0.381,2.828,0.381c0.663,0,1.254-0.068,1.771-0.205s0.967-0.332,1.348-0.586
		s0.67-0.576,0.865-0.967c0.194-0.391,0.293-0.84,0.293-1.348c0-0.586-0.182-1.088-0.543-1.509c-0.361-0.42-0.84-0.786-1.436-1.099
		s-1.27-0.605-2.021-0.879s-1.523-0.576-2.314-0.908s-1.563-0.713-2.314-1.143s-1.426-0.957-2.021-1.582s-1.074-1.377-1.435-2.256
		c-0.362-0.879-0.542-1.934-0.542-3.164c0-1.25,0.244-2.397,0.733-3.442c0.487-1.044,1.19-1.938,2.109-2.681
		c0.918-0.742,2.035-1.318,3.354-1.729s2.799-0.615,4.439-0.615c0.82,0,1.615,0.059,2.387,0.176s1.47,0.264,2.096,0.439
		c0.625,0.176,1.152,0.366,1.582,0.571c0.429,0.205,0.736,0.381,0.922,0.527s0.318,0.293,0.396,0.439
		c0.077,0.146,0.136,0.322,0.176,0.527c0.039,0.205,0.072,0.459,0.102,0.762c0.029,0.304,0.045,0.679,0.045,1.128
		c0,0.527-0.016,0.957-0.045,1.289s-0.078,0.596-0.146,0.791s-0.16,0.327-0.277,0.396c-0.117,0.069-0.254,0.103-0.41,0.103
		c-0.176,0-0.45-0.103-0.82-0.308c-0.371-0.205-0.836-0.425-1.393-0.659s-1.201-0.454-1.934-0.659s-1.566-0.308-2.504-0.308
		c-0.664,0-1.241,0.068-1.729,0.205c-0.488,0.137-0.89,0.332-1.201,0.586c-0.313,0.254-0.547,0.553-0.703,0.894
		c-0.157,0.342-0.234,0.708-0.234,1.099c0,0.605,0.186,1.113,0.557,1.523c0.37,0.41,0.859,0.771,1.465,1.084
		c0.604,0.313,1.293,0.605,2.064,0.879s1.553,0.571,2.344,0.894s1.572,0.698,2.344,1.128s1.461,0.957,2.066,1.582
		c0.604,0.625,1.094,1.373,1.465,2.241C198.833,115.202,199.02,116.232,199.02,117.424z"/>
	<path fill="#1F1F1F" d="M229.518,124.807c0,0.195-0.059,0.366-0.176,0.513s-0.313,0.269-0.586,0.366
		c-0.274,0.098-0.65,0.171-1.129,0.22c-0.479,0.048-1.068,0.073-1.771,0.073c-0.723,0-1.324-0.025-1.803-0.073
		c-0.479-0.049-0.854-0.122-1.127-0.22c-0.274-0.098-0.469-0.22-0.586-0.366s-0.176-0.317-0.176-0.513v-14.912
		c0-1.27-0.094-2.266-0.279-2.988s-0.453-1.343-0.805-1.86c-0.352-0.517-0.807-0.918-1.363-1.201
		c-0.557-0.282-1.205-0.425-1.947-0.425c-0.938,0-1.886,0.342-2.842,1.025c-0.957,0.684-1.953,1.68-2.988,2.988v17.373
		c0,0.195-0.059,0.366-0.176,0.513s-0.318,0.269-0.602,0.366s-0.658,0.171-1.127,0.22c-0.469,0.048-1.065,0.073-1.787,0.073
		c-0.723,0-1.318-0.025-1.787-0.073c-0.469-0.049-0.846-0.122-1.129-0.22s-0.482-0.22-0.6-0.366s-0.176-0.317-0.176-0.513V86.281
		c0-0.195,0.059-0.371,0.176-0.527s0.316-0.288,0.6-0.396c0.283-0.106,0.66-0.19,1.129-0.249s1.064-0.088,1.787-0.088
		c0.722,0,1.318,0.029,1.787,0.088s0.844,0.143,1.127,0.249c0.283,0.107,0.484,0.239,0.602,0.396s0.176,0.332,0.176,0.527v14.443
		c1.27-1.25,2.563-2.183,3.881-2.798s2.691-0.923,4.117-0.923c1.776,0,3.275,0.293,4.496,0.879s2.207,1.387,2.959,2.402
		s1.294,2.202,1.627,3.56c0.332,1.358,0.498,3.003,0.498,4.937V124.807z"/>
	<path fill="#1F1F1F" d="M259.02,124.895c0,0.273-0.099,0.488-0.293,0.645c-0.195,0.156-0.504,0.268-0.924,0.337
		c-0.42,0.068-1.039,0.103-1.859,0.103c-0.879,0-1.52-0.034-1.92-0.103c-0.4-0.069-0.684-0.181-0.85-0.337s-0.248-0.371-0.248-0.645
		v-2.08c-1.074,1.152-2.301,2.051-3.678,2.695s-2.904,0.967-4.584,0.967c-1.388,0-2.662-0.181-3.824-0.542s-2.168-0.897-3.018-1.611
		c-0.85-0.713-1.508-1.597-1.977-2.651s-0.703-2.285-0.703-3.691c0-1.523,0.297-2.846,0.893-3.97
		c0.596-1.123,1.484-2.051,2.666-2.783s2.652-1.274,4.41-1.626s3.798-0.527,6.123-0.527h2.549v-1.582c0-0.82-0.084-1.538-0.25-2.153
		s-0.439-1.128-0.82-1.538s-0.889-0.713-1.523-0.908s-1.42-0.293-2.357-0.293c-1.23,0-2.33,0.137-3.297,0.41
		s-1.82,0.576-2.563,0.908c-0.743,0.332-1.363,0.635-1.861,0.908s-0.903,0.41-1.215,0.41c-0.216,0-0.406-0.068-0.572-0.205
		s-0.303-0.332-0.41-0.586s-0.189-0.566-0.248-0.938s-0.088-0.781-0.088-1.23c0-0.605,0.048-1.084,0.146-1.436
		c0.098-0.352,0.282-0.669,0.557-0.952c0.273-0.282,0.751-0.596,1.436-0.938c0.684-0.341,1.483-0.659,2.402-0.952
		c0.918-0.293,1.918-0.531,3.002-0.718c1.084-0.186,2.202-0.278,3.355-0.278c2.051,0,3.803,0.201,5.258,0.601
		c1.455,0.4,2.652,1.016,3.59,1.846c0.938,0.831,1.621,1.899,2.051,3.208c0.429,1.309,0.645,2.861,0.645,4.658V124.895z
		 M251.783,113.703h-2.813c-1.191,0-2.208,0.088-3.047,0.264c-0.84,0.176-1.523,0.439-2.051,0.791s-0.914,0.776-1.158,1.274
		s-0.365,1.069-0.365,1.714c0,1.094,0.346,1.953,1.039,2.578s1.656,0.938,2.887,0.938c1.035,0,1.986-0.264,2.855-0.791
		s1.754-1.299,2.652-2.314V113.703z"/>
	<path fill="#1F1F1F" d="M283.16,101.105c0,0.703-0.02,1.279-0.059,1.729s-0.098,0.801-0.176,1.055s-0.182,0.43-0.309,0.527
		s-0.287,0.146-0.482,0.146c-0.156,0-0.332-0.033-0.527-0.103c-0.195-0.068-0.416-0.142-0.66-0.22s-0.512-0.15-0.805-0.22
		c-0.293-0.068-0.615-0.103-0.967-0.103c-0.41,0-0.82,0.084-1.23,0.249c-0.41,0.166-0.836,0.425-1.275,0.776
		s-0.898,0.82-1.377,1.406s-0.991,1.309-1.537,2.168v16.289c0,0.195-0.059,0.366-0.176,0.513s-0.318,0.269-0.602,0.366
		s-0.658,0.171-1.127,0.22c-0.469,0.048-1.065,0.073-1.787,0.073c-0.723,0-1.318-0.025-1.787-0.073
		c-0.469-0.049-0.846-0.122-1.129-0.22s-0.482-0.22-0.6-0.366s-0.176-0.317-0.176-0.513V98.674c0-0.195,0.048-0.366,0.146-0.513
		c0.098-0.146,0.273-0.269,0.527-0.366c0.253-0.098,0.58-0.171,0.98-0.22c0.4-0.048,0.904-0.073,1.51-0.073
		c0.625,0,1.143,0.025,1.553,0.073c0.41,0.049,0.727,0.122,0.951,0.22s0.386,0.22,0.484,0.366c0.098,0.146,0.146,0.317,0.146,0.513
		v3.252c0.684-0.977,1.328-1.782,1.934-2.417c0.604-0.634,1.182-1.138,1.729-1.509c0.546-0.371,1.094-0.63,1.641-0.776
		c0.546-0.146,1.094-0.22,1.641-0.22c0.253,0,0.527,0.015,0.82,0.044s0.596,0.078,0.908,0.146c0.313,0.069,0.586,0.146,0.82,0.234
		s0.404,0.181,0.512,0.278s0.186,0.205,0.234,0.322s0.094,0.278,0.133,0.483s0.068,0.513,0.088,0.923S283.16,100.402,283.16,101.105
		z"/>
	<path fill="#1F1F1F" d="M295.641,89.826c0,1.484-0.303,2.51-0.908,3.076s-1.729,0.85-3.369,0.85c-1.66,0-2.779-0.273-3.355-0.82
		s-0.863-1.533-0.863-2.959c0-1.484,0.297-2.515,0.893-3.091c0.596-0.575,1.725-0.864,3.385-0.864c1.641,0,2.754,0.278,3.34,0.835
		S295.641,88.4,295.641,89.826z M295.084,124.807c0,0.195-0.059,0.366-0.176,0.513s-0.318,0.269-0.602,0.366
		s-0.658,0.171-1.127,0.22c-0.469,0.048-1.064,0.073-1.787,0.073s-1.318-0.025-1.787-0.073c-0.469-0.049-0.846-0.122-1.129-0.22
		s-0.482-0.22-0.6-0.366s-0.176-0.317-0.176-0.513V98.732c0-0.195,0.059-0.366,0.176-0.513s0.316-0.273,0.6-0.381
		c0.283-0.106,0.66-0.19,1.129-0.249s1.064-0.088,1.787-0.088s1.318,0.029,1.787,0.088s0.844,0.143,1.127,0.249
		c0.283,0.107,0.484,0.234,0.602,0.381s0.176,0.317,0.176,0.513V124.807z"/>
	<path fill="#1F1F1F" d="M327.398,124.807c0,0.195-0.059,0.366-0.176,0.513s-0.313,0.269-0.586,0.366s-0.65,0.171-1.129,0.22
		c-0.479,0.048-1.068,0.073-1.771,0.073c-0.723,0-1.324-0.025-1.803-0.073c-0.479-0.049-0.854-0.122-1.127-0.22
		s-0.469-0.22-0.586-0.366s-0.176-0.317-0.176-0.513v-14.912c0-1.27-0.094-2.266-0.279-2.988s-0.453-1.343-0.805-1.86
		c-0.352-0.517-0.807-0.918-1.363-1.201c-0.557-0.282-1.205-0.425-1.947-0.425c-0.938,0-1.885,0.342-2.842,1.025
		s-1.953,1.68-2.988,2.988v17.373c0,0.195-0.059,0.366-0.176,0.513s-0.318,0.269-0.602,0.366s-0.658,0.171-1.127,0.22
		c-0.469,0.048-1.064,0.073-1.787,0.073s-1.318-0.025-1.787-0.073c-0.469-0.049-0.846-0.122-1.129-0.22s-0.482-0.22-0.6-0.366
		s-0.176-0.317-0.176-0.513V98.674c0-0.195,0.049-0.366,0.146-0.513s0.273-0.269,0.527-0.366s0.58-0.171,0.98-0.22
		c0.4-0.048,0.904-0.073,1.51-0.073c0.625,0,1.143,0.025,1.553,0.073c0.41,0.049,0.727,0.122,0.951,0.22s0.387,0.22,0.484,0.366
		s0.146,0.317,0.146,0.513v3.018c1.445-1.563,2.914-2.734,4.408-3.516s3.053-1.172,4.674-1.172c1.777,0,3.275,0.293,4.496,0.879
		s2.207,1.382,2.959,2.388c0.752,1.007,1.295,2.183,1.627,3.53s0.498,2.969,0.498,4.863V124.807z"/>
	<path fill="#1F1F1F" d="M358.189,100.49c0,0.938-0.107,1.631-0.322,2.08s-0.479,0.674-0.791,0.674H354
		c0.43,0.469,0.736,1.001,0.922,1.597c0.186,0.597,0.279,1.216,0.279,1.86c0,1.523-0.254,2.876-0.762,4.058
		c-0.508,1.183-1.236,2.179-2.184,2.988c-0.947,0.811-2.09,1.426-3.428,1.846c-1.338,0.421-2.826,0.63-4.467,0.63
		c-0.84,0-1.641-0.103-2.402-0.308s-1.348-0.444-1.758-0.718c-0.234,0.254-0.445,0.557-0.631,0.908s-0.277,0.742-0.277,1.172
		c0,0.566,0.248,1.03,0.746,1.392c0.498,0.362,1.197,0.562,2.096,0.601l6.357,0.234c1.484,0.059,2.807,0.269,3.969,0.63
		c1.162,0.362,2.139,0.869,2.93,1.523c0.791,0.655,1.396,1.44,1.816,2.358s0.631,1.963,0.631,3.135c0,1.289-0.283,2.505-0.85,3.647
		s-1.416,2.134-2.549,2.974s-2.555,1.504-4.264,1.992s-3.705,0.732-5.99,0.732c-2.227,0-4.127-0.176-5.699-0.527
		s-2.861-0.84-3.867-1.465s-1.738-1.373-2.197-2.241c-0.459-0.869-0.688-1.821-0.688-2.856c0-0.645,0.082-1.26,0.248-1.846
		s0.41-1.147,0.732-1.685s0.719-1.05,1.188-1.538s1.006-0.957,1.611-1.406c-0.84-0.449-1.49-1.059-1.949-1.831
		c-0.459-0.771-0.688-1.616-0.688-2.534c0-1.152,0.264-2.201,0.791-3.149c0.527-0.947,1.211-1.802,2.051-2.563
		c-0.684-0.684-1.23-1.504-1.641-2.461s-0.615-2.148-0.615-3.574c0-1.523,0.268-2.886,0.805-4.087s1.285-2.216,2.242-3.047
		c0.957-0.83,2.1-1.465,3.428-1.904s2.793-0.659,4.395-0.659c0.82,0,1.605,0.049,2.357,0.146s1.451,0.234,2.096,0.41h8.291
		c0.332,0,0.6,0.215,0.805,0.645S358.189,99.475,358.189,100.49z M350.455,127.531c0-0.879-0.352-1.553-1.055-2.021
		s-1.67-0.723-2.9-0.762l-5.244-0.146c-0.508,0.371-0.914,0.729-1.217,1.069s-0.547,0.669-0.732,0.981s-0.307,0.615-0.365,0.908
		s-0.088,0.596-0.088,0.908c0,0.977,0.492,1.719,1.479,2.227s2.379,0.762,4.176,0.762c1.113,0,2.051-0.113,2.813-0.337
		c0.762-0.225,1.377-0.522,1.846-0.894s0.801-0.787,0.996-1.245C350.357,128.522,350.455,128.039,350.455,127.531z M348.727,106.672
		c0-1.406-0.391-2.5-1.172-3.281s-1.885-1.172-3.311-1.172c-0.723,0-1.357,0.122-1.904,0.366c-0.547,0.245-1.002,0.576-1.363,0.996
		c-0.361,0.421-0.629,0.908-0.805,1.465s-0.264,1.138-0.264,1.743c0,1.328,0.391,2.378,1.172,3.149
		c0.781,0.772,1.865,1.157,3.252,1.157c0.742,0,1.387-0.117,1.934-0.352s1-0.557,1.361-0.967s0.635-0.883,0.82-1.421
		C348.633,107.819,348.727,107.258,348.727,106.672z"/>
</g>
</svg>
