<?xml version="1.0" encoding="UTF-8"?>
<svg width="27px" height="22px" viewBox="0 0 27 22" version="1.1" xmlns="http://www.w3.org/2000/svg" xmlns:xlink="http://www.w3.org/1999/xlink">
    <!-- Generator: Sketch 48.2 (47327) - http://www.bohemiancoding.com/sketch -->
    <title>„</title>
    <desc>Created with Sketch.</desc>
    <defs></defs>
    <g id="Profil" stroke="none" stroke-width="1" fill="none" fill-rule="evenodd" transform="translate(-54.000000, -463.000000)">
        <g id="Group-5" transform="translate(54.000000, 463.000000)" fill="#383838">
            <path d="M15.3692308,5.04307692 C15.3692308,3.66665978 15.8580553,2.48205625 16.8357191,1.48923077 C17.8133828,0.496405292 19.0551095,0 20.5609365,0 C22.4038888,0 23.9377865,0.823581508 25.1626756,2.47076923 C26.3875647,4.11795695 27,6.00204068 27,8.12307692 C27,11.169246 25.9155961,14.2435742 23.7467559,17.3461538 C21.5779156,20.4487335 20.0889673,22 19.2798662,22 C19.0551159,22 18.5943848,21.7405154 17.8976589,21.2215385 L17.5605351,20.9846154 C16.9761844,20.6235879 16.6840134,20.3189756 16.6840134,20.0707692 C16.6840134,19.9353839 16.9874217,19.4276967 17.5942475,18.5476923 C19.2798746,16.1558855 20.1226756,14.2605198 20.1226756,12.8615385 C20.1226756,11.8010203 19.5889017,10.8984653 18.5213378,10.1538462 C17.4537739,9.40922705 16.661541,8.61385038 16.1446154,7.76769231 C15.6276897,6.92153423 15.3692308,6.01333818 15.3692308,5.04307692 Z M0,5.04307692 C0,3.66665978 0.488824543,2.48205625 1.46648829,1.48923077 C2.44415205,0.496405292 3.68587876,0 5.19170569,0 C7.03465804,0 8.56855575,0.823581508 9.79344482,2.47076923 C11.0183339,4.11795695 11.6307692,6.00204068 11.6307692,8.12307692 C11.6307692,10.221549 11.0464272,12.4553728 9.87772575,14.8246154 C8.70902426,17.193858 7.50662825,18.9820452 6.27050167,20.1892308 C5.03437509,21.3964163 4.24776088,22 3.91063545,22 C3.68588516,22 3.22515399,21.7405154 2.52842809,21.2215385 L2.19130435,20.9846154 C1.6069536,20.6235879 1.31478261,20.3189756 1.31478261,20.0707692 C1.31478261,19.9353839 1.61819095,19.4276967 2.22501672,18.5476923 C3.91064388,16.1558855 4.75344482,14.2605198 4.75344482,12.8615385 C4.75344482,11.8010203 4.21967089,10.8984653 3.15210702,10.1538462 C2.08454316,9.40922705 1.29231028,8.61385038 0.775384615,7.76769231 C0.258458954,6.92153423 0,6.01333818 0,5.04307692 Z" id="„"></path>
        </g>
    </g>
</svg>