<svg id="d2eebba8-5c51-4fb1-beb2-47a8a2df7eba" data-name="Ebene 1" xmlns="http://www.w3.org/2000/svg" xmlns:xlink="http://www.w3.org/1999/xlink" width="3.06cm" height="0.88cm" viewBox="0 0 86.85 25">
  <defs>
    <style>
      .c4d1a99c-8750-4fd4-bd96-101bcdcc693a {
        fill: none;
      }

      .d8412777-892b-4650-8e8d-1fa9ae3c5537 {
        clip-path: url(#11837fec-26c2-4aee-93de-d20ad87307cc);
      }
    </style>
    <clipPath id="11837fec-26c2-4aee-93de-d20ad87307cc">
      <rect class="c4d1a99c-8750-4fd4-bd96-101bcdcc693a" x="62.04" y="0.16" width="24.82" height="24.82"/>
    </clipPath>
  </defs>
  <title>CC-Lizenz-Icons</title>
  <path d="M43.34,0a12.06,12.06,0,0,1,8.87,3.61,12.07,12.07,0,0,1,3.63,8.87,11.77,11.77,0,0,1-3.57,8.76A12.34,12.34,0,0,1,43.34,25a12.09,12.09,0,0,1-8.78-3.68,12,12,0,0,1-3.68-8.81,12.24,12.24,0,0,1,3.68-8.87A12,12,0,0,1,43.34,0Zm0,2.25a9.72,9.72,0,0,0-7.2,3,10,10,0,0,0-3.05,7.25,9.81,9.81,0,0,0,3,7.18,9.86,9.86,0,0,0,7.22,3,10,10,0,0,0,7.27-3.05A9.51,9.51,0,0,0,53.6,12.5a9.87,9.87,0,0,0-3-7.25,9.84,9.84,0,0,0-7.22-3ZM46.73,9.4V14.5H45.3v6.06H41.42V14.5H40V9.4a.8.8,0,0,1,.8-.8h5.13a.79.79,0,0,1,.56.23.76.76,0,0,1,.25.57ZM41.63,6.19a1.74,1.74,0,1,1,3.48,0,1.54,1.54,0,0,1-1.74,1.74,1.54,1.54,0,0,1-1.74-1.74Z"/>
  <path d="M12.46,0a12.18,12.18,0,0,1,8.92,3.66,12,12,0,0,1,2.68,4A12.71,12.71,0,0,1,25,12.5a12.73,12.73,0,0,1-.9,4.8,11.45,11.45,0,0,1-2.66,4A12.83,12.83,0,0,1,17.26,24a12.43,12.43,0,0,1-4.79,1A12.14,12.14,0,0,1,7.73,24a12.55,12.55,0,0,1-4.06-2.74,12.44,12.44,0,0,1-2.73-4,12.47,12.47,0,0,1,0-9.51A12.53,12.53,0,0,1,3.7,3.65,11.8,11.8,0,0,1,12.46,0Zm0,2.25a9.67,9.67,0,0,0-7.2,3A10.74,10.74,0,0,0,3,8.61a9.9,9.9,0,0,0,0,7.76,10.57,10.57,0,0,0,5.59,5.55,10.13,10.13,0,0,0,7.77,0,10.77,10.77,0,0,0,3.4-2.25,9.59,9.59,0,0,0,2.92-7.16A10.25,10.25,0,0,0,22,8.57a10,10,0,0,0-2.21-3.3,9.88,9.88,0,0,0-7.25-3Zm-.16,8.16-1.67.87a1.71,1.71,0,0,0-.66-.78,1.48,1.48,0,0,0-.72-.22q-1.67,0-1.67,2.21A2.74,2.74,0,0,0,8,14.1a1.43,1.43,0,0,0,1.25.6,1.56,1.56,0,0,0,1.54-1.07l1.54.78a3.68,3.68,0,0,1-3.28,2,3.65,3.65,0,0,1-2.7-1,3.86,3.86,0,0,1-1-2.85,3.85,3.85,0,0,1,1-2.83A3.53,3.53,0,0,1,9,8.62a3.5,3.5,0,0,1,3.32,1.81Zm7.2,0-1.65.87a1.71,1.71,0,0,0-.66-.78,1.51,1.51,0,0,0-.75-.22q-1.67,0-1.67,2.21a2.74,2.74,0,0,0,.42,1.61,1.43,1.43,0,0,0,1.25.6A1.56,1.56,0,0,0,18,13.63l1.56.78a3.83,3.83,0,0,1-1.38,1.44,3.6,3.6,0,0,1-1.9.52,3.64,3.64,0,0,1-2.71-1,3.88,3.88,0,0,1-1-2.85,3.85,3.85,0,0,1,1-2.83,3.53,3.53,0,0,1,2.62-1,3.45,3.45,0,0,1,3.3,1.81Z"/>
  <g class="d8412777-892b-4650-8e8d-1fa9ae3c5537">
    <path d="M74.47,2.6a9.44,9.44,0,0,0-7,2.94A11.64,11.64,0,0,0,66.1,7.17l4.65,2.09A2.86,2.86,0,0,1,71.9,7.72a3.84,3.84,0,0,1,2-.64V5.21h1.41V7.08a5.38,5.38,0,0,1,3,1.13L76.75,9.84a3.6,3.6,0,0,0-2.09-.72,2.28,2.28,0,0,0-1,.22.76.76,0,0,0-.45.74.52.52,0,0,0,.11.3l1.54.7,1.07.48,2,.87,6.24,2.78a11.26,11.26,0,0,0,.3-2.61,9.53,9.53,0,0,0-2.91-7.07,9.52,9.52,0,0,0-7-2.94M65,9.32a9.58,9.58,0,0,0-.54,3.28,9.57,9.57,0,0,0,3,7,9.92,9.92,0,0,0,14.13,0,8.94,8.94,0,0,0,1.67-2.13l-4.59-2a3.14,3.14,0,0,1-1.16,1.88,4,4,0,0,1-2.19.84V20H73.88V18.11a5.65,5.65,0,0,1-3.7-1.46L71.86,15a3.89,3.89,0,0,0,2.72,1.11,2,2,0,0,0,1.08-.28,1,1,0,0,0,.45-.94.93.93,0,0,0-.33-.74l-1.17-.5L73.16,13l-1.93-.85ZM74.42.43A11.77,11.77,0,0,1,83.08,4a11.73,11.73,0,0,1,3.54,8.65,11.48,11.48,0,0,1-3.48,8.55,12,12,0,0,1-8.72,3.63,11.7,11.7,0,0,1-8.57-3.61,11.69,11.69,0,0,1-3.59-8.57A11.94,11.94,0,0,1,65.86,4,11.66,11.66,0,0,1,74.42.43Z"/>
  </g>
</svg>
