<svg id="e9d1a3f8-bacb-4cdf-8be4-c2f7fbae6840" data-name="Ebene 1" xmlns="http://www.w3.org/2000/svg" width="4.87cm" height="0.88cm" viewBox="0 0 137.92 25">
  <defs>
    <style>
      .\32 7308f27-ae6b-43cd-b894-ce91f564c1d1 {
        fill: #12100b;
      }

      .\38 c49aa97-d088-4c30-b514-c7a07533e6eb {
        fill: #1d1d1b;
      }
    </style>
  </defs>
  <title>CC-Lizenz-Icons</title>
  <g>
    <polygon class="27308f27-ae6b-43cd-b894-ce91f564c1d1" points="125.74 15.23 127.13 13.84 123.43 13.84 125.74 15.23"/>
    <polygon class="27308f27-ae6b-43cd-b894-ce91f564c1d1" points="122.78 13.45 122.78 5.27 117.69 5.27 117.69 10.39 122.78 13.45"/>
    <polygon class="27308f27-ae6b-43cd-b894-ce91f564c1d1" points="116.67 13.84 113.35 13.84 120.24 20.73 123.2 17.77 116.67 13.84"/>
    <rect x="117.96" y="1.22" width="3" height="22.56" transform="translate(47.21 108.45) rotate(-58.99)"/>
  </g>
  <g>
    <path class="8c49aa97-d088-4c30-b514-c7a07533e6eb" d="M90.66,12.06h2.9V10.64h-5a3.29,3.29,0,0,1,.64-1.3,3,3,0,0,1,2.45-1.08,5.89,5.89,0,0,1,2.21.48l.56-2.27a7.55,7.55,0,0,0-3-.6,6,6,0,0,0-4.6,2A6.15,6.15,0,0,0,86,9.25Z"/>
    <polygon class="8c49aa97-d088-4c30-b514-c7a07533e6eb" points="92.22 12.99 93.56 13.8 93.56 12.99 92.22 12.99"/>
    <rect x="87.95" y="1.29" width="3" height="22.56" transform="translate(32.6 82.77) rotate(-58.99)"/>
    <path class="8c49aa97-d088-4c30-b514-c7a07533e6eb" d="M91.34,16.78a3.15,3.15,0,0,1-2.13-1,2.3,2.3,0,0,1-.31-.49L85,13h-.89v1.42h1.29A5.61,5.61,0,0,0,86.56,17a6,6,0,0,0,4.86,2.27,6.74,6.74,0,0,0,2.94-.68Z"/>
  </g>
  <g>
    <path id="0d5ea91f-be7d-4130-a1a0-af6789760cd1" data-name="Fill-12" d="M14.28,15.22,12.69,12.5l1.59-2.72h3.17L19,12.5l-1.59,2.72H14.28"/>
    <path id="2c06f359-a9b4-49e6-a8f9-8be180667556" data-name="Fill-13" d="M8.71,12,7.12,9.26,8.71,6.54h3.17l1.59,2.72L11.88,12H8.71"/>
    <path id="cc99b53c-1775-4a67-817b-abe40296ef7b" data-name="Fill-14" d="M8.71,18.46,7.12,15.74,8.71,13h3.17l1.59,2.72-1.59,2.72H8.71"/>
  </g>
  <g>
    <rect x="29.77" y="13.57" width="9.08" height="2.14"/>
    <rect x="29.77" y="9.55" width="9.08" height="2.14"/>
  </g>
  <g>
    <path class="27308f27-ae6b-43cd-b894-ce91f564c1d1" d="M63.67,15.36l2.94-2.94L59.72,5.53V9.89a8.15,8.15,0,0,0-3.41,1Z"/>
    <path class="27308f27-ae6b-43cd-b894-ce91f564c1d1" d="M53.69,13.61a10.15,10.15,0,0,0-1.13,5,7.1,7.1,0,0,1,4.12-3.22Z"/>
    <rect x="57.38" y="2.14" width="3" height="22.56" transform="translate(17.05 56.97) rotate(-58.99)"/>
    <polygon class="27308f27-ae6b-43cd-b894-ce91f564c1d1" points="59.72 17.23 59.72 19.31 61.02 18.01 59.72 17.23"/>
  </g>
</svg>
