<svg xmlns="http://www.w3.org/2000/svg" width="8.8mm" height="8.8mm" viewBox="0 0 24.94 24.94">
  <title>Element 2</title>
  <g id="5b3ad794-7acb-4a7d-a853-4b3ad6758ac5" data-name="Ebene 2">
    <g id="4037ea3e-3e90-45f2-b96c-c4aedea70cc4" data-name="Ebene 1">
      <path d="M24,7.67a12,12,0,0,0-2.67-4A12.17,12.17,0,0,0,12.45,0,11.78,11.78,0,0,0,3.7,3.63,12.51,12.51,0,0,0,.95,7.71a12.45,12.45,0,0,0,0,9.5,12.42,12.42,0,0,0,2.73,4A12.53,12.53,0,0,0,7.71,24a12.12,12.12,0,0,0,4.73.95,12.41,12.41,0,0,0,4.79-1,12.81,12.81,0,0,0,4.14-2.76,11.44,11.44,0,0,0,2.66-4,12.72,12.72,0,0,0,.9-4.8A12.69,12.69,0,0,0,24,7.67ZM12.49,2.25a9.86,9.86,0,0,1,7.24,3,10,10,0,0,1,2.2,3.3,10.24,10.24,0,0,1,.76,3.92,10.92,10.92,0,0,1-.31,2.6L10.74,9.88a3,3,0,0,1,2.44-1.1,2.64,2.64,0,0,1,1.59.63l2-2a5.91,5.91,0,0,0-4-1.42A5.89,5.89,0,0,0,8.36,7.74a5.6,5.6,0,0,0-.64.8L4,6.87A11.08,11.08,0,0,1,5.3,5.23,9.66,9.66,0,0,1,12.49,2.25Zm7.28,17.37a10.76,10.76,0,0,1-3.4,2.25,10.11,10.11,0,0,1-7.76,0A10.56,10.56,0,0,1,3,16.33a9.8,9.8,0,0,1-.2-7.21l3.94,1.75a8.51,8.51,0,0,0-.16,1.6,6.44,6.44,0,0,0,1.71,4.76,6.09,6.09,0,0,0,4.5,1.71,5.09,5.09,0,0,0,3.2-.87,2.75,2.75,0,0,0,.71-.64L15,15.28a2.29,2.29,0,0,1-1.8.88A2.9,2.9,0,0,1,10.82,15,4.22,4.22,0,0,1,10,12.47c0-.06,0-.12,0-.18l11.5,5.12A9.68,9.68,0,0,1,19.77,19.62Z"/>
    </g>
  </g>
</svg>
