<svg id="877c8b4f-a7c2-4813-8005-646c014bfd9d" data-name="Ebene 1" xmlns="http://www.w3.org/2000/svg" width="1.75cm" height="0.88cm" viewBox="0 0 49.68 25">
  <defs>
    <style>
      .dff06212-b543-49c5-b52a-da2a25549ddb {
        fill: #010101;
      }

      .c7f68a45-2518-4f6f-9688-44af669a72e0 {
        fill: #1d1d1b;
      }
    </style>
  </defs>
  <title>CC-Lizenz-Icons</title>
  <path class="dff06212-b543-49c5-b52a-da2a25549ddb" d="M23,7.46c-2-.29-4.11-.5-6.32-.61l3.69-3.7L18.94,1.72l-5,5H12.48L6.75,1,5.31,2.43,9.66,6.79A69.46,69.46,0,0,0,2,7.46a31.82,31.82,0,0,0-1,7.89,31.8,31.8,0,0,0,1,7.88A73.34,73.34,0,0,0,12.48,24,73.48,73.48,0,0,0,23,23.23a31.8,31.8,0,0,0,1-7.88A31.82,31.82,0,0,0,23,7.46ZM20.37,20.6a62.39,62.39,0,0,1-7.89.48A62.35,62.35,0,0,1,4.6,20.6a18.76,18.76,0,0,1-.72-5.25,18.84,18.84,0,0,1,.72-5.26,62.35,62.35,0,0,1,7.88-.48,62.39,62.39,0,0,1,7.89.48,19.21,19.21,0,0,1,.72,5.26A19.14,19.14,0,0,1,20.37,20.6Z"/>
  <g>
    <path class="c7f68a45-2518-4f6f-9688-44af669a72e0" d="M28.56,19a8.15,8.15,0,0,0,3.5.87c1.45,0,2.21-.6,2.21-1.51s-.66-1.37-2.33-2c-2.32-.81-3.83-2.09-3.83-4.12,0-2.38,2-4.2,5.27-4.2a8.37,8.37,0,0,1,3.56.71l-.7,2.54a6.62,6.62,0,0,0-2.92-.66c-1.36,0-2,.62-2,1.34,0,.89.79,1.29,2.59,2,2.46.91,3.62,2.19,3.62,4.16,0,2.34-1.8,4.32-5.63,4.32a9.22,9.22,0,0,1-3.95-.84Z"/>
    <path class="c7f68a45-2518-4f6f-9688-44af669a72e0" d="M39.63,8.28h8.53v2.59H42.8v3.18h5v2.57h-5v5.61H39.63Z"/>
  </g>
</svg>
