<?xml version="1.0" encoding="UTF-8" standalone="no"?><!DOCTYPE svg PUBLIC "-//W3C//DTD SVG 1.1//EN" "http://www.w3.org/Graphics/SVG/1.1/DTD/svg11.dtd"><svg width="100%" height="100%" viewBox="0 0 69 33" version="1.1" xmlns="http://www.w3.org/2000/svg" xmlns:xlink="http://www.w3.org/1999/xlink" xml:space="preserve" xmlns:serif="http://www.serif.com/" style="fill-rule:evenodd;clip-rule:evenodd;stroke-linejoin:round;stroke-miterlimit:1.41421;"><path d="M16.53,0c4.409,-0.074 8.661,1.67 11.748,4.821c1.513,1.502 2.709,3.294 3.517,5.268c0.824,2.023 1.243,4.189 1.238,6.374c0.017,2.17 -0.389,4.323 -1.199,6.336c-0.781,1.984 -1.976,3.779 -3.503,5.268c-1.581,1.53 -3.448,2.734 -5.492,3.543c-1.995,0.854 -4.14,1.303 -6.309,1.317c-2.149,-0.017 -4.271,-0.464 -6.243,-1.317c-1.996,-0.828 -3.812,-2.035 -5.348,-3.556c-1.54,-1.522 -2.762,-3.336 -3.595,-5.334c-0.829,-1.981 -1.25,-4.109 -1.238,-6.257c0.005,-4.377 1.76,-8.576 4.873,-11.656c3.004,-3.149 7.199,-4.895 11.551,-4.807Zm0,2.963c-3.573,-0.07 -7.017,1.365 -9.484,3.951c-1.264,1.275 -2.278,2.777 -2.99,4.426c-1.386,3.264 -1.386,6.957 0,10.221c0.703,1.638 1.719,3.123 2.99,4.373c1.249,1.258 2.737,2.257 4.373,2.937c1.619,0.679 3.357,1.023 5.111,1.014c1.759,0.002 3.501,-0.346 5.123,-1.027c1.669,-0.693 3.189,-1.699 4.478,-2.964c2.553,-2.461 3.954,-5.887 3.859,-9.431c0.033,-1.767 -0.275,-3.524 -0.908,-5.176c-0.673,-1.627 -1.662,-3.104 -2.912,-4.346c-2.502,-2.573 -5.958,-4.004 -9.549,-3.951l-0.091,-0.027Zm7.823,8.891l-3.753,1.949c-0.297,-0.723 -0.813,-1.336 -1.476,-1.751c-0.487,-0.304 -1.045,-0.477 -1.619,-0.501c-2.503,0 -3.755,1.65 -3.755,4.952c-0.063,1.268 0.268,2.525 0.95,3.595c0.642,0.894 1.706,1.393 2.805,1.318c1.549,0.051 2.958,-0.927 3.45,-2.397l3.45,1.751c-0.704,1.331 -1.762,2.442 -3.055,3.214c-1.291,0.79 -2.779,1.2 -4.293,1.186c-2.251,0.099 -4.444,-0.735 -6.059,-2.305c-1.605,-1.732 -2.433,-4.046 -2.291,-6.402c-0.12,-2.342 0.716,-4.634 2.318,-6.348c1.543,-1.569 3.673,-2.425 5.874,-2.357c3.065,-0.202 5.982,1.4 7.454,4.096Z" style="fill-rule:nonzero;"/><path d="M41.289,17.773l0,5.803l10.157,5.542l10.156,-5.542l0,-5.803l-10.156,5.542l-10.157,-5.542Zm10.157,-14.77l-15.96,8.705l15.96,8.705l13.057,-7.124l0,10.026l2.902,0l0,-11.607l-15.959,-8.705Z" style="fill-rule:nonzero;"/></svg>