<svg id="Ebene_1" data-name="Ebene 1" xmlns="http://www.w3.org/2000/svg" viewBox="0 0 250 138.54"><title>_ksnapshot-all</title><rect width="250" height="138.54" style="fill:#4d868e"/><circle cx="125" cy="69.27" r="30.88" style="fill:#fff"/><path d="M137.61,59.2L133,54.6a7.17,7.17,0,0,0-4.4-1.82H113.15a2.58,2.58,0,0,0-2.58,2.58V83.19a2.59,2.59,0,0,0,2.58,2.58h23.71a2.58,2.58,0,0,0,2.58-2.58V63.6A7.17,7.17,0,0,0,137.61,59.2Zm-1.46,1.46a2.81,2.81,0,0,1,.3.36h-5.27V55.76a2.68,2.68,0,0,1,.36.3Zm1.22,22.53a0.52,0.52,0,0,1-.52.52H113.15a0.52,0.52,0,0,1-.52-0.52V55.36a0.53,0.53,0,0,1,.52-0.52h15.46a2.77,2.77,0,0,1,.52.06v8.19h8.19a2.75,2.75,0,0,1,.06.52V83.19Z" style="fill:#4d868e"/><path d="M116.75,69.27h16.49v2.06H116.75V69.27Z" style="fill:#4d868e"/><path d="M116.75,77.52h16.49v2.06H116.75V77.52Z" style="fill:#4d868e"/><path d="M116.75,73.39h14.4v2.06h-14.4V73.39Z" style="fill:#4d868e"/><path d="M116.75,65.15H125v2.06h-8.25V65.15Z" style="fill:#4d868e"/></svg>