<?xml version="1.0" encoding="utf-8"?>
<!-- Generator: Adobe Illustrator 21.0.0, SVG Export Plug-In . SVG Version: 6.00 Build 0)  -->
<svg version="1.1" id="Ebene_1" xmlns="http://www.w3.org/2000/svg" xmlns:xlink="http://www.w3.org/1999/xlink" x="0px" y="0px"
	 viewBox="0 0 200 150" style="enable-background:new 0 0 200 150;" xml:space="preserve">
<style type="text/css">
	.st0{fill:#719CB7;}
	.st1{fill:#FFFFFF;}
</style>
<title>_ksnapshot-all</title>
<rect y="0" class="st0" width="200" height="150"/>
<circle class="st1" cx="100" cy="75" r="30.9"/>
<path class="st0" d="M87.2,63.5v22.9h28.2V63.5H87.2z M113.6,84.6H88.9V65.2h24.7L113.6,84.6L113.6,84.6z M106.6,69.6
	c0-1.5,1.2-2.6,2.6-2.6s2.6,1.2,2.6,2.6c0,1.5-1.2,2.6-2.6,2.6l0,0C107.7,72.3,106.6,71.1,106.6,69.6L106.6,69.6z M111.8,82.8H90.7
	L96,68.7l7,8.8l3.5-2.6L111.8,82.8z"/>
</svg>
