<?xml version="1.0" encoding="utf-8"?>
<!-- Generator: Adobe Illustrator 21.0.0, SVG Export Plug-In . SVG Version: 6.00 Build 0)  -->
<svg version="1.1" id="Ebene_1" xmlns="http://www.w3.org/2000/svg" xmlns:xlink="http://www.w3.org/1999/xlink" x="0px" y="0px"
	 viewBox="0 0 200 150" style="enable-background:new 0 0 200 150;" xml:space="preserve">
<style type="text/css">
	.st0{fill:#2B5DA0;}
	.st1{fill:#FFFFFF;}
</style>
<title>_ksnapshot-all</title>
<rect y="0" class="st0" width="200" height="150"/>
<circle class="st1" cx="100" cy="75" r="30.9"/>
<path class="st0" d="M105.6,73.7c-1.9-1-4.3-1-6.1,0.2c2.2-0.4,4.5,0.3,6.1,1.8c1.5-1.7,3.9-2.1,6.1-1.9
	C109.8,72.7,107.5,72.7,105.6,73.7L105.6,73.7L105.6,73.7z M104.8,77.9c-2.1,0-4.2,0.7-6,1.9c-3.5-1.5-7.5-1.1-10.5,1.2
	c0.8,0,1.6-0.2,2.5-0.3c3-0.4,6.1,0.5,8.4,2.5c0.9-1.4,2.3-2.5,3.8-3.1c2-0.8,4.2-1.2,6.4-1.1C108,78.2,106.4,77.8,104.8,77.9
	L104.8,77.9L104.8,77.9z M112.3,65.2l-4.5-4.5c-1.2-1.1-2.7-1.7-4.3-1.8H88.4c-1.4,0-2.5,1.1-2.5,2.5v27.2c0,1.4,1.1,2.5,2.5,2.5
	h23.2c1.4,0,2.5-1.1,2.5-2.5V69.5C114,67.9,113.4,66.3,112.3,65.2z M110.9,66.6c0.1,0.1,0.2,0.2,0.3,0.4H106v-5.1
	c0.1,0.1,0.2,0.2,0.4,0.3L110.9,66.6z M112.1,88.6c0,0.3-0.2,0.5-0.5,0.5H88.4c-0.3,0-0.5-0.2-0.5-0.5V61.4c0-0.3,0.2-0.5,0.5-0.5
	h15.1c0.2,0,0.3,0,0.5,0.1v8h8c0,0.2,0,0.3,0.1,0.5L112.1,88.6L112.1,88.6L112.1,88.6z"/>
</svg>
