<?xml version="1.0" encoding="utf-8"?>
<!-- Generator: Adobe Illustrator 21.0.0, SVG Export Plug-In . SVG Version: 6.00 Build 0)  -->
<svg version="1.1" id="Ebene_1" xmlns="http://www.w3.org/2000/svg" xmlns:xlink="http://www.w3.org/1999/xlink" x="0px" y="0px"
	 viewBox="0 0 200 150" style="enable-background:new 0 0 200 150;" xml:space="preserve">
<style type="text/css">
	.st0{fill:#DDD270;}
	.st1{fill:#FFFFFF;}
</style>
<title>_ksnapshot-all</title>
<rect y="0" class="st0" width="200" height="150"/>
<circle class="st1" cx="100" cy="75" r="30.9"/>
<path class="st0" d="M112.1,62.8v26.3H90.9c-1.7,0-3-1.4-3-3s1.4-3,3-3h19.2V58.8H89.9c-2.2,0-4,1.8-4.1,4v24.3c0,2.2,1.8,4,4.1,4.1
	h24.3V62.8H112.1L112.1,62.8z M91.9,85.1h18.2v2H91.9V85.1z"/>
<path class="st1" d="M94.9,58.8h2.8v1.9h-2.8V58.8z M92.1,60.7h2.8v1.9h-2.8V60.7z M94.9,62.5h2.8v1.9h-2.8
	C94.9,64.4,94.9,62.5,94.9,62.5z M92.1,64.4h2.8v1.9h-2.8C92.1,66.3,92.1,64.4,92.1,64.4z M94.9,66.3h2.8v1.9h-2.8
	C94.9,68.1,94.9,66.3,94.9,66.3z M92.1,68.1h2.8V70h-2.8C92.1,70,92.1,68.1,92.1,68.1z M94.9,70v1.9h-2.8v6.6c0,0.5,0.4,0.9,0.9,0.9
	c0,0,0,0,0,0h3.7c0.5,0,0.9-0.4,0.9-0.9c0,0,0,0,0,0V70C97.7,70,94.9,70,94.9,70z M96.8,77.5H93v-1.9h3.7L96.8,77.5L96.8,77.5z"/>
</svg>
