<?xml version="1.0" encoding="UTF-8" standalone="no"?>
<!DOCTYPE svg PUBLIC "-//W3C//DTD SVG 1.1//EN" "http://www.w3.org/Graphics/SVG/1.1/DTD/svg11.dtd">
<svg width="100%" height="100%" viewBox="0 0 200 150" version="1.1" xmlns="http://www.w3.org/2000/svg" xmlns:xlink="http://www.w3.org/1999/xlink" xml:space="preserve" xmlns:serif="http://www.serif.com/" style="fill-rule:evenodd;clip-rule:evenodd;stroke-linejoin:round;stroke-miterlimit:2;">
    <rect x="0" y="0" width="200" height="150" style="fill:rgb(111,111,111);"/>
    <circle cx="100.1" cy="75" r="30.9" style="fill:white;"/>
    <path d="M85.6,67.5L114.6,67.5L112.8,85.6L87.4,85.6L85.6,67.5ZM111.9,63.9L112.8,65.7L87.4,65.7L89.2,62.1L99.2,62.1L100.1,63.9L111.9,63.9Z" style="fill:rgb(111,111,111);fill-rule:nonzero;"/>
    <g transform="matrix(0.994221,0,0,0.994221,92.0399,68.6388)">
        <path d="M14.9,1.2C13.4,-0.4 11,-0.4 9.5,1.1L6.1,4.5C4.6,6 4.6,8.4 6.1,9.9L6.2,10C6.3,10.1 6.5,10.2 6.6,10.3L7.8,9C7.6,8.9 7.5,8.8 7.4,8.7L7.3,8.6C6.5,7.8 6.5,6.5 7.3,5.7L10.7,2.3C11.5,1.5 12.8,1.5 13.6,2.3L13.7,2.4C14.5,3.2 14.5,4.5 13.7,5.3L12.2,6.8C12.5,7.5 12.6,8.2 12.6,8.9L15,6.5C16.4,5 16.4,2.6 14.9,1.2ZM9.9,6.1C9.7,6 9.6,5.8 9.5,5.7L8.2,7C8.3,7.1 8.5,7.2 8.6,7.3L8.7,7.4C9.5,8.2 9.5,9.5 8.7,10.3L5.3,13.7C4.5,14.5 3.2,14.5 2.4,13.7L2.3,13.6C1.5,12.8 1.5,11.5 2.3,10.7L3.8,9.2C3.6,8.5 3.5,7.8 3.5,7.1L1.1,9.5C-0.4,11 -0.4,13.4 1.1,14.8L1.2,14.9C2.7,16.4 5.1,16.4 6.5,14.9L9.9,11.5C11.4,10 11.4,7.6 9.9,6.1Z" style="fill:white;fill-rule:nonzero;"/>
    </g>
</svg>
