<?xml version="1.0" encoding="utf-8"?>
<!-- Generator: Adobe Illustrator 22.1.0, SVG Export Plug-In . SVG Version: 6.00 Build 0)  -->
<svg version="1.1" id="Ebene_1" xmlns="http://www.w3.org/2000/svg" xmlns:xlink="http://www.w3.org/1999/xlink" x="0px" y="0px"
	 viewBox="0 0 200 150" style="enable-background:new 0 0 200 150;" xml:space="preserve">
<style type="text/css">
	.st0{enable-background:new    ;}
	.st1{fill:#5E5E5E;}
	.st2{fill:#A3A3A3;}
</style>
<g class="st0">
	<path class="st1" d="M36.3,124.4h-1.1l-4.7-7.2h0c0.1,0.8,0.1,1.6,0.1,2.3v4.9h-0.9v-8.6h1.1l4.7,7.2h0c0-0.1,0-0.4-0.1-1
		s0-1,0-1.2v-4.9h0.9V124.4z"/>
	<path class="st1" d="M44.1,121.2c0,1-0.3,1.9-0.8,2.5s-1.3,0.9-2.2,0.9c-0.6,0-1.1-0.1-1.5-0.4s-0.8-0.7-1-1.2s-0.4-1.1-0.4-1.8
		c0-1,0.3-1.9,0.8-2.4s1.2-0.9,2.2-0.9c0.9,0,1.6,0.3,2.1,0.9S44.1,120.2,44.1,121.2z M39.2,121.2c0,0.8,0.2,1.4,0.5,1.9
		s0.8,0.6,1.4,0.6s1.1-0.2,1.5-0.6s0.5-1.1,0.5-1.9c0-0.8-0.2-1.4-0.5-1.9s-0.8-0.6-1.5-0.6c-0.6,0-1.1,0.2-1.4,0.6
		S39.2,120.4,39.2,121.2z"/>
	<path class="st1" d="M53,122.7c0,0.6-0.2,1.1-0.7,1.4s-1.1,0.5-1.9,0.5c-0.9,0-1.5-0.1-2-0.4v-0.9c0.3,0.2,0.6,0.3,1,0.4
		s0.7,0.1,1,0.1c0.5,0,0.9-0.1,1.2-0.2s0.4-0.4,0.4-0.7c0-0.2-0.1-0.5-0.3-0.6s-0.6-0.4-1.3-0.6c-0.6-0.2-1-0.4-1.3-0.6
		s-0.4-0.4-0.6-0.6s-0.2-0.5-0.2-0.8c0-0.5,0.2-0.9,0.6-1.2s1-0.5,1.8-0.5c0.7,0,1.4,0.1,2,0.4l-0.3,0.8c-0.6-0.3-1.2-0.4-1.8-0.4
		c-0.5,0-0.8,0.1-1,0.2s-0.4,0.3-0.4,0.6c0,0.2,0,0.3,0.1,0.4s0.2,0.2,0.4,0.3s0.6,0.3,1.1,0.5c0.8,0.3,1.3,0.6,1.5,0.8
		S53,122.2,53,122.7z"/>
	<path class="st1" d="M55.5,118v4.2c0,0.5,0.1,0.9,0.4,1.2s0.6,0.4,1.1,0.4c0.7,0,1.2-0.2,1.5-0.6s0.5-1,0.5-1.8V118h1v6.4h-0.8
		l-0.1-0.9h-0.1c-0.2,0.3-0.5,0.6-0.8,0.7s-0.8,0.3-1.2,0.3c-0.8,0-1.4-0.2-1.8-0.6s-0.6-1-0.6-1.8V118H55.5z"/>
	<path class="st1" d="M64.9,118.7h-1.6v5.7h-1v-5.7h-1.1v-0.4l1.1-0.4v-0.4c0-1.6,0.7-2.4,2.1-2.4c0.3,0,0.7,0.1,1.2,0.2l-0.3,0.8
		c-0.4-0.1-0.7-0.2-1-0.2c-0.4,0-0.6,0.1-0.8,0.4s-0.3,0.6-0.3,1.2v0.4h1.6V118.7z M68.9,118.7h-1.6v5.7h-1v-5.7h-1.1v-0.4l1.1-0.4
		v-0.4c0-1.6,0.7-2.4,2.1-2.4c0.3,0,0.7,0.1,1.2,0.2l-0.3,0.8c-0.4-0.1-0.7-0.2-1-0.2c-0.4,0-0.6,0.1-0.8,0.4s-0.3,0.6-0.3,1.2v0.4
		h1.6V118.7z M70,116.3c0-0.2,0.1-0.4,0.2-0.5s0.2-0.2,0.4-0.2c0.2,0,0.3,0.1,0.4,0.2s0.2,0.3,0.2,0.5s-0.1,0.4-0.2,0.5
		s-0.2,0.2-0.4,0.2c-0.2,0-0.3-0.1-0.4-0.2S70,116.5,70,116.3z M71.1,124.4h-1V118h1V124.4z"/>
	<path class="st1" d="M75.7,124.5c-0.9,0-1.6-0.3-2.2-0.9s-0.8-1.4-0.8-2.4c0-1.1,0.3-1.9,0.8-2.5s1.3-0.9,2.2-0.9
		c0.3,0,0.6,0,0.9,0.1s0.6,0.1,0.7,0.2l-0.3,0.8c-0.2-0.1-0.4-0.2-0.7-0.2s-0.5-0.1-0.7-0.1c-1.3,0-2,0.8-2,2.5
		c0,0.8,0.2,1.4,0.5,1.8s0.8,0.6,1.4,0.6c0.5,0,1.1-0.1,1.6-0.3v0.9C76.9,124.4,76.4,124.5,75.7,124.5z"/>
	<path class="st1" d="M78.8,116.3c0-0.2,0.1-0.4,0.2-0.5s0.2-0.2,0.4-0.2c0.2,0,0.3,0.1,0.4,0.2s0.2,0.3,0.2,0.5s-0.1,0.4-0.2,0.5
		s-0.2,0.2-0.4,0.2c-0.2,0-0.3-0.1-0.4-0.2S78.8,116.5,78.8,116.3z M79.8,124.4h-1V118h1V124.4z"/>
	<path class="st1" d="M84.6,124.5c-0.9,0-1.7-0.3-2.2-0.9s-0.8-1.4-0.8-2.4c0-1,0.3-1.9,0.8-2.5s1.2-0.9,2.1-0.9
		c0.8,0,1.4,0.3,1.9,0.8s0.7,1.2,0.7,2.1v0.6h-4.4c0,0.8,0.2,1.3,0.6,1.7s0.9,0.6,1.5,0.6c0.7,0,1.4-0.1,2.1-0.4v0.9
		c-0.3,0.1-0.7,0.3-1,0.3S85.1,124.5,84.6,124.5z M84.4,118.7c-0.5,0-0.9,0.2-1.2,0.5s-0.5,0.8-0.5,1.4h3.4c0-0.6-0.1-1.1-0.4-1.4
		S84.9,118.7,84.4,118.7z"/>
	<path class="st1" d="M93,124.4v-4.2c0-0.5-0.1-0.9-0.4-1.2s-0.6-0.4-1.1-0.4c-0.7,0-1.2,0.2-1.5,0.5s-0.5,1-0.5,1.8v3.4h-1V118h0.8
		l0.2,0.9h0c0.2-0.3,0.5-0.6,0.8-0.7s0.8-0.3,1.2-0.3c0.8,0,1.4,0.2,1.7,0.6s0.6,1,0.6,1.8v4.2H93z"/>
	<path class="st1" d="M98.1,123.7c0.2,0,0.3,0,0.5,0s0.3-0.1,0.4-0.1v0.7c-0.1,0.1-0.3,0.1-0.5,0.1s-0.4,0-0.6,0
		c-1.2,0-1.9-0.7-1.9-2v-3.8h-0.9v-0.5l0.9-0.4l0.4-1.4h0.6v1.5h1.9v0.8h-1.9v3.8c0,0.4,0.1,0.7,0.3,0.9S97.8,123.7,98.1,123.7z"/>
	<path class="st1" d="M106.4,124.5c-0.4,0-0.8-0.1-1.1-0.2s-0.6-0.4-0.9-0.7h-0.1c0,0.4,0.1,0.7,0.1,1.1v2.6h-1V118h0.8l0.1,0.9h0
		c0.2-0.4,0.5-0.6,0.9-0.8s0.7-0.2,1.1-0.2c0.9,0,1.5,0.3,2,0.9s0.7,1.4,0.7,2.4c0,1.1-0.2,1.9-0.7,2.5S107.2,124.5,106.4,124.5z
		 M106.2,118.7c-0.7,0-1.1,0.2-1.4,0.5s-0.4,0.9-0.5,1.7v0.2c0,0.9,0.2,1.5,0.5,1.9s0.8,0.6,1.4,0.6c0.6,0,1-0.2,1.3-0.7
		s0.5-1.1,0.5-1.9c0-0.8-0.2-1.4-0.5-1.8S106.8,118.7,106.2,118.7z"/>
	<path class="st1" d="M113.4,124.5c-0.9,0-1.7-0.3-2.2-0.9s-0.8-1.4-0.8-2.4c0-1,0.3-1.9,0.8-2.5s1.2-0.9,2.1-0.9
		c0.8,0,1.4,0.3,1.9,0.8s0.7,1.2,0.7,2.1v0.6h-4.4c0,0.8,0.2,1.3,0.6,1.7s0.9,0.6,1.5,0.6c0.7,0,1.4-0.1,2.1-0.4v0.9
		c-0.3,0.1-0.7,0.3-1,0.3S113.9,124.5,113.4,124.5z M113.2,118.7c-0.5,0-0.9,0.2-1.2,0.5s-0.5,0.8-0.5,1.4h3.4
		c0-0.6-0.1-1.1-0.4-1.4S113.7,118.7,113.2,118.7z"/>
	<path class="st1" d="M120.4,117.9c0.3,0,0.5,0,0.8,0.1l-0.1,0.9c-0.3-0.1-0.5-0.1-0.7-0.1c-0.5,0-1,0.2-1.3,0.6s-0.6,0.9-0.6,1.6
		v3.4h-1V118h0.8l0.1,1.2h0c0.2-0.4,0.5-0.7,0.9-1S120,117.9,120.4,117.9z"/>
	<path class="st1" d="M130.5,124.4v-4.2c0-0.5-0.1-0.9-0.3-1.2s-0.6-0.4-1-0.4c-0.6,0-1.1,0.2-1.3,0.5s-0.4,0.9-0.4,1.6v3.6h-1v-4.2
		c0-0.5-0.1-0.9-0.3-1.2s-0.6-0.4-1-0.4c-0.6,0-1.1,0.2-1.3,0.5s-0.4,1-0.4,1.8v3.4h-1V118h0.8l0.2,0.9h0c0.2-0.3,0.4-0.6,0.8-0.7
		s0.7-0.3,1.1-0.3c1,0,1.7,0.4,2,1.1h0c0.2-0.3,0.5-0.6,0.8-0.8s0.8-0.3,1.2-0.3c0.7,0,1.3,0.2,1.6,0.6s0.5,1,0.5,1.8v4.2H130.5z"/>
	<path class="st1" d="M133.4,116.3c0-0.2,0.1-0.4,0.2-0.5s0.2-0.2,0.4-0.2c0.2,0,0.3,0.1,0.4,0.2s0.2,0.3,0.2,0.5s-0.1,0.4-0.2,0.5
		s-0.2,0.2-0.4,0.2c-0.2,0-0.3-0.1-0.4-0.2S133.4,116.5,133.4,116.3z M134.5,124.4h-1V118h1V124.4z"/>
	<path class="st1" d="M140.7,122.7c0,0.6-0.2,1.1-0.7,1.4s-1.1,0.5-1.9,0.5c-0.9,0-1.5-0.1-2-0.4v-0.9c0.3,0.2,0.6,0.3,1,0.4
		s0.7,0.1,1,0.1c0.5,0,0.9-0.1,1.2-0.2s0.4-0.4,0.4-0.7c0-0.2-0.1-0.5-0.3-0.6s-0.6-0.4-1.3-0.6c-0.6-0.2-1-0.4-1.3-0.6
		s-0.4-0.4-0.6-0.6s-0.2-0.5-0.2-0.8c0-0.5,0.2-0.9,0.6-1.2s1-0.5,1.8-0.5c0.7,0,1.4,0.1,2,0.4l-0.3,0.8c-0.6-0.3-1.2-0.4-1.8-0.4
		c-0.5,0-0.8,0.1-1,0.2s-0.4,0.3-0.4,0.6c0,0.2,0,0.3,0.1,0.4s0.2,0.2,0.4,0.3s0.6,0.3,1.1,0.5c0.8,0.3,1.3,0.6,1.5,0.8
		S140.7,122.2,140.7,122.7z"/>
	<path class="st1" d="M146.4,122.7c0,0.6-0.2,1.1-0.7,1.4s-1.1,0.5-1.9,0.5c-0.9,0-1.5-0.1-2-0.4v-0.9c0.3,0.2,0.6,0.3,1,0.4
		s0.7,0.1,1,0.1c0.5,0,0.9-0.1,1.2-0.2s0.4-0.4,0.4-0.7c0-0.2-0.1-0.5-0.3-0.6s-0.6-0.4-1.3-0.6c-0.6-0.2-1-0.4-1.3-0.6
		s-0.4-0.4-0.6-0.6s-0.2-0.5-0.2-0.8c0-0.5,0.2-0.9,0.6-1.2s1-0.5,1.8-0.5c0.7,0,1.4,0.1,2,0.4l-0.3,0.8c-0.6-0.3-1.2-0.4-1.8-0.4
		c-0.5,0-0.8,0.1-1,0.2s-0.4,0.3-0.4,0.6c0,0.2,0,0.3,0.1,0.4s0.2,0.2,0.4,0.3s0.6,0.3,1.1,0.5c0.8,0.3,1.3,0.6,1.5,0.8
		S146.4,122.2,146.4,122.7z"/>
	<path class="st1" d="M147.9,116.3c0-0.2,0.1-0.4,0.2-0.5s0.2-0.2,0.4-0.2c0.2,0,0.3,0.1,0.4,0.2s0.2,0.3,0.2,0.5s-0.1,0.4-0.2,0.5
		s-0.2,0.2-0.4,0.2c-0.2,0-0.3-0.1-0.4-0.2S147.9,116.5,147.9,116.3z M149,124.4h-1V118h1V124.4z"/>
	<path class="st1" d="M156.6,121.2c0,1-0.3,1.9-0.8,2.5s-1.3,0.9-2.2,0.9c-0.6,0-1.1-0.1-1.5-0.4s-0.8-0.7-1-1.2s-0.4-1.1-0.4-1.8
		c0-1,0.3-1.9,0.8-2.4s1.2-0.9,2.2-0.9c0.9,0,1.6,0.3,2.1,0.9S156.6,120.2,156.6,121.2z M151.7,121.2c0,0.8,0.2,1.4,0.5,1.9
		s0.8,0.6,1.4,0.6s1.1-0.2,1.5-0.6s0.5-1.1,0.5-1.9c0-0.8-0.2-1.4-0.5-1.9s-0.8-0.6-1.5-0.6c-0.6,0-1.1,0.2-1.4,0.6
		S151.7,120.4,151.7,121.2z"/>
	<path class="st1" d="M162.7,124.4v-4.2c0-0.5-0.1-0.9-0.4-1.2s-0.6-0.4-1.1-0.4c-0.7,0-1.2,0.2-1.5,0.5s-0.5,1-0.5,1.8v3.4h-1V118
		h0.8l0.2,0.9h0c0.2-0.3,0.5-0.6,0.8-0.7s0.8-0.3,1.2-0.3c0.8,0,1.4,0.2,1.7,0.6s0.6,1,0.6,1.8v4.2H162.7z"/>
	<path class="st1" d="M169.8,122.7c0,0.6-0.2,1.1-0.7,1.4s-1.1,0.5-1.9,0.5c-0.9,0-1.5-0.1-2-0.4v-0.9c0.3,0.2,0.6,0.3,1,0.4
		s0.7,0.1,1,0.1c0.5,0,0.9-0.1,1.2-0.2s0.4-0.4,0.4-0.7c0-0.2-0.1-0.5-0.3-0.6s-0.6-0.4-1.3-0.6c-0.6-0.2-1-0.4-1.3-0.6
		s-0.4-0.4-0.6-0.6s-0.2-0.5-0.2-0.8c0-0.5,0.2-0.9,0.6-1.2s1-0.5,1.8-0.5c0.7,0,1.4,0.1,2,0.4l-0.3,0.8c-0.6-0.3-1.2-0.4-1.8-0.4
		c-0.5,0-0.8,0.1-1,0.2s-0.4,0.3-0.4,0.6c0,0.2,0,0.3,0.1,0.4s0.2,0.2,0.4,0.3s0.6,0.3,1.1,0.5c0.8,0.3,1.3,0.6,1.5,0.8
		S169.8,122.2,169.8,122.7z"/>
</g>
<g class="st0">
	<path class="st1" d="M23,105.8h-2.1l-2.2-3.6l-0.8,0.6v3.1h-1.8v-8.6h1.8v3.9l0.7-1l2.3-2.9h2l-3,3.8L23,105.8z"/>
	<path class="st1" d="M26.9,105.9c-1.1,0-1.9-0.3-2.5-0.9s-0.9-1.4-0.9-2.5c0-1.1,0.3-1.9,0.8-2.5s1.3-0.9,2.3-0.9
		c0.9,0,1.6,0.3,2.2,0.8s0.8,1.3,0.8,2.2v0.9h-4.2c0,0.5,0.2,0.9,0.5,1.2s0.7,0.4,1.2,0.4c0.4,0,0.8,0,1.1-0.1s0.7-0.2,1.1-0.4v1.4
		c-0.3,0.2-0.6,0.3-1,0.3S27.4,105.9,26.9,105.9z M26.6,100.4c-0.4,0-0.7,0.1-0.9,0.4s-0.3,0.6-0.4,1h2.5c0-0.4-0.1-0.8-0.3-1
		S27,100.4,26.6,100.4z"/>
	<path class="st1" d="M30.9,97.6c0-0.6,0.3-0.9,1-0.9s1,0.3,1,0.9c0,0.3-0.1,0.5-0.2,0.6s-0.4,0.2-0.7,0.2
		C31.2,98.4,30.9,98.2,30.9,97.6z M32.8,105.8H31v-6.6h1.8V105.8z"/>
	<path class="st1" d="M40.7,105.8h-1.8V102c0-0.5-0.1-0.8-0.3-1.1s-0.4-0.4-0.8-0.4c-0.5,0-0.9,0.2-1.1,0.5s-0.3,0.9-0.3,1.7v3.1
		h-1.8v-6.6H36l0.2,0.8h0.1c0.2-0.3,0.5-0.6,0.8-0.7s0.7-0.2,1.2-0.2c0.8,0,1.3,0.2,1.7,0.6s0.6,1,0.6,1.8V105.8z"/>
	<path class="st1" d="M45.5,105.9c-1.1,0-1.9-0.3-2.5-0.9s-0.9-1.4-0.9-2.5c0-1.1,0.3-1.9,0.8-2.5s1.3-0.9,2.3-0.9
		c0.9,0,1.6,0.3,2.2,0.8s0.8,1.3,0.8,2.2v0.9H44c0,0.5,0.2,0.9,0.5,1.2s0.7,0.4,1.2,0.4c0.4,0,0.8,0,1.1-0.1s0.7-0.2,1.1-0.4v1.4
		c-0.3,0.2-0.6,0.3-1,0.3S46,105.9,45.5,105.9z M45.3,100.4c-0.4,0-0.7,0.1-0.9,0.4s-0.3,0.6-0.4,1h2.5c0-0.4-0.1-0.8-0.3-1
		S45.6,100.4,45.3,100.4z"/>
	<path class="st1" d="M56.9,105.8l-0.3-0.9h0c-0.3,0.4-0.6,0.6-0.9,0.8s-0.7,0.2-1.2,0.2c-0.6,0-1.1-0.2-1.5-0.5s-0.5-0.9-0.5-1.5
		c0-0.7,0.2-1.2,0.7-1.5s1.2-0.5,2.2-0.5l1.1,0v-0.3c0-0.7-0.3-1-1-1c-0.5,0-1.1,0.2-1.8,0.5l-0.6-1.2c0.8-0.4,1.6-0.6,2.5-0.6
		c0.9,0,1.6,0.2,2,0.6s0.7,1,0.7,1.7v4.4H56.9z M56.4,102.8l-0.7,0c-0.5,0-0.9,0.1-1.2,0.3s-0.4,0.4-0.4,0.8c0,0.5,0.3,0.8,0.9,0.8
		c0.4,0,0.7-0.1,1-0.4s0.4-0.6,0.4-0.9V102.8z"/>
	<path class="st1" d="M64.6,105.8l-0.2-0.8h-0.1c-0.2,0.3-0.5,0.5-0.8,0.7s-0.8,0.2-1.2,0.2c-0.8,0-1.3-0.2-1.7-0.6s-0.6-1-0.6-1.8
		v-4.3h1.8v3.8c0,0.5,0.1,0.8,0.3,1.1s0.4,0.4,0.8,0.4c0.5,0,0.9-0.2,1.1-0.5s0.3-0.9,0.3-1.7v-3.1H66v6.6H64.6z"/>
	<path class="st1" d="M72.5,103.9c0,0.7-0.2,1.2-0.7,1.5s-1.2,0.5-2.1,0.5c-0.5,0-0.9,0-1.2-0.1s-0.7-0.2-0.9-0.3v-1.5
		c0.3,0.2,0.7,0.3,1.1,0.4s0.8,0.2,1.1,0.2c0.6,0,1-0.2,1-0.6c0-0.1,0-0.3-0.1-0.3s-0.2-0.2-0.4-0.3s-0.5-0.2-0.8-0.4
		c-0.5-0.2-0.9-0.4-1.1-0.6s-0.4-0.4-0.5-0.6s-0.2-0.5-0.2-0.9c0-0.6,0.2-1,0.7-1.4s1.1-0.5,1.9-0.5c0.8,0,1.6,0.2,2.3,0.5l-0.5,1.3
		c-0.3-0.1-0.6-0.3-0.9-0.3s-0.6-0.1-0.9-0.1c-0.5,0-0.8,0.1-0.8,0.4c0,0.2,0.1,0.3,0.3,0.4s0.5,0.3,1.1,0.5
		c0.5,0.2,0.9,0.4,1.1,0.6s0.4,0.4,0.5,0.6S72.5,103.5,72.5,103.9z"/>
	<path class="st1" d="M77.5,99.1c0.2,0,0.4,0,0.6,0.1l-0.1,1.7c-0.1,0-0.3-0.1-0.5-0.1c-0.6,0-1,0.1-1.3,0.4s-0.5,0.7-0.5,1.2v3.3
		h-1.8v-6.6h1.4l0.3,1.1h0.1c0.2-0.4,0.5-0.7,0.8-0.9S77.1,99.1,77.5,99.1z"/>
	<path class="st1" d="M82.3,105.9c-1.1,0-1.9-0.3-2.5-0.9s-0.9-1.4-0.9-2.5c0-1.1,0.3-1.9,0.8-2.5s1.3-0.9,2.3-0.9
		c0.9,0,1.6,0.3,2.2,0.8s0.8,1.3,0.8,2.2v0.9h-4.2c0,0.5,0.2,0.9,0.5,1.2s0.7,0.4,1.2,0.4c0.4,0,0.8,0,1.1-0.1s0.7-0.2,1.1-0.4v1.4
		c-0.3,0.2-0.6,0.3-1,0.3S82.8,105.9,82.3,105.9z M82,100.4c-0.4,0-0.7,0.1-0.9,0.4s-0.3,0.6-0.4,1h2.5c0-0.4-0.1-0.8-0.3-1
		S82.4,100.4,82,100.4z"/>
	<path class="st1" d="M86.3,97.6c0-0.6,0.3-0.9,1-0.9s1,0.3,1,0.9c0,0.3-0.1,0.5-0.2,0.6s-0.4,0.2-0.7,0.2
		C86.6,98.4,86.3,98.2,86.3,97.6z M88.2,105.8h-1.8v-6.6h1.8V105.8z"/>
	<path class="st1" d="M92.7,105.9c-2,0-3.1-1.1-3.1-3.4c0-1.1,0.3-2,0.8-2.6s1.3-0.9,2.4-0.9c0.8,0,1.4,0.1,2,0.4l-0.5,1.4
		c-0.3-0.1-0.5-0.2-0.8-0.3s-0.5-0.1-0.7-0.1c-0.9,0-1.4,0.7-1.4,2c0,1.3,0.5,1.9,1.4,1.9c0.3,0,0.7,0,1-0.1s0.6-0.2,0.9-0.4v1.5
		c-0.3,0.2-0.6,0.3-0.9,0.4S93.2,105.9,92.7,105.9z"/>
	<path class="st1" d="M102.3,105.8h-1.8V102c0-0.9-0.4-1.4-1.1-1.4c-0.5,0-0.9,0.2-1.1,0.5S98,102,98,102.7v3.1h-1.8v-9.1H98v1.9
		c0,0.1,0,0.5,0,1l0,0.5H98c0.4-0.6,1-1,1.9-1c0.8,0,1.4,0.2,1.8,0.6s0.6,1,0.6,1.8V105.8z"/>
	<path class="st1" d="M107.1,105.9c-1.1,0-1.9-0.3-2.5-0.9s-0.9-1.4-0.9-2.5c0-1.1,0.3-1.9,0.8-2.5s1.3-0.9,2.3-0.9
		c0.9,0,1.6,0.3,2.2,0.8s0.8,1.3,0.8,2.2v0.9h-4.2c0,0.5,0.2,0.9,0.5,1.2s0.7,0.4,1.2,0.4c0.4,0,0.8,0,1.1-0.1s0.7-0.2,1.1-0.4v1.4
		c-0.3,0.2-0.6,0.3-1,0.3S107.6,105.9,107.1,105.9z M106.8,100.4c-0.4,0-0.7,0.1-0.9,0.4s-0.3,0.6-0.4,1h2.5c0-0.4-0.1-0.8-0.3-1
		S107.2,100.4,106.8,100.4z"/>
	<path class="st1" d="M117.2,105.8h-1.8V102c0-0.5-0.1-0.8-0.3-1.1s-0.4-0.4-0.8-0.4c-0.5,0-0.9,0.2-1.1,0.5s-0.3,0.9-0.3,1.7v3.1
		h-1.8v-6.6h1.4l0.2,0.8h0.1c0.2-0.3,0.5-0.6,0.8-0.7s0.7-0.2,1.2-0.2c0.8,0,1.3,0.2,1.7,0.6s0.6,1,0.6,1.8V105.8z"/>
	<path class="st1" d="M121.2,105.9c-0.8,0-1.4-0.3-1.8-0.9s-0.7-1.4-0.7-2.5c0-1.1,0.2-1.9,0.7-2.5s1.1-0.9,1.8-0.9
		c0.8,0,1.5,0.3,1.9,1h0.1c-0.1-0.5-0.1-0.9-0.1-1.3v-2.1h1.8v9.1h-1.4l-0.3-0.8H123C122.6,105.6,122,105.9,121.2,105.9z
		 M121.8,104.5c0.5,0,0.8-0.1,1-0.4s0.3-0.7,0.3-1.4v-0.2c0-0.7-0.1-1.2-0.3-1.5s-0.6-0.5-1.1-0.5c-0.4,0-0.7,0.2-0.9,0.5
		s-0.3,0.8-0.3,1.5s0.1,1.1,0.3,1.5S121.4,104.5,121.8,104.5z"/>
	<path class="st1" d="M129.6,105.9c-1.1,0-1.9-0.3-2.5-0.9s-0.9-1.4-0.9-2.5c0-1.1,0.3-1.9,0.8-2.5s1.3-0.9,2.3-0.9
		c0.9,0,1.6,0.3,2.2,0.8s0.8,1.3,0.8,2.2v0.9h-4.2c0,0.5,0.2,0.9,0.5,1.2s0.7,0.4,1.2,0.4c0.4,0,0.8,0,1.1-0.1s0.7-0.2,1.1-0.4v1.4
		c-0.3,0.2-0.6,0.3-1,0.3S130.2,105.9,129.6,105.9z M129.4,100.4c-0.4,0-0.7,0.1-0.9,0.4s-0.3,0.6-0.4,1h2.5c0-0.4-0.1-0.8-0.3-1
		S129.8,100.4,129.4,100.4z"/>
	<path class="st1" d="M139.8,105.8H138V102c0-0.5-0.1-0.8-0.3-1.1s-0.4-0.4-0.8-0.4c-0.5,0-0.9,0.2-1.1,0.5s-0.3,0.9-0.3,1.7v3.1
		h-1.8v-6.6h1.4l0.2,0.8h0.1c0.2-0.3,0.5-0.6,0.8-0.7s0.7-0.2,1.2-0.2c0.8,0,1.3,0.2,1.7,0.6s0.6,1,0.6,1.8V105.8z"/>
	<path class="st1" d="M146.7,102.5v3.3h-1.8v-8.6h2.5c1.2,0,2,0.2,2.6,0.6s0.8,1.1,0.8,1.9c0,0.5-0.1,1-0.4,1.3s-0.7,0.7-1.2,0.9
		c1.3,1.9,2.1,3.2,2.5,3.7h-2l-2-3.3H146.7z M146.7,101.1h0.6c0.6,0,1-0.1,1.3-0.3s0.4-0.5,0.4-0.9c0-0.4-0.1-0.7-0.4-0.9
		s-0.7-0.3-1.3-0.3h-0.6V101.1z"/>
	<path class="st1" d="M155.7,105.9c-1.1,0-1.9-0.3-2.5-0.9s-0.9-1.4-0.9-2.5c0-1.1,0.3-1.9,0.8-2.5s1.3-0.9,2.3-0.9
		c0.9,0,1.6,0.3,2.2,0.8s0.8,1.3,0.8,2.2v0.9h-4.2c0,0.5,0.2,0.9,0.5,1.2s0.7,0.4,1.2,0.4c0.4,0,0.8,0,1.1-0.1s0.7-0.2,1.1-0.4v1.4
		c-0.3,0.2-0.6,0.3-1,0.3S156.2,105.9,155.7,105.9z M155.4,100.4c-0.4,0-0.7,0.1-0.9,0.4s-0.3,0.6-0.4,1h2.5c0-0.4-0.1-0.8-0.3-1
		S155.8,100.4,155.4,100.4z"/>
	<path class="st1" d="M162.4,105.9c-2,0-3.1-1.1-3.1-3.4c0-1.1,0.3-2,0.8-2.6s1.3-0.9,2.4-0.9c0.8,0,1.4,0.1,2,0.4l-0.5,1.4
		c-0.3-0.1-0.5-0.2-0.8-0.3s-0.5-0.1-0.7-0.1c-0.9,0-1.4,0.7-1.4,2c0,1.3,0.5,1.9,1.4,1.9c0.3,0,0.7,0,1-0.1s0.6-0.2,0.9-0.4v1.5
		c-0.3,0.2-0.6,0.3-0.9,0.4S162.9,105.9,162.4,105.9z"/>
	<path class="st1" d="M172,105.8h-1.8V102c0-0.9-0.4-1.4-1.1-1.4c-0.5,0-0.9,0.2-1.1,0.5s-0.3,0.9-0.3,1.7v3.1H166v-9.1h1.8v1.9
		c0,0.1,0,0.5,0,1l0,0.5h0.1c0.4-0.6,1-1,1.9-1c0.8,0,1.4,0.2,1.8,0.6s0.6,1,0.6,1.8V105.8z"/>
	<path class="st1" d="M176.6,104.5c0.3,0,0.7-0.1,1.1-0.2v1.3c-0.4,0.2-1,0.3-1.6,0.3c-0.7,0-1.2-0.2-1.6-0.5s-0.5-0.9-0.5-1.6v-3.2
		h-0.9v-0.8l1-0.6l0.5-1.4h1.1v1.4h1.8v1.3h-1.8v3.2c0,0.3,0.1,0.4,0.2,0.6S176.4,104.5,176.6,104.5z"/>
	<path class="st1" d="M182,105.9c-1.1,0-1.9-0.3-2.5-0.9s-0.9-1.4-0.9-2.5c0-1.1,0.3-1.9,0.8-2.5s1.3-0.9,2.3-0.9
		c0.9,0,1.6,0.3,2.2,0.8s0.8,1.3,0.8,2.2v0.9h-4.2c0,0.5,0.2,0.9,0.5,1.2s0.7,0.4,1.2,0.4c0.4,0,0.8,0,1.1-0.1s0.7-0.2,1.1-0.4v1.4
		c-0.3,0.2-0.6,0.3-1,0.3S182.5,105.9,182,105.9z M181.8,100.4c-0.4,0-0.7,0.1-0.9,0.4s-0.3,0.6-0.4,1h2.5c0-0.4-0.1-0.8-0.3-1
		S182.1,100.4,181.8,100.4z"/>
</g>
<path id="wappen" class="st2" d="M100,28.3l-21,9.3v14c0,12.9,9,25.1,21,28c12-2.9,21-15.1,21-28v-14L100,28.3z M100,54h16.3
	c-1.2,9.6-7.7,18.2-16.3,20.9V54H83.7V40.7l16.3-7.3V54z"/>
</svg>
