<svg xmlns="http://www.w3.org/2000/svg" width="200" height="150" viewBox="0 0 200 150">
  <defs>
    <style>
      .\38 feed2cc-b66e-49ad-838a-a5c3ab22f381 {
        fill: #f6f6f6;
      }

      .\31 a9b8528-e2c8-4698-9586-2a0f958f3cb8 {
        fill: #a3a3a3;
      }

      .\34 0167bec-2daf-448a-aa33-8ddb1d4bc84e {
        fill: #7c7c7c;
      }

      .\33 14f323b-619d-490b-b6d1-d36bdd312d71 {
        fill: #5e5e5e;
      }
    </style>
  </defs>
  <title>Element 1</title>
  <g id="c9c41659-9cbe-451c-ad3f-a871dbd802b9" data-name="Ebene 2">
    <g id="f7ebd85d-aa6c-4ed2-abf3-0c10b167102d" data-name="Ebene 1">
      <rect class="8feed2cc-b66e-49ad-838a-a5c3ab22f381" width="200" height="150"/>
      <circle class="8feed2cc-b66e-49ad-838a-a5c3ab22f381" cx="100" cy="75" r="30.9"/>
      <path class="1a9b8528-e2c8-4698-9586-2a0f958f3cb8" d="M100,28.33,79,37.67v14c0,12.95,9,25.06,21,28,12-2.94,21-15.05,21-28v-14ZM100,54h16.33c-1.24,9.61-7.65,18.18-16.33,20.86V54H83.67V40.7L100,33.44Z"/>
      <g>
        <path class="40167bec-2daf-448a-aa33-8ddb1d4bc84e" d="M39.41,122.9H38.27l-4.68-7.19h0q.09,1.27.09,2.32v4.87h-.92v-8.57h1.13l4.67,7.16h0q0-.16-.05-1t0-1.23v-4.92h.93Z"/>
        <path class="40167bec-2daf-448a-aa33-8ddb1d4bc84e" d="M47.16,119.68a3.54,3.54,0,0,1-.79,2.45,2.79,2.79,0,0,1-2.19.88,2.89,2.89,0,0,1-1.53-.4,2.67,2.67,0,0,1-1-1.16,4,4,0,0,1-.36-1.77,3.54,3.54,0,0,1,.79-2.45,2.78,2.78,0,0,1,2.18-.88,2.72,2.72,0,0,1,2.14.9A3.53,3.53,0,0,1,47.16,119.68Zm-4.89,0a3,3,0,0,0,.49,1.88,2,2,0,0,0,2.9,0,3,3,0,0,0,.5-1.88,3,3,0,0,0-.5-1.86,1.74,1.74,0,0,0-1.46-.64,1.71,1.71,0,0,0-1.44.63A3,3,0,0,0,42.27,119.68Z"/>
        <path class="40167bec-2daf-448a-aa33-8ddb1d4bc84e" d="M55.93,122.9l-.19-.91h0a2.7,2.7,0,0,1-1,.82,2.92,2.92,0,0,1-1.19.21,2.14,2.14,0,0,1-1.5-.49,1.8,1.8,0,0,1-.54-1.4q0-1.95,3.11-2l1.09,0v-.4a1.63,1.63,0,0,0-.33-1.12,1.34,1.34,0,0,0-1-.36,4.24,4.24,0,0,0-1.82.49l-.3-.74a4.57,4.57,0,0,1,1-.4,4.5,4.5,0,0,1,1.13-.15,2.45,2.45,0,0,1,1.7.51,2.13,2.13,0,0,1,.55,1.63v4.38Zm-2.2-.69a2,2,0,0,0,1.43-.5,1.84,1.84,0,0,0,.52-1.39v-.58l-1,0a3.54,3.54,0,0,0-1.67.36,1.09,1.09,0,0,0-.51,1,1,1,0,0,0,.32.8A1.33,1.33,0,0,0,53.73,122.21Z"/>
        <path class="40167bec-2daf-448a-aa33-8ddb1d4bc84e" d="M63,122H63a2.29,2.29,0,0,1-2,1,2.38,2.38,0,0,1-2-.86,3.79,3.79,0,0,1-.7-2.45,3.86,3.86,0,0,1,.7-2.47,2.37,2.37,0,0,1,2-.88,2.34,2.34,0,0,1,2,.95H63l0-.46,0-.45v-2.61h1v9.12h-.79Zm-1.95.16a1.77,1.77,0,0,0,1.44-.54,2.74,2.74,0,0,0,.45-1.75v-.21a3.22,3.22,0,0,0-.45-1.95,1.72,1.72,0,0,0-1.45-.58,1.49,1.49,0,0,0-1.31.67,3.31,3.31,0,0,0-.45,1.88,3.17,3.17,0,0,0,.45,1.86A1.53,1.53,0,0,0,61.08,122.2Z"/>
        <path class="40167bec-2daf-448a-aa33-8ddb1d4bc84e" d="M68.72,123a3,3,0,0,1-2.25-.87,3.36,3.36,0,0,1-.82-2.41,3.72,3.72,0,0,1,.76-2.47,2.54,2.54,0,0,1,2.05-.91,2.42,2.42,0,0,1,1.91.79,3,3,0,0,1,.7,2.09v.62H66.66a2.55,2.55,0,0,0,.57,1.72,2,2,0,0,0,1.53.59,5.17,5.17,0,0,0,2.05-.43v.87a5.15,5.15,0,0,1-1,.32A5.48,5.48,0,0,1,68.72,123Zm-.26-5.84a1.59,1.59,0,0,0-1.23.5,2.32,2.32,0,0,0-.54,1.39H70a2.14,2.14,0,0,0-.41-1.41A1.44,1.44,0,0,0,68.46,117.17Z"/>
        <path class="40167bec-2daf-448a-aa33-8ddb1d4bc84e" d="M75,123a2.34,2.34,0,0,1-1.94-.87,3.81,3.81,0,0,1-.7-2.44,3.86,3.86,0,0,1,.7-2.46,2.58,2.58,0,0,1,4,.11h.05l.14-.88H78v9.3h-1V123a6.54,6.54,0,0,1,.06-1H77A2.3,2.3,0,0,1,75,123Zm.15-.81a1.77,1.77,0,0,0,1.42-.52,2.82,2.82,0,0,0,.47-1.76v-.22a3.21,3.21,0,0,0-.46-1.94,1.71,1.71,0,0,0-1.45-.59,1.49,1.49,0,0,0-1.31.67,3.31,3.31,0,0,0-.45,1.88,3.19,3.19,0,0,0,.45,1.85A1.52,1.52,0,0,0,75.17,122.2Z"/>
        <path class="40167bec-2daf-448a-aa33-8ddb1d4bc84e" d="M81,116.48v4.17a1.68,1.68,0,0,0,.36,1.17,1.46,1.46,0,0,0,1.12.39,1.83,1.83,0,0,0,1.47-.55,2.78,2.78,0,0,0,.47-1.8v-3.37h1v6.42h-.8l-.14-.86H84.4a1.94,1.94,0,0,1-.83.73,2.79,2.79,0,0,1-1.21.25,2.45,2.45,0,0,1-1.75-.56,2.37,2.37,0,0,1-.58-1.78v-4.2Z"/>
        <path class="40167bec-2daf-448a-aa33-8ddb1d4bc84e" d="M91.41,122.9l-.19-.91h0a2.7,2.7,0,0,1-1,.82A2.92,2.92,0,0,1,89,123a2.14,2.14,0,0,1-1.5-.49,1.8,1.8,0,0,1-.54-1.4q0-1.95,3.11-2l1.09,0v-.4a1.63,1.63,0,0,0-.33-1.12,1.34,1.34,0,0,0-1-.36,4.24,4.24,0,0,0-1.82.49l-.3-.74a4.57,4.57,0,0,1,1-.4,4.5,4.5,0,0,1,1.13-.15,2.45,2.45,0,0,1,1.7.51,2.13,2.13,0,0,1,.55,1.63v4.38Zm-2.2-.69a2,2,0,0,0,1.43-.5,1.84,1.84,0,0,0,.52-1.39v-.58l-1,0a3.54,3.54,0,0,0-1.67.36,1.09,1.09,0,0,0-.51,1,1,1,0,0,0,.32.8A1.33,1.33,0,0,0,89.21,122.21Z"/>
        <path class="40167bec-2daf-448a-aa33-8ddb1d4bc84e" d="M96.21,122.21a3.18,3.18,0,0,0,.5,0l.38-.08v.74a1.78,1.78,0,0,1-.47.13,3.5,3.5,0,0,1-.55,0q-1.86,0-1.86-2v-3.82h-.92v-.47l.92-.4.41-1.37h.56v1.49H97v.76H95.18V121a1.3,1.3,0,0,0,.28.89A1,1,0,0,0,96.21,122.21Z"/>
        <path class="40167bec-2daf-448a-aa33-8ddb1d4bc84e" d="M104.48,123a2.78,2.78,0,0,1-1.15-.23,2.15,2.15,0,0,1-.87-.71h-.07a8.61,8.61,0,0,1,.07,1.07v2.64h-1v-9.3h.79l.13.88h0a2.26,2.26,0,0,1,.87-.76,2.65,2.65,0,0,1,1.14-.23,2.37,2.37,0,0,1,2,.87,4.65,4.65,0,0,1,0,4.91A2.38,2.38,0,0,1,104.48,123Zm-.14-5.83a1.72,1.72,0,0,0-1.42.54,2.8,2.8,0,0,0-.45,1.73v.22a3.21,3.21,0,0,0,.45,1.94,1.72,1.72,0,0,0,1.45.58,1.5,1.5,0,0,0,1.3-.67,3.2,3.2,0,0,0,.47-1.86,3.08,3.08,0,0,0-.47-1.84A1.55,1.55,0,0,0,104.34,117.19Z"/>
        <path class="40167bec-2daf-448a-aa33-8ddb1d4bc84e" d="M111.55,123a3,3,0,0,1-2.25-.87,3.36,3.36,0,0,1-.82-2.41,3.72,3.72,0,0,1,.76-2.47,2.54,2.54,0,0,1,2.05-.91,2.42,2.42,0,0,1,1.91.79,3,3,0,0,1,.7,2.09v.62h-4.42a2.55,2.55,0,0,0,.57,1.72,2,2,0,0,0,1.53.59,5.17,5.17,0,0,0,2.05-.43v.87a5.15,5.15,0,0,1-1,.32A5.48,5.48,0,0,1,111.55,123Zm-.26-5.84a1.59,1.59,0,0,0-1.23.5,2.32,2.32,0,0,0-.54,1.39h3.36a2.14,2.14,0,0,0-.41-1.41A1.44,1.44,0,0,0,111.29,117.17Z"/>
        <path class="40167bec-2daf-448a-aa33-8ddb1d4bc84e" d="M118.5,116.36a3.81,3.81,0,0,1,.77.07l-.13.9a3.31,3.31,0,0,0-.7-.09,1.71,1.71,0,0,0-1.33.63,2.31,2.31,0,0,0-.55,1.58v3.45h-1v-6.42h.8l.11,1.19h0a2.82,2.82,0,0,1,.86-1A1.94,1.94,0,0,1,118.5,116.36Z"/>
        <path class="40167bec-2daf-448a-aa33-8ddb1d4bc84e" d="M128.66,122.9v-4.18a1.73,1.73,0,0,0-.33-1.15,1.27,1.27,0,0,0-1-.38,1.65,1.65,0,0,0-1.34.52,2.48,2.48,0,0,0-.43,1.61v3.59h-1v-4.18a1.73,1.73,0,0,0-.33-1.15,1.28,1.28,0,0,0-1-.38,1.59,1.59,0,0,0-1.34.55,3,3,0,0,0-.42,1.8v3.37h-1v-6.42h.79l.16.88h0a1.91,1.91,0,0,1,.78-.73,2.37,2.37,0,0,1,1.12-.26,1.91,1.91,0,0,1,2,1.09h0a2,2,0,0,1,.83-.8,2.58,2.58,0,0,1,1.24-.29,2.17,2.17,0,0,1,1.63.56,2.5,2.5,0,0,1,.54,1.79v4.19Z"/>
        <path class="40167bec-2daf-448a-aa33-8ddb1d4bc84e" d="M131.55,114.74a.65.65,0,0,1,.16-.49.61.61,0,0,1,.81,0,.63.63,0,0,1,.17.49.64.64,0,0,1-.17.49.6.6,0,0,1-.81,0A.66.66,0,0,1,131.55,114.74Zm1.05,8.16h-1v-6.42h1Z"/>
        <path class="40167bec-2daf-448a-aa33-8ddb1d4bc84e" d="M138.81,121.15a1.61,1.61,0,0,1-.67,1.38,3.14,3.14,0,0,1-1.87.49,4.08,4.08,0,0,1-2-.4v-.9a4.82,4.82,0,0,0,1,.37,4.15,4.15,0,0,0,1,.13,2.32,2.32,0,0,0,1.17-.24.84.84,0,0,0,.08-1.38,5.12,5.12,0,0,0-1.27-.63,6.88,6.88,0,0,1-1.27-.58,1.74,1.74,0,0,1-.56-.57,1.47,1.47,0,0,1-.18-.76,1.44,1.44,0,0,1,.64-1.24,3,3,0,0,1,1.75-.45,5.13,5.13,0,0,1,2,.42l-.35.79a4.65,4.65,0,0,0-1.75-.4,2,2,0,0,0-1,.22.67.67,0,0,0-.35.6.73.73,0,0,0,.13.44,1.3,1.3,0,0,0,.42.35,9.49,9.49,0,0,0,1.13.47,4.2,4.2,0,0,1,1.54.84A1.48,1.48,0,0,1,138.81,121.15Z"/>
        <path class="40167bec-2daf-448a-aa33-8ddb1d4bc84e" d="M144.54,121.15a1.61,1.61,0,0,1-.67,1.38A3.14,3.14,0,0,1,142,123a4.08,4.08,0,0,1-2-.4v-.9a4.82,4.82,0,0,0,1,.37,4.15,4.15,0,0,0,1,.13,2.32,2.32,0,0,0,1.17-.24.84.84,0,0,0,.08-1.38A5.12,5.12,0,0,0,142,120a6.88,6.88,0,0,1-1.27-.58,1.74,1.74,0,0,1-.56-.57,1.47,1.47,0,0,1-.18-.76,1.44,1.44,0,0,1,.64-1.24,3,3,0,0,1,1.75-.45,5.13,5.13,0,0,1,2,.42l-.35.79a4.65,4.65,0,0,0-1.75-.4,2,2,0,0,0-1,.22.67.67,0,0,0-.35.6.73.73,0,0,0,.13.44,1.3,1.3,0,0,0,.42.35,9.49,9.49,0,0,0,1.13.47,4.2,4.2,0,0,1,1.54.84A1.48,1.48,0,0,1,144.54,121.15Z"/>
        <path class="40167bec-2daf-448a-aa33-8ddb1d4bc84e" d="M146,114.74a.65.65,0,0,1,.16-.49.61.61,0,0,1,.81,0,.63.63,0,0,1,.17.49.64.64,0,0,1-.17.49.6.6,0,0,1-.81,0A.66.66,0,0,1,146,114.74Zm1.05,8.16h-1v-6.42h1Z"/>
        <path class="40167bec-2daf-448a-aa33-8ddb1d4bc84e" d="M154.7,119.68a3.54,3.54,0,0,1-.79,2.45,2.79,2.79,0,0,1-2.19.88,2.89,2.89,0,0,1-1.53-.4,2.67,2.67,0,0,1-1-1.16,4,4,0,0,1-.36-1.77,3.54,3.54,0,0,1,.79-2.45,2.78,2.78,0,0,1,2.18-.88,2.72,2.72,0,0,1,2.14.9A3.53,3.53,0,0,1,154.7,119.68Zm-4.89,0a3,3,0,0,0,.49,1.88,2,2,0,0,0,2.9,0,3,3,0,0,0,.5-1.88,3,3,0,0,0-.5-1.86,1.74,1.74,0,0,0-1.46-.64,1.71,1.71,0,0,0-1.44.63A3,3,0,0,0,149.8,119.68Z"/>
        <path class="40167bec-2daf-448a-aa33-8ddb1d4bc84e" d="M160.8,122.9v-4.15a1.68,1.68,0,0,0-.36-1.17,1.46,1.46,0,0,0-1.12-.39,1.85,1.85,0,0,0-1.48.54,2.75,2.75,0,0,0-.47,1.8v3.37h-1v-6.42h.79l.16.88h0a2,2,0,0,1,.84-.74,2.72,2.72,0,0,1,1.2-.26,2.44,2.44,0,0,1,1.75.56,2.38,2.38,0,0,1,.59,1.79v4.19Z"/>
        <path class="40167bec-2daf-448a-aa33-8ddb1d4bc84e" d="M167.91,121.15a1.61,1.61,0,0,1-.67,1.38,3.14,3.14,0,0,1-1.87.49,4.08,4.08,0,0,1-2-.4v-.9a4.82,4.82,0,0,0,1,.37,4.15,4.15,0,0,0,1,.13,2.32,2.32,0,0,0,1.17-.24.84.84,0,0,0,.08-1.38,5.12,5.12,0,0,0-1.27-.63,6.88,6.88,0,0,1-1.27-.58,1.74,1.74,0,0,1-.56-.57,1.47,1.47,0,0,1-.18-.76,1.44,1.44,0,0,1,.64-1.24,3,3,0,0,1,1.75-.45,5.13,5.13,0,0,1,2,.42l-.35.79a4.65,4.65,0,0,0-1.75-.4,2,2,0,0,0-1,.22.67.67,0,0,0-.35.6.73.73,0,0,0,.13.44,1.3,1.3,0,0,0,.42.35,9.49,9.49,0,0,0,1.13.47,4.2,4.2,0,0,1,1.54.84A1.48,1.48,0,0,1,167.91,121.15Z"/>
      </g>
      <g>
        <path class="314f323b-619d-490b-b6d1-d36bdd312d71" d="M22.87,105.9H20.8l-2.24-3.61-.77.55v3.06H16V97.33h1.82v3.92l.71-1,2.32-2.91h2l-3,3.79Z"/>
        <path class="314f323b-619d-490b-b6d1-d36bdd312d71" d="M26.77,106a3.38,3.38,0,0,1-2.47-.87,3.31,3.31,0,0,1-.89-2.47,3.64,3.64,0,0,1,.82-2.55,2.93,2.93,0,0,1,2.28-.9,2.89,2.89,0,0,1,2.16.79,3,3,0,0,1,.77,2.19v.87H25.22a1.72,1.72,0,0,0,.45,1.19,1.59,1.59,0,0,0,1.18.43,4.91,4.91,0,0,0,1.12-.12,5.6,5.6,0,0,0,1.1-.39v1.38a4.2,4.2,0,0,1-1,.35A6.32,6.32,0,0,1,26.77,106Zm-.25-5.52a1.13,1.13,0,0,0-.89.36,1.67,1.67,0,0,0-.37,1h2.51a1.49,1.49,0,0,0-.35-1A1.17,1.17,0,0,0,26.52,100.5Z"/>
        <path class="314f323b-619d-490b-b6d1-d36bdd312d71" d="M30.82,97.66q0-.87,1-.87t1,.87a.85.85,0,0,1-.24.65,1,1,0,0,1-.73.23Q30.82,98.53,30.82,97.66Zm1.86,8.24H30.89V99.35h1.79Z"/>
        <path class="314f323b-619d-490b-b6d1-d36bdd312d71" d="M40.6,105.9H38.82v-3.83a1.84,1.84,0,0,0-.25-1.06.92.92,0,0,0-.8-.35,1.21,1.21,0,0,0-1.08.5,3.11,3.11,0,0,0-.33,1.66v3.08H34.56V99.35h1.37l.24.84h.1a1.89,1.89,0,0,1,.82-.72,2.8,2.8,0,0,1,1.19-.24,2.29,2.29,0,0,1,1.73.62,2.48,2.48,0,0,1,.59,1.78Z"/>
        <path class="314f323b-619d-490b-b6d1-d36bdd312d71" d="M45.41,106a3.38,3.38,0,0,1-2.47-.87,3.31,3.31,0,0,1-.89-2.47,3.64,3.64,0,0,1,.82-2.55,2.93,2.93,0,0,1,2.28-.9,2.89,2.89,0,0,1,2.16.79,3,3,0,0,1,.77,2.19v.87H43.86a1.72,1.72,0,0,0,.45,1.19,1.59,1.59,0,0,0,1.18.43,4.91,4.91,0,0,0,1.12-.12,5.6,5.6,0,0,0,1.1-.39v1.38a4.2,4.2,0,0,1-1,.35A6.32,6.32,0,0,1,45.41,106Zm-.25-5.52a1.13,1.13,0,0,0-.89.36,1.67,1.67,0,0,0-.37,1H46.4a1.49,1.49,0,0,0-.35-1A1.17,1.17,0,0,0,45.16,100.5Z"/>
        <path class="314f323b-619d-490b-b6d1-d36bdd312d71" d="M56.81,105.9l-.35-.89h0a2.64,2.64,0,0,1-.93.79,3,3,0,0,1-1.25.22,2,2,0,0,1-1.49-.54,2.07,2.07,0,0,1-.54-1.54,1.73,1.73,0,0,1,.73-1.54,4.23,4.23,0,0,1,2.2-.55l1.14,0v-.29a.89.89,0,0,0-1-1,4.65,4.65,0,0,0-1.85.47l-.59-1.21a5.33,5.33,0,0,1,2.51-.59,3.12,3.12,0,0,1,2,.57,2.12,2.12,0,0,1,.7,1.75v4.37Zm-.53-3-.69,0a2.21,2.21,0,0,0-1.16.28.88.88,0,0,0-.38.79q0,.76.87.76a1.37,1.37,0,0,0,1-.36,1.26,1.26,0,0,0,.37-.95Z"/>
        <path class="314f323b-619d-490b-b6d1-d36bdd312d71" d="M64.54,105.9l-.24-.84h-.09a1.89,1.89,0,0,1-.81.71,2.78,2.78,0,0,1-1.2.25,2.29,2.29,0,0,1-1.74-.62,2.49,2.49,0,0,1-.59-1.78V99.35h1.79v3.83a1.84,1.84,0,0,0,.25,1.06.92.92,0,0,0,.8.35,1.21,1.21,0,0,0,1.08-.5,3.11,3.11,0,0,0,.33-1.66V99.35h1.79v6.55Z"/>
        <path class="314f323b-619d-490b-b6d1-d36bdd312d71" d="M72.36,104a1.8,1.8,0,0,1-.7,1.54,3.46,3.46,0,0,1-2.09.53,6.58,6.58,0,0,1-1.22-.1,4.61,4.61,0,0,1-.94-.28v-1.48a6.23,6.23,0,0,0,1.12.39,4.54,4.54,0,0,0,1.1.16q1,0,1-.56a.47.47,0,0,0-.13-.34,1.87,1.87,0,0,0-.45-.3q-.32-.17-.84-.39a5.3,5.3,0,0,1-1.11-.59,1.65,1.65,0,0,1-.52-.62,2,2,0,0,1-.16-.86,1.56,1.56,0,0,1,.68-1.35A3.3,3.3,0,0,1,70,99.23a5.45,5.45,0,0,1,2.3.52L71.75,101q-.49-.21-.92-.35a2.89,2.89,0,0,0-.87-.13q-.79,0-.79.43a.5.5,0,0,0,.25.42,6.93,6.93,0,0,0,1.12.52,5.19,5.19,0,0,1,1.13.58,1.72,1.72,0,0,1,.53.62A1.91,1.91,0,0,1,72.36,104Z"/>
        <path class="314f323b-619d-490b-b6d1-d36bdd312d71" d="M77.41,99.23a2.88,2.88,0,0,1,.6.05L77.88,101a2,2,0,0,0-.53-.06,1.9,1.9,0,0,0-1.33.44,1.59,1.59,0,0,0-.48,1.23v3.33H73.75V99.35H75.1l.26,1.1h.09a2.46,2.46,0,0,1,.82-.89A2,2,0,0,1,77.41,99.23Z"/>
        <path class="314f323b-619d-490b-b6d1-d36bdd312d71" d="M82.16,106a3.38,3.38,0,0,1-2.47-.87,3.31,3.31,0,0,1-.89-2.47,3.64,3.64,0,0,1,.82-2.55,2.93,2.93,0,0,1,2.28-.9,2.89,2.89,0,0,1,2.16.79,3,3,0,0,1,.77,2.19v.87H80.61a1.72,1.72,0,0,0,.45,1.19,1.59,1.59,0,0,0,1.18.43,4.91,4.91,0,0,0,1.12-.12,5.6,5.6,0,0,0,1.1-.39v1.38a4.2,4.2,0,0,1-1,.35A6.32,6.32,0,0,1,82.16,106Zm-.25-5.52a1.13,1.13,0,0,0-.89.36,1.67,1.67,0,0,0-.37,1h2.51a1.49,1.49,0,0,0-.35-1A1.17,1.17,0,0,0,81.91,100.5Z"/>
        <path class="314f323b-619d-490b-b6d1-d36bdd312d71" d="M86.21,97.66q0-.87,1-.87t1,.87a.85.85,0,0,1-.24.65,1,1,0,0,1-.73.23Q86.21,98.53,86.21,97.66Zm1.86,8.24H86.29V99.35h1.79Z"/>
        <path class="314f323b-619d-490b-b6d1-d36bdd312d71" d="M92.61,106q-3.06,0-3.06-3.36a3.58,3.58,0,0,1,.83-2.55,3.12,3.12,0,0,1,2.38-.88,4.55,4.55,0,0,1,2,.45l-.53,1.38q-.42-.17-.79-.28a2.53,2.53,0,0,0-.73-.11q-1.39,0-1.39,2t1.39,1.92a3.18,3.18,0,0,0,1-.14,3.45,3.45,0,0,0,.88-.43v1.53a2.88,2.88,0,0,1-.88.38A4.93,4.93,0,0,1,92.61,106Z"/>
        <path class="314f323b-619d-490b-b6d1-d36bdd312d71" d="M102.17,105.9h-1.79v-3.83q0-1.42-1.05-1.42a1.2,1.2,0,0,0-1.08.51,3.11,3.11,0,0,0-.33,1.65v3.08H96.12V96.78h1.79v1.86q0,.22,0,1l0,.53h.09a2.07,2.07,0,0,1,1.9-1,2.32,2.32,0,0,1,1.75.62,2.47,2.47,0,0,1,.6,1.78Z"/>
        <path class="314f323b-619d-490b-b6d1-d36bdd312d71" d="M107,106a3.38,3.38,0,0,1-2.47-.87,3.31,3.31,0,0,1-.89-2.47,3.64,3.64,0,0,1,.82-2.55,2.93,2.93,0,0,1,2.28-.9,2.89,2.89,0,0,1,2.16.79,3,3,0,0,1,.77,2.19v.87h-4.22a1.72,1.72,0,0,0,.45,1.19,1.59,1.59,0,0,0,1.18.43,4.91,4.91,0,0,0,1.12-.12,5.6,5.6,0,0,0,1.1-.39v1.38a4.2,4.2,0,0,1-1,.35A6.32,6.32,0,0,1,107,106Zm-.25-5.52a1.13,1.13,0,0,0-.89.36,1.67,1.67,0,0,0-.37,1H108a1.49,1.49,0,0,0-.35-1A1.17,1.17,0,0,0,106.72,100.5Z"/>
        <path class="314f323b-619d-490b-b6d1-d36bdd312d71" d="M117.14,105.9h-1.79v-3.83a1.84,1.84,0,0,0-.25-1.06.92.92,0,0,0-.8-.35,1.21,1.21,0,0,0-1.08.5,3.11,3.11,0,0,0-.33,1.66v3.08H111.1V99.35h1.37l.24.84h.1a1.89,1.89,0,0,1,.82-.72,2.8,2.8,0,0,1,1.19-.24,2.29,2.29,0,0,1,1.73.62,2.48,2.48,0,0,1,.59,1.78Z"/>
        <path class="314f323b-619d-490b-b6d1-d36bdd312d71" d="M121.06,106a2.13,2.13,0,0,1-1.81-.9,5,5,0,0,1,0-5,2.18,2.18,0,0,1,1.85-.9,2.14,2.14,0,0,1,1.89,1h.06a7.31,7.31,0,0,1-.13-1.31v-2.1h1.79v9.12h-1.37L123,105h-.08A2,2,0,0,1,121.06,106Zm.63-1.42a1.21,1.21,0,0,0,1-.4,2.32,2.32,0,0,0,.35-1.35v-.19a2.68,2.68,0,0,0-.33-1.51,1.21,1.21,0,0,0-1.06-.46,1,1,0,0,0-.93.51,2.7,2.7,0,0,0-.33,1.47,2.56,2.56,0,0,0,.33,1.45A1.09,1.09,0,0,0,121.69,104.59Z"/>
        <path class="314f323b-619d-490b-b6d1-d36bdd312d71" d="M129.54,106a3.38,3.38,0,0,1-2.47-.87,3.31,3.31,0,0,1-.89-2.47,3.64,3.64,0,0,1,.82-2.55,2.93,2.93,0,0,1,2.28-.9,2.89,2.89,0,0,1,2.16.79,3,3,0,0,1,.77,2.19v.87H128a1.72,1.72,0,0,0,.45,1.19,1.59,1.59,0,0,0,1.18.43,4.91,4.91,0,0,0,1.12-.12,5.6,5.6,0,0,0,1.1-.39v1.38a4.2,4.2,0,0,1-1,.35A6.32,6.32,0,0,1,129.54,106Zm-.25-5.52a1.13,1.13,0,0,0-.89.36,1.67,1.67,0,0,0-.37,1h2.51a1.49,1.49,0,0,0-.35-1A1.17,1.17,0,0,0,129.29,100.5Z"/>
        <path class="314f323b-619d-490b-b6d1-d36bdd312d71" d="M139.71,105.9h-1.79v-3.83a1.84,1.84,0,0,0-.25-1.06.92.92,0,0,0-.8-.35,1.21,1.21,0,0,0-1.08.5,3.11,3.11,0,0,0-.33,1.66v3.08h-1.79V99.35H135l.24.84h.1a1.89,1.89,0,0,1,.82-.72,2.8,2.8,0,0,1,1.19-.24,2.29,2.29,0,0,1,1.73.62,2.48,2.48,0,0,1,.59,1.78Z"/>
        <path class="314f323b-619d-490b-b6d1-d36bdd312d71" d="M146.63,102.61v3.29h-1.82V97.33h2.5a4.27,4.27,0,0,1,2.58.64,2.53,2.53,0,0,1,.42,3.28,2.75,2.75,0,0,1-1.18.92q1.93,2.89,2.52,3.73h-2l-2-3.29Zm0-1.48h.59a2.24,2.24,0,0,0,1.27-.29,1,1,0,0,0,.41-.9.94.94,0,0,0-.42-.87,2.54,2.54,0,0,0-1.3-.26h-.55Z"/>
        <path class="314f323b-619d-490b-b6d1-d36bdd312d71" d="M155.56,106a3.38,3.38,0,0,1-2.47-.87,3.31,3.31,0,0,1-.89-2.47,3.64,3.64,0,0,1,.82-2.55,2.93,2.93,0,0,1,2.28-.9,2.89,2.89,0,0,1,2.16.79,3,3,0,0,1,.77,2.19v.87H154a1.72,1.72,0,0,0,.45,1.19,1.59,1.59,0,0,0,1.18.43,4.91,4.91,0,0,0,1.12-.12,5.6,5.6,0,0,0,1.1-.39v1.38a4.2,4.2,0,0,1-1,.35A6.32,6.32,0,0,1,155.56,106Zm-.25-5.52a1.13,1.13,0,0,0-.89.36,1.67,1.67,0,0,0-.37,1h2.51a1.49,1.49,0,0,0-.35-1A1.17,1.17,0,0,0,155.31,100.5Z"/>
        <path class="314f323b-619d-490b-b6d1-d36bdd312d71" d="M162.34,106q-3.06,0-3.06-3.36a3.58,3.58,0,0,1,.83-2.55,3.12,3.12,0,0,1,2.38-.88,4.55,4.55,0,0,1,2,.45l-.53,1.38q-.42-.17-.79-.28a2.53,2.53,0,0,0-.73-.11q-1.39,0-1.39,2t1.39,1.92a3.18,3.18,0,0,0,1-.14,3.45,3.45,0,0,0,.88-.43v1.53a2.88,2.88,0,0,1-.88.38A4.93,4.93,0,0,1,162.34,106Z"/>
        <path class="314f323b-619d-490b-b6d1-d36bdd312d71" d="M171.9,105.9h-1.79v-3.83q0-1.42-1.05-1.42a1.2,1.2,0,0,0-1.08.51,3.11,3.11,0,0,0-.33,1.65v3.08h-1.79V96.78h1.79v1.86q0,.22,0,1l0,.53h.09a2.07,2.07,0,0,1,1.9-1,2.32,2.32,0,0,1,1.75.62,2.47,2.47,0,0,1,.6,1.78Z"/>
        <path class="314f323b-619d-490b-b6d1-d36bdd312d71" d="M176.5,104.59a3.87,3.87,0,0,0,1.13-.21v1.33a4,4,0,0,1-1.64.3,2,2,0,0,1-1.56-.54,2.36,2.36,0,0,1-.49-1.63v-3.16h-.86v-.76l1-.6.52-1.38h1.14v1.39h1.83v1.34h-1.83v3.16a.7.7,0,0,0,.21.56A.84.84,0,0,0,176.5,104.59Z"/>
        <path class="314f323b-619d-490b-b6d1-d36bdd312d71" d="M181.91,106a3.38,3.38,0,0,1-2.47-.87,3.31,3.31,0,0,1-.89-2.47,3.64,3.64,0,0,1,.82-2.55,2.93,2.93,0,0,1,2.28-.9,2.89,2.89,0,0,1,2.16.79,3,3,0,0,1,.77,2.19v.87h-4.22a1.72,1.72,0,0,0,.45,1.19,1.59,1.59,0,0,0,1.18.43,4.91,4.91,0,0,0,1.12-.12,5.6,5.6,0,0,0,1.1-.39v1.38a4.2,4.2,0,0,1-1,.35A6.32,6.32,0,0,1,181.91,106Zm-.25-5.52a1.13,1.13,0,0,0-.89.36,1.67,1.67,0,0,0-.37,1h2.51a1.49,1.49,0,0,0-.35-1A1.17,1.17,0,0,0,181.66,100.5Z"/>
      </g>
    </g>
  </g>
</svg>
