<?xml version="1.0" encoding="UTF-8" standalone="no"?><!DOCTYPE svg PUBLIC "-//W3C//DTD SVG 1.1//EN" "http://www.w3.org/Graphics/SVG/1.1/DTD/svg11.dtd"><svg width="100%" height="100%" viewBox="0 0 200 150" version="1.1" xmlns="http://www.w3.org/2000/svg" xmlns:xlink="http://www.w3.org/1999/xlink" xml:space="preserve" xmlns:serif="http://www.serif.com/" style="fill-rule:evenodd;clip-rule:evenodd;stroke-linejoin:round;stroke-miterlimit:1.41421;"><rect x="-1.562" y="-0.694" width="203.125" height="153.125" style="fill:#fff;"/><g id="f7ebd85d-aa6c-4ed2-abf3-0c10b167102d"><path d="M100,28.33l-21,9.34l0,14c0,12.95 9,25.06 21,28c12,-2.94 21,-15.05 21,-28l0,-14l-21,-9.34Zm0,25.67l16.33,0c-1.24,9.61 -7.65,18.18 -16.33,20.86l0,-20.86l-16.33,0l0,-13.3l16.33,-7.26l0,20.56Z" style="fill-rule:nonzero;"/><g><path d="M39.41,122.9l-1.14,0l-4.68,-7.19c0.06,0.847 0.09,1.62 0.09,2.32l0,4.87l-0.92,0l0,-8.57l1.13,0l4.67,7.16c0,-0.107 -0.017,-0.44 -0.05,-1c-0.033,-0.56 -0.033,-0.97 0,-1.23l0,-4.92l0.93,0l-0.03,8.56Z" style="fill-rule:nonzero;"/><path d="M47.16,119.68c0.053,0.887 -0.229,1.762 -0.79,2.45c-0.564,0.603 -1.366,0.925 -2.19,0.88c-0.537,0.012 -1.067,-0.127 -1.53,-0.4c-0.439,-0.281 -0.787,-0.684 -1,-1.16c-0.253,-0.555 -0.377,-1.16 -0.36,-1.77c-0.053,-0.887 0.229,-1.762 0.79,-2.45c0.56,-0.601 1.359,-0.923 2.18,-0.88c0.811,-0.035 1.597,0.296 2.14,0.9c0.547,0.687 0.818,1.554 0.76,2.43Zm-4.89,0c-0.05,0.664 0.123,1.325 0.49,1.88c0.377,0.397 0.902,0.623 1.45,0.623c0.548,0 1.073,-0.226 1.45,-0.623c0.371,-0.554 0.547,-1.215 0.5,-1.88c0.042,-0.658 -0.133,-1.312 -0.5,-1.86c-0.354,-0.436 -0.899,-0.675 -1.46,-0.64c-0.553,-0.036 -1.091,0.199 -1.44,0.63c-0.365,0.552 -0.537,1.21 -0.49,1.87Z" style="fill-rule:nonzero;"/><path d="M55.93,122.9l-0.19,-0.91c-0.262,0.35 -0.605,0.632 -1,0.82c-0.378,0.152 -0.783,0.224 -1.19,0.21c-0.544,0.034 -1.081,-0.142 -1.5,-0.49c-0.375,-0.366 -0.572,-0.877 -0.54,-1.4c0,-1.3 1.037,-1.967 3.11,-2l1.09,0l0,-0.4c0.032,-0.401 -0.086,-0.8 -0.33,-1.12c-0.269,-0.253 -0.631,-0.383 -1,-0.36c-0.636,0.025 -1.258,0.192 -1.82,0.49l-0.3,-0.74c0.316,-0.172 0.652,-0.307 1,-0.4c0.369,-0.098 0.748,-0.148 1.13,-0.15c0.61,-0.048 1.217,0.134 1.7,0.51c0.404,0.442 0.604,1.034 0.55,1.63l0,4.38l-0.71,-0.07Zm-2.2,-0.69c0.524,0.027 1.037,-0.152 1.43,-0.5c0.361,-0.37 0.549,-0.874 0.52,-1.39l0,-0.58l-1,0c-0.578,-0.018 -1.151,0.105 -1.67,0.36c-0.341,0.213 -0.538,0.599 -0.51,1c-0.02,0.301 0.098,0.595 0.32,0.8c0.254,0.213 0.579,0.324 0.91,0.31Z" style="fill-rule:nonzero;"/><path d="M63,122c-0.447,0.658 -1.206,1.037 -2,1c-0.766,0.053 -1.512,-0.268 -2,-0.86c-0.509,-0.711 -0.756,-1.577 -0.7,-2.45c-0.055,-0.879 0.192,-1.751 0.7,-2.47c0.483,-0.601 1.23,-0.93 2,-0.88c0.783,-0.039 1.535,0.319 2,0.95l0,-0.46l0,-0.45l0,-2.61l1,0l0,9.12l-0.79,0l-0.21,-0.89Zm-1.95,0.16c0.537,0.049 1.068,-0.15 1.44,-0.54c0.343,-0.516 0.502,-1.133 0.45,-1.75l0,-0.21c0.061,-0.681 -0.097,-1.364 -0.45,-1.95c-0.362,-0.414 -0.902,-0.63 -1.45,-0.58c-0.524,-0.023 -1.022,0.232 -1.31,0.67c-0.334,0.568 -0.49,1.223 -0.45,1.88c-0.045,0.651 0.112,1.301 0.45,1.86c0.303,0.441 0.816,0.691 1.35,0.66l-0.03,-0.04Z" style="fill-rule:nonzero;"/><path d="M68.72,123c-0.838,0.038 -1.655,-0.278 -2.25,-0.87c-0.579,-0.664 -0.873,-1.531 -0.82,-2.41c-0.05,-0.887 0.22,-1.764 0.76,-2.47c0.505,-0.605 1.263,-0.941 2.05,-0.91c0.722,-0.035 1.424,0.255 1.91,0.79c0.49,0.582 0.74,1.33 0.7,2.09l0,0.62l-4.41,0c-0.027,0.624 0.176,1.236 0.57,1.72c0.402,0.406 0.959,0.621 1.53,0.59c0.705,-0.002 1.403,-0.148 2.05,-0.43l0,0.87c-0.322,0.14 -0.657,0.248 -1,0.32c-0.359,0.066 -0.725,0.096 -1.09,0.09Zm-0.26,-5.84c-0.463,-0.021 -0.913,0.162 -1.23,0.5c-0.328,0.391 -0.518,0.88 -0.54,1.39l3.31,0c0.034,-0.504 -0.111,-1.003 -0.41,-1.41c-0.288,-0.317 -0.702,-0.489 -1.13,-0.47l0,-0.01Z" style="fill-rule:nonzero;"/><path d="M75,123c-0.748,0.037 -1.47,-0.286 -1.94,-0.87c-0.505,-0.709 -0.752,-1.571 -0.7,-2.44c-0.053,-0.876 0.194,-1.744 0.7,-2.46c0.49,-0.569 1.204,-0.897 1.955,-0.897c0.801,0 1.557,0.373 2.045,1.007l0.05,0l0.14,-0.88l0.75,0l0,9.3l-1,0l0,-2.76c-0.006,-0.334 0.014,-0.669 0.06,-1l-0.06,0c-0.448,0.656 -1.206,1.035 -2,1Zm0.15,-0.81c0.527,0.048 1.048,-0.143 1.42,-0.52c0.347,-0.518 0.512,-1.138 0.47,-1.76l0,-0.22c0.056,-0.679 -0.105,-1.359 -0.46,-1.94c-0.359,-0.419 -0.9,-0.639 -1.45,-0.59c-0.524,-0.023 -1.022,0.232 -1.31,0.67c-0.334,0.568 -0.49,1.223 -0.45,1.88c-0.042,0.648 0.115,1.294 0.45,1.85c0.307,0.435 0.82,0.678 1.35,0.64l-0.02,-0.01Z" style="fill-rule:nonzero;"/><path d="M81,116.48l0,4.17c-0.031,0.421 0.097,0.839 0.36,1.17c0.301,0.282 0.709,0.424 1.12,0.39c0.547,0.047 1.088,-0.155 1.47,-0.55c0.359,-0.528 0.525,-1.164 0.47,-1.8l0,-3.37l1,0l0,6.42l-0.8,0l-0.14,-0.86l-0.08,0c-0.2,0.319 -0.488,0.572 -0.83,0.73c-0.38,0.173 -0.793,0.258 -1.21,0.25c-0.634,0.047 -1.262,-0.154 -1.75,-0.56c-0.429,-0.488 -0.639,-1.132 -0.58,-1.78l0,-4.2l0.97,-0.01Z" style="fill-rule:nonzero;"/><path d="M91.41,122.9l-0.19,-0.91c-0.262,0.35 -0.605,0.632 -1,0.82c-0.388,0.15 -0.804,0.214 -1.22,0.19c-0.544,0.034 -1.081,-0.142 -1.5,-0.49c-0.375,-0.366 -0.572,-0.877 -0.54,-1.4c0,-1.3 1.037,-1.967 3.11,-2l1.09,0l0,-0.4c0.032,-0.401 -0.086,-0.8 -0.33,-1.12c-0.269,-0.253 -0.631,-0.383 -1,-0.36c-0.636,0.025 -1.258,0.192 -1.82,0.49l-0.3,-0.74c0.316,-0.172 0.652,-0.307 1,-0.4c0.369,-0.098 0.748,-0.148 1.13,-0.15c0.61,-0.048 1.217,0.134 1.7,0.51c0.404,0.442 0.604,1.034 0.55,1.63l0,4.38l-0.68,-0.05Zm-2.2,-0.69c0.524,0.027 1.037,-0.152 1.43,-0.5c0.361,-0.37 0.549,-0.874 0.52,-1.39l0,-0.58l-1,0c-0.578,-0.018 -1.151,0.105 -1.67,0.36c-0.341,0.213 -0.538,0.599 -0.51,1c-0.02,0.301 0.098,0.595 0.32,0.8c0.254,0.213 0.579,0.324 0.91,0.31Z" style="fill-rule:nonzero;"/><path d="M96.21,122.21c0.166,0.013 0.334,0.013 0.5,0l0.38,-0.08l0,0.74c-0.15,0.065 -0.308,0.108 -0.47,0.13c-0.183,0.014 -0.367,0.014 -0.55,0c-1.24,0 -1.86,-0.667 -1.86,-2l0,-3.82l-0.92,0l0,-0.47l0.92,-0.4l0.41,-1.37l0.56,0l0,1.49l1.82,0l0,0.76l-1.82,0l0,3.81c-0.02,0.321 0.08,0.638 0.28,0.89c0.193,0.208 0.466,0.325 0.75,0.32Z" style="fill-rule:nonzero;"/><path d="M104.48,123c-0.395,0.006 -0.787,-0.072 -1.15,-0.23c-0.348,-0.155 -0.648,-0.4 -0.87,-0.71l-0.07,0c0.046,0.355 0.069,0.712 0.07,1.07l0,2.64l-1,0l0,-9.3l0.79,0l0.13,0.88c0.219,-0.324 0.519,-0.586 0.87,-0.76c0.358,-0.16 0.748,-0.239 1.14,-0.23c0.768,-0.052 1.515,0.273 2,0.87c0.933,1.501 0.933,3.409 0,4.91c-0.469,0.566 -1.175,0.884 -1.91,0.86Zm-0.14,-5.83c-0.531,-0.05 -1.056,0.15 -1.42,0.54c-0.335,0.512 -0.493,1.12 -0.45,1.73l0,0.22c-0.059,0.678 0.098,1.357 0.45,1.94c0.362,0.414 0.902,0.63 1.45,0.58c0.52,0.017 1.013,-0.237 1.3,-0.67c0.343,-0.557 0.507,-1.207 0.47,-1.86c0.041,-0.647 -0.123,-1.292 -0.47,-1.84c-0.311,-0.416 -0.811,-0.65 -1.33,-0.62l0,-0.02Z" style="fill-rule:nonzero;"/><path d="M111.55,123c-0.838,0.038 -1.655,-0.278 -2.25,-0.87c-0.579,-0.664 -0.873,-1.531 -0.82,-2.41c-0.05,-0.887 0.22,-1.764 0.76,-2.47c0.505,-0.605 1.263,-0.941 2.05,-0.91c0.722,-0.035 1.424,0.255 1.91,0.79c0.49,0.582 0.74,1.33 0.7,2.09l0,0.62l-4.42,0c-0.027,0.624 0.176,1.236 0.57,1.72c0.402,0.406 0.959,0.621 1.53,0.59c0.705,-0.002 1.403,-0.148 2.05,-0.43l0,0.87c-0.322,0.14 -0.657,0.248 -1,0.32c-0.356,0.066 -0.718,0.096 -1.08,0.09Zm-0.26,-5.84c-0.463,-0.021 -0.913,0.162 -1.23,0.5c-0.328,0.391 -0.518,0.88 -0.54,1.39l3.36,0c0.034,-0.504 -0.111,-1.003 -0.41,-1.41c-0.299,-0.331 -0.735,-0.505 -1.18,-0.47l0,-0.01Z" style="fill-rule:nonzero;"/><path d="M118.5,116.36c0.258,-0.003 0.516,0.021 0.77,0.07l-0.13,0.9c-0.229,-0.055 -0.464,-0.085 -0.7,-0.09c-0.515,-0.001 -1.005,0.23 -1.33,0.63c-0.374,0.439 -0.571,1.003 -0.55,1.58l0,3.45l-1,0l0,-6.42l0.8,0l0.11,1.19c0.204,-0.397 0.498,-0.739 0.86,-1c0.347,-0.225 0.757,-0.334 1.17,-0.31Z" style="fill-rule:nonzero;"/><path d="M128.66,122.9l0,-4.18c0.03,-0.41 -0.087,-0.818 -0.33,-1.15c-0.261,-0.268 -0.627,-0.407 -1,-0.38c-0.502,-0.041 -0.996,0.151 -1.34,0.52c-0.325,0.471 -0.477,1.04 -0.43,1.61l0,3.59l-1,0l0,-4.18c0.03,-0.41 -0.087,-0.818 -0.33,-1.15c-0.262,-0.266 -0.627,-0.405 -1,-0.38c-0.509,-0.043 -1.008,0.162 -1.34,0.55c-0.326,0.541 -0.473,1.171 -0.42,1.8l0,3.37l-1,0l0,-6.42l0.79,0l0.16,0.88c0.185,-0.313 0.456,-0.566 0.78,-0.73c0.346,-0.177 0.731,-0.267 1.12,-0.26c0.832,-0.117 1.648,0.328 2,1.09c0.192,-0.342 0.481,-0.621 0.83,-0.8c0.383,-0.199 0.809,-0.298 1.24,-0.29c0.597,-0.046 1.187,0.156 1.63,0.56c0.405,0.504 0.598,1.146 0.54,1.79l0,4.19l-0.9,-0.03Z" style="fill-rule:nonzero;"/><path d="M131.55,114.74c-0.016,-0.178 0.041,-0.356 0.16,-0.49c0.23,-0.204 0.58,-0.204 0.81,0c0.124,0.131 0.186,0.31 0.17,0.49c0.015,0.18 -0.047,0.358 -0.17,0.49c-0.228,0.209 -0.582,0.209 -0.81,0c-0.117,-0.135 -0.175,-0.312 -0.16,-0.49Zm1.05,8.16l-1,0l0,-6.42l1,0l0,6.42Z" style="fill-rule:nonzero;"/><path d="M138.81,121.15c0.024,0.543 -0.228,1.063 -0.67,1.38c-0.556,0.356 -1.211,0.527 -1.87,0.49c-0.69,0.038 -1.378,-0.1 -2,-0.4l0,-0.9c0.319,0.16 0.654,0.284 1,0.37c0.327,0.084 0.663,0.127 1,0.13c0.404,0.023 0.808,-0.059 1.17,-0.24c0.25,-0.152 0.403,-0.425 0.403,-0.718c0,-0.258 -0.119,-0.503 -0.323,-0.662c-0.392,-0.268 -0.82,-0.48 -1.27,-0.63c-0.442,-0.15 -0.867,-0.344 -1.27,-0.58c-0.228,-0.144 -0.42,-0.339 -0.56,-0.57c-0.127,-0.232 -0.19,-0.495 -0.18,-0.76c-0.015,-0.495 0.228,-0.965 0.64,-1.24c0.523,-0.326 1.134,-0.483 1.75,-0.45c0.688,0.004 1.368,0.147 2,0.42l-0.35,0.79c-0.552,-0.246 -1.146,-0.382 -1.75,-0.4c-0.347,-0.015 -0.691,0.061 -1,0.22c-0.219,0.119 -0.354,0.351 -0.35,0.6c-0.005,0.157 0.041,0.311 0.13,0.44c0.114,0.145 0.257,0.264 0.42,0.35c0.366,0.181 0.744,0.338 1.13,0.47c0.567,0.168 1.092,0.455 1.54,0.84c0.27,0.282 0.417,0.66 0.41,1.05Z" style="fill-rule:nonzero;"/><path d="M144.54,121.15c0.024,0.543 -0.228,1.063 -0.67,1.38c-0.559,0.349 -1.213,0.513 -1.87,0.47c-0.69,0.038 -1.378,-0.1 -2,-0.4l0,-0.9c0.319,0.16 0.654,0.284 1,0.37c0.327,0.084 0.663,0.127 1,0.13c0.404,0.023 0.808,-0.059 1.17,-0.24c0.25,-0.152 0.403,-0.425 0.403,-0.718c0,-0.258 -0.119,-0.503 -0.323,-0.662c-0.389,-0.249 -0.809,-0.444 -1.25,-0.58c-0.442,-0.15 -0.867,-0.344 -1.27,-0.58c-0.228,-0.144 -0.42,-0.339 -0.56,-0.57c-0.127,-0.232 -0.19,-0.495 -0.18,-0.76c-0.015,-0.495 0.228,-0.965 0.64,-1.24c0.523,-0.326 1.134,-0.483 1.75,-0.45c0.688,0.004 1.368,0.147 2,0.42l-0.35,0.79c-0.552,-0.246 -1.146,-0.382 -1.75,-0.4c-0.347,-0.015 -0.691,0.061 -1,0.22c-0.219,0.119 -0.354,0.351 -0.35,0.6c-0.005,0.157 0.041,0.311 0.13,0.44c0.114,0.145 0.257,0.264 0.42,0.35c0.366,0.181 0.744,0.338 1.13,0.47c0.567,0.168 1.092,0.455 1.54,0.84c0.255,0.278 0.395,0.643 0.39,1.02Z" style="fill-rule:nonzero;"/><path d="M146,114.74c-0.016,-0.178 0.041,-0.356 0.16,-0.49c0.23,-0.204 0.58,-0.204 0.81,0c0.124,0.131 0.186,0.31 0.17,0.49c0.015,0.18 -0.047,0.358 -0.17,0.49c-0.228,0.209 -0.582,0.209 -0.81,0c-0.117,-0.135 -0.175,-0.312 -0.16,-0.49Zm1.05,8.16l-1,0l0,-6.42l1,0l0,6.42Z" style="fill-rule:nonzero;"/><path d="M154.7,119.68c0.053,0.887 -0.229,1.762 -0.79,2.45c-0.564,0.603 -1.366,0.925 -2.19,0.88c-0.537,0.012 -1.067,-0.127 -1.53,-0.4c-0.439,-0.281 -0.787,-0.684 -1,-1.16c-0.253,-0.555 -0.377,-1.16 -0.36,-1.77c-0.053,-0.887 0.229,-1.762 0.79,-2.45c0.56,-0.601 1.359,-0.923 2.18,-0.88c0.811,-0.035 1.597,0.296 2.14,0.9c0.547,0.687 0.818,1.554 0.76,2.43Zm-4.89,0c-0.05,0.664 0.123,1.325 0.49,1.88c0.377,0.397 0.902,0.623 1.45,0.623c0.548,0 1.073,-0.226 1.45,-0.623c0.371,-0.554 0.547,-1.215 0.5,-1.88c0.042,-0.658 -0.133,-1.312 -0.5,-1.86c-0.354,-0.436 -0.899,-0.675 -1.46,-0.64c-0.553,-0.036 -1.091,0.199 -1.44,0.63c-0.369,0.551 -0.545,1.209 -0.5,1.87l0.01,0Z" style="fill-rule:nonzero;"/><path d="M160.8,122.9l0,-4.15c0.031,-0.421 -0.097,-0.839 -0.36,-1.17c-0.301,-0.282 -0.709,-0.424 -1.12,-0.39c-0.549,-0.05 -1.092,0.149 -1.48,0.54c-0.361,0.527 -0.527,1.164 -0.47,1.8l0,3.37l-1,0l0,-6.42l0.79,0l0.16,0.88c0.204,-0.322 0.495,-0.578 0.84,-0.74c0.375,-0.177 0.785,-0.266 1.2,-0.26c0.634,-0.048 1.262,0.153 1.75,0.56c0.434,0.49 0.648,1.138 0.59,1.79l0,4.19l-0.9,0Z" style="fill-rule:nonzero;"/><path d="M167.91,121.15c0.024,0.543 -0.228,1.063 -0.67,1.38c-0.556,0.356 -1.211,0.527 -1.87,0.49c-0.69,0.038 -1.378,-0.1 -2,-0.4l0,-0.9c0.319,0.16 0.654,0.284 1,0.37c0.327,0.084 0.663,0.127 1,0.13c0.404,0.023 0.808,-0.059 1.17,-0.24c0.25,-0.152 0.403,-0.425 0.403,-0.718c0,-0.258 -0.119,-0.503 -0.323,-0.662c-0.392,-0.268 -0.82,-0.48 -1.27,-0.63c-0.442,-0.15 -0.867,-0.344 -1.27,-0.58c-0.228,-0.144 -0.42,-0.339 -0.56,-0.57c-0.127,-0.232 -0.19,-0.495 -0.18,-0.76c-0.015,-0.495 0.228,-0.965 0.64,-1.24c0.523,-0.326 1.134,-0.483 1.75,-0.45c0.688,0.004 1.368,0.147 2,0.42l-0.35,0.79c-0.552,-0.246 -1.146,-0.382 -1.75,-0.4c-0.347,-0.015 -0.691,0.061 -1,0.22c-0.219,0.119 -0.354,0.351 -0.35,0.6c-0.005,0.157 0.041,0.311 0.13,0.44c0.114,0.145 0.257,0.264 0.42,0.35c0.366,0.181 0.744,0.338 1.13,0.47c0.567,0.168 1.092,0.455 1.54,0.84c0.27,0.282 0.417,0.66 0.41,1.05Z" style="fill-rule:nonzero;"/></g><g><path d="M22.87,105.9l-2.07,0l-2.24,-3.61l-0.77,0.55l0,3.06l-1.79,0l0,-8.57l1.82,0l0,3.92l0.71,-1l2.32,-2.91l2,0l-3,3.79l3.02,4.77Z" style="fill-rule:nonzero;"/><path d="M26.77,106c-0.906,0.054 -1.797,-0.26 -2.47,-0.87c-0.624,-0.665 -0.946,-1.56 -0.89,-2.47c-0.061,-0.923 0.233,-1.835 0.82,-2.55c0.592,-0.618 1.425,-0.948 2.28,-0.9c0.798,-0.047 1.581,0.239 2.16,0.79c0.54,0.597 0.818,1.387 0.77,2.19l0,0.87l-4.22,0c-0.008,0.439 0.154,0.866 0.45,1.19c0.318,0.299 0.745,0.455 1.18,0.43c0.377,0.003 0.753,-0.037 1.12,-0.12c0.379,-0.091 0.748,-0.222 1.1,-0.39l0,1.38c-0.317,0.158 -0.653,0.276 -1,0.35c-0.429,0.078 -0.864,0.112 -1.3,0.1Zm-0.25,-5.52c-0.335,-0.018 -0.662,0.114 -0.89,0.36c-0.229,0.284 -0.359,0.635 -0.37,1l2.51,0c0.01,-0.365 -0.115,-0.721 -0.35,-1c-0.237,-0.237 -0.565,-0.361 -0.9,-0.34l0,-0.02Z" style="fill-rule:nonzero;"/><path d="M30.82,97.66c0,-0.58 0.333,-0.87 1,-0.87c0.667,0 1,0.29 1,0.87c0.016,0.241 -0.071,0.477 -0.24,0.65c-0.203,0.17 -0.466,0.253 -0.73,0.23c-0.687,-0.007 -1.03,-0.3 -1.03,-0.88Zm1.86,8.24l-1.79,0l0,-6.55l1.79,0l0,6.55Z" style="fill-rule:nonzero;"/><path d="M40.6,105.9l-1.78,0l0,-3.83c0.026,-0.37 -0.062,-0.74 -0.25,-1.06c-0.191,-0.244 -0.492,-0.375 -0.8,-0.35c-0.422,-0.034 -0.833,0.156 -1.08,0.5c-0.261,0.512 -0.376,1.087 -0.33,1.66l0,3.08l-1.8,0l0,-6.55l1.37,0l0.24,0.84l0.1,0c0.197,-0.315 0.482,-0.566 0.82,-0.72c0.374,-0.166 0.781,-0.248 1.19,-0.24c0.638,-0.044 1.265,0.181 1.73,0.62c0.422,0.493 0.634,1.133 0.59,1.78l0,4.27Z" style="fill-rule:nonzero;"/><path d="M45.41,106c-0.906,0.054 -1.797,-0.26 -2.47,-0.87c-0.624,-0.665 -0.946,-1.56 -0.89,-2.47c-0.061,-0.923 0.233,-1.835 0.82,-2.55c0.592,-0.618 1.425,-0.948 2.28,-0.9c0.798,-0.047 1.581,0.239 2.16,0.79c0.54,0.597 0.818,1.387 0.77,2.19l0,0.87l-4.22,0c-0.008,0.439 0.154,0.866 0.45,1.19c0.318,0.299 0.745,0.455 1.18,0.43c0.377,0.003 0.753,-0.037 1.12,-0.12c0.379,-0.091 0.748,-0.222 1.1,-0.39l0,1.38c-0.317,0.158 -0.653,0.276 -1,0.35c-0.429,0.078 -0.864,0.112 -1.3,0.1Zm-0.25,-5.52c-0.335,-0.018 -0.662,0.114 -0.89,0.36c-0.229,0.284 -0.359,0.635 -0.37,1l2.5,0c0.01,-0.365 -0.115,-0.721 -0.35,-1c-0.235,-0.234 -0.559,-0.358 -0.89,-0.34l0,-0.02Z" style="fill-rule:nonzero;"/><path d="M56.81,105.9l-0.35,-0.89c-0.244,0.332 -0.563,0.603 -0.93,0.79c-0.396,0.162 -0.822,0.237 -1.25,0.22c-0.55,0.033 -1.089,-0.163 -1.49,-0.54c-0.383,-0.418 -0.578,-0.975 -0.54,-1.54c-0.044,-0.605 0.234,-1.191 0.73,-1.54c0.67,-0.38 1.43,-0.57 2.2,-0.55l1.14,0l0,-0.29c0.005,-0.039 0.008,-0.078 0.008,-0.118c0,-0.488 -0.402,-0.89 -0.89,-0.89c-0.04,0 -0.079,0.003 -0.118,0.008c-0.643,0.027 -1.272,0.187 -1.85,0.47l-0.59,-1.21c0.776,-0.399 1.638,-0.602 2.51,-0.59c0.712,-0.044 1.418,0.157 2,0.57c0.494,0.442 0.753,1.09 0.7,1.75l0,4.37l-1.28,-0.02Zm-0.53,-3l-0.69,0c-0.405,-0.015 -0.806,0.082 -1.16,0.28c-0.258,0.177 -0.403,0.478 -0.38,0.79c0,0.507 0.29,0.76 0.87,0.76c0.368,0.019 0.729,-0.11 1,-0.36c0.252,-0.25 0.386,-0.596 0.37,-0.95l-0.01,-0.52Z" style="fill-rule:nonzero;"/><path d="M64.54,105.9l-0.24,-0.84l-0.09,0c-0.195,0.31 -0.477,0.557 -0.81,0.71c-0.376,0.172 -0.786,0.257 -1.2,0.25c-0.641,0.047 -1.273,-0.178 -1.74,-0.62c-0.421,-0.494 -0.633,-1.133 -0.59,-1.78l0,-4.27l1.79,0l0,3.83c-0.026,0.37 0.062,0.74 0.25,1.06c0.191,0.244 0.492,0.375 0.8,0.35c0.422,0.034 0.833,-0.156 1.08,-0.5c0.261,-0.512 0.376,-1.087 0.33,-1.66l0,-3.08l1.79,0l0,6.55l-1.37,0Z" style="fill-rule:nonzero;"/><path d="M72.36,104c0.037,0.597 -0.225,1.175 -0.7,1.54c-0.622,0.395 -1.355,0.58 -2.09,0.53c-0.409,0.005 -0.817,-0.029 -1.22,-0.1c-0.322,-0.06 -0.638,-0.154 -0.94,-0.28l0,-1.48c0.36,0.165 0.735,0.296 1.12,0.39c0.359,0.098 0.728,0.152 1.1,0.16c0.667,0 1,-0.187 1,-0.56c0.004,-0.126 -0.043,-0.249 -0.13,-0.34c-0.135,-0.121 -0.286,-0.222 -0.45,-0.3c-0.213,-0.113 -0.493,-0.243 -0.84,-0.39c-0.392,-0.152 -0.765,-0.35 -1.11,-0.59c-0.222,-0.16 -0.401,-0.373 -0.52,-0.62c-0.116,-0.271 -0.171,-0.565 -0.16,-0.86c-0.021,-0.537 0.236,-1.048 0.68,-1.35c0.566,-0.363 1.229,-0.544 1.9,-0.52c0.795,0.003 1.58,0.181 2.3,0.52l-0.55,1.25c-0.327,-0.14 -0.633,-0.257 -0.92,-0.35c-0.282,-0.087 -0.575,-0.131 -0.87,-0.13c-0.527,0 -0.79,0.143 -0.79,0.43c0.005,0.174 0.099,0.333 0.25,0.42c0.357,0.206 0.732,0.38 1.12,0.52c0.399,0.146 0.779,0.341 1.13,0.58c0.224,0.161 0.406,0.374 0.53,0.62c0.127,0.286 0.182,0.598 0.16,0.91Z" style="fill-rule:nonzero;"/><path d="M77.41,99.23c0.201,-0.004 0.402,0.012 0.6,0.05l-0.13,1.72c-0.173,-0.044 -0.351,-0.064 -0.53,-0.06c-0.483,-0.028 -0.959,0.129 -1.33,0.44c-0.331,0.321 -0.506,0.77 -0.48,1.23l0,3.33l-1.79,0l0,-6.59l1.35,0l0.26,1.1l0.09,0c0.195,-0.36 0.477,-0.666 0.82,-0.89c0.338,-0.223 0.735,-0.338 1.14,-0.33Z" style="fill-rule:nonzero;"/><path d="M82.16,106c-0.906,0.054 -1.797,-0.26 -2.47,-0.87c-0.624,-0.665 -0.946,-1.56 -0.89,-2.47c-0.061,-0.923 0.233,-1.835 0.82,-2.55c0.592,-0.618 1.425,-0.948 2.28,-0.9c0.798,-0.047 1.581,0.239 2.16,0.79c0.54,0.597 0.818,1.387 0.77,2.19l0,0.87l-4.22,0c-0.008,0.439 0.154,0.866 0.45,1.19c0.318,0.299 0.745,0.455 1.18,0.43c0.377,0.003 0.753,-0.037 1.12,-0.12c0.379,-0.091 0.748,-0.222 1.1,-0.39l0,1.38c-0.317,0.158 -0.653,0.276 -1,0.35c-0.429,0.078 -0.864,0.112 -1.3,0.1Zm-0.25,-5.52c-0.335,-0.018 -0.662,0.114 -0.89,0.36c-0.229,0.284 -0.359,0.635 -0.37,1l2.51,0c0.01,-0.365 -0.115,-0.721 -0.35,-1c-0.237,-0.237 -0.565,-0.361 -0.9,-0.34l0,-0.02Z" style="fill-rule:nonzero;"/><path d="M86.21,97.66c0,-0.58 0.333,-0.87 1,-0.87c0.667,0 1,0.29 1,0.87c0.016,0.241 -0.071,0.477 -0.24,0.65c-0.203,0.17 -0.466,0.253 -0.73,0.23c-0.687,-0.007 -1.03,-0.3 -1.03,-0.88Zm1.86,8.24l-1.78,0l0,-6.55l1.79,0l-0.01,6.55Z" style="fill-rule:nonzero;"/><path d="M92.61,106c-2.04,0 -3.06,-1.12 -3.06,-3.36c-0.064,-0.925 0.234,-1.84 0.83,-2.55c0.633,-0.617 1.498,-0.937 2.38,-0.88c0.692,-0.004 1.376,0.15 2,0.45l-0.53,1.38c-0.28,-0.113 -0.543,-0.207 -0.79,-0.28c-0.237,-0.072 -0.483,-0.109 -0.73,-0.11c-0.927,0 -1.39,0.667 -1.39,2c0,1.333 0.463,1.973 1.39,1.92c0.339,0.007 0.676,-0.04 1,-0.14c0.312,-0.101 0.609,-0.246 0.88,-0.43l0,1.53c-0.27,0.175 -0.568,0.303 -0.88,0.38c-0.362,0.071 -0.731,0.101 -1.1,0.09Z" style="fill-rule:nonzero;"/><path d="M102.17,105.9l-1.79,0l0,-3.83c0,-0.947 -0.35,-1.42 -1.05,-1.42c-0.425,-0.034 -0.836,0.161 -1.08,0.51c-0.26,0.509 -0.374,1.08 -0.33,1.65l0,3.08l-1.8,0l0,-9.11l1.79,0l0,3.39l0.09,0c0.397,-0.66 1.131,-1.047 1.9,-1c0.644,-0.046 1.279,0.179 1.75,0.62c0.426,0.491 0.642,1.131 0.6,1.78l-0.08,4.33Z" style="fill-rule:nonzero;"/><path d="M107,106c-0.906,0.054 -1.797,-0.26 -2.47,-0.87c-0.624,-0.665 -0.946,-1.56 -0.89,-2.47c-0.061,-0.923 0.233,-1.835 0.82,-2.55c0.592,-0.618 1.425,-0.948 2.28,-0.9c0.798,-0.047 1.581,0.239 2.16,0.79c0.54,0.597 0.818,1.387 0.77,2.19l0,0.87l-4.22,0c-0.008,0.439 0.154,0.866 0.45,1.19c0.318,0.299 0.745,0.455 1.18,0.43c0.377,0.003 0.753,-0.037 1.12,-0.12c0.379,-0.091 0.748,-0.222 1.1,-0.39l0,1.38c-0.317,0.158 -0.653,0.276 -1,0.35c-0.429,0.078 -0.864,0.112 -1.3,0.1Zm-0.25,-5.52c-0.335,-0.018 -0.662,0.114 -0.89,0.36c-0.229,0.284 -0.359,0.635 -0.37,1l2.51,0c0.01,-0.365 -0.115,-0.721 -0.35,-1c-0.244,-0.245 -0.585,-0.37 -0.93,-0.34l0.03,-0.02Z" style="fill-rule:nonzero;"/><path d="M117.14,105.9l-1.79,0l0,-3.83c0.026,-0.37 -0.062,-0.74 -0.25,-1.06c-0.191,-0.244 -0.492,-0.375 -0.8,-0.35c-0.422,-0.034 -0.833,0.156 -1.08,0.5c-0.261,0.512 -0.376,1.087 -0.33,1.66l0,3.08l-1.79,0l0,-6.55l1.37,0l0.24,0.84l0.1,0c0.197,-0.315 0.482,-0.566 0.82,-0.72c0.374,-0.166 0.781,-0.248 1.19,-0.24c0.638,-0.044 1.265,0.181 1.73,0.62c0.422,0.493 0.634,1.133 0.59,1.78l0,4.27Z" style="fill-rule:nonzero;"/><path d="M121.06,106c-0.716,0.024 -1.397,-0.315 -1.81,-0.9c-0.892,-1.545 -0.892,-3.455 0,-5c0.427,-0.59 1.122,-0.928 1.85,-0.9c0.762,-0.028 1.484,0.354 1.89,1l0.06,0c-0.083,-0.432 -0.126,-0.87 -0.13,-1.31l0,-2.1l1.79,0l0,9.12l-1.37,0l-0.34,-0.91l-0.08,0c-0.379,0.659 -1.101,1.048 -1.86,1Zm0.63,-1.42c0.377,0.031 0.748,-0.118 1,-0.4c0.252,-0.403 0.375,-0.875 0.35,-1.35l0,-0.19c0.041,-0.525 -0.074,-1.05 -0.33,-1.51c-0.252,-0.323 -0.652,-0.496 -1.06,-0.46c-0.381,-0.022 -0.743,0.177 -0.93,0.51c-0.247,0.449 -0.362,0.959 -0.33,1.47c-0.036,0.505 0.079,1.01 0.33,1.45c0.213,0.324 0.583,0.511 0.97,0.49l0,-0.01Z" style="fill-rule:nonzero;"/><path d="M129.54,106c-0.906,0.054 -1.797,-0.26 -2.47,-0.87c-0.624,-0.665 -0.946,-1.56 -0.89,-2.47c-0.061,-0.923 0.233,-1.835 0.82,-2.55c0.592,-0.618 1.425,-0.948 2.28,-0.9c0.798,-0.047 1.581,0.239 2.16,0.79c0.54,0.597 0.818,1.387 0.77,2.19l0,0.87l-4.21,0c-0.008,0.439 0.154,0.866 0.45,1.19c0.318,0.299 0.745,0.455 1.18,0.43c0.377,0.003 0.753,-0.037 1.12,-0.12c0.379,-0.091 0.748,-0.222 1.1,-0.39l0,1.38c-0.317,0.158 -0.653,0.276 -1,0.35c-0.432,0.079 -0.871,0.112 -1.31,0.1Zm-0.25,-5.52c-0.335,-0.018 -0.662,0.114 -0.89,0.36c-0.229,0.284 -0.359,0.635 -0.37,1l2.51,0c0.01,-0.365 -0.115,-0.721 -0.35,-1c-0.237,-0.237 -0.565,-0.361 -0.9,-0.34l0,-0.02Z" style="fill-rule:nonzero;"/><path d="M139.71,105.9l-1.79,0l0,-3.83c0.026,-0.37 -0.062,-0.74 -0.25,-1.06c-0.191,-0.244 -0.492,-0.375 -0.8,-0.35c-0.422,-0.034 -0.833,0.156 -1.08,0.5c-0.261,0.512 -0.376,1.087 -0.33,1.66l0,3.08l-1.79,0l0,-6.55l1.33,0l0.24,0.84l0.1,0c0.197,-0.315 0.482,-0.566 0.82,-0.72c0.374,-0.166 0.781,-0.248 1.19,-0.24c0.638,-0.044 1.265,0.181 1.73,0.62c0.422,0.493 0.634,1.133 0.59,1.78l0.04,4.27Z" style="fill-rule:nonzero;"/><path d="M146.63,102.61l0,3.29l-1.82,0l0,-8.57l2.5,0c0.906,-0.067 1.81,0.158 2.58,0.64c0.93,0.834 1.11,2.238 0.42,3.28c-0.301,0.41 -0.709,0.728 -1.18,0.92c1.287,1.927 2.127,3.17 2.52,3.73l-2,0l-2,-3.29l-1.02,0Zm0,-1.48l0.59,0c0.443,0.031 0.885,-0.07 1.27,-0.29c0.285,-0.206 0.442,-0.549 0.41,-0.9c0.031,-0.345 -0.131,-0.68 -0.42,-0.87c-0.403,-0.2 -0.851,-0.29 -1.3,-0.26l-0.55,0l0,2.32Z" style="fill-rule:nonzero;"/><path d="M155.56,106c-0.906,0.054 -1.797,-0.26 -2.47,-0.87c-0.624,-0.665 -0.946,-1.56 -0.89,-2.47c-0.061,-0.923 0.233,-1.835 0.82,-2.55c0.592,-0.618 1.425,-0.948 2.28,-0.9c0.798,-0.047 1.581,0.239 2.16,0.79c0.54,0.597 0.818,1.387 0.77,2.19l0,0.87l-4.23,0c-0.008,0.439 0.154,0.866 0.45,1.19c0.318,0.299 0.745,0.455 1.18,0.43c0.377,0.003 0.753,-0.037 1.12,-0.12c0.379,-0.091 0.748,-0.222 1.1,-0.39l0,1.38c-0.317,0.158 -0.653,0.276 -1,0.35c-0.425,0.077 -0.858,0.111 -1.29,0.1Zm-0.25,-5.52c-0.335,-0.018 -0.662,0.114 -0.89,0.36c-0.229,0.284 -0.359,0.635 -0.37,1l2.51,0c0.01,-0.365 -0.115,-0.721 -0.35,-1c-0.237,-0.237 -0.565,-0.361 -0.9,-0.34l0,-0.02Z" style="fill-rule:nonzero;"/><path d="M162.34,106c-2.04,0 -3.06,-1.12 -3.06,-3.36c-0.064,-0.925 0.234,-1.84 0.83,-2.55c0.633,-0.617 1.498,-0.937 2.38,-0.88c0.692,-0.004 1.376,0.15 2,0.45l-0.53,1.38c-0.28,-0.113 -0.543,-0.207 -0.79,-0.28c-0.237,-0.072 -0.483,-0.109 -0.73,-0.11c-0.927,0 -1.39,0.667 -1.39,2c0,1.333 0.463,1.973 1.39,1.92c0.339,0.007 0.676,-0.04 1,-0.14c0.312,-0.101 0.609,-0.246 0.88,-0.43l0,1.53c-0.27,0.175 -0.568,0.303 -0.88,0.38c-0.362,0.071 -0.731,0.101 -1.1,0.09Z" style="fill-rule:nonzero;"/><path d="M171.9,105.9l-1.79,0l0,-3.83c0,-0.947 -0.35,-1.42 -1.05,-1.42c-0.425,-0.034 -0.836,0.161 -1.08,0.51c-0.26,0.509 -0.374,1.08 -0.33,1.65l0,3.08l-1.79,0l0,-9.11l1.79,0l0,3.39l0.09,0c0.397,-0.66 1.131,-1.047 1.9,-1c0.644,-0.046 1.279,0.179 1.75,0.62c0.426,0.491 0.642,1.131 0.6,1.78l-0.09,4.33Z" style="fill-rule:nonzero;"/><path d="M176.5,104.59c0.385,-0.013 0.766,-0.084 1.13,-0.21l0,1.33c-0.52,0.214 -1.078,0.316 -1.64,0.3c-0.573,0.053 -1.142,-0.144 -1.56,-0.54c-0.36,-0.463 -0.535,-1.045 -0.49,-1.63l0,-3.16l-0.86,0l0,-0.76l1,-0.6l0.52,-1.38l1.14,0l0,1.39l1.83,0l0,1.34l-1.83,0l0,3.16c-0.017,0.209 0.06,0.414 0.21,0.56c0.153,0.13 0.349,0.201 0.55,0.2Z" style="fill-rule:nonzero;"/><path d="M181.91,106c-0.906,0.054 -1.797,-0.26 -2.47,-0.87c-0.624,-0.665 -0.946,-1.56 -0.89,-2.47c-0.061,-0.923 0.233,-1.835 0.82,-2.55c0.592,-0.618 1.425,-0.948 2.28,-0.9c0.798,-0.047 1.581,0.239 2.16,0.79c0.54,0.597 0.818,1.387 0.77,2.19l0,0.87l-4.22,0c-0.008,0.439 0.154,0.866 0.45,1.19c0.318,0.299 0.745,0.455 1.18,0.43c0.377,0.003 0.753,-0.037 1.12,-0.12c0.379,-0.091 0.748,-0.222 1.1,-0.39l0,1.38c-0.317,0.158 -0.653,0.276 -1,0.35c-0.429,0.078 -0.864,0.112 -1.3,0.1Zm-0.25,-5.52c-0.335,-0.018 -0.662,0.114 -0.89,0.36c-0.229,0.284 -0.359,0.635 -0.37,1l2.51,0c0.01,-0.365 -0.115,-0.721 -0.35,-1c-0.237,-0.237 -0.565,-0.361 -0.9,-0.34l0,-0.02Z" style="fill-rule:nonzero;"/></g></g></svg>