<?xml version="1.0" encoding="utf-8"?>
<!-- Generator: Adobe Illustrator 22.1.0, SVG Export Plug-In . SVG Version: 6.00 Build 0)  -->
<svg version="1.1" id="Ebene_1" xmlns="http://www.w3.org/2000/svg" xmlns:xlink="http://www.w3.org/1999/xlink" x="0px" y="0px"
	 viewBox="0 0 200 150" style="enable-background:new 0 0 200 150;" xml:space="preserve">
<style type="text/css">
	.st0{fill:#F6F6F6;}
	.st1{fill:#A3A3A3;}
	.st2{fill:#5E5E5E;}
	.st3{font-family:'MyriadPro-Regular';}
	.st4{font-size:13.4955px;}
</style>
<title>Element 1</title>
<g id="c9c41659-9cbe-451c-ad3f-a871dbd802b9">
	<g id="f7ebd85d-aa6c-4ed2-abf3-0c10b167102d">
		<rect class="st0" width="200" height="150"/>
		<path class="st1" d="M100,28.3l-21,9.3v14c0,12.9,9,25.1,21,28c12-2.9,21-15.1,21-28v-14L100,28.3z M100,54h16.3
			c-1.2,9.6-7.7,18.2-16.3,20.9V54H83.7V40.7l16.3-7.3V54z"/>
		<g>
			<path class="st2" d="M22.9,105.9h-2.1l-2.2-3.6l-0.8,0.6v3.1H16v-8.6h1.8v3.9l0.7-1l2.3-2.9h2l-3,3.8L22.9,105.9z"/>
			<path class="st2" d="M26.8,106c-0.9,0.1-1.8-0.3-2.5-0.9c-0.6-0.7-0.9-1.6-0.9-2.5c-0.1-0.9,0.2-1.8,0.8-2.6
				c0.6-0.6,1.4-0.9,2.3-0.9c0.8,0,1.6,0.2,2.2,0.8c0.5,0.6,0.8,1.4,0.8,2.2v0.9h-4.2c0,0.4,0.2,0.9,0.5,1.2
				c0.3,0.3,0.7,0.5,1.2,0.4c0.4,0,0.8,0,1.1-0.1c0.4-0.1,0.7-0.2,1.1-0.4v1.4c-0.3,0.2-0.7,0.3-1,0.3C27.6,106,27.2,106,26.8,106z
				 M26.5,100.5c-0.3,0-0.7,0.1-0.9,0.4c-0.2,0.3-0.4,0.6-0.4,1h2.5c0-0.4-0.1-0.7-0.4-1C27.2,100.6,26.9,100.5,26.5,100.5
				L26.5,100.5z"/>
			<path class="st2" d="M30.8,97.7c0-0.6,0.3-0.9,1-0.9c0.7,0,1,0.3,1,0.9c0,0.2-0.1,0.5-0.2,0.7c-0.2,0.2-0.5,0.3-0.7,0.2
				C31.2,98.5,30.8,98.2,30.8,97.7z M32.7,105.9h-1.8v-6.6h1.8V105.9z"/>
			<path class="st2" d="M40.6,105.9h-1.8v-3.8c0-0.4-0.1-0.7-0.2-1.1c-0.2-0.2-0.5-0.4-0.8-0.3c-0.4,0-0.8,0.2-1.1,0.5
				c-0.3,0.5-0.4,1.1-0.3,1.7v3.1h-1.8v-6.6h1.4l0.2,0.8h0.1c0.2-0.3,0.5-0.6,0.8-0.7c0.4-0.2,0.8-0.2,1.2-0.2
				c0.6,0,1.3,0.2,1.7,0.6c0.4,0.5,0.6,1.1,0.6,1.8V105.9z"/>
			<path class="st2" d="M45.4,106c-0.9,0.1-1.8-0.3-2.5-0.9c-0.6-0.7-0.9-1.6-0.9-2.5c-0.1-0.9,0.2-1.8,0.8-2.6
				c0.6-0.6,1.4-0.9,2.3-0.9c0.8,0,1.6,0.2,2.2,0.8c0.5,0.6,0.8,1.4,0.8,2.2v0.9h-4.2c0,0.4,0.2,0.9,0.5,1.2
				c0.3,0.3,0.7,0.5,1.2,0.4c0.4,0,0.8,0,1.1-0.1c0.4-0.1,0.7-0.2,1.1-0.4v1.4c-0.3,0.2-0.7,0.3-1,0.3C46.3,106,45.8,106,45.4,106z
				 M45.2,100.5c-0.3,0-0.7,0.1-0.9,0.4c-0.2,0.3-0.4,0.6-0.4,1h2.5c0-0.4-0.1-0.7-0.3-1C45.8,100.6,45.5,100.5,45.2,100.5
				L45.2,100.5z"/>
			<path class="st2" d="M56.8,105.9l-0.3-0.9l0,0c-0.2,0.3-0.6,0.6-0.9,0.8c-0.4,0.2-0.8,0.2-1.2,0.2c-0.5,0-1.1-0.2-1.5-0.5
				c-0.4-0.4-0.6-1-0.5-1.5c0-0.6,0.2-1.2,0.7-1.5c0.7-0.4,1.4-0.6,2.2-0.6h1.1v-0.3c0.1-0.5-0.3-0.9-0.8-1c-0.1,0-0.2,0-0.2,0
				c-0.6,0-1.3,0.2-1.8,0.5l-0.6-1.2c0.8-0.4,1.6-0.6,2.5-0.6c0.7,0,1.4,0.2,2,0.6c0.5,0.4,0.8,1.1,0.7,1.8v4.4L56.8,105.9z
				 M56.3,102.9h-0.7c-0.4,0-0.8,0.1-1.2,0.3c-0.3,0.2-0.4,0.5-0.4,0.8c0,0.5,0.3,0.8,0.9,0.8c0.4,0,0.7-0.1,1-0.4
				c0.3-0.3,0.4-0.6,0.4-0.9L56.3,102.9z"/>
			<path class="st2" d="M64.5,105.9l-0.2-0.8h-0.1c-0.2,0.3-0.5,0.6-0.8,0.7c-0.4,0.2-0.8,0.3-1.2,0.2c-0.6,0-1.3-0.2-1.7-0.6
				c-0.4-0.5-0.6-1.1-0.6-1.8v-4.3h1.8v3.8c0,0.4,0.1,0.7,0.2,1.1c0.2,0.2,0.5,0.4,0.8,0.3c0.4,0,0.8-0.2,1.1-0.5
				c0.3-0.5,0.4-1.1,0.3-1.7v-3.1h1.8v6.6H64.5z"/>
			<path class="st2" d="M72.4,104c0,0.6-0.2,1.2-0.7,1.5c-0.6,0.4-1.4,0.6-2.1,0.5c-0.4,0-0.8,0-1.2-0.1c-0.3-0.1-0.6-0.2-0.9-0.3
				v-1.5c0.4,0.2,0.7,0.3,1.1,0.4c0.4,0.1,0.7,0.2,1.1,0.2c0.7,0,1-0.2,1-0.6c0-0.1,0-0.2-0.1-0.3c-0.1-0.1-0.3-0.2-0.4-0.3
				c-0.2-0.1-0.5-0.2-0.8-0.4c-0.4-0.2-0.8-0.3-1.1-0.6c-0.2-0.2-0.4-0.4-0.5-0.6c-0.1-0.3-0.2-0.6-0.2-0.9c0-0.5,0.2-1,0.7-1.3
				c0.6-0.4,1.2-0.5,1.9-0.5c0.8,0,1.6,0.2,2.3,0.5l-0.6,1.2c-0.3-0.1-0.6-0.3-0.9-0.3c-0.3-0.1-0.6-0.1-0.9-0.1
				c-0.5,0-0.8,0.1-0.8,0.4c0,0.2,0.1,0.3,0.2,0.4c0.4,0.2,0.7,0.4,1.1,0.5c0.4,0.1,0.8,0.3,1.1,0.6c0.2,0.2,0.4,0.4,0.5,0.6
				C72.3,103.4,72.4,103.7,72.4,104z"/>
			<path class="st2" d="M77.4,99.2c0.2,0,0.4,0,0.6,0.1l-0.1,1.7c-0.2,0-0.4-0.1-0.5-0.1c-0.5,0-1,0.1-1.3,0.4
				c-0.3,0.3-0.5,0.8-0.5,1.2v3.3h-1.8v-6.6h1.3l0.3,1.1h0.1c0.2-0.4,0.5-0.7,0.8-0.9C76.6,99.3,77,99.2,77.4,99.2z"/>
			<path class="st2" d="M82.2,106c-0.9,0.1-1.8-0.3-2.5-0.9c-0.6-0.7-0.9-1.6-0.9-2.5c-0.1-0.9,0.2-1.8,0.8-2.6
				c0.6-0.6,1.4-0.9,2.3-0.9c0.8,0,1.6,0.2,2.2,0.8c0.5,0.6,0.8,1.4,0.8,2.2v0.9h-4.2c0,0.4,0.2,0.9,0.4,1.2
				c0.3,0.3,0.7,0.5,1.2,0.4c0.4,0,0.8,0,1.1-0.1c0.4-0.1,0.7-0.2,1.1-0.4v1.4c-0.3,0.2-0.7,0.3-1,0.3C83,106,82.6,106,82.2,106z
				 M81.9,100.5c-0.3,0-0.7,0.1-0.9,0.4c-0.2,0.3-0.4,0.6-0.4,1h2.5c0-0.4-0.1-0.7-0.3-1C82.6,100.6,82.2,100.5,81.9,100.5
				L81.9,100.5z"/>
			<path class="st2" d="M86.2,97.7c0-0.6,0.3-0.9,1-0.9c0.7,0,1,0.3,1,0.9c0,0.2-0.1,0.5-0.2,0.7c-0.2,0.2-0.5,0.3-0.7,0.2
				C86.6,98.5,86.2,98.2,86.2,97.7z M88.1,105.9h-1.8v-6.6h1.8L88.1,105.9z"/>
			<path class="st2" d="M92.6,106c-2,0-3.1-1.1-3.1-3.4c-0.1-0.9,0.2-1.8,0.8-2.6c0.6-0.6,1.5-0.9,2.4-0.9c0.7,0,1.4,0.1,2,0.4
				l-0.5,1.4c-0.3-0.1-0.5-0.2-0.8-0.3c-0.2-0.1-0.5-0.1-0.7-0.1c-0.9,0-1.4,0.7-1.4,2s0.5,2,1.4,1.9c0.3,0,0.7,0,1-0.1
				c0.3-0.1,0.6-0.2,0.9-0.4v1.5c-0.3,0.2-0.6,0.3-0.9,0.4C93.3,106,93,106,92.6,106z"/>
			<path class="st2" d="M102.2,105.9h-1.8v-3.8c0-0.9-0.3-1.4-1.1-1.4c-0.4,0-0.8,0.2-1.1,0.5c-0.3,0.5-0.4,1.1-0.3,1.7v3.1h-1.8
				v-9.1h1.8v1.9c0,0.1,0,0.5,0,1v0.5H98c0.4-0.7,1.1-1,1.9-1c0.6,0,1.3,0.2,1.8,0.6c0.4,0.5,0.6,1.1,0.6,1.8L102.2,105.9z"/>
			<path class="st2" d="M107,106c-0.9,0.1-1.8-0.3-2.5-0.9c-0.6-0.7-0.9-1.6-0.9-2.5c-0.1-0.9,0.2-1.8,0.8-2.6
				c0.6-0.6,1.4-0.9,2.3-0.9c0.8,0,1.6,0.2,2.2,0.8c0.5,0.6,0.8,1.4,0.8,2.2v0.9h-4.2c0,0.4,0.2,0.9,0.4,1.2
				c0.3,0.3,0.7,0.5,1.2,0.4c0.4,0,0.8,0,1.1-0.1c0.4-0.1,0.7-0.2,1.1-0.4v1.4c-0.3,0.2-0.7,0.3-1,0.3C107.9,106,107.4,106,107,106z
				 M106.8,100.5c-0.3,0-0.7,0.1-0.9,0.4c-0.2,0.3-0.4,0.6-0.4,1h2.5c0-0.4-0.1-0.7-0.3-1C107.4,100.6,107.1,100.5,106.8,100.5
				L106.8,100.5z"/>
			<path class="st2" d="M117.1,105.9h-1.8v-3.8c0-0.4-0.1-0.7-0.2-1.1c-0.2-0.2-0.5-0.4-0.8-0.3c-0.4,0-0.8,0.2-1.1,0.5
				c-0.3,0.5-0.4,1.1-0.3,1.7v3.1h-1.8v-6.6h1.4l0.2,0.8h0.1c0.2-0.3,0.5-0.6,0.8-0.7c0.4-0.2,0.8-0.2,1.2-0.2
				c0.6,0,1.3,0.2,1.7,0.6c0.4,0.5,0.6,1.1,0.6,1.8V105.9z"/>
			<path class="st2" d="M121.1,106c-0.7,0-1.4-0.3-1.8-0.9c-0.9-1.5-0.9-3.5,0-5c0.4-0.6,1.1-0.9,1.8-0.9c0.8,0,1.5,0.4,1.9,1h0.1
				c-0.1-0.4-0.1-0.9-0.1-1.3v-2.1h1.8v9.1h-1.4L123,105h-0.1C122.5,105.7,121.8,106,121.1,106z M121.7,104.6c0.4,0,0.7-0.1,1-0.4
				c0.3-0.4,0.4-0.9,0.3-1.3v-0.2c0-0.5-0.1-1.1-0.3-1.5c-0.3-0.3-0.7-0.5-1.1-0.5c-0.4,0-0.7,0.2-0.9,0.5c-0.2,0.4-0.4,1-0.3,1.5
				c0,0.5,0.1,1,0.3,1.4C120.9,104.4,121.3,104.6,121.7,104.6L121.7,104.6z"/>
			<path class="st2" d="M129.5,106c-0.9,0.1-1.8-0.3-2.5-0.9c-0.6-0.7-0.9-1.6-0.9-2.5c-0.1-0.9,0.2-1.8,0.8-2.6
				c0.6-0.6,1.4-0.9,2.3-0.9c0.8,0,1.6,0.2,2.2,0.8c0.5,0.6,0.8,1.4,0.8,2.2v0.9H128c0,0.4,0.2,0.9,0.4,1.2c0.3,0.3,0.7,0.5,1.2,0.4
				c0.4,0,0.8,0,1.1-0.1c0.4-0.1,0.7-0.2,1.1-0.4v1.4c-0.3,0.2-0.7,0.3-1,0.3C130.4,106,130,106,129.5,106z M129.3,100.5
				c-0.3,0-0.7,0.1-0.9,0.4c-0.2,0.3-0.4,0.6-0.4,1h2.5c0-0.4-0.1-0.7-0.4-1C130,100.6,129.6,100.5,129.3,100.5L129.3,100.5z"/>
			<path class="st2" d="M139.7,105.9h-1.8v-3.8c0-0.4-0.1-0.7-0.2-1.1c-0.2-0.2-0.5-0.4-0.8-0.3c-0.4,0-0.8,0.2-1.1,0.5
				c-0.3,0.5-0.4,1.1-0.3,1.7v3.1h-1.8v-6.6h1.3l0.2,0.8h0.1c0.2-0.3,0.5-0.6,0.8-0.7c0.4-0.2,0.8-0.2,1.2-0.2
				c0.6,0,1.3,0.2,1.7,0.6c0.4,0.5,0.6,1.1,0.6,1.8L139.7,105.9z"/>
			<path class="st2" d="M146.6,102.6v3.3h-1.8v-8.6h2.5c0.9-0.1,1.8,0.2,2.6,0.6c0.9,0.8,1.1,2.2,0.4,3.3c-0.3,0.4-0.7,0.7-1.2,0.9
				c1.3,1.9,2.1,3.2,2.5,3.7h-2l-2-3.3H146.6z M146.6,101.1h0.6c0.4,0,0.9-0.1,1.3-0.3c0.3-0.2,0.4-0.5,0.4-0.9
				c0-0.3-0.1-0.7-0.4-0.9c-0.4-0.2-0.9-0.3-1.3-0.3h-0.6V101.1z"/>
			<path class="st2" d="M155.6,106c-0.9,0.1-1.8-0.3-2.5-0.9c-0.6-0.7-0.9-1.6-0.9-2.5c-0.1-0.9,0.2-1.8,0.8-2.6
				c0.6-0.6,1.4-0.9,2.3-0.9c0.8,0,1.6,0.2,2.2,0.8c0.5,0.6,0.8,1.4,0.8,2.2v0.9H154c0,0.4,0.2,0.9,0.4,1.2c0.3,0.3,0.7,0.5,1.2,0.4
				c0.4,0,0.8,0,1.1-0.1c0.4-0.1,0.7-0.2,1.1-0.4v1.4c-0.3,0.2-0.7,0.3-1,0.3C156.4,106,156,106,155.6,106z M155.3,100.5
				c-0.3,0-0.7,0.1-0.9,0.4c-0.2,0.3-0.4,0.6-0.4,1h2.5c0-0.4-0.1-0.7-0.4-1C156,100.6,155.6,100.5,155.3,100.5L155.3,100.5z"/>
			<path class="st2" d="M162.3,106c-2,0-3.1-1.1-3.1-3.4c-0.1-0.9,0.2-1.8,0.8-2.6c0.6-0.6,1.5-0.9,2.4-0.9c0.7,0,1.4,0.1,2,0.4
				L164,101c-0.3-0.1-0.5-0.2-0.8-0.3c-0.2-0.1-0.5-0.1-0.7-0.1c-0.9,0-1.4,0.7-1.4,2s0.5,2,1.4,1.9c0.3,0,0.7,0,1-0.1
				c0.3-0.1,0.6-0.2,0.9-0.4v1.5c-0.3,0.2-0.6,0.3-0.9,0.4C163.1,106,162.7,106,162.3,106z"/>
			<path class="st2" d="M171.9,105.9h-1.8v-3.8c0-0.9-0.4-1.4-1.1-1.4c-0.4,0-0.8,0.2-1.1,0.5c-0.3,0.5-0.4,1.1-0.3,1.7v3.1h-1.8
				v-9.1h1.8v1.9c0,0.1,0,0.5,0,1v0.5h0.1c0.4-0.7,1.1-1,1.9-1c0.6,0,1.3,0.2,1.8,0.6c0.4,0.5,0.6,1.1,0.6,1.8L171.9,105.9z"/>
			<path class="st2" d="M176.5,104.6c0.4,0,0.8-0.1,1.1-0.2v1.3c-0.5,0.2-1.1,0.3-1.6,0.3c-0.6,0.1-1.1-0.1-1.6-0.5
				c-0.4-0.5-0.5-1-0.5-1.6v-3.2h-0.9v-0.8l1-0.6l0.5-1.4h1.1v1.4h1.8v1.3h-1.8v3.2c0,0.2,0.1,0.4,0.2,0.6
				C176.1,104.5,176.3,104.6,176.5,104.6z"/>
			<path class="st2" d="M181.9,106c-0.9,0.1-1.8-0.3-2.5-0.9c-0.6-0.7-0.9-1.6-0.9-2.5c-0.1-0.9,0.2-1.8,0.8-2.6
				c0.6-0.6,1.4-0.9,2.3-0.9c0.8,0,1.6,0.2,2.2,0.8c0.5,0.6,0.8,1.4,0.8,2.2v0.9h-4.2c0,0.4,0.2,0.9,0.4,1.2
				c0.3,0.3,0.7,0.5,1.2,0.4c0.4,0,0.8,0,1.1-0.1c0.4-0.1,0.7-0.2,1.1-0.4v1.4c-0.3,0.2-0.7,0.3-1,0.3
				C182.8,106,182.3,106,181.9,106z M181.7,100.5c-0.3,0-0.7,0.1-0.9,0.4c-0.2,0.3-0.4,0.6-0.4,1h2.5c0-0.4-0.1-0.7-0.4-1
				C182.3,100.6,182,100.5,181.7,100.5L181.7,100.5z"/>
		</g>
	</g>
</g>
<text transform="matrix(1 0 0 1 29.4453 124.415)" class="st2 st3 st4">No sufficient permissions</text>
</svg>
