<?xml version="1.0" encoding="UTF-8"?>
<svg width="90px" height="90px" viewBox="0 0 90 90" version="1.1" xmlns="http://www.w3.org/2000/svg" xmlns:xlink="http://www.w3.org/1999/xlink">
    <!-- Generator: Sketch 45.2 (43514) - http://www.bohemiancoding.com/sketch -->
    <title>Group 4</title>
    <desc>Created with Sketch.</desc>
    <defs></defs>
    <g id="Page-1" stroke="none" stroke-width="1" fill="none" fill-rule="evenodd">
        <g id="Suchumgebung-Startseite" transform="translate(-541.000000, -1487.000000)">
            <g id="Group-4" transform="translate(541.000000, 1487.000000)">
                <rect id="Rectangle-17" fill="#FFFFFF" x="0" y="0" width="90" height="90"></rect>
                <path d="M70.4368918,41.1914443 L66.5112246,41.1914443 L66.5112246,30.7229984 C66.5112246,27.8441757 64.1558243,25.4887754 61.2770016,25.4887754 L50.8085557,25.4887754 L50.8085557,21.5631082 C50.8085557,17.9514944 47.8773909,15.0203295 44.2657771,15.0203295 C40.6541632,15.0203295 37.7229984,17.9514944 37.7229984,21.5631082 L37.7229984,25.4887754 L27.2545525,25.4887754 C24.3757298,25.4887754 22.0465006,27.8441757 22.0465006,30.7229984 L22.0465006,40.668022 L25.9459967,40.668022 C29.8454928,40.668022 33.0121977,43.8347269 33.0121977,47.7342229 C33.0121977,51.633719 29.8454928,54.8004239 25.9459967,54.8004239 L22.0203295,54.8004239 L22.0203295,64.7454475 C22.0203295,67.6242702 24.3757298,69.9796705 27.2545525,69.9796705 L37.1995761,69.9796705 L37.1995761,66.0540033 C37.1995761,62.1545072 40.366281,58.9878023 44.2657771,58.9878023 C48.1652731,58.9878023 51.331978,62.1545072 51.331978,66.0540033 L51.331978,69.9796705 L61.2770016,69.9796705 C64.1558243,69.9796705 66.5112246,67.6242702 66.5112246,64.7454475 L66.5112246,54.2770016 L70.4368918,54.2770016 C74.0485056,54.2770016 76.9796705,51.3458368 76.9796705,47.7342229 C76.9796705,44.1226091 74.0485056,41.1914443 70.4368918,41.1914443 Z" id="Shape" fill="#35495D" fill-rule="nonzero"></path>
            </g>
        </g>
    </g>
</svg>