<?xml version="1.0" encoding="utf-8"?>
<!-- Generator: Adobe Illustrator 21.0.0, SVG Export Plug-In . SVG Version: 6.00 Build 0)  -->
<svg version="1.1" id="Ebene_1" xmlns="http://www.w3.org/2000/svg" xmlns:xlink="http://www.w3.org/1999/xlink" x="0px" y="0px"
	 viewBox="0 0 200 150" style="enable-background:new 0 0 200 150;" xml:space="preserve">
<style type="text/css">
	.st0{fill:#977866;}
	.st1{fill:#FFFFFF;}
</style>
<title>_ksnapshot-all</title>
<rect y="0" class="st0" width="200" height="150"/>
<circle class="st1" cx="100" cy="75" r="30.9"/>
<path class="st0" d="M113.6,64.9l-4.6-4.6c-1.2-1.1-2.8-1.7-4.4-1.8H89.2c-1.4,0-2.6,1.2-2.6,2.6l0,0v27.8c0,1.4,1.2,2.6,2.6,2.6
	h23.7c1.4,0,2.6-1.2,2.6-2.6l0,0V69.3C115.3,67.7,114.7,66.1,113.6,64.9z M112.1,66.4c0.1,0.1,0.2,0.2,0.3,0.4h-5.3v-5.3
	c0.1,0.1,0.2,0.2,0.4,0.3L112.1,66.4z M113.4,88.9c0,0.3-0.2,0.5-0.5,0.5l0,0H89.2c-0.3,0-0.5-0.2-0.5-0.5V61.1
	c0-0.3,0.2-0.5,0.5-0.5h15.5c0.2,0,0.3,0,0.5,0.1v8.2h8.2c0,0.2,0.1,0.3,0.1,0.5L113.4,88.9L113.4,88.9z"/>
<g>
	<path class="st0" d="M96.2,71v1.7h1.3V74h-1.3v2.1c0,0.7,0.2,1,0.7,1c0.2,0,0.4,0,0.5,0v1.4c-0.4,0.1-0.8,0.2-1.2,0.2
		c-0.5,0-1-0.2-1.4-0.5c-0.4-0.5-0.6-1.1-0.5-1.7V74h-0.8v-1.4h0.8v-1.3L96.2,71z"/>
	<path class="st0" d="M99.9,72.7l0.6,1l0.5,0.8l0,0c0.2-0.3,0.3-0.6,0.5-0.9l0.5-0.9h2l-2,2.8l2,3.1h-2.1l-0.6-1.1
		c-0.2-0.3-0.3-0.6-0.5-0.9l0,0c-0.1,0.3-0.3,0.6-0.4,0.9l-0.6,1.1h-2l2-3l-1.8-3L99.9,72.7L99.9,72.7z"/>
	<path class="st0" d="M107,71v1.7h1.3V74H107v2.1c0,0.7,0.2,1,0.7,1c0.2,0,0.4,0,0.5,0v1.4c-0.4,0.1-0.8,0.2-1.2,0.2
		c-0.5,0-1-0.2-1.4-0.5c-0.4-0.5-0.6-1.1-0.5-1.7V74h-0.8v-1.4h0.8v-1.3L107,71z"/>
</g>
</svg>
