<?xml version="1.0" encoding="utf-8"?>
<!-- Generator: Adobe Illustrator 21.1.0, SVG Export Plug-In . SVG Version: 6.00 Build 0)  -->
<svg version="1.1" id="Ebene_1" xmlns="http://www.w3.org/2000/svg" xmlns:xlink="http://www.w3.org/1999/xlink" x="0px" y="0px"
	 viewBox="0 0 200 150" style="enable-background:new 0 0 200 150;" xml:space="preserve">
<style type="text/css">
	.st0{fill:#BD3E25;}
	.st1{fill:#FFFFFF;}
</style>
<title>_ksnapshot-all</title>
<rect y="0" class="st0" width="200" height="150"/>
<circle class="st1" cx="100" cy="75" r="30.9"/>
<path class="st0" d="M98.4,66c2.1,0,3.9,0.8,5.3,2.2L99.9,72h9v-9l-3.1,3.1c-1.9-1.9-4.5-3.1-7.4-3.1c-5.3,0-9.6,3.9-10.4,9h3
	C91.7,68.6,94.8,66,98.4,66z M106.8,79.7c1-1.3,1.7-2.9,1.9-4.7h-3c-0.7,3.4-3.7,6-7.3,6c-2.1,0-3.9-0.8-5.3-2.2l3.8-3.8h-9v9
	l3.1-3.1c1.9,1.9,4.5,3.1,7.4,3.1c2.3,0,4.5-0.8,6.2-2l7.3,7.3l2.2-2.2C114.1,86.9,106.8,79.7,106.8,79.7z"/>
</svg>
