<?xml version="1.0" encoding="utf-8"?>
<!-- Generator: Adobe Illustrator 16.0.3, SVG Export Plug-In . SVG Version: 6.00 Build 0)  -->
<!DOCTYPE svg PUBLIC "-//W3C//DTD SVG 1.1//EN" "http://www.w3.org/Graphics/SVG/1.1/DTD/svg11.dtd">
<svg version="1.1" id="Ebene_1" xmlns="http://www.w3.org/2000/svg" xmlns:xlink="http://www.w3.org/1999/xlink" x="0px" y="0px"
	 width="365.102px" height="144.296px" viewBox="0 0 365.102 144.296" enable-background="new 0 0 365.102 144.296"
	 xml:space="preserve">
<g>
	<polygon fill="#C8C8C8" points="63.932,78.746 50.531,55.245 63.932,31.745 90.734,31.745 104.135,55.245 90.734,78.746 	"/>
	<polygon fill="#E5E3E3" points="16.932,50.745 3.531,27.245 16.932,3.745 43.734,3.745 57.135,27.245 43.734,50.745 	"/>
	<polygon fill="#737373" points="16.932,106.746 3.531,83.246 16.932,59.745 43.734,59.745 57.135,83.246 43.734,106.746 	"/>
</g>
<g>
	<path fill="#E5E3E3" d="M95.324,114.724c0,0.898-0.201,1.563-0.601,1.992c-0.4,0.43-0.952,0.645-1.655,0.645H77.16
		c0,1.113,0.132,2.124,0.396,3.032c0.264,0.907,0.684,1.681,1.26,2.313c0.576,0.635,1.317,1.119,2.227,1.451
		c0.909,0.331,1.997,0.497,3.268,0.497c1.289,0,2.421-0.092,3.397-0.278c0.978-0.186,1.821-0.391,2.534-0.614
		s1.304-0.429,1.772-0.615s0.85-0.278,1.143-0.278c0.176,0,0.322,0.034,0.439,0.104c0.116,0.068,0.215,0.189,0.293,0.365
		c0.077,0.177,0.132,0.426,0.16,0.748c0.029,0.322,0.045,0.728,0.045,1.215c0,0.431-0.011,0.797-0.029,1.1
		c-0.021,0.305-0.049,0.563-0.088,0.775c-0.04,0.216-0.099,0.396-0.177,0.543c-0.077,0.146-0.181,0.287-0.308,0.425
		c-0.127,0.137-0.474,0.321-1.04,0.558c-0.566,0.233-1.289,0.465-2.168,0.688s-1.885,0.42-3.018,0.586
		c-1.134,0.165-2.345,0.249-3.634,0.249c-2.324,0-4.36-0.293-6.107-0.88c-1.748-0.586-3.208-1.475-4.38-2.666
		c-1.172-1.19-2.046-2.694-2.622-4.512c-0.576-1.815-0.864-3.944-0.864-6.387c0-2.324,0.303-4.419,0.908-6.283
		c0.604-1.865,1.484-3.447,2.637-4.746s2.553-2.291,4.204-2.975c1.65-0.684,3.511-1.025,5.581-1.025c2.188,0,4.058,0.322,5.61,0.967
		c1.552,0.646,2.827,1.539,3.822,2.682c0.996,1.143,1.729,2.495,2.197,4.059c0.468,1.563,0.703,3.262,0.703,5.098L95.324,114.724
		L95.324,114.724z M88.175,112.615c0.06-2.07-0.355-3.695-1.244-4.879c-0.89-1.182-2.262-1.771-4.116-1.771
		c-0.938,0-1.753,0.176-2.446,0.527s-1.27,0.824-1.729,1.42c-0.459,0.598-0.812,1.301-1.056,2.109
		c-0.245,0.811-0.386,1.675-0.425,2.594H88.175z"/>
	<path fill="#E5E3E3" d="M126.173,128.552c0,0.215-0.049,0.396-0.146,0.541c-0.098,0.146-0.264,0.27-0.498,0.367
		c-0.234,0.097-0.552,0.166-0.952,0.205s-0.894,0.059-1.479,0.059c-0.625,0-1.134-0.02-1.523-0.059
		c-0.391-0.039-0.708-0.107-0.952-0.205c-0.245-0.099-0.42-0.221-0.526-0.367c-0.107-0.145-0.161-0.326-0.161-0.541v-2.9
		c-1.349,1.445-2.76,2.568-4.233,3.369c-1.475,0.801-3.11,1.201-4.907,1.201c-1.991,0-3.677-0.387-5.054-1.157
		s-2.5-1.812-3.369-3.12s-1.499-2.837-1.89-4.585c-0.392-1.747-0.586-3.589-0.586-5.522c0-2.323,0.249-4.414,0.747-6.27
		s1.226-3.438,2.183-4.746s2.148-2.314,3.574-3.018c1.425-0.703,3.065-1.055,4.922-1.055c1.465,0,2.793,0.297,3.984,0.894
		c1.19,0.597,2.373,1.47,3.545,2.622v-14.15c0-0.195,0.054-0.371,0.161-0.527c0.106-0.155,0.303-0.287,0.586-0.396
		c0.282-0.106,0.658-0.19,1.128-0.249c0.469-0.059,1.063-0.088,1.787-0.088c0.722,0,1.317,0.029,1.786,0.088
		c0.47,0.059,0.84,0.143,1.113,0.249s0.469,0.239,0.586,0.396c0.117,0.158,0.176,0.332,0.176,0.527v38.438H126.173z
		 M118.849,111.091c-1.056-1.328-2.065-2.344-3.032-3.047s-1.979-1.055-3.032-1.055c-0.957,0-1.783,0.238-2.476,0.717
		c-0.693,0.479-1.25,1.119-1.67,1.92s-0.732,1.694-0.938,2.681c-0.205,0.985-0.308,1.997-0.308,3.032
		c0,1.094,0.088,2.158,0.264,3.193c0.176,1.034,0.464,1.959,0.864,2.768c0.399,0.812,0.933,1.461,1.597,1.949
		c0.664,0.487,1.504,0.731,2.521,0.731c0.508,0,1-0.073,1.479-0.22c0.479-0.146,0.967-0.387,1.465-0.719s1.011-0.766,1.538-1.303
		s1.104-1.197,1.729-1.979V111.091z"/>
	<path fill="#E5E3E3" d="M158.371,128.552c0,0.195-0.049,0.365-0.146,0.513c-0.099,0.146-0.27,0.269-0.514,0.366
		c-0.245,0.098-0.566,0.171-0.967,0.22c-0.399,0.048-0.904,0.073-1.509,0.073c-0.646,0-1.167-0.025-1.567-0.073
		c-0.399-0.049-0.718-0.122-0.952-0.22c-0.233-0.098-0.399-0.221-0.497-0.366c-0.099-0.146-0.146-0.317-0.146-0.513v-3.018
		c-1.446,1.563-2.915,2.733-4.409,3.516c-1.494,0.781-3.042,1.172-4.644,1.172c-1.797,0-3.307-0.293-4.526-0.879
		c-1.221-0.586-2.208-1.387-2.959-2.402c-0.752-1.016-1.289-2.191-1.611-3.529c-0.321-1.338-0.482-3.004-0.482-4.996v-15.996
		c0-0.194,0.054-0.365,0.161-0.512c0.106-0.146,0.303-0.27,0.586-0.367s0.664-0.17,1.143-0.22c0.479-0.048,1.069-0.073,1.772-0.073
		c0.722,0,1.317,0.025,1.787,0.073c0.469,0.05,0.845,0.122,1.128,0.22c0.283,0.099,0.482,0.221,0.601,0.367
		c0.118,0.145,0.176,0.316,0.176,0.512v14.767c0,1.366,0.088,2.412,0.265,3.135c0.176,0.724,0.443,1.345,0.806,1.86
		c0.361,0.518,0.82,0.919,1.377,1.201c0.557,0.283,1.206,0.425,1.948,0.425c0.938,0,1.879-0.343,2.827-1.024
		c0.946-0.685,1.958-1.681,3.031-2.988v-17.373c0-0.195,0.055-0.366,0.161-0.514c0.107-0.146,0.304-0.269,0.586-0.365
		c0.283-0.099,0.659-0.172,1.128-0.221c0.47-0.048,1.064-0.072,1.787-0.072s1.318,0.024,1.787,0.072
		c0.469,0.049,0.839,0.122,1.113,0.221c0.272,0.098,0.469,0.22,0.586,0.365c0.117,0.146,0.176,0.317,0.176,0.514v26.131H158.371z"/>
	<path fill="#E5E3E3" d="M178.732,114.812c0,1.133-0.107,1.924-0.322,2.373s-0.557,0.674-1.025,0.674h-12.188
		c-0.488,0-0.84-0.229-1.055-0.688c-0.216-0.459-0.322-1.246-0.322-2.358c0-1.095,0.106-1.864,0.322-2.313
		c0.215-0.449,0.565-0.674,1.055-0.674h12.188c0.234,0,0.436,0.049,0.602,0.146c0.166,0.098,0.308,0.264,0.425,0.497
		c0.117,0.234,0.2,0.548,0.249,0.939C178.707,113.796,178.732,114.265,178.732,114.812z"/>
	<path fill="#E5E3E3" d="M202.551,121.169c0,1.483-0.278,2.793-0.836,3.926c-0.557,1.133-1.343,2.08-2.356,2.842
		c-1.017,0.762-2.217,1.333-3.604,1.714c-1.387,0.382-2.891,0.571-4.512,0.571c-0.977,0-1.909-0.073-2.798-0.221
		c-0.889-0.146-1.686-0.332-2.388-0.557c-0.703-0.224-1.289-0.453-1.759-0.688c-0.469-0.234-0.811-0.455-1.024-0.659
		c-0.215-0.205-0.381-0.527-0.498-0.968c-0.117-0.439-0.176-1.088-0.176-1.947c0-0.566,0.019-1.021,0.059-1.362
		c0.039-0.341,0.098-0.614,0.176-0.819s0.176-0.342,0.293-0.41s0.265-0.104,0.439-0.104c0.215,0,0.532,0.122,0.952,0.366
		c0.42,0.245,0.941,0.513,1.566,0.806s1.353,0.566,2.184,0.82c0.83,0.254,1.771,0.381,2.827,0.381c0.663,0,1.255-0.068,1.771-0.205
		s0.967-0.332,1.348-0.586c0.382-0.254,0.669-0.576,0.864-0.967s0.293-0.84,0.293-1.348c0-0.586-0.181-1.088-0.542-1.51
		c-0.362-0.42-0.84-0.785-1.436-1.099c-0.597-0.313-1.271-0.604-2.021-0.879c-0.752-0.272-1.522-0.576-2.313-0.908
		s-1.563-0.713-2.314-1.144c-0.752-0.43-1.426-0.957-2.021-1.582c-0.597-0.625-1.074-1.377-1.437-2.256s-0.542-1.934-0.542-3.164
		c0-1.25,0.244-2.396,0.732-3.441c0.487-1.044,1.19-1.938,2.108-2.682c0.918-0.741,2.036-1.317,3.354-1.729
		c1.317-0.41,2.798-0.615,4.438-0.615c0.82,0,1.616,0.06,2.389,0.176c0.771,0.117,1.469,0.265,2.095,0.439
		c0.625,0.176,1.152,0.366,1.582,0.571c0.429,0.205,0.736,0.381,0.922,0.526c0.186,0.146,0.318,0.293,0.396,0.439
		c0.076,0.146,0.136,0.322,0.176,0.527c0.039,0.205,0.071,0.459,0.102,0.762c0.029,0.305,0.045,0.68,0.045,1.128
		c0,0.526-0.016,0.957-0.045,1.289c-0.028,0.332-0.078,0.597-0.146,0.791c-0.068,0.194-0.16,0.327-0.277,0.396
		c-0.117,0.069-0.254,0.104-0.41,0.104c-0.176,0-0.45-0.104-0.819-0.309c-0.371-0.205-0.837-0.424-1.394-0.658
		s-1.201-0.454-1.933-0.659c-0.732-0.205-1.567-0.308-2.505-0.308c-0.664,0-1.241,0.068-1.729,0.205s-0.889,0.332-1.201,0.586
		s-0.547,0.553-0.703,0.894c-0.156,0.343-0.233,0.708-0.233,1.099c0,0.605,0.186,1.113,0.557,1.523s0.859,0.771,1.465,1.084
		s1.293,0.605,2.065,0.879c0.771,0.273,1.553,0.571,2.344,0.895c0.791,0.322,1.572,0.697,2.343,1.127
		c0.771,0.431,1.461,0.957,2.066,1.582c0.604,0.625,1.094,1.373,1.465,2.242C202.364,118.947,202.551,119.978,202.551,121.169z"/>
	<path fill="#E5E3E3" d="M233.049,128.552c0,0.195-0.059,0.365-0.176,0.513s-0.313,0.269-0.586,0.366s-0.649,0.171-1.129,0.22
		c-0.479,0.048-1.068,0.073-1.771,0.073c-0.724,0-1.324-0.025-1.804-0.073c-0.479-0.049-0.854-0.122-1.127-0.22
		s-0.469-0.221-0.586-0.366s-0.176-0.317-0.176-0.513V113.64c0-1.27-0.094-2.266-0.279-2.988c-0.185-0.722-0.453-1.343-0.805-1.859
		c-0.353-0.518-0.807-0.918-1.363-1.201c-0.557-0.282-1.205-0.426-1.947-0.426c-0.938,0-1.886,0.342-2.842,1.025
		c-0.957,0.684-1.953,1.68-2.987,2.988v17.373c0,0.195-0.06,0.365-0.177,0.513c-0.116,0.147-0.317,0.269-0.602,0.366
		c-0.284,0.097-0.658,0.171-1.127,0.22c-0.469,0.048-1.065,0.073-1.787,0.073c-0.723,0-1.318-0.025-1.787-0.073
		c-0.469-0.049-0.846-0.122-1.129-0.22s-0.482-0.221-0.6-0.366c-0.118-0.146-0.177-0.317-0.177-0.513V90.026
		c0-0.194,0.06-0.371,0.177-0.526c0.116-0.156,0.315-0.289,0.6-0.396c0.283-0.105,0.66-0.189,1.129-0.249s1.064-0.088,1.787-0.088
		c0.722,0,1.318,0.028,1.787,0.088s0.844,0.144,1.127,0.249c0.283,0.107,0.483,0.238,0.602,0.396
		c0.118,0.156,0.177,0.332,0.177,0.526v14.442c1.27-1.25,2.563-2.182,3.881-2.797c1.317-0.615,2.69-0.924,4.117-0.924
		c1.775,0,3.274,0.293,4.495,0.879c1.222,0.586,2.207,1.388,2.959,2.402c0.752,1.016,1.294,2.202,1.627,3.561
		c0.332,1.357,0.498,3.002,0.498,4.937V128.552L233.049,128.552z"/>
	<path fill="#E5E3E3" d="M262.551,128.64c0,0.273-0.099,0.488-0.293,0.645s-0.504,0.269-0.924,0.338
		c-0.42,0.067-1.039,0.103-1.858,0.103c-0.879,0-1.521-0.034-1.92-0.103c-0.4-0.069-0.685-0.182-0.851-0.338
		s-0.248-0.371-0.248-0.645v-2.08c-1.074,1.152-2.301,2.051-3.678,2.695c-1.377,0.644-2.904,0.967-4.584,0.967
		c-1.388,0-2.662-0.182-3.824-0.542c-1.162-0.361-2.168-0.897-3.018-1.611c-0.851-0.713-1.509-1.597-1.978-2.651
		c-0.469-1.053-0.703-2.285-0.703-3.69c0-1.522,0.297-2.847,0.894-3.97c0.596-1.123,1.483-2.051,2.666-2.783
		c1.182-0.732,2.651-1.273,4.41-1.626c1.758-0.353,3.798-0.527,6.123-0.527h2.549v-1.581c0-0.82-0.084-1.539-0.25-2.154
		c-0.166-0.614-0.439-1.127-0.82-1.537s-0.889-0.713-1.522-0.908c-0.635-0.195-1.421-0.293-2.357-0.293
		c-1.23,0-2.33,0.137-3.297,0.41c-0.967,0.272-1.82,0.576-2.563,0.908s-1.362,0.635-1.86,0.908
		c-0.498,0.272-0.903,0.409-1.216,0.409c-0.216,0-0.405-0.067-0.571-0.205c-0.166-0.137-0.304-0.332-0.41-0.586
		c-0.107-0.254-0.189-0.565-0.248-0.938c-0.059-0.371-0.088-0.78-0.088-1.229c0-0.604,0.048-1.084,0.146-1.437
		c0.099-0.352,0.282-0.668,0.558-0.951c0.272-0.282,0.751-0.596,1.436-0.938s1.483-0.66,2.402-0.953
		c0.918-0.293,1.918-0.531,3.002-0.718s2.202-0.278,3.354-0.278c2.052,0,3.804,0.201,5.259,0.602c1.454,0.4,2.651,1.016,3.59,1.846
		c0.938,0.831,1.621,1.899,2.051,3.208c0.429,1.31,0.645,2.861,0.645,4.658L262.551,128.64L262.551,128.64z M255.314,117.449h-2.813
		c-1.19,0-2.208,0.088-3.047,0.264c-0.84,0.176-1.522,0.438-2.051,0.791c-0.528,0.352-0.914,0.775-1.158,1.273
		s-0.365,1.069-0.365,1.715c0,1.094,0.347,1.952,1.039,2.577c0.693,0.625,1.656,0.938,2.888,0.938c1.034,0,1.985-0.264,2.854-0.791
		s1.754-1.299,2.652-2.314L255.314,117.449L255.314,117.449z"/>
	<path fill="#E5E3E3" d="M286.691,104.851c0,0.703-0.021,1.279-0.06,1.729c-0.039,0.45-0.098,0.801-0.176,1.055
		c-0.078,0.255-0.182,0.431-0.309,0.527c-0.127,0.098-0.287,0.146-0.482,0.146c-0.156,0-0.332-0.033-0.526-0.104
		c-0.195-0.067-0.416-0.142-0.66-0.22c-0.244-0.077-0.513-0.149-0.806-0.22c-0.293-0.068-0.614-0.104-0.967-0.104
		c-0.41,0-0.819,0.084-1.229,0.25s-0.836,0.424-1.275,0.775c-0.438,0.352-0.897,0.82-1.377,1.406
		c-0.479,0.586-0.991,1.309-1.537,2.168v16.289c0,0.195-0.059,0.365-0.176,0.513s-0.318,0.269-0.603,0.366
		c-0.283,0.097-0.657,0.171-1.127,0.22c-0.469,0.048-1.064,0.073-1.786,0.073c-0.724,0-1.318-0.025-1.787-0.073
		c-0.47-0.049-0.847-0.122-1.129-0.22c-0.283-0.098-0.482-0.221-0.601-0.366s-0.176-0.317-0.176-0.513v-26.133
		c0-0.195,0.048-0.367,0.146-0.514c0.099-0.146,0.273-0.27,0.527-0.365c0.253-0.099,0.58-0.172,0.98-0.221
		c0.399-0.048,0.903-0.072,1.51-0.072c0.625,0,1.143,0.024,1.553,0.072c0.41,0.049,0.728,0.122,0.951,0.221
		c0.224,0.098,0.386,0.219,0.484,0.365c0.098,0.146,0.146,0.317,0.146,0.514v3.252c0.685-0.978,1.328-1.782,1.935-2.418
		c0.604-0.633,1.182-1.137,1.729-1.508c0.546-0.371,1.094-0.631,1.641-0.777c0.546-0.146,1.095-0.219,1.642-0.219
		c0.253,0,0.526,0.015,0.819,0.043c0.293,0.029,0.597,0.078,0.908,0.146c0.313,0.068,0.586,0.146,0.82,0.234
		s0.404,0.181,0.512,0.277c0.108,0.098,0.187,0.205,0.234,0.322s0.094,0.277,0.133,0.482s0.068,0.514,0.088,0.924
		C286.68,103.587,286.691,104.147,286.691,104.851z"/>
	<path fill="#E5E3E3" d="M299.172,93.571c0,1.484-0.303,2.511-0.907,3.076c-0.605,0.565-1.729,0.851-3.369,0.851
		c-1.66,0-2.779-0.273-3.355-0.82s-0.863-1.533-0.863-2.959c0-1.484,0.298-2.516,0.894-3.092c0.596-0.574,1.725-0.863,3.385-0.863
		c1.642,0,2.754,0.277,3.34,0.835C298.881,91.155,299.172,92.146,299.172,93.571z M298.615,128.552c0,0.195-0.059,0.365-0.176,0.513
		s-0.318,0.269-0.603,0.366c-0.283,0.097-0.657,0.171-1.127,0.22c-0.469,0.048-1.063,0.073-1.787,0.073
		c-0.723,0-1.317-0.025-1.786-0.073c-0.47-0.049-0.847-0.122-1.13-0.22c-0.282-0.098-0.481-0.221-0.6-0.366
		s-0.176-0.317-0.176-0.513v-26.074c0-0.195,0.059-0.366,0.176-0.514c0.117-0.146,0.316-0.272,0.6-0.381
		c0.283-0.105,0.66-0.189,1.13-0.248c0.469-0.06,1.063-0.088,1.786-0.088c0.724,0,1.318,0.028,1.787,0.088
		c0.47,0.059,0.845,0.143,1.127,0.248c0.283,0.107,0.484,0.234,0.603,0.381c0.118,0.147,0.176,0.318,0.176,0.514V128.552z"/>
	<path fill="#E5E3E3" d="M330.93,128.552c0,0.195-0.06,0.365-0.177,0.513c-0.116,0.147-0.313,0.269-0.586,0.366
		c-0.272,0.097-0.649,0.171-1.129,0.22c-0.479,0.048-1.067,0.073-1.771,0.073c-0.724,0-1.324-0.025-1.804-0.073
		c-0.479-0.049-0.854-0.122-1.127-0.22c-0.272-0.098-0.469-0.221-0.586-0.366s-0.176-0.317-0.176-0.513V113.64
		c0-1.27-0.094-2.266-0.279-2.988c-0.185-0.722-0.453-1.343-0.805-1.859c-0.352-0.518-0.807-0.918-1.363-1.201
		c-0.557-0.282-1.205-0.426-1.946-0.426c-0.938,0-1.886,0.342-2.843,1.025s-1.952,1.68-2.987,2.988v17.373
		c0,0.195-0.06,0.365-0.177,0.513c-0.116,0.147-0.317,0.269-0.602,0.366c-0.284,0.097-0.658,0.171-1.127,0.22
		c-0.469,0.048-1.064,0.073-1.787,0.073s-1.318-0.025-1.787-0.073c-0.469-0.049-0.846-0.122-1.129-0.22s-0.481-0.221-0.6-0.366
		s-0.177-0.317-0.177-0.513v-26.133c0-0.195,0.05-0.366,0.146-0.514c0.097-0.146,0.273-0.269,0.527-0.365
		c0.254-0.098,0.58-0.172,0.979-0.221c0.4-0.048,0.904-0.072,1.51-0.072c0.625,0,1.144,0.024,1.554,0.072
		c0.41,0.049,0.727,0.122,0.951,0.221c0.224,0.098,0.387,0.219,0.483,0.365s0.146,0.317,0.146,0.514v3.018
		c1.444-1.563,2.914-2.734,4.407-3.516c1.494-0.782,3.054-1.172,4.675-1.172c1.776,0,3.274,0.293,4.496,0.879
		c1.221,0.586,2.206,1.381,2.959,2.388c0.752,1.007,1.295,2.183,1.627,3.53c0.332,1.347,0.498,2.969,0.498,4.863v16.143H330.93z"/>
	<path fill="#E5E3E3" d="M361.721,104.235c0,0.938-0.107,1.632-0.322,2.08c-0.215,0.449-0.479,0.675-0.791,0.675h-3.076
		c0.43,0.469,0.736,1,0.922,1.596c0.187,0.598,0.279,1.217,0.279,1.86c0,1.522-0.254,2.876-0.762,4.058
		c-0.509,1.184-1.236,2.18-2.185,2.988c-0.947,0.812-2.09,1.426-3.428,1.846c-1.338,0.422-2.826,0.631-4.467,0.631
		c-0.84,0-1.642-0.104-2.402-0.309s-1.348-0.443-1.758-0.718c-0.234,0.254-0.445,0.558-0.631,0.908
		c-0.187,0.351-0.277,0.741-0.277,1.172c0,0.565,0.248,1.03,0.746,1.392c0.498,0.362,1.197,0.563,2.096,0.602l6.357,0.234
		c1.483,0.059,2.807,0.269,3.969,0.629c1.162,0.363,2.139,0.869,2.93,1.523c0.791,0.655,1.396,1.439,1.816,2.357
		s0.631,1.964,0.631,3.136c0,1.289-0.283,2.505-0.85,3.647c-0.567,1.142-1.416,2.133-2.549,2.974
		c-1.134,0.84-2.556,1.504-4.265,1.991c-1.709,0.488-3.705,0.732-5.99,0.732c-2.227,0-4.127-0.176-5.698-0.527
		c-1.572-0.351-2.861-0.84-3.867-1.465s-1.738-1.373-2.197-2.24c-0.459-0.869-0.688-1.821-0.688-2.856
		c0-0.646,0.082-1.26,0.248-1.846c0.166-0.587,0.409-1.147,0.731-1.685c0.322-0.539,0.719-1.051,1.188-1.539
		c0.469-0.487,1.006-0.957,1.61-1.406c-0.84-0.448-1.489-1.059-1.949-1.83c-0.459-0.771-0.688-1.616-0.688-2.534
		c0-1.151,0.264-2.201,0.791-3.149c0.527-0.947,1.211-1.802,2.051-2.563c-0.684-0.684-1.229-1.504-1.641-2.461
		s-0.615-2.148-0.615-3.574c0-1.523,0.268-2.886,0.805-4.087s1.285-2.216,2.242-3.047c0.957-0.83,2.101-1.466,3.428-1.904
		c1.328-0.438,2.793-0.659,4.396-0.659c0.82,0,1.604,0.049,2.356,0.146c0.753,0.097,1.451,0.234,2.097,0.41h8.291
		c0.332,0,0.6,0.215,0.805,0.645S361.721,103.22,361.721,104.235z M353.986,131.276c0-0.879-0.353-1.553-1.055-2.021
		c-0.703-0.469-1.671-0.723-2.9-0.762l-5.244-0.146c-0.508,0.371-0.914,0.729-1.217,1.068s-0.547,0.67-0.732,0.981
		c-0.185,0.312-0.307,0.615-0.364,0.908c-0.059,0.293-0.089,0.596-0.089,0.907c0,0.978,0.492,1.72,1.479,2.228
		c0.987,0.509,2.379,0.763,4.176,0.763c1.113,0,2.051-0.113,2.813-0.338c0.762-0.225,1.377-0.521,1.846-0.894
		s0.801-0.787,0.996-1.245C353.889,132.268,353.986,131.785,353.986,131.276z M352.258,110.417c0-1.406-0.391-2.5-1.172-3.281
		c-0.78-0.781-1.885-1.172-3.311-1.172c-0.724,0-1.357,0.121-1.904,0.365c-0.547,0.246-1.002,0.576-1.363,0.996
		c-0.36,0.422-0.629,0.908-0.805,1.465c-0.176,0.558-0.264,1.139-0.264,1.744c0,1.327,0.391,2.377,1.172,3.148
		s1.865,1.156,3.252,1.156c0.742,0,1.387-0.116,1.934-0.352c0.547-0.234,1-0.557,1.361-0.967s0.635-0.883,0.82-1.421
		C352.164,111.564,352.258,111.003,352.258,110.417z"/>
</g>
</svg>
