<svg id="1b0d02a6-9474-442d-b723-5f753f01ed4d" data-name="Ebene 1" xmlns="http://www.w3.org/2000/svg" width="0.88cm" height="0.88cm" viewBox="0 0 24.98 25">
  <title>_</title>
  <path d="M12.47,0a12.19,12.19,0,0,1,8.92,3.66,12,12,0,0,1,2.68,4A12.71,12.71,0,0,1,25,12.5a12.74,12.74,0,0,1-.9,4.81,11.46,11.46,0,0,1-2.67,4A12.83,12.83,0,0,1,17.26,24a12.43,12.43,0,0,1-4.79,1A12.14,12.14,0,0,1,7.73,24,12.55,12.55,0,0,1,3.67,21.3a12.44,12.44,0,0,1-2.73-4,12.47,12.47,0,0,1,0-9.51A12.53,12.53,0,0,1,3.7,3.65,11.8,11.8,0,0,1,12.47,0Zm0,2.25a9.68,9.68,0,0,0-7.2,3A10.74,10.74,0,0,0,3,8.61a9.91,9.91,0,0,0,0,7.76,10.57,10.57,0,0,0,5.59,5.55,10.13,10.13,0,0,0,7.77,0,10.77,10.77,0,0,0,3.4-2.25,9.6,9.6,0,0,0,2.92-7.16A10.26,10.26,0,0,0,22,8.57a10,10,0,0,0-2.21-3.3,9.88,9.88,0,0,0-7.25-3ZM18.41,9l-2.85,1.48a2.92,2.92,0,0,0-1.12-1.33,2.52,2.52,0,0,0-1.23-.38q-2.85,0-2.85,3.76a4.66,4.66,0,0,0,.72,2.73,2.43,2.43,0,0,0,2.13,1,2.66,2.66,0,0,0,2.62-1.82l2.62,1.33a6.26,6.26,0,0,1-5.58,3.34,6.21,6.21,0,0,1-4.59-1.75A6.57,6.57,0,0,1,6.53,12.5,6.56,6.56,0,0,1,8.29,7.68a6,6,0,0,1,4.46-1.78A6,6,0,0,1,18.41,9Z"/>
</svg>
