<?xml version="1.0" encoding="utf-8"?>
<!-- Generator: Adobe Illustrator 22.1.0, SVG Export Plug-In . SVG Version: 6.00 Build 0)  -->
<svg version="1.1" id="Ebene_1" xmlns="http://www.w3.org/2000/svg" xmlns:xlink="http://www.w3.org/1999/xlink" x="0px" y="0px"
	 viewBox="0 0 200 150" style="enable-background:new 0 0 200 150;" xml:space="preserve">
<style type="text/css">
	.st0{fill:#68BCA2;}
	.st1{fill:#FFFFFF;}
</style>
<title>_ksnapshot-all</title>
<rect class="st0" width="200" height="150"/>
<circle class="st1" cx="100" cy="75" r="30.9"/>
<g>
	<g>
		<g>
			<path class="st0" d="M99.9,75.3c0-0.8-0.6-1.7-1.3-2l-14.2-6.7c-0.7-0.3-1.2,0-1.1,0.8l2,15.6c0.1,0.8,0.7,1.8,1.3,2.2l12.2,8.4
				c0.6,0.4,1.2,0.2,1.2-0.6L99.9,75.3z"/>
		</g>
		<g>
			<path class="st0" d="M100.4,70.7c0.7,0.3,1.8,0.3,2.5-0.1l13.1-6.9c0.7-0.4,0.7-0.9-0.1-1.1l-13.5-4.8c-0.7-0.3-1.9-0.3-2.7,0
				l-13.9,5c-0.7,0.3-0.8,0.7-0.1,1.1L100.4,70.7z"/>
		</g>
		<g>
			<path class="st0" d="M104.5,73.2c-0.7,0.4-1.3,1.3-1.2,2.1l0.1,17.8c0,0.8,0.5,1,1.1,0.6l11.6-8.8c0.6-0.5,1.2-1.5,1.3-2.3
				l1.6-15.6c0.1-0.8-0.4-1.1-1.1-0.7L104.5,73.2z"/>
		</g>
	</g>
</g>
</svg>
