<?xml version="1.0" encoding="utf-8"?>
<!-- Generator: Adobe Illustrator 21.0.0, SVG Export Plug-In . SVG Version: 6.00 Build 0)  -->
<svg version="1.1" id="Ebene_1" xmlns="http://www.w3.org/2000/svg" xmlns:xlink="http://www.w3.org/1999/xlink" x="0px" y="0px"
	 viewBox="0 0 200 150" style="enable-background:new 0 0 200 150;" xml:space="preserve">
<style type="text/css">
	.st0{fill:#4D799A;}
	.st1{fill:#FFFFFF;}
</style>
<title>_ksnapshot-all</title>
<rect y="0" class="st0" width="200" height="150"/>
<circle class="st1" cx="100" cy="75" r="30.9"/>
<path class="st0" d="M112.6,64.9l-4.6-4.6c-1.2-1.1-2.8-1.7-4.4-1.8H88.2c-1.4,0-2.6,1.2-2.6,2.6v0v27.8c0,1.4,1.2,2.6,2.6,2.6h23.7
	c1.4,0,2.6-1.2,2.6-2.6l0,0V69.3C114.3,67.7,113.7,66.1,112.6,64.9z M111.1,66.4c0.1,0.1,0.2,0.2,0.3,0.4h-5.3v-5.3
	c0.1,0.1,0.2,0.2,0.4,0.3L111.1,66.4z M112.4,88.9c0,0.3-0.2,0.5-0.5,0.5l0,0H88.2c-0.3,0-0.5-0.2-0.5-0.5V61.1
	c0-0.3,0.2-0.5,0.5-0.5h15.5c0.2,0,0.3,0,0.5,0.1v8.2h8.2c0,0.2,0.1,0.3,0.1,0.5L112.4,88.9L112.4,88.9z"/>
</svg>
