<?xml version="1.0" encoding="utf-8"?>
<!-- Generator: Adobe Illustrator 21.0.0, SVG Export Plug-In . SVG Version: 6.00 Build 0)  -->
<svg version="1.1" id="Ebene_1" xmlns="http://www.w3.org/2000/svg" xmlns:xlink="http://www.w3.org/1999/xlink" x="0px" y="0px"
	 viewBox="0 0 200 150" style="enable-background:new 0 0 200 150;" xml:space="preserve">
<style type="text/css">
	.st0{fill:#9B5A5B;}
	.st1{fill:#FFFFFF;}
</style>
<title>_ksnapshot-all</title>
<rect y="0" class="st0" width="200" height="150"/>
<circle class="st1" cx="100" cy="75" r="30.9"/>
<path class="st0" d="M110.4,77.4c-0.8-0.5-1.8-0.8-2.8-0.7c-1.1,0-2.3,0.1-3.4,0.2c-0.6-0.3-1.1-0.7-1.6-1.1
	c-1.3-1.2-2.3-2.8-2.8-4.4l0.1-0.4c0.3-1.7,0.5-3.4,0.5-5.2c0-0.1,0-0.3-0.1-0.4l-0.1-0.2c-0.2-0.5-0.6-0.8-1.1-0.9h-0.3
	c-0.6,0-1.1,0.3-1.3,0.8c-0.4,1.5,0,3.8,0.8,6.8L98,72.5c-0.6,1.3-1.2,2.7-1.9,3.9l-0.1,0.2c-0.6,1.3-1.2,2.3-1.8,3.2l-0.5,0.3
	c0,0-1,0.5-1.2,0.7c-1.9,1.1-3.1,2.4-3.3,3.4c-0.1,0.3,0,0.7,0.3,0.9l0.5,0.3c0.2,0.1,0.5,0.2,0.7,0.2c1.3,0,2.9-1.7,5-5.4
	c2.5-0.8,5.1-1.4,7.7-1.8c1.7,1,3.6,1.6,5.6,1.8c0.2,0,0.4,0,0.7-0.1c0.3-0.1,0.5-0.2,0.6-0.4c0.3-0.5,0.4-1.1,0.3-1.6
	C110.7,77.8,110.5,77.6,110.4,77.4L110.4,77.4L110.4,77.4z M90.5,84.5c0.6-1.2,1.5-2.3,2.6-3.1l0.5-0.5
	C92.2,83.3,91.2,84.2,90.5,84.5L90.5,84.5L90.5,84.5z M98.9,65.2c0.4,0,0.7,1.1,0.7,2.1c0,0.8-0.1,1.6-0.5,2.2
	c-0.2-0.9-0.4-1.9-0.4-2.8C98.7,66.2,98.8,65.7,98.9,65.2L98.9,65.2z M96.4,78.9c0.3-0.5,0.6-1.1,0.9-1.7c0.6-1.1,1.2-2.3,1.6-3.5
	c0.7,1.3,1.6,2.4,2.7,3.3l0.4,0.3C100.2,77.7,98.3,78.3,96.4,78.9L96.4,78.9L96.4,78.9z M110,78.8c-0.2,0.1-0.5,0.1-0.8,0.1
	c-1.1-0.1-2.1-0.4-3.1-0.9c0.5,0,1-0.1,1.4-0.1c0.6,0,1.2,0,1.8,0.2C110.1,78.3,110.1,78.7,110,78.8L110,78.8L110,78.8z M112.4,65.1
	l-4.5-4.5c-1.2-1.1-2.7-1.7-4.3-1.8H88.4c-1.4,0-2.5,1.1-2.5,2.5v27.2c0,1.4,1.1,2.5,2.5,2.5h23.2c1.4,0,2.5-1.1,2.5-2.5V69.5
	C114,67.9,113.4,66.3,112.4,65.1L112.4,65.1z M110.9,66.6c0.1,0.1,0.2,0.2,0.3,0.4h-5.1v-5.2c0.1,0.1,0.2,0.2,0.4,0.3L110.9,66.6z
	 M112.1,88.6c0,0.3-0.2,0.5-0.5,0.5H88.4c-0.3,0-0.5-0.2-0.5-0.5V61.4c0-0.3,0.2-0.5,0.5-0.5h15.1c0.2,0,0.3,0,0.5,0.1v8h8
	c0,0.2,0,0.3,0.1,0.5L112.1,88.6L112.1,88.6L112.1,88.6z"/>
</svg>
