<svg id="07e28c4e-69af-4f2c-9d4e-7aab0e2968ec" data-name="Ebene 1" xmlns="http://www.w3.org/2000/svg" width="0.88cm" height="0.88cm" viewBox="0 0 24.97 25">
  <defs>
    <style>
      .eafa8d43-1a46-4d47-9307-5297e2d06728 {
        fill: #fff;
      }

      .\33 e148a1f-1a23-4c4a-8ff0-f9cd44412473 {
        fill: #12100b;
      }
    </style>
  </defs>
  <title>cc0</title>
  <g>
    <path class="eafa8d43-1a46-4d47-9307-5297e2d06728" d="M24.16,12.68A11.73,11.73,0,1,1,12.44,1,11.73,11.73,0,0,1,24.16,12.68Z"/>
    <path class="3e148a1f-1a23-4c4a-8ff0-f9cd44412473" d="M12.5,5.35c-4.12,0-5.15,3.88-5.15,7.18s1,7.18,5.15,7.18,5.15-3.88,5.15-7.18-1-7.18-5.15-7.18Zm0,2.71a1.9,1.9,0,0,1,.46.06.79.79,0,0,1,.16,1.1l-2.74,5a13.35,13.35,0,0,1-.1-1.73c0-1.45.1-4.47,2.22-4.47Zm2.05,2.32a11.94,11.94,0,0,1,.17,2.15c0,1.45-.1,4.47-2.22,4.47a1.91,1.91,0,0,1-.46-.05l-.08,0-.13,0c-.47-.2-.77-.56-.34-1.21l3.06-5.29Z"/>
    <path class="3e148a1f-1a23-4c4a-8ff0-f9cd44412473" d="M12.48.06A11.77,11.77,0,0,0,3.73,3.69,12.65,12.65,0,0,0,1,7.79a12.5,12.5,0,0,0,0,9.48,12.61,12.61,0,0,0,2.72,4.05,13,13,0,0,0,4.05,2.74,12.47,12.47,0,0,0,9.53,0,12.8,12.8,0,0,0,4.14-2.76,11.33,11.33,0,0,0,2.65-3.94A12.68,12.68,0,0,0,25,12.53a12.65,12.65,0,0,0-.91-4.79,12,12,0,0,0-2.67-4A12.18,12.18,0,0,0,12.48.06Zm.05,2.24a9.85,9.85,0,0,1,7.23,3A10,10,0,0,1,22,8.61a10.24,10.24,0,0,1,.76,3.92,9.57,9.57,0,0,1-2.92,7.14,10.72,10.72,0,0,1-3.41,2.25,10,10,0,0,1-3.87.78,10.14,10.14,0,0,1-3.88-.76,10.52,10.52,0,0,1-3.32-2.23A10.65,10.65,0,0,1,3.07,16.4a9.93,9.93,0,0,1,0-7.74A10.84,10.84,0,0,1,5.34,5.29a9.67,9.67,0,0,1,7.19-3Z"/>
  </g>
</svg>
