<svg id="d43b9bb3-ee00-4b93-bafe-39020f461713" data-name="Ebene 1" xmlns="http://www.w3.org/2000/svg" width="3.06cm" height="0.88cm" viewBox="0 0 86.86 25">
  <title>CC-Lizenz-Icons</title>
  <path d="M43.4,0a12.08,12.08,0,0,1,8.88,3.62,12.09,12.09,0,0,1,3.64,8.88,11.78,11.78,0,0,1-3.57,8.77,12.35,12.35,0,0,1-9,3.73,12.1,12.1,0,0,1-8.79-3.68,12,12,0,0,1-3.68-8.82,12.25,12.25,0,0,1,3.68-8.88A12,12,0,0,1,43.4,0Zm0,2.25a9.73,9.73,0,0,0-7.21,3,10.06,10.06,0,0,0-3.06,7.25,9.82,9.82,0,0,0,3,7.19,9.87,9.87,0,0,0,7.23,3,10,10,0,0,0,7.28-3.06,9.52,9.52,0,0,0,2.95-7.17,9.88,9.88,0,0,0-3-7.25,9.85,9.85,0,0,0-7.23-3ZM46.79,9.4v5.11H45.36v6.07H41.48V14.51H40.05V9.4a.8.8,0,0,1,.8-.8H46a.79.79,0,0,1,.56.23.76.76,0,0,1,.25.57ZM41.68,6.18a1.74,1.74,0,1,1,3.48,0,1.54,1.54,0,0,1-1.74,1.74,1.54,1.54,0,0,1-1.74-1.74Z"/>
  <path d="M74.34,0a12.09,12.09,0,0,1,8.88,3.64,12,12,0,0,1,3.64,8.86,11.9,11.9,0,0,1-3.57,8.79,12.34,12.34,0,0,1-9,3.71,12.1,12.1,0,0,1-8.79-3.68,12,12,0,0,1-3.68-8.82,12.23,12.23,0,0,1,3.68-8.86A12,12,0,0,1,74.34,0Zm0,2.25a9.69,9.69,0,0,0-7.21,3,10,10,0,0,0-3.06,7.23,9.78,9.78,0,0,0,3,7.19,9.87,9.87,0,0,0,7.23,3,10,10,0,0,0,7.28-3.06A9.57,9.57,0,0,0,84.6,12.5a9.76,9.76,0,0,0-3-7.23,9.77,9.77,0,0,0-7.23-3ZM68.8,10.74a5.58,5.58,0,0,1,1.85-3.56,5.46,5.46,0,0,1,3.64-1.26A6.05,6.05,0,0,1,79,7.81a6.92,6.92,0,0,1,1.74,4.87,6.69,6.69,0,0,1-1.81,4.79,6.17,6.17,0,0,1-4.69,1.91,5.56,5.56,0,0,1-3.66-1.27,5.41,5.41,0,0,1-1.85-3.62h3.15q.11,2.28,2.75,2.28a2.48,2.48,0,0,0,2.12-1.14,5.16,5.16,0,0,0,.8-3,5.2,5.2,0,0,0-.74-3,2.44,2.44,0,0,0-2.12-1q-2.5,0-2.81,2.21h.92L70.3,13.21l-2.48-2.48Z"/>
  <path d="M12.48,0a12.2,12.2,0,0,1,8.93,3.66,12,12,0,0,1,2.68,4A12.72,12.72,0,0,1,25,12.5a12.75,12.75,0,0,1-.9,4.81,11.47,11.47,0,0,1-2.67,4A12.84,12.84,0,0,1,17.28,24a12.44,12.44,0,0,1-4.8,1,12.15,12.15,0,0,1-4.74-.95,12.57,12.57,0,0,1-4.06-2.75A12.45,12.45,0,0,1,.94,17.25,12.48,12.48,0,0,1,1,7.73a12.54,12.54,0,0,1,2.76-4.1A11.81,11.81,0,0,1,12.48,0Zm0,2.25a9.69,9.69,0,0,0-7.21,3A10.75,10.75,0,0,0,3.05,8.61a9.91,9.91,0,0,0,0,7.77,10.58,10.58,0,0,0,5.59,5.56,10.14,10.14,0,0,0,7.78,0,10.78,10.78,0,0,0,3.4-2.25,9.6,9.6,0,0,0,2.92-7.17A10.27,10.27,0,0,0,22,8.57a10,10,0,0,0-2.21-3.3,9.89,9.89,0,0,0-7.25-3Zm-.16,8.17-1.67.87a1.72,1.72,0,0,0-.66-.78,1.48,1.48,0,0,0-.73-.22q-1.67,0-1.67,2.21a2.74,2.74,0,0,0,.42,1.61,1.43,1.43,0,0,0,1.25.6,1.57,1.57,0,0,0,1.54-1.07l1.54.78a3.68,3.68,0,0,1-3.28,2,3.65,3.65,0,0,1-2.7-1,3.86,3.86,0,0,1-1-2.86,3.85,3.85,0,0,1,1-2.83A3.53,3.53,0,0,1,9,8.62a3.5,3.5,0,0,1,3.33,1.81Zm7.21,0-1.65.87a1.71,1.71,0,0,0-.66-.78,1.51,1.51,0,0,0-.75-.22q-1.67,0-1.67,2.21a2.74,2.74,0,0,0,.42,1.61,1.43,1.43,0,0,0,1.25.6,1.56,1.56,0,0,0,1.54-1.07l1.56.78a3.84,3.84,0,0,1-1.38,1.44,3.61,3.61,0,0,1-1.9.52,3.64,3.64,0,0,1-2.71-1,3.89,3.89,0,0,1-1-2.86,3.85,3.85,0,0,1,1-2.83,3.54,3.54,0,0,1,2.62-1,3.46,3.46,0,0,1,3.3,1.81Z"/>
</svg>
