<svg id="1e8c8f97-f8ed-4199-9830-fcf1862bb1c5" data-name="Ebene 1" xmlns="http://www.w3.org/2000/svg" width="1.81cm" height="0.88cm" viewBox="0 0 51.26 25">
  <defs>
    <style>
      .\33 6302ba3-16ef-4c1d-b732-d2e253a7f151 {
      fill: #010101;
      }
    </style>
  </defs>
  <title>CC-Lizenz-Icons</title>
  <path d="M12.47,0a12.2,12.2,0,0,1,8.92,3.66,12.08,12.08,0,0,1,2.67,4A12.75,12.75,0,0,1,25,12.5a12.63,12.63,0,0,1-.91,4.81,11.44,11.44,0,0,1-2.66,4A12.75,12.75,0,0,1,17.26,24a12.38,12.38,0,0,1-4.79,1A12.19,12.19,0,0,1,7.73,24,12.66,12.66,0,0,1,3.67,21.3,12.38,12.38,0,0,1,.94,17.25,12.13,12.13,0,0,1,0,12.5,12.47,12.47,0,0,1,3.7,3.65,11.79,11.79,0,0,1,12.47,0Zm0,2.25a9.69,9.69,0,0,0-7.2,3A10.9,10.9,0,0,0,3,8.61a9.92,9.92,0,0,0,0,7.76,10.39,10.39,0,0,0,2.27,3.32,10.17,10.17,0,0,0,3.32,2.23,9.88,9.88,0,0,0,3.88.77,10,10,0,0,0,3.89-.78,10.72,10.72,0,0,0,3.4-2.25,9.59,9.59,0,0,0,2.93-7.16A10.42,10.42,0,0,0,22,8.57a10.08,10.08,0,0,0-2.21-3.3,9.91,9.91,0,0,0-7.25-3ZM18.41,9l-2.85,1.48a2.85,2.85,0,0,0-1.12-1.33,2.53,2.53,0,0,0-1.23-.38q-2.85,0-2.85,3.76a4.65,4.65,0,0,0,.72,2.73,2.42,2.42,0,0,0,2.13,1,2.67,2.67,0,0,0,2.62-1.82l2.62,1.33a6.26,6.26,0,0,1-2.32,2.44,6.13,6.13,0,0,1-3.26.9,6.21,6.21,0,0,1-4.6-1.75A6.57,6.57,0,0,1,6.53,12.5,6.57,6.57,0,0,1,8.29,7.68a6,6,0,0,1,4.46-1.79A6,6,0,0,1,18.41,9Z"/>
  <path class="36302ba3-16ef-4c1d-b732-d2e253a7f151" d="M44.69,1.56a6.52,6.52,0,0,0-6.51,6.51v3.47H29.43l-.2,1a30.44,30.44,0,0,0-.52,4.93,36.84,36.84,0,0,0,.52,4.91l.18,1H43.19l.18-1a35.15,35.15,0,0,0,.52-4.91,30.44,30.44,0,0,0-.52-4.93l-.2-1H40.68V8.07a4,4,0,1,1,8,0v2.28h2.5V8.07A6.51,6.51,0,0,0,44.69,1.56Zm-3.3,15.92a27.47,27.47,0,0,1-.32,3.44H31.53a27.3,27.3,0,0,1-.32-3.44A24,24,0,0,1,31.52,14h9.57A25.63,25.63,0,0,1,41.39,17.48Z"/>
</svg>