<svg id="2fe07277-499e-4e8a-950c-427d776b4a42" data-name="Ebene 1" xmlns="http://www.w3.org/2000/svg" width="3.74cm" height="0.88cm" viewBox="0 0 105.92 25">
  <defs>
    <style>
      .a4a5eaf0-672a-41a6-8805-d7616ac2d662 {
        fill: #12100b;
      }
    </style>
  </defs>
  <title>CC-Lizenz-Icons</title>
  <g>
    <path d="M54.06,15.73l.68-.2L52.15,13l-.86,3.48.76-.22a6.43,6.43,0,0,0,5.56,3.19v-2A4.44,4.44,0,0,1,54.06,15.73Z"/>
    <path d="M61.86,9.82l-.68.2,2.59,2.49L64.63,9l-.76.22A6.43,6.43,0,0,0,58.31,6V8A4.44,4.44,0,0,1,61.86,9.82Z"/>
    <path d="M52.92,8.08l1.77,1.06.23-.2.12.41.22.13L57.61,7l-3.48-.86.22.76A6.52,6.52,0,0,0,52.92,8.08Z"/>
    <path d="M64.45,15a6.4,6.4,0,0,0,.32-2h-2a4.44,4.44,0,0,1-.1.9Z"/>
    <rect x="56.38" y="0.93" width="3" height="22.56" transform="translate(17.6 55.53) rotate(-58.99)"/>
    <path d="M51.3,11.21a6.23,6.23,0,0,0-.15,1.29h2c0-.06,0-.11,0-.17Z"/>
    <path d="M62.49,17.93l-2.3-1.38-1.88,2,3.48.86-.22-.76A6.5,6.5,0,0,0,62.49,17.93Z"/>
  </g>
  <g>
    <path id="a701b1e2-2363-44f1-817a-a8d9dbe63c35" data-name="Fill-12" d="M14.28,15.22,12.69,12.5l1.59-2.72h3.17L19,12.5l-1.59,2.72H14.28"/>
    <path id="c456d1e9-7751-4ed6-91df-57b39cf2a601" data-name="Fill-13" d="M8.71,12,7.12,9.26,8.71,6.54h3.17l1.59,2.72L11.88,12H8.71"/>
    <path id="b94a343c-5500-4d28-9436-151debb0730a" data-name="Fill-14" d="M8.71,18.46,7.12,15.74,8.71,13h3.17l1.59,2.72-1.59,2.72H8.71"/>
  </g>
  <g>
    <rect x="28.77" y="13.57" width="9.08" height="2.14"/>
    <rect x="28.77" y="9.55" width="9.08" height="2.14"/>
  </g>
  <g>
    <polygon class="a4a5eaf0-672a-41a6-8805-d7616ac2d662" points="94.74 15.23 96.13 13.84 92.42 13.84 94.74 15.23"/>
    <polygon class="a4a5eaf0-672a-41a6-8805-d7616ac2d662" points="91.78 13.45 91.78 5.27 86.69 5.27 86.69 10.39 91.78 13.45"/>
    <polygon class="a4a5eaf0-672a-41a6-8805-d7616ac2d662" points="85.67 13.84 82.34 13.84 89.24 20.73 92.2 17.77 85.67 13.84"/>
    <rect x="86.95" y="1.22" width="3" height="22.56" transform="translate(32.17 81.88) rotate(-58.99)"/>
  </g>
</svg>
