<svg id="0673e707-0935-4aeb-88ae-f1feeca06244" data-name="Ebene 1" xmlns="http://www.w3.org/2000/svg" width="2.65cm" height="0.88cm" viewBox="0 0 75.17 25">
  <title>CC-Lizenz-Icons</title>
  <g>
    <path id="1f8c7491-7652-4c42-a357-caaf8bbfdbfc" data-name="Fill-12" d="M14.28,15.22,12.69,12.5l1.59-2.72h3.17L19,12.5l-1.59,2.72H14.28"/>
    <path id="6756a52c-6be4-4a65-8262-3c213d686140" data-name="Fill-13" d="M8.71,12,7.12,9.26,8.71,6.54h3.17l1.59,2.72L11.88,12H8.71"/>
    <path id="3de23c48-0a1b-498c-aaee-3935cdaf998d" data-name="Fill-14" d="M8.71,18.46,7.12,15.74,8.71,13h3.17l1.59,2.72-1.59,2.72H8.71"/>
  </g>
  <g>
    <path d="M54.06,15.73l.68-.2L52.15,13l-.86,3.48.76-.22a6.43,6.43,0,0,0,5.56,3.19v-2A4.44,4.44,0,0,1,54.06,15.73Z"/>
    <path d="M61.86,9.82l-.68.2,2.59,2.49L64.63,9l-.76.22A6.43,6.43,0,0,0,58.31,6V8A4.44,4.44,0,0,1,61.86,9.82Z"/>
    <path d="M52.92,8.08l1.77,1.06.23-.2.12.41.22.13L57.61,7l-3.48-.86.22.76A6.52,6.52,0,0,0,52.92,8.08Z"/>
    <path d="M64.45,15a6.4,6.4,0,0,0,.32-2h-2a4.44,4.44,0,0,1-.1.9Z"/>
    <rect x="56.38" y="0.93" width="3" height="22.56" transform="translate(17.6 55.53) rotate(-58.99)"/>
    <path d="M51.3,11.21a6.23,6.23,0,0,0-.15,1.29h2c0-.06,0-.11,0-.17Z"/>
    <path d="M62.49,17.93l-2.3-1.38-1.88,2,3.48.86-.22-.76A6.5,6.5,0,0,0,62.49,17.93Z"/>
  </g>
  <g>
    <rect x="28.77" y="9.55" width="9.08" height="2.14"/>
    <rect x="28.77" y="13.57" width="9.08" height="2.14"/>
  </g>
</svg>
