<svg id="629470a1-674a-4777-8d36-b8b359c270ea" data-name="Ebene 1" xmlns="http://www.w3.org/2000/svg" width="3.81cm" height="0.88cm" viewBox="0 0 108.01 25">
  <defs>
    <style>
      .\38 859a65f-2650-4fcb-b576-58083ecece47 {
        fill: #1d1d1b;
      }

      .\31 d086743-ff59-43cd-a0a9-35bbf43a2863 {
        fill: #12100b;
      }
    </style>
  </defs>
  <title>CC-Lizenz-Icons</title>
  <g>
    <path class="8859a65f-2650-4fcb-b576-58083ecece47" d="M89.66,12.06h2.9V10.64h-5a3.29,3.29,0,0,1,.64-1.3,3,3,0,0,1,2.45-1.08,5.89,5.89,0,0,1,2.21.48l.56-2.27a7.55,7.55,0,0,0-3-.6,6,6,0,0,0-4.6,2A6.15,6.15,0,0,0,85,9.25Z"/>
    <polygon class="8859a65f-2650-4fcb-b576-58083ecece47" points="91.22 12.99 92.56 13.8 92.56 12.99 91.22 12.99"/>
    <rect x="86.95" y="1.29" width="3" height="22.56" transform="translate(32.11 81.91) rotate(-58.99)"/>
    <path class="8859a65f-2650-4fcb-b576-58083ecece47" d="M90.34,16.78a3.15,3.15,0,0,1-2.13-1,2.3,2.3,0,0,1-.31-.49L84,13h-.89v1.42h1.29A5.61,5.61,0,0,0,85.56,17a6,6,0,0,0,4.86,2.27,6.74,6.74,0,0,0,2.94-.68Z"/>
  </g>
  <g>
    <path class="1d086743-ff59-43cd-a0a9-35bbf43a2863" d="M62.67,15.36l2.94-2.94L58.72,5.53V9.89a8.15,8.15,0,0,0-3.41,1Z"/>
    <path class="1d086743-ff59-43cd-a0a9-35bbf43a2863" d="M52.69,13.61a10.15,10.15,0,0,0-1.13,5,7.1,7.1,0,0,1,4.12-3.22Z"/>
    <rect x="56.38" y="2.14" width="3" height="22.56" transform="translate(16.56 56.12) rotate(-58.99)"/>
    <polygon class="1d086743-ff59-43cd-a0a9-35bbf43a2863" points="58.72 17.23 58.72 19.31 60.02 18.01 58.72 17.23"/>
  </g>
  <g>
    <path id="b050b6b8-320c-4ba0-811f-1c593f8fa383" data-name="Fill-12" d="M14.28,15.22,12.69,12.5l1.59-2.72h3.17L19,12.5l-1.59,2.72H14.28"/>
    <path id="d181e415-9943-4436-81b3-746afcfa0892" data-name="Fill-13" d="M8.71,12,7.12,9.26,8.71,6.54h3.17l1.59,2.72L11.88,12H8.71"/>
    <path id="559f5723-e0f1-4fe5-a1b2-4c08b24ada32" data-name="Fill-14" d="M8.71,18.46,7.12,15.74,8.71,13h3.17l1.59,2.72-1.59,2.72H8.71"/>
  </g>
  <g>
    <rect x="28.77" y="13.57" width="9.08" height="2.14"/>
    <rect x="28.77" y="9.55" width="9.08" height="2.14"/>
  </g>
</svg>
