<svg xmlns="http://www.w3.org/2000/svg" width="8.81mm" height="8.81mm" viewBox="0 0 24.98 24.98">
  <defs>
    <style>
      .\37 ae6efe9-ee3d-432a-83af-b7d36d9d222c {
        fill: #1d1d1b;
      }
    </style>
  </defs>
  <title>Element 6</title>
  <g id="673e67ae-af8f-4b4a-9d37-2843e66150ac" data-name="Ebene 2">
    <g id="da7f09ef-0a7d-4a66-9bef-cbec3dcb0bc3" data-name="Ebene 1">
      <g>
        <path d="M12.47,0a12.19,12.19,0,0,1,8.92,3.66,12,12,0,0,1,2.68,4A12.71,12.71,0,0,1,25,12.49a12.74,12.74,0,0,1-.9,4.81,11.46,11.46,0,0,1-2.67,4A12.83,12.83,0,0,1,17.26,24a12.43,12.43,0,0,1-4.79,1A12.14,12.14,0,0,1,7.73,24a12.55,12.55,0,0,1-4.06-2.74,12.44,12.44,0,0,1-2.73-4,12.47,12.47,0,0,1,0-9.51A12.53,12.53,0,0,1,3.7,3.64,11.8,11.8,0,0,1,12.47,0Zm0,2.25a9.68,9.68,0,0,0-7.2,3A10.74,10.74,0,0,0,3,8.6a9.91,9.91,0,0,0,0,7.76,10.57,10.57,0,0,0,5.59,5.55,10.13,10.13,0,0,0,7.77,0,10.77,10.77,0,0,0,3.4-2.25,9.6,9.6,0,0,0,2.92-7.16A10.26,10.26,0,0,0,22,8.56a10,10,0,0,0-2.21-3.3,9.88,9.88,0,0,0-7.25-3Z"/>
        <path class="7ae6efe9-ee3d-432a-83af-b7d36d9d222c" d="M16,7.3a3.51,3.51,0,0,1,.67,1A3.16,3.16,0,0,1,17,9.57,3.59,3.59,0,0,1,16.71,11a3.23,3.23,0,0,1-.61,1,3.86,3.86,0,0,1-.78.65l-.78.46-.52.29a1.27,1.27,0,0,0-.35.29,1.93,1.93,0,0,0-.35.8,2.17,2.17,0,0,0,0,.63H11a4.85,4.85,0,0,1,.13-1.28,4.05,4.05,0,0,1,.71-1.52,2.82,2.82,0,0,1,.79-.76q.44-.28.88-.51l.54-.31a1.87,1.87,0,0,0,.37-.29.85.85,0,0,0,.2-.34,1.64,1.64,0,0,0,.06-.47,1.37,1.37,0,0,0,0-.3.87.87,0,0,0-.24-.39,1.59,1.59,0,0,0-.57-.33,3.05,3.05,0,0,0-1-.14,2.58,2.58,0,0,0-.95.16A2.1,2.1,0,0,0,11.1,9a2.23,2.23,0,0,0-.44.57,3.79,3.79,0,0,0-.27.61L8.17,9.43a8,8,0,0,1,.37-.86,4.45,4.45,0,0,1,.79-1.12,4.8,4.8,0,0,1,1.35-1,4.5,4.5,0,0,1,2-.42,5.64,5.64,0,0,1,1.2.12,5.23,5.23,0,0,1,.94.29,3.23,3.23,0,0,1,.69.39A3.77,3.77,0,0,1,16,7.3ZM13.32,18.58H11V16.1h2.33Z"/>
      </g>
    </g>
  </g>
</svg>
