<?xml version="1.0" encoding="utf-8"?>
<!-- Generator: Adobe Illustrator 22.0.1, SVG Export Plug-In . SVG Version: 6.00 Build 0)  -->
<svg version="1.1" id="Ebene_1" xmlns="http://www.w3.org/2000/svg" xmlns:xlink="http://www.w3.org/1999/xlink" x="0px" y="0px"
	 viewBox="0 0 25 25" style="enable-background:new 0 0 25 25;" xml:space="preserve">
<style type="text/css">
	.st0{fill:#010202;}
	.st1{fill:#12100B;}
	.st2{clip-path:url(#SVGID_2_);}
	.st3{clip-path:url(#SVGID_4_);}
	.st4{fill:#FFFFFF;}
	.st5{fill:#020203;}
	.st6{clip-path:url(#SVGID_6_);}
</style>
<g>
	<g>
		<path class="st5" d="M10.3,13.4c-2.5,0-7.5,1.3-7.5,3.8V19c1.8,2.1,4.5,3.5,7.5,3.5c3,0,5.7-1.4,7.5-3.5v-1.9
			C17.9,14.6,12.8,13.4,10.3,13.4z"/>
		<circle class="st5" cx="10.3" cy="7.7" r="3.8"/>
	</g>
	<path d="M20.9,4.6c-0.4-0.2-0.9-0.3-1.6-0.3c-0.7,0-1.1,0.2-1.1,0.6c0,0.4,0.4,0.6,1.3,0.9c1.3,0.4,2.3,0.9,2.3,2.1
		c0,0.6-0.4,1.1-0.9,1.5c0.2,0.2,0.5,0.6,0.5,1.1c0,1.5-1.6,1.9-2.7,1.9c-0.7,0-1.6-0.1-2.3-0.5l0.4-1.1c0.4,0.2,1.1,0.5,1.8,0.5
		c0.6,0,1.1-0.2,1.1-0.6c0-0.4-0.4-0.6-1.3-0.9c-1.3-0.4-2.4-0.9-2.4-2.1c0-0.5,0.3-1.1,1-1.5c-0.3-0.2-0.5-0.7-0.5-1.1
		c0-1.2,1.2-1.9,2.6-1.9c0.7,0,1.4,0.1,1.9,0.4L20.9,4.6z M18.6,8.2c0.6,0.2,1.2,0.4,1.4,0.5c0.2-0.1,0.4-0.4,0.4-0.6
		c0-0.4-0.2-0.6-0.8-0.9C19,7,18.3,6.8,18,6.6c-0.3,0.1-0.4,0.4-0.4,0.6C17.5,7.6,17.8,7.9,18.6,8.2z"/>
</g>
</svg>
