<svg id="54b4b937-8b7c-47da-a302-eb2eb12fe1c0" data-name="Ebene 1" xmlns="http://www.w3.org/2000/svg" width="1.18cm" height="0.88cm" viewBox="0 0 33.55 25">
  <defs>
    <style>
      .\37 5d013c5-96f7-45a3-8b8f-25b07f303067 {
        fill: #010101;
      }

      .b611b242-7e25-4189-a5a8-48499900546e {
        fill: #1d1d1b;
      }
    </style>
  </defs>
  <title>CC-Lizenz-Icons</title>
  <g>
    <g>
      <path class="75d013c5-96f7-45a3-8b8f-25b07f303067" d="M8.18,13.37c-2.52,0-7.55,1.26-7.55,3.77V19a10,10,0,0,0,7.55,3.5A10,10,0,0,0,15.72,19V17.14C15.72,14.63,10.7,13.37,8.18,13.37Z"/>
      <circle class="75d013c5-96f7-45a3-8b8f-25b07f303067" cx="8.18" cy="7.71" r="3.77"/>
    </g>
    <path class="b611b242-7e25-4189-a5a8-48499900546e" d="M29.48,6.88a7.14,7.14,0,0,0-3.16-.68c-1.43,0-2.17.46-2.17,1.16S25,8.52,26.73,9.05c2.61.8,4.58,1.74,4.58,4.22a3.46,3.46,0,0,1-1.76,2.95,2.8,2.8,0,0,1,1.06,2.22c0,2.94-3.08,3.86-5.33,3.86a8.75,8.75,0,0,1-4.51-1.06l.7-2.22a8,8,0,0,0,3.64,1c1.28,0,2.2-.44,2.2-1.26s-.73-1.23-2.56-1.81c-2.56-.77-4.8-1.73-4.8-4.15a3.43,3.43,0,0,1,2-2.94,3,3,0,0,1-1-2.2c0-2.43,2.31-3.74,5.26-3.74a8.82,8.82,0,0,1,3.81.73ZM24.89,14c1.11.42,2.3.75,2.85,1a1.53,1.53,0,0,0,.7-1.25c0-.7-.48-1.28-1.66-1.74-1-.39-2.39-.84-3.11-1.18a1.43,1.43,0,0,0-.87,1.25C22.8,13,23.45,13.54,24.89,14Z"/>
  </g>
</svg>
