<svg id="7276fb86-eb92-42bf-8ee4-6db6ab4934ce" data-name="Ebene 1" xmlns="http://www.w3.org/2000/svg" width="0.88cm" height="0.88cm" viewBox="0 0 24.98 25">
  <defs>
    <style>
      .ee793af6-dde5-4967-aa6e-1a3f7e949589 {
        fill: #010101;
      }

      .e326721a-fd33-40e6-b57f-92d5f5784047 {
        fill: #1d1d1b;
      }
    </style>
  </defs>
  <title>CC-Lizenz-Icons</title>
  <g>
    <path class="ee793af6-dde5-4967-aa6e-1a3f7e949589" d="M10.8,13.23c-1.92,0-5.75,1-5.75,2.87v1.44a7.53,7.53,0,0,0,11.5,0V16.11C16.55,14.2,12.72,13.23,10.8,13.23Z"/>
    <circle class="ee793af6-dde5-4967-aa6e-1a3f7e949589" cx="10.8" cy="8.92" r="2.87"/>
  </g>
  <path class="e326721a-fd33-40e6-b57f-92d5f5784047" d="M18.84,6.53a2.75,2.75,0,0,0-1.21-.26c-.55,0-.83.18-.83.44s.32.44,1,.65c1,.3,1.76.67,1.76,1.62a1.32,1.32,0,0,1-.68,1.13,1.08,1.08,0,0,1,.41.85c0,1.13-1.18,1.48-2,1.48A3.36,3.36,0,0,1,15.5,12l.27-.85a3.07,3.07,0,0,0,1.4.39c.49,0,.84-.17.84-.48s-.28-.47-1-.69c-1-.3-1.84-.67-1.84-1.59A1.31,1.31,0,0,1,16,7.68a1.16,1.16,0,0,1-.37-.84c0-.93.89-1.43,2-1.43a3.38,3.38,0,0,1,1.46.28ZM17.08,9.28c.43.16.88.29,1.09.4a.59.59,0,0,0,.27-.48c0-.27-.19-.49-.64-.67s-.92-.32-1.19-.45a.55.55,0,0,0-.33.48C16.27,8.86,16.52,9.08,17.08,9.28Z"/>
</svg>
