<?xml version="1.0" encoding="UTF-8" standalone="no"?>
<!DOCTYPE svg PUBLIC "-//W3C//DTD SVG 1.1//EN" "http://www.w3.org/Graphics/SVG/1.1/DTD/svg11.dtd">
<svg width="100%" height="100%" viewBox="0 0 40 14" version="1.1" xmlns="http://www.w3.org/2000/svg" xmlns:xlink="http://www.w3.org/1999/xlink" xml:space="preserve" xmlns:serif="http://www.serif.com/" style="fill-rule:evenodd;clip-rule:evenodd;stroke-linejoin:round;stroke-miterlimit:1.41421;">
    <g transform="matrix(1,0,0,1,0,-5.83093)">
        <path id="_1f8c7491-7652-4c42-a357-caaf8bbfdbfc" serif:id="1f8c7491-7652-4c42-a357-caaf8bbfdbfc" d="M14.305,15.186L12.719,12.472L14.305,9.758L17.468,9.758L19.015,12.472L17.429,15.186L14.305,15.186" style="fill-rule:nonzero;"/>
        <path id="_6756a52c-6be4-4a65-8262-3c213d686140" serif:id="6756a52c-6be4-4a65-8262-3c213d686140" d="M8.748,11.974L7.161,9.24L8.748,6.526L11.911,6.526L13.497,9.24L11.911,11.974L8.748,11.974" style="fill-rule:nonzero;"/>
        <path id="_3de23c48-0a1b-498c-aaee-3935cdaf998d" serif:id="3de23c48-0a1b-498c-aaee-3935cdaf998d" d="M8.748,18.419L7.161,15.705L8.748,12.971L11.911,12.971L13.497,15.685L11.911,18.399L8.748,18.399" style="fill-rule:nonzero;"/>
    </g>
    <g transform="matrix(1,0,0,1,0,-5.83093)">
        <rect x="28.763" y="9.529" width="9.06" height="2.135"/>
        <rect x="28.763" y="13.54" width="9.06" height="2.135"/>
    </g>
</svg>
