<svg id="14158cc0-6699-4b34-9a13-b9cbc0063bb5" data-name="Ebene 1" xmlns="http://www.w3.org/2000/svg" width="0.88cm" height="0.88cm" viewBox="0 0 24.98 25">
  <defs>
    <style>
      .\32 d460c85-1768-4fc9-b0e9-89d0af6d5fdc {
        fill: #1d1d1b;
      }
    </style>
  </defs>
  <title>CC-Lizenz-Icons</title>
  <g>
    <path class="2d460c85-1768-4fc9-b0e9-89d0af6d5fdc" d="M5.73,13.79a3.6,3.6,0,0,0,1.56.39c.65,0,1-.27,1-.67s-.3-.61-1-.88c-1-.36-1.71-.93-1.71-1.84,0-1.06.89-1.88,2.36-1.88a3.82,3.82,0,0,1,1.59.31l-.31,1.14a3,3,0,0,0-1.3-.3c-.61,0-.91.28-.91.6s.35.57,1.16.88c1.1.41,1.62,1,1.62,1.86,0,1-.8,1.93-2.52,1.93A4.08,4.08,0,0,1,5.44,15Z"/>
    <path class="2d460c85-1768-4fc9-b0e9-89d0af6d5fdc" d="M10.67,9h3.81v1.16h-2.4v1.42h2.24v1.15H12.09v2.51H10.67Z"/>
    <path class="2d460c85-1768-4fc9-b0e9-89d0af6d5fdc" d="M19,10a2.75,2.75,0,0,0-1.21-.26c-.55,0-.83.18-.83.44s.32.44,1,.65c1,.3,1.76.67,1.76,1.62A1.32,1.32,0,0,1,19,13.62a1.08,1.08,0,0,1,.41.85c0,1.13-1.18,1.48-2,1.48a3.36,3.36,0,0,1-1.73-.41l.27-.85a3.07,3.07,0,0,0,1.4.39c.49,0,.84-.17.84-.48s-.28-.47-1-.69c-1-.3-1.84-.67-1.84-1.59a1.31,1.31,0,0,1,.77-1.13,1.16,1.16,0,0,1-.37-.84c0-.93.89-1.43,2-1.43a3.38,3.38,0,0,1,1.46.28Zm-1.76,2.75c.43.16.88.29,1.09.4a.59.59,0,0,0,.27-.48c0-.27-.19-.49-.64-.67s-.92-.32-1.19-.45a.55.55,0,0,0-.33.48C16.44,12.37,16.69,12.6,17.25,12.79Z"/>
  </g>
</svg>
