<?xml version="1.0" encoding="utf-8"?>
<!-- Generator: Adobe Illustrator 22.0.1, SVG Export Plug-In . SVG Version: 6.00 Build 0)  -->
<svg version="1.1" id="Ebene_1" xmlns="http://www.w3.org/2000/svg" xmlns:xlink="http://www.w3.org/1999/xlink" x="0px" y="0px"
	 viewBox="0 0 25 25" style="enable-background:new 0 0 25 25;" xml:space="preserve">
<style type="text/css">
	.st0{fill:#010202;}
	.st1{fill:#12100B;}
	.st2{clip-path:url(#SVGID_2_);}
	.st3{clip-path:url(#SVGID_4_);}
	.st4{fill:#FFFFFF;}
	.st5{fill:#020203;}
	.st6{clip-path:url(#SVGID_6_);}
</style>
<g>
	<g>
		<path d="M1.1,14.7c0.6,0.3,1.6,0.7,2.6,0.7c1.1,0,1.7-0.4,1.7-1.1c0-0.7-0.5-1-1.8-1.5c-1.7-0.6-2.9-1.6-2.9-3.1
			c0-1.8,1.5-3.1,4-3.1c1.2,0,2,0.2,2.7,0.5L6.8,9C6.4,8.8,5.7,8.5,4.7,8.5s-1.5,0.5-1.5,1c0,0.7,0.6,1,1.9,1.5
			c1.8,0.7,2.7,1.6,2.7,3.1c0,1.8-1.3,3.2-4.2,3.2c-1.2,0-2.4-0.3-3-0.6L1.1,14.7z"/>
		<path d="M9.4,6.7h6.4v1.9h-4V11h3.8v1.9h-3.8v4.2H9.4V6.7z"/>
		<path d="M23.4,8.4c-0.5-0.2-1.1-0.4-2-0.4c-0.9,0-1.4,0.3-1.4,0.7c0,0.5,0.5,0.7,1.7,1.1c1.7,0.5,2.9,1.1,2.9,2.7
			c0,0.8-0.4,1.5-1.1,1.9c0.3,0.2,0.7,0.7,0.7,1.4c0,1.9-2,2.5-3.4,2.5c-0.9,0-2.1-0.2-2.9-0.7l0.4-1.4c0.4,0.3,1.4,0.7,2.3,0.7
			c0.8,0,1.4-0.3,1.4-0.8c0-0.5-0.5-0.8-1.6-1.2c-1.6-0.5-3.1-1.1-3.1-2.7c0-0.7,0.4-1.5,1.3-1.9c-0.3-0.3-0.6-0.8-0.6-1.4
			c0-1.6,1.5-2.4,3.4-2.4c0.9,0,1.7,0.1,2.4,0.5L23.4,8.4z M20.4,13c0.7,0.3,1.5,0.5,1.8,0.7c0.3-0.2,0.4-0.5,0.4-0.8
			c0-0.4-0.3-0.8-1.1-1.1c-0.7-0.2-1.5-0.5-2-0.8c-0.3,0.2-0.6,0.4-0.6,0.8C19.1,12.3,19.5,12.7,20.4,13z"/>
	</g>
</g>
</svg>
