<svg id="Ebene_2" data-name="Ebene 2" xmlns="http://www.w3.org/2000/svg" xmlns:xlink="http://www.w3.org/1999/xlink" viewBox="0 0 94.8 93"><defs><style>.cls-1{fill:none;}.cls-2{clip-path:url(#clip-path);}.cls-3{fill:#fff;}.cls-4{fill:#cfd2d3;}.cls-12,.cls-5{fill:#507999;}.cls-6{fill:#8e8e8e;}.cls-7{fill:#fffdfa;}.cls-8{fill:#a0a0a0;}.cls-9{fill:#bfbfbf;}.cls-10{fill:#2dab66;stroke:#fff;stroke-miterlimit:10;}.cls-11{fill:#f7f9f8;}.cls-12{isolation:isolate;font-size:4.06px;font-family:OpenSans-Bold, Open Sans;font-weight:700;}.cls-13{fill:#f2cea9;}.cls-14{fill:#ffeede;}.cls-15{fill:#e8c574;}</style><clipPath id="clip-path"><path class="cls-1" d="M47.4,0C73.6,0,94.8,20.8,94.8,46.5S73.6,93,47.4,93,0,72.1,0,46.5,21.2,0,47.4,0Z"/></clipPath></defs><title>Zeichenfläche 4</title><g class="cls-2"><g id="Blat"><polygon class="cls-3" points="54.2 24.2 30 24.2 29.9 68.7 64.8 68.7 64.9 34.9 54.2 34.9 54.2 24.2"/><polygon class="cls-4" points="64.9 34.9 54.2 34.9 54.2 24.2 64.9 34.9"/></g></g><g class="cls-2"><path class="cls-5" d="M47.4,0C73.6,0,94.8,20.8,94.8,46.5S73.6,93,47.4,93,0,72.1,0,46.5,21.2,0,47.4,0Z"/></g><g class="cls-2"><polygon class="cls-6" points="71.3 38.1 47.4 55 23.6 38.1 47.4 21.2 71.3 38.1"/><polygon class="cls-7" points="64.8 65.7 30.1 65.7 30.1 24.2 58.4 24.2 64.8 30.4 64.8 65.7"/><polyline class="cls-8" points="58.4 24.2 64.8 30.4 58.4 30.4"/><polygon class="cls-9" points="23.6 65.7 71.3 65.7 71.3 38.1 47.4 55 23.6 38.1 23.6 65.7"/><polygon class="cls-9" points="23.6 65.7 71.3 65.7 51.8 51.9 43.1 51.9 43.1 51.9 23.6 65.7"/><g id="Plus"><path class="cls-10" d="M36.5,57.5a4.9,4.9,0,1,1-4.9-4.9A4.91,4.91,0,0,1,36.5,57.5Z"/><line class="cls-1" x1="29.6" y1="57.5" x2="30.8" y2="58.8"/><rect class="cls-11" x="29.48" y="56.65" width="1.3" height="3.1" transform="translate(-32.41 38.61) rotate(-45.23)"/><line class="cls-1" x1="30.8" y1="58.8" x2="33.4" y2="56.2"/><rect class="cls-3" x="29.58" y="56.82" width="5" height="1.3" transform="translate(-31.32 39.77) rotate(-45.23)"/><text class="cls-12" transform="translate(42.26 39.06)">CONFIRM</text></g></g><g class="cls-2"><path class="cls-13" d="M76.2,62.5a1.93,1.93,0,0,1-1,2.6h0a1.93,1.93,0,0,1-2.6-1L66,47.7a1.93,1.93,0,0,1,1-2.6h0a1.93,1.93,0,0,1,2.6,1Z"/><path class="cls-14" d="M69.6,47.5l-.4-.8c-.3-.7-1.1-1.4-1.8-1.1l-.1.1c-.7.3-.7,1.4-.4,2.1l.4.8Z"/><path class="cls-13" d="M53.1,61.5c-1.3-1.6-1.4-3.7-.2-4.7l8.5-7.2c1.2-1,3.3-.6,4.6,1L74.7,61c1.3,1.6,1.4,3.7.2,4.7l-8.5,7.2c-1.2,1-3.3.6-4.6-1Z"/><rect class="cls-13" x="66.01" y="67.46" width="12.8" height="7.3" transform="translate(-29.07 72.03) rotate(-45)"/><path class="cls-13" d="M53.5,41.3a1.84,1.84,0,0,1,.2-2.5h0a1.84,1.84,0,0,1,2.5.2L75.1,61.5a1.84,1.84,0,0,1-.2,2.5h0a1.84,1.84,0,0,1-2.5-.2Z"/><path class="cls-14" d="M54,41.1a1.26,1.26,0,0,1,.2-1.7l.1-.1a1.35,1.35,0,0,1,1.7,0l.3.3a1.26,1.26,0,0,1-.2,1.7l-.1.1a1.35,1.35,0,0,1-1.7,0Z"/><path class="cls-13" d="M56.7,52a1.84,1.84,0,0,1,.2-2.5h0a1.84,1.84,0,0,1,2.5.2L71.7,64.4a1.84,1.84,0,0,1-.2,2.5h0a1.84,1.84,0,0,1-2.5-.2Z"/><path class="cls-13" d="M53.3,54.8a1.84,1.84,0,0,1,.2-2.5h0a1.84,1.84,0,0,1,2.5.2L68.3,67.2a1.84,1.84,0,0,1-.2,2.5h0a1.84,1.84,0,0,1-2.5-.2Z"/><path class="cls-13" d="M49.9,57.7a1.84,1.84,0,0,1,.2-2.5h0a1.84,1.84,0,0,1,2.5.2L64.9,70a1.84,1.84,0,0,1-.2,2.5h0a1.84,1.84,0,0,1-2.5-.2Z"/><rect class="cls-15" x="69.2" y="74.13" width="18.7" height="8.1" transform="translate(-32.28 78.44) rotate(-45)"/><rect class="cls-3" x="66.68" y="72.7" width="16.6" height="2.8" transform="translate(-30.44 74.72) rotate(-45)"/></g><path class="cls-5" d="M33.9,37.5a.9.9,0,0,1,.9-.9H36V36H34.8a1.5,1.5,0,0,0,0,3H36v-.6H34.8A.9.9,0,0,1,33.9,37.5Zm1.2.3h2.3v-.6H35.1Zm2.6-1.7H36.5v.6h1.2a.9.9,0,1,1,0,1.8H36.5V39h1.2a1.54,1.54,0,0,0,1.5-1.5A1.45,1.45,0,0,0,37.7,36.1Z"/></svg>