<?xml version="1.0" encoding="utf-8"?>
<!-- Generator: Adobe Illustrator 22.1.0, SVG Export Plug-In . SVG Version: 6.00 Build 0)  -->
<svg version="1.1" id="Ebene_2_1_" xmlns="http://www.w3.org/2000/svg" xmlns:xlink="http://www.w3.org/1999/xlink" x="0px" y="0px"
	 viewBox="0 0 94.9 92.9" style="enable-background:new 0 0 94.9 92.9;" xml:space="preserve">
<style type="text/css">
	.st0{clip-path:url(#SVGID_2_);}
	.st1{fill:#FFFFFF;}
	.st2{fill:#CFD2D3;}
	.st3{fill:#507999;}
	.st4{fill:#8E8E8E;}
	.st5{fill:#FFFDFA;}
	.st6{fill:#A0A0A0;}
	.st7{fill:#BFBFBF;}
	.st8{fill:#FFFFFF;stroke:#2DAB66;stroke-miterlimit:10;}
	.st9{fill:none;}
	.st10{fill:#2DAB66;}
	.st11{enable-background:new    ;}
	.st12{fill:#F2CEA9;}
	.st13{fill:#FFEEDE;}
	.st14{fill:#E8C574;}
	.st15{clip-path:url(#SVGID_4_);}
</style>
<title>Zeichenfläche 3 Kopie</title>
<g>
	<defs>
		<path id="SVGID_1_" d="M47.4,0c26.2,0,47.4,20.8,47.4,46.5S73.6,92.9,47.4,92.9S0,72.1,0,46.5S21.2,0,47.4,0z"/>
	</defs>
	<clipPath id="SVGID_2_">
		<use xlink:href="#SVGID_1_"  style="overflow:visible;"/>
	</clipPath>
	<g class="st0">
		<g id="Blat">
			<polygon class="st1" points="54.2,24.2 30,24.2 29.9,68.7 64.8,68.7 64.9,34.9 54.2,34.9 			"/>
			<polygon class="st2" points="64.9,34.9 54.2,34.9 54.2,24.2 			"/>
		</g>
		<path class="st3" d="M47.4,0c26.2,0,47.4,20.8,47.4,46.5S73.6,92.9,47.4,92.9S0,72.1,0,46.5S21.2,0,47.4,0z"/>
		<polygon class="st4" points="71.3,38.1 47.4,55 23.6,38.1 47.4,21.2 		"/>
		<polygon class="st5" points="64.8,65.7 30.1,65.7 30.1,24.2 58.4,24.2 64.8,30.4 		"/>
		<polyline class="st6" points="58.4,24.2 64.8,30.4 58.4,30.4 		"/>
		<polygon class="st7" points="23.6,65.7 71.3,65.7 71.3,38.1 47.4,55 23.6,38.1 		"/>
		<polygon class="st7" points="23.6,65.7 71.3,65.7 51.8,51.9 43.1,51.9 43.1,51.9 		"/>
		<g id="Plus">
			<path class="st8" d="M36.5,57.5c0,2.7-2.2,4.9-4.9,4.9s-4.9-2.2-4.9-4.9c0-2.7,2.2-4.9,4.9-4.9l0,0
				C34.3,52.6,36.5,54.8,36.5,57.5z"/>
			<line class="st9" x1="29.5" y1="57.5" x2="30.9" y2="58.8"/>
			
				<rect x="29.5" y="56.6" transform="matrix(0.7041 -0.7101 0.7101 0.7041 -32.3637 38.6453)" class="st10" width="1.3" height="3.1"/>
			<line class="st9" x1="30.9" y1="58.8" x2="33.4" y2="56.2"/>
			
				<rect x="29.7" y="56.9" transform="matrix(0.7043 -0.7099 0.7099 0.7043 -31.3259 39.8293)" class="st10" width="5" height="1.3"/>
			<g class="st11">
				<path class="st3" d="M42.8,36.6c-0.2,0-0.4,0.1-0.5,0.3s-0.2,0.4-0.2,0.7c0,0.6,0.2,1,0.7,1c0.2,0,0.5-0.1,0.7-0.2V39
					c-0.2,0.1-0.5,0.1-0.8,0.1c-0.4,0-0.7-0.1-1-0.4c-0.2-0.3-0.3-0.6-0.3-1.1c0-0.3,0.1-0.6,0.2-0.8s0.3-0.4,0.5-0.5
					c0.2-0.1,0.4-0.2,0.7-0.2c0.3,0,0.6,0.1,0.8,0.2l-0.2,0.5c-0.1-0.1-0.2-0.1-0.3-0.1S42.9,36.6,42.8,36.6z"/>
				<path class="st3" d="M46.8,37.6c0,0.5-0.1,0.8-0.4,1.1s-0.6,0.4-1,0.4c-0.4,0-0.8-0.1-1-0.4S44,38.1,44,37.6s0.1-0.9,0.4-1.1
					c0.2-0.3,0.6-0.4,1-0.4s0.8,0.1,1,0.4C46.7,36.8,46.8,37.1,46.8,37.6z M44.7,37.6c0,0.3,0.1,0.6,0.2,0.7s0.3,0.2,0.6,0.2
					c0.5,0,0.7-0.3,0.7-1c0-0.7-0.2-1-0.7-1c-0.2,0-0.4,0.1-0.6,0.2C44.7,37,44.7,37.3,44.7,37.6z"/>
				<path class="st3" d="M50,39.1h-0.8l-1.3-2.2h0c0,0.4,0,0.7,0,0.8v1.4h-0.5v-2.9h0.8l1.3,2.2h0c0-0.4,0-0.6,0-0.8v-1.4H50V39.1z"
					/>
				<path class="st3" d="M51.3,39.1h-0.6v-2.9h1.7v0.5h-1.1v0.7h1v0.5h-1V39.1z"/>
				<path class="st3" d="M52.9,39.1v-2.9h0.6v2.9H52.9z"/>
				<path class="st3" d="M54.9,37.9v1.1h-0.6v-2.9h0.8c0.4,0,0.7,0.1,0.9,0.2c0.2,0.1,0.3,0.4,0.3,0.7c0,0.2,0,0.3-0.1,0.5
					s-0.2,0.2-0.4,0.3c0.4,0.7,0.7,1.1,0.9,1.3h-0.7l-0.7-1.1H54.9z M54.9,37.4h0.2c0.2,0,0.3,0,0.4-0.1c0.1-0.1,0.1-0.2,0.1-0.3
					c0-0.1,0-0.2-0.1-0.3c-0.1-0.1-0.2-0.1-0.4-0.1h-0.2V37.4z"/>
				<path class="st3" d="M58.2,39.1l-0.7-2.3h0c0,0.5,0,0.8,0,0.9v1.3h-0.5v-2.9h0.8l0.7,2.2h0l0.7-2.2H60v2.9h-0.6v-1.4
					c0-0.1,0-0.1,0-0.2c0-0.1,0-0.3,0-0.7h0l-0.7,2.3H58.2z"/>
			</g>
		</g>
		<path class="st12" d="M76.2,62.5c0.4,1,0,2.1-1,2.6l0,0c-1,0.4-2.1,0-2.6-1l-6.5-16.4c-0.4-1,0-2.1,1-2.6l0,0c1-0.4,2.1,0,2.6,1
			L76.2,62.5z"/>
		<path class="st13" d="M69.6,47.5l-0.4-0.8c-0.3-0.7-1.1-1.4-1.8-1.1l-0.1,0.1c-0.7,0.3-0.7,1.4-0.4,2.1l0.4,0.8L69.6,47.5z"/>
		<path class="st12" d="M53.1,61.5c-1.3-1.6-1.4-3.7-0.2-4.7l8.5-7.2c1.2-1,3.3-0.6,4.6,1L74.8,61c1.3,1.6,1.4,3.7,0.2,4.7l-8.5,7.2
			c-1.2,1-3.3,0.6-4.6-1L53.1,61.5z"/>
		
			<rect x="65.9" y="67.5" transform="matrix(0.7071 -0.7071 0.7071 0.7071 -29.1248 71.9272)" class="st12" width="12.8" height="7.3"/>
		<path class="st12" d="M53.5,41.3c-0.6-0.8-0.5-1.9,0.2-2.5c0,0,0,0,0,0l0,0c0.8-0.6,1.9-0.5,2.5,0.2l18.9,22.5
			c0.6,0.7,0.6,1.9-0.2,2.5c0,0,0,0,0,0l0,0c-0.8,0.6-1.9,0.5-2.5-0.2c0,0,0,0,0,0L53.5,41.3z"/>
		<path class="st13" d="M54,41.1c-0.4-0.5-0.3-1.3,0.2-1.7l0.1-0.1c0.5-0.5,1.2-0.5,1.7,0l0.3,0.3c0.4,0.5,0.3,1.3-0.2,1.7L56,41.5
			c-0.5,0.5-1.2,0.5-1.7,0L54,41.1z"/>
		<path class="st12" d="M56.7,52c-0.6-0.8-0.5-1.9,0.2-2.5l0,0c0.8-0.6,1.9-0.5,2.5,0.2c0,0,0,0,0,0l12.3,14.6
			c0.6,0.8,0.5,1.9-0.2,2.5c0,0,0,0,0,0l0,0c-0.8,0.6-1.9,0.5-2.5-0.2L56.7,52z"/>
		<path class="st12" d="M53.3,54.8c-0.6-0.7-0.5-1.9,0.2-2.5c0,0,0,0,0,0l0,0c0.8-0.6,1.9-0.5,2.5,0.2c0,0,0,0,0,0l12.3,14.7
			c0.6,0.8,0.5,1.9-0.2,2.5c0,0,0,0,0,0l0,0c-0.8,0.6-1.9,0.5-2.5-0.2c0,0,0,0,0,0L53.3,54.8z"/>
		<path class="st12" d="M49.8,57.7c-0.6-0.8-0.5-1.9,0.2-2.5c0,0,0,0,0,0l0,0c0.8-0.6,1.9-0.5,2.5,0.2L64.9,70
			c0.6,0.8,0.5,1.9-0.2,2.5l0,0c-0.8,0.6-1.9,0.5-2.5-0.2L49.8,57.7z"/>
		
			<rect x="69.2" y="74.1" transform="matrix(0.7071 -0.7071 0.7071 0.7071 -32.2543 78.4513)" class="st14" width="18.7" height="8.2"/>
		
			<rect x="66.6" y="72.7" transform="matrix(0.7071 -0.7071 0.7071 0.7071 -30.4097 74.6917)" class="st1" width="16.6" height="2.8"/>
	</g>
</g>
<g>
	<defs>
		<path id="SVGID_3_" d="M-55,0C-28.8,0-7.6,20.8-7.6,46.5S-28.8,92.9-55,92.9s-47.4-20.8-47.4-46.5S-81.2,0-55,0z"/>
	</defs>
	<clipPath id="SVGID_4_">
		<use xlink:href="#SVGID_3_"  style="overflow:visible;"/>
	</clipPath>
	<g class="st15">
		<polygon class="st14" points="128.8,47.3 129.1,67.1 -15.8,67.1 -15.8,47.5 		"/>
	</g>
</g>
<path class="st3" d="M33.9,37.5c0-0.5,0.4-0.9,0.9-0.9h0H36V36h-1.2c-0.8,0-1.5,0.7-1.5,1.5c0,0.8,0.7,1.5,1.5,1.5H36v-0.6h-1.2
	C34.3,38.4,33.9,38,33.9,37.5z M35.1,37.8h2.3v-0.6h-2.3V37.8z M37.7,36h-1.2v0.6h1.2c0.5,0,0.9,0.4,0.9,0.9c0,0.5-0.4,0.9-0.9,0.9
	h-1.2V39h1.2c0.8,0,1.5-0.7,1.5-1.5C39.2,36.7,38.5,36.1,37.7,36L37.7,36z"/>
</svg>
