<svg id="Ebene_2" data-name="Ebene 2" xmlns="http://www.w3.org/2000/svg" xmlns:xlink="http://www.w3.org/1999/xlink" viewBox="0 0 94.86 92.93"><defs><style>.cls-1{fill:none;clip-rule:evenodd;}.cls-2{clip-path:url(#clip-path);}.cls-12,.cls-3{fill:#fff;}.cls-4{fill:#cfd2d3;}.cls-5{fill:#507999;}.cls-10,.cls-11,.cls-5,.cls-8,.cls-9{fill-rule:evenodd;}.cls-6{fill:#f2cea9;}.cls-7{fill:#e8c574;}.cls-8{fill:#8e8e8e;}.cls-9{fill:#fffdfa;}.cls-10{fill:#a0a0a0;}.cls-11{fill:#bfbfbf;}.cls-12{stroke:#2dab66;stroke-miterlimit:10;stroke-width:2px;}.cls-13{fill:#ececec;}.cls-14{fill:#2dab66;}.cls-15{fill:#ffeede;}</style><clipPath id="clip-path"><path class="cls-1" d="M47.43,0c26.2,0,47.43,20.8,47.43,46.46S73.63,92.93,47.43,92.93,0,72.12,0,46.46,21.24,0,47.43,0Z"/></clipPath></defs><title>Zeichenfläche 3</title><g class="cls-2"><g id="Blat"><polygon class="cls-3" points="54.2 24.22 30.01 24.18 29.94 68.67 64.8 68.73 64.86 34.91 54.19 34.89 54.2 24.22"/><polygon class="cls-4" points="64.86 34.91 54.19 34.89 54.2 24.22 64.86 34.91"/></g><path class="cls-5" d="M47.43,0c26.2,0,47.43,20.8,47.43,46.46S73.63,92.93,47.43,92.93,0,72.12,0,46.46,21.24,0,47.43,0Z"/><path class="cls-6" d="M76.83,47.85c1.1,0,2,1.35,2,3l0,11.74c0,1.68-.88,3-2,3.05l-10.49,0c-1.1,0-2-1.35-2-3l3.14-11.74c0-1.68.88-3,2-3.05Z"/><rect class="cls-6" x="77.45" y="50.18" width="7.5" height="13.6" transform="translate(-0.21 0.31) rotate(-0.22)"/><rect class="cls-3" x="84.02" y="48.75" width="2.81" height="17.35" transform="translate(-0.21 0.32) rotate(-0.21)"/><polygon class="cls-7" points="231.31 47.29 231.58 67.09 86.67 67.14 86.68 47.5 231.31 47.29"/><polygon class="cls-8" points="71.3 38.09 47.43 54.98 23.56 38.09 47.43 21.21 71.3 38.09"/><polygon class="cls-9" points="64.78 65.7 30.08 65.7 30.08 24.18 58.44 24.18 64.78 30.39 64.78 65.7"/><polyline class="cls-10" points="58.44 24.18 64.78 30.39 58.44 30.39"/><polygon class="cls-11" points="23.56 65.7 71.3 65.7 71.3 38.09 47.43 54.98 23.56 38.09 23.56 65.7"/><polygon class="cls-11" points="23.56 65.7 71.3 65.7 51.79 51.9 43.08 51.9 43.08 51.9 23.56 65.7"/><g id="Plus"><path class="cls-12" d="M55.33,38.29a7.9,7.9,0,1,1-7.9-7.9A7.89,7.89,0,0,1,55.33,38.29Z"/><line class="cls-13" x1="44.12" y1="38.31" x2="46.21" y2="40.39"/><rect class="cls-14" x="44.1" y="36.81" width="2.13" height="5.08" transform="translate(-14.58 43.71) rotate(-45.24)"/><line class="cls-13" x1="46.21" y1="40.39" x2="50.38" y2="36.19"/><rect class="cls-14" x="44.27" y="37.22" width="8.05" height="2.13" transform="translate(-12.9 45.61) rotate(-45.23)"/></g><path class="cls-6" d="M77.47,47.76a2.06,2.06,0,0,1,1.46,2.52h0a2.07,2.07,0,0,1-2.52,1.45L58.7,45.94a2.06,2.06,0,0,1-1.45-2.52h0A2.07,2.07,0,0,1,59.77,42Z"/><path class="cls-15" d="M60.92,43,60,42.75c-.82-.22-1.89,0-2.11.78l0,.14c-.21.81.62,1.51,1.43,1.73l.89.24Z"/></g></svg>