<svg id="6dd44f7c-afde-473b-9840-c7fb4004625f" data-name="Ebene 1" xmlns="http://www.w3.org/2000/svg" width="4.15cm" height="0.88cm" viewBox="0 0 117.69 25">
  <title>_</title>
  <path d="M43.34,0a12.07,12.07,0,0,1,8.88,3.61,12.08,12.08,0,0,1,3.64,8.88,11.77,11.77,0,0,1-3.57,8.76A12.34,12.34,0,0,1,43.34,25a12.09,12.09,0,0,1-8.79-3.68,12,12,0,0,1-3.68-8.81,12.24,12.24,0,0,1,3.68-8.88A12,12,0,0,1,43.34,0Zm0,2.25a9.72,9.72,0,0,0-7.2,3,10,10,0,0,0-3.06,7.25,9.81,9.81,0,0,0,3,7.18,9.87,9.87,0,0,0,7.23,3,10,10,0,0,0,7.27-3.06A9.51,9.51,0,0,0,53.6,12.5a9.87,9.87,0,0,0-3-7.25,9.84,9.84,0,0,0-7.23-3ZM46.73,9.4v5.11H45.3v6.07H41.42V14.51H40V9.4a.8.8,0,0,1,.8-.8h5.13a.79.79,0,0,1,.56.23.76.76,0,0,1,.25.57ZM41.62,6.19a1.74,1.74,0,1,1,3.48,0,1.54,1.54,0,0,1-1.74,1.74,1.54,1.54,0,0,1-1.74-1.74Z"/>
  <path d="M83.13,3.62A12.09,12.09,0,0,0,74.25,0a11.91,11.91,0,0,0-8.79,3.62,12.22,12.22,0,0,0-3.69,8.88,12,12,0,0,0,3.69,8.81A12,12,0,0,0,74.25,25a12.35,12.35,0,0,0,8.95-3.72,11.86,11.86,0,0,0,3.57-8.78,12.06,12.06,0,0,0-3.63-8.88Zm-1.56,16a10,10,0,0,1-7.29,3.06,9.88,9.88,0,0,1-7.23-3,9.82,9.82,0,0,1-3-7.19,10,10,0,0,1,.55-3.32l3.31,1.47h-.24v1.49h1.17c0,.21,0,.42,0,.63v.36H67.64V14.6H69a5.9,5.9,0,0,0,1.17,2.72,6.3,6.3,0,0,0,5.11,2.39,7,7,0,0,0,3.26-.8L78,16.59a5.8,5.8,0,0,1-2.39.54A3.5,3.5,0,0,1,73,16.06a3.29,3.29,0,0,1-.69-1.46h4.55l6.46,2.86a9.66,9.66,0,0,1-1.71,2.2Zm-8.13-6.55,0,0,0,0Zm3.89-1h.19V10.64H74L72.53,10A2.87,2.87,0,0,1,73,9.28a3.18,3.18,0,0,1,2.57-1.13,6.17,6.17,0,0,1,2.32.5l.59-2.39a7.93,7.93,0,0,0-3.14-.63,6.11,6.11,0,0,0-5.54,3.15L65.67,7a11.51,11.51,0,0,1,1.41-1.72,9.69,9.69,0,0,1,7.2-3,9.79,9.79,0,0,1,7.23,3,9.81,9.81,0,0,1,3,7.25,10.88,10.88,0,0,1-.32,2.66l-6.86-3Z" style="fill: #12100b"/>
  <path d="M105.18,0a12.08,12.08,0,0,1,8.88,3.64,12,12,0,0,1,3.64,8.85,11.89,11.89,0,0,1-3.57,8.79,12.33,12.33,0,0,1-8.94,3.7,12.09,12.09,0,0,1-8.79-3.68,12,12,0,0,1-3.68-8.81A12.22,12.22,0,0,1,96.4,3.66,12,12,0,0,1,105.18,0Zm0,2.25a9.69,9.69,0,0,0-7.2,3A10,10,0,0,0,95,12.51a9.77,9.77,0,0,0,3,7.18,9.87,9.87,0,0,0,7.23,3,10,10,0,0,0,7.27-3.06,9.56,9.56,0,0,0,2.94-7.16,9.75,9.75,0,0,0-3-7.23,9.76,9.76,0,0,0-7.23-3Zm4.71,7.29v2.14h-9.08V9.57Zm0,4v2.14h-9.08V13.58Z"/>
  <path d="M12.47,0a12.19,12.19,0,0,1,8.92,3.66,12,12,0,0,1,2.68,4A12.71,12.71,0,0,1,25,12.5a12.74,12.74,0,0,1-.9,4.81,11.46,11.46,0,0,1-2.67,4A12.83,12.83,0,0,1,17.26,24a12.43,12.43,0,0,1-4.79,1A12.14,12.14,0,0,1,7.73,24,12.55,12.55,0,0,1,3.67,21.3a12.44,12.44,0,0,1-2.73-4,12.47,12.47,0,0,1,0-9.51A12.53,12.53,0,0,1,3.7,3.65,11.8,11.8,0,0,1,12.47,0Zm0,2.25a9.68,9.68,0,0,0-7.2,3A10.74,10.74,0,0,0,3,8.61a9.91,9.91,0,0,0,0,7.76,10.57,10.57,0,0,0,5.59,5.55,10.13,10.13,0,0,0,7.77,0,10.77,10.77,0,0,0,3.4-2.25,9.6,9.6,0,0,0,2.92-7.16A10.26,10.26,0,0,0,22,8.57a10,10,0,0,0-2.21-3.3,9.88,9.88,0,0,0-7.25-3Zm-.16,8.16-1.67.87a1.71,1.71,0,0,0-.66-.78,1.48,1.48,0,0,0-.72-.22q-1.67,0-1.67,2.21a2.74,2.74,0,0,0,.42,1.61,1.43,1.43,0,0,0,1.25.6,1.56,1.56,0,0,0,1.54-1.07l1.54.78a3.68,3.68,0,0,1-3.28,2,3.65,3.65,0,0,1-2.7-1,3.86,3.86,0,0,1-1-2.85,3.85,3.85,0,0,1,1-2.83A3.53,3.53,0,0,1,9,8.62a3.5,3.5,0,0,1,3.32,1.81Zm7.2,0-1.65.87a1.71,1.71,0,0,0-.66-.78,1.51,1.51,0,0,0-.75-.22q-1.67,0-1.67,2.21a2.74,2.74,0,0,0,.42,1.61,1.43,1.43,0,0,0,1.25.6A1.56,1.56,0,0,0,18,13.64l1.56.78a3.83,3.83,0,0,1-1.38,1.44,3.6,3.6,0,0,1-1.9.52,3.64,3.64,0,0,1-2.71-1,3.88,3.88,0,0,1-1-2.85,3.85,3.85,0,0,1,1-2.83,3.53,3.53,0,0,1,2.62-1,3.45,3.45,0,0,1,3.3,1.81Z"/>
</svg>
