<svg id="e8cc9e76-d784-4446-9b58-544714cb19c4" data-name="Ebene 1" xmlns="http://www.w3.org/2000/svg" width="3.06cm" height="0.88cm" viewBox="0 0 86.85 25">
  <title>_</title>
  <path d="M43.34,0a12.06,12.06,0,0,1,8.87,3.61,12.07,12.07,0,0,1,3.63,8.87,11.77,11.77,0,0,1-3.57,8.76A12.34,12.34,0,0,1,43.34,25a12.09,12.09,0,0,1-8.78-3.68,12,12,0,0,1-3.68-8.81,12.24,12.24,0,0,1,3.68-8.87A12,12,0,0,1,43.34,0Zm0,2.25a9.72,9.72,0,0,0-7.2,3,10,10,0,0,0-3.05,7.25,9.81,9.81,0,0,0,3,7.18,9.86,9.86,0,0,0,7.22,3,10,10,0,0,0,7.27-3.05A9.51,9.51,0,0,0,53.6,12.5a9.87,9.87,0,0,0-3-7.25,9.84,9.84,0,0,0-7.22-3ZM46.73,9.4V14.5H45.3v6.06H41.42V14.5H40V9.4a.8.8,0,0,1,.8-.8h5.13a.79.79,0,0,1,.56.23.76.76,0,0,1,.25.57ZM41.63,6.19a1.74,1.74,0,1,1,3.48,0,1.54,1.54,0,0,1-1.74,1.74,1.54,1.54,0,0,1-1.74-1.74Z"/>
  <path d="M83.12,3.62A12.09,12.09,0,0,0,74.24,0a11.91,11.91,0,0,0-8.79,3.62,12.22,12.22,0,0,0-3.69,8.87,12,12,0,0,0,3.69,8.81A12,12,0,0,0,74.24,25a12.34,12.34,0,0,0,8.95-3.72,11.86,11.86,0,0,0,3.57-8.78,12.06,12.06,0,0,0-3.63-8.87Zm-1.56,16a10,10,0,0,1-7.29,3.06,9.87,9.87,0,0,1-7.23-3,9.81,9.81,0,0,1-3-7.18,10,10,0,0,1,.55-3.32l3.31,1.47h-.24v1.48H68.8c0,.21,0,.42,0,.63v.36H67.63v1.49H69a5.9,5.9,0,0,0,1.17,2.72,6.29,6.29,0,0,0,5.1,2.38,7,7,0,0,0,3.26-.8L78,16.58a5.8,5.8,0,0,1-2.38.54,3.5,3.5,0,0,1-2.7-1.07,3.29,3.29,0,0,1-.69-1.46H76.8l6.46,2.86a9.66,9.66,0,0,1-1.71,2.2Zm-8.13-6.54,0,0,0,0Zm3.89-1h.19V10.64H74L72.53,10A2.87,2.87,0,0,1,73,9.28a3.18,3.18,0,0,1,2.57-1.13,6.17,6.17,0,0,1,2.32.5l.59-2.39a7.93,7.93,0,0,0-3.14-.63,6.11,6.11,0,0,0-5.54,3.15L65.67,7a11.51,11.51,0,0,1,1.41-1.72,9.69,9.69,0,0,1,7.19-3,9.79,9.79,0,0,1,7.23,3,9.8,9.8,0,0,1,3,7.25,10.88,10.88,0,0,1-.32,2.66l-6.86-3Z" style="fill: #12100b"/>
  <path d="M12.46,0a12.18,12.18,0,0,1,8.92,3.66,12,12,0,0,1,2.68,4A12.71,12.71,0,0,1,25,12.5a12.73,12.73,0,0,1-.9,4.8,11.45,11.45,0,0,1-2.66,4A12.83,12.83,0,0,1,17.26,24a12.43,12.43,0,0,1-4.79,1A12.14,12.14,0,0,1,7.73,24a12.55,12.55,0,0,1-4.06-2.74,12.44,12.44,0,0,1-2.73-4,12.47,12.47,0,0,1,0-9.51A12.53,12.53,0,0,1,3.7,3.65,11.8,11.8,0,0,1,12.46,0Zm0,2.25a9.67,9.67,0,0,0-7.2,3A10.74,10.74,0,0,0,3,8.61a9.9,9.9,0,0,0,0,7.76,10.57,10.57,0,0,0,5.59,5.55,10.13,10.13,0,0,0,7.77,0,10.77,10.77,0,0,0,3.4-2.25,9.59,9.59,0,0,0,2.92-7.16A10.25,10.25,0,0,0,22,8.57a10,10,0,0,0-2.21-3.3,9.88,9.88,0,0,0-7.25-3Zm-.16,8.16-1.67.87a1.71,1.71,0,0,0-.66-.78,1.48,1.48,0,0,0-.72-.22q-1.67,0-1.67,2.21A2.74,2.74,0,0,0,8,14.1a1.43,1.43,0,0,0,1.25.6,1.56,1.56,0,0,0,1.54-1.07l1.54.78a3.68,3.68,0,0,1-3.28,2,3.65,3.65,0,0,1-2.7-1,3.86,3.86,0,0,1-1-2.85,3.85,3.85,0,0,1,1-2.83A3.53,3.53,0,0,1,9,8.62a3.5,3.5,0,0,1,3.32,1.81Zm7.2,0-1.65.87a1.71,1.71,0,0,0-.66-.78,1.51,1.51,0,0,0-.75-.22q-1.67,0-1.67,2.21a2.74,2.74,0,0,0,.42,1.61,1.43,1.43,0,0,0,1.25.6A1.56,1.56,0,0,0,18,13.63l1.56.78a3.83,3.83,0,0,1-1.38,1.44,3.6,3.6,0,0,1-1.9.52,3.64,3.64,0,0,1-2.71-1,3.88,3.88,0,0,1-1-2.85,3.85,3.85,0,0,1,1-2.83,3.53,3.53,0,0,1,2.62-1,3.45,3.45,0,0,1,3.3,1.81Z"/>
</svg>
