<svg id="85a5d2ba-7b78-4f77-b977-90198d99f78a" data-name="Ebene 1" xmlns="http://www.w3.org/2000/svg" width="0.88cm" height="0.88cm" viewBox="0 0 24.98 25">
  <defs>
    <style>
      .\38 e6e75ae-efcf-4af7-897d-e3e584fd8c7d {
        fill: #010101;
      }
    </style>
  </defs>
  <title>CC-Lizenz-Icons</title>
  <path d="M12.47,0a12.19,12.19,0,0,1,8.92,3.66,12,12,0,0,1,2.68,4A12.71,12.71,0,0,1,25,12.5a12.74,12.74,0,0,1-.9,4.81,11.46,11.46,0,0,1-2.67,4A12.83,12.83,0,0,1,17.26,24a12.43,12.43,0,0,1-4.79,1A12.14,12.14,0,0,1,7.73,24,12.55,12.55,0,0,1,3.67,21.3a12.44,12.44,0,0,1-2.73-4,12.47,12.47,0,0,1,0-9.51A12.53,12.53,0,0,1,3.7,3.65,11.8,11.8,0,0,1,12.47,0Zm0,2.25a9.68,9.68,0,0,0-7.2,3A10.74,10.74,0,0,0,3,8.61a9.91,9.91,0,0,0,0,7.76,10.57,10.57,0,0,0,5.59,5.55,10.13,10.13,0,0,0,7.77,0,10.77,10.77,0,0,0,3.4-2.25,9.6,9.6,0,0,0,2.92-7.16A10.26,10.26,0,0,0,22,8.57a10,10,0,0,0-2.21-3.3,9.88,9.88,0,0,0-7.25-3Z"/>
  <g>
    <path class="8e6e75ae-efcf-4af7-897d-e3e584fd8c7d" d="M12.49,13.23c-1.92,0-5.75,1-5.75,2.87v1.44a7.53,7.53,0,0,0,11.5,0V16.11C18.24,14.2,14.41,13.23,12.49,13.23Z"/>
    <circle class="8e6e75ae-efcf-4af7-897d-e3e584fd8c7d" cx="12.49" cy="8.92" r="2.87"/>
  </g>
</svg>
