<svg id="9a62bae7-7445-4a67-99be-db876fd48960" data-name="Ebene 1" xmlns="http://www.w3.org/2000/svg" width="0.88cm" height="0.88cm" viewBox="0 0 24.98 25">
  <title>_</title>
  <path d="M12.47,0a12.09,12.09,0,0,1,8.89,3.63A12.06,12.06,0,0,1,25,12.51a11.82,11.82,0,0,1-3.57,8.77A12.29,12.29,0,0,1,12.47,25a12,12,0,0,1-8.78-3.68A12,12,0,0,1,0,12.51,12.24,12.24,0,0,1,3.68,3.63,12,12,0,0,1,12.47,0Zm0,2.25a9.71,9.71,0,0,0-7.19,3,10,10,0,0,0-3.06,7.25,9.82,9.82,0,0,0,3,7.18,9.87,9.87,0,0,0,7.23,3,10,10,0,0,0,7.27-3.06,9.56,9.56,0,0,0,2.94-7.16,9.83,9.83,0,0,0-3-7.25,9.86,9.86,0,0,0-7.24-3ZM6.63,15.9V9h3.44q2.54,0,2.54,2.34a2.43,2.43,0,0,1-.12.77,2.35,2.35,0,0,1-.42.74,2.14,2.14,0,0,1-.9.6,3.94,3.94,0,0,1-1.43.23H8.37V15.9Zm1.72-5.62v2.1H9.82a1,1,0,0,0,.8-.3,1.08,1.08,0,0,0,.27-.75q0-1-1.12-1Zm4.73,5.62V9h2.68a3.72,3.72,0,0,1,2.59.85,3.35,3.35,0,0,1,.94,2.61,3.35,3.35,0,0,1-.94,2.61,3.72,3.72,0,0,1-2.59.85Zm1.72-5.47v4h1a1.56,1.56,0,0,0,1.33-.55,2.37,2.37,0,0,0,.41-1.46A2.37,2.37,0,0,0,17.12,11a1.58,1.58,0,0,0-1.35-.55Z"/>
</svg>
