<?xml version="1.0" encoding="utf-8"?>
<!-- Generator: Adobe Illustrator 16.0.3, SVG Export Plug-In . SVG Version: 6.00 Build 0)  -->
<!DOCTYPE svg PUBLIC "-//W3C//DTD SVG 1.1//EN" "http://www.w3.org/Graphics/SVG/1.1/DTD/svg11.dtd">
<svg version="1.1" id="Ebene_1" xmlns="http://www.w3.org/2000/svg" xmlns:xlink="http://www.w3.org/1999/xlink" x="0px" y="0px"
	 width="78px" height="29px" viewBox="0 0 78 29" enable-background="new 0 0 78 29" xml:space="preserve">
<g>
	<polygon fill="#58819B" points="13.02,16 10.157,11 13.02,6 18.746,6 21.609,11 18.746,16 	"/>
	<polygon fill="#9AC4D8" points="2.978,10 0.115,5 2.978,0 8.705,0 11.567,5 8.705,10 	"/>
	<polygon fill="#2F5775" points="2.978,22 0.115,17 2.978,12 8.705,12 11.567,17 8.705,22 	"/>
</g>
<g>
	<path fill="#FFFFFF" d="M19.727,23.711c0,0.191-0.043,0.333-0.128,0.425s-0.204,0.138-0.354,0.138h-3.399
		c0,0.238,0.028,0.454,0.084,0.648c0.057,0.193,0.146,0.359,0.269,0.494c0.123,0.136,0.282,0.238,0.476,0.31
		c0.194,0.071,0.426,0.106,0.698,0.106c0.275,0,0.517-0.02,0.726-0.059c0.208-0.041,0.389-0.084,0.542-0.133
		c0.152-0.047,0.278-0.091,0.378-0.131c0.1-0.039,0.182-0.06,0.244-0.06c0.038,0,0.069,0.007,0.094,0.022
		c0.025,0.015,0.046,0.041,0.063,0.078s0.028,0.09,0.034,0.159s0.01,0.155,0.01,0.26c0,0.092-0.002,0.171-0.006,0.235
		c-0.004,0.064-0.011,0.119-0.019,0.166c-0.008,0.045-0.021,0.084-0.038,0.115s-0.039,0.062-0.065,0.091
		c-0.027,0.029-0.102,0.069-0.222,0.118c-0.121,0.051-0.275,0.1-0.463,0.148c-0.188,0.047-0.403,0.089-0.645,0.125
		c-0.242,0.035-0.501,0.053-0.776,0.053c-0.497,0-0.932-0.063-1.305-0.188c-0.373-0.125-0.685-0.315-0.936-0.57
		c-0.25-0.254-0.437-0.575-0.56-0.963c-0.123-0.389-0.185-0.844-0.185-1.365c0-0.496,0.064-0.943,0.194-1.342
		s0.317-0.736,0.563-1.015c0.246-0.277,0.545-0.489,0.898-0.636c0.353-0.146,0.75-0.219,1.192-0.219
		c0.467,0,0.867,0.068,1.199,0.207c0.332,0.137,0.604,0.328,0.817,0.572s0.369,0.533,0.469,0.867s0.15,0.697,0.15,1.089V23.711z
		 M18.199,23.26c0.013-0.442-0.076-0.789-0.266-1.043c-0.19-0.252-0.483-0.378-0.879-0.378c-0.2,0-0.375,0.038-0.522,0.112
		c-0.148,0.075-0.271,0.177-0.369,0.304c-0.098,0.128-0.173,0.278-0.226,0.45c-0.052,0.174-0.083,0.358-0.091,0.555H18.199z"/>
	<path fill="#FFFFFF" d="M26.317,26.664c0,0.047-0.01,0.085-0.031,0.116c-0.021,0.032-0.056,0.058-0.106,0.079
		c-0.05,0.02-0.118,0.035-0.203,0.043c-0.086,0.008-0.191,0.013-0.316,0.013c-0.134,0-0.242-0.005-0.325-0.013
		c-0.084-0.008-0.151-0.023-0.204-0.043c-0.052-0.021-0.09-0.047-0.113-0.079c-0.023-0.031-0.034-0.069-0.034-0.116v-0.619
		c-0.288,0.309-0.589,0.549-0.905,0.72c-0.315,0.171-0.665,0.257-1.048,0.257c-0.425,0-0.786-0.082-1.08-0.247
		s-0.534-0.388-0.72-0.667s-0.32-0.605-0.404-0.979c-0.083-0.373-0.125-0.767-0.125-1.18c0-0.497,0.053-0.943,0.16-1.339
		c0.106-0.396,0.262-0.734,0.466-1.015c0.204-0.28,0.459-0.495,0.763-0.645c0.305-0.15,0.655-0.226,1.052-0.226
		c0.313,0,0.597,0.063,0.851,0.191c0.254,0.127,0.507,0.313,0.757,0.56v-3.022c0-0.043,0.012-0.08,0.035-0.113
		s0.064-0.062,0.125-0.084c0.061-0.023,0.141-0.041,0.241-0.054s0.228-0.019,0.382-0.019s0.282,0.006,0.382,0.019
		s0.179,0.03,0.238,0.054c0.059,0.022,0.1,0.051,0.125,0.084c0.025,0.033,0.038,0.07,0.038,0.113V26.664z M24.752,22.934
		c-0.225-0.283-0.441-0.5-0.647-0.65s-0.423-0.225-0.648-0.225c-0.205,0-0.381,0.051-0.529,0.152
		c-0.148,0.103-0.267,0.239-0.357,0.41c-0.09,0.172-0.156,0.362-0.2,0.572c-0.044,0.211-0.066,0.428-0.066,0.648
		c0,0.234,0.019,0.461,0.057,0.682c0.038,0.222,0.099,0.419,0.185,0.592c0.085,0.174,0.199,0.313,0.341,0.416
		c0.142,0.105,0.321,0.157,0.539,0.157c0.108,0,0.214-0.017,0.316-0.048c0.103-0.031,0.207-0.082,0.313-0.152
		c0.106-0.071,0.216-0.164,0.329-0.279c0.113-0.114,0.236-0.256,0.369-0.422V22.934z"/>
	<path fill="#FFFFFF" d="M33.196,26.664c0,0.043-0.01,0.079-0.031,0.11s-0.057,0.058-0.109,0.078s-0.121,0.036-0.207,0.047
		c-0.086,0.011-0.193,0.016-0.323,0.016c-0.138,0-0.249-0.005-0.334-0.016s-0.153-0.026-0.204-0.047
		c-0.05-0.021-0.085-0.047-0.106-0.078s-0.031-0.067-0.031-0.11V26.02c-0.309,0.334-0.623,0.584-0.942,0.752
		c-0.319,0.166-0.65,0.25-0.992,0.25c-0.384,0-0.707-0.063-0.967-0.188s-0.471-0.297-0.632-0.514s-0.275-0.469-0.344-0.754
		s-0.104-0.642-0.104-1.067v-3.417c0-0.043,0.012-0.078,0.035-0.11c0.023-0.031,0.064-0.058,0.125-0.078s0.142-0.036,0.244-0.047
		c0.102-0.011,0.229-0.016,0.379-0.016c0.154,0,0.281,0.005,0.382,0.016c0.1,0.011,0.18,0.026,0.241,0.047s0.104,0.047,0.128,0.078
		c0.025,0.032,0.038,0.067,0.038,0.11v3.154c0,0.292,0.019,0.516,0.056,0.67s0.095,0.287,0.172,0.396
		c0.077,0.111,0.175,0.197,0.294,0.258c0.119,0.061,0.258,0.09,0.417,0.09c0.2,0,0.401-0.072,0.604-0.219
		c0.202-0.146,0.418-0.359,0.647-0.639v-3.711c0-0.043,0.012-0.078,0.035-0.11c0.023-0.031,0.064-0.058,0.125-0.078
		s0.141-0.036,0.241-0.047s0.228-0.016,0.382-0.016s0.282,0.005,0.382,0.016s0.179,0.026,0.238,0.047
		c0.058,0.021,0.1,0.047,0.125,0.078c0.025,0.032,0.038,0.067,0.038,0.11V26.664z"/>
	<path fill="#FFFFFF" d="M37.546,23.729c0,0.242-0.023,0.412-0.069,0.508s-0.119,0.144-0.219,0.144h-2.604
		c-0.104,0-0.18-0.049-0.226-0.147c-0.046-0.098-0.069-0.266-0.069-0.504c0-0.232,0.023-0.398,0.069-0.494s0.121-0.144,0.226-0.144
		h2.604c0.05,0,0.093,0.011,0.128,0.031c0.036,0.021,0.066,0.056,0.091,0.106c0.025,0.05,0.043,0.117,0.053,0.2
		S37.546,23.612,37.546,23.729z"/>
	<path fill="#FFFFFF" d="M42.635,25.088c0,0.316-0.06,0.596-0.179,0.838c-0.119,0.242-0.287,0.445-0.503,0.607
		s-0.474,0.285-0.77,0.366s-0.618,0.122-0.964,0.122c-0.209,0-0.408-0.016-0.598-0.047c-0.189-0.031-0.359-0.071-0.51-0.119
		c-0.15-0.048-0.275-0.097-0.375-0.146c-0.1-0.051-0.173-0.098-0.219-0.141c-0.046-0.045-0.081-0.113-0.106-0.207
		c-0.025-0.094-0.038-0.232-0.038-0.416c0-0.121,0.004-0.219,0.013-0.291c0.008-0.073,0.021-0.132,0.038-0.176
		s0.038-0.072,0.063-0.088c0.025-0.014,0.056-0.021,0.094-0.021c0.046,0,0.113,0.025,0.203,0.078
		c0.089,0.053,0.201,0.109,0.335,0.172c0.133,0.063,0.289,0.121,0.466,0.176c0.177,0.055,0.379,0.081,0.604,0.081
		c0.142,0,0.268-0.015,0.378-0.044c0.111-0.029,0.207-0.07,0.288-0.125c0.081-0.055,0.143-0.123,0.185-0.207
		c0.042-0.083,0.063-0.18,0.063-0.287c0-0.125-0.039-0.232-0.116-0.322s-0.179-0.168-0.307-0.235
		c-0.127-0.066-0.271-0.13-0.432-0.188c-0.161-0.059-0.325-0.123-0.494-0.194c-0.169-0.07-0.334-0.152-0.495-0.244
		s-0.305-0.204-0.432-0.338c-0.127-0.133-0.229-0.294-0.306-0.482c-0.078-0.188-0.116-0.412-0.116-0.676
		c0-0.267,0.052-0.512,0.157-0.734c0.104-0.224,0.254-0.415,0.451-0.573c0.196-0.159,0.435-0.282,0.716-0.37
		c0.282-0.087,0.598-0.131,0.949-0.131c0.175,0,0.345,0.013,0.51,0.037c0.165,0.025,0.314,0.057,0.448,0.094
		c0.134,0.038,0.246,0.079,0.338,0.123c0.092,0.043,0.158,0.081,0.197,0.112s0.068,0.063,0.084,0.094s0.029,0.069,0.038,0.112
		c0.008,0.045,0.016,0.099,0.022,0.163c0.006,0.065,0.009,0.146,0.009,0.241c0,0.113-0.003,0.205-0.009,0.275
		c-0.006,0.07-0.017,0.127-0.032,0.169c-0.014,0.042-0.034,0.069-0.059,0.085c-0.025,0.014-0.054,0.021-0.087,0.021
		c-0.038,0-0.096-0.021-0.175-0.066c-0.08-0.043-0.179-0.09-0.298-0.141c-0.119-0.05-0.256-0.097-0.413-0.141
		c-0.156-0.043-0.334-0.065-0.535-0.065c-0.142,0-0.265,0.015-0.37,0.044c-0.104,0.029-0.19,0.07-0.256,0.125
		c-0.067,0.055-0.117,0.118-0.15,0.191c-0.034,0.072-0.05,0.15-0.05,0.234c0,0.129,0.04,0.238,0.119,0.325
		c0.079,0.088,0.184,0.165,0.313,0.231s0.276,0.13,0.441,0.188c0.165,0.059,0.332,0.123,0.5,0.191s0.336,0.149,0.501,0.241
		c0.165,0.092,0.312,0.204,0.441,0.338c0.129,0.134,0.233,0.294,0.313,0.479C42.596,24.613,42.635,24.833,42.635,25.088z"/>
	<path fill="#FFFFFF" d="M49.151,26.664c0,0.043-0.013,0.079-0.038,0.11c-0.025,0.031-0.067,0.058-0.125,0.078
		s-0.139,0.036-0.241,0.047c-0.102,0.011-0.228,0.016-0.378,0.016c-0.154,0-0.283-0.005-0.385-0.016
		c-0.102-0.011-0.182-0.026-0.241-0.047s-0.1-0.047-0.125-0.078s-0.038-0.067-0.038-0.11v-3.186c0-0.271-0.02-0.484-0.06-0.639
		s-0.097-0.287-0.172-0.396c-0.075-0.111-0.172-0.197-0.292-0.258c-0.119-0.06-0.257-0.09-0.416-0.09
		c-0.2,0-0.403,0.072-0.607,0.219c-0.205,0.146-0.417,0.359-0.639,0.639v3.711c0,0.043-0.012,0.079-0.038,0.11
		c-0.025,0.031-0.068,0.058-0.128,0.078s-0.141,0.036-0.241,0.047s-0.228,0.016-0.382,0.016s-0.282-0.005-0.382-0.016
		s-0.181-0.026-0.241-0.047s-0.103-0.047-0.128-0.078s-0.038-0.067-0.038-0.11v-8.23c0-0.041,0.013-0.079,0.038-0.112
		c0.025-0.034,0.067-0.062,0.128-0.085c0.061-0.022,0.141-0.041,0.241-0.053c0.1-0.013,0.228-0.02,0.382-0.02
		s0.282,0.007,0.382,0.02c0.1,0.012,0.18,0.03,0.241,0.053c0.061,0.023,0.104,0.051,0.128,0.085
		c0.025,0.033,0.038,0.071,0.038,0.112v3.086c0.271-0.268,0.548-0.467,0.829-0.598c0.282-0.131,0.575-0.197,0.88-0.197
		c0.379,0,0.7,0.063,0.96,0.188s0.472,0.297,0.632,0.514s0.276,0.471,0.348,0.76c0.071,0.291,0.106,0.643,0.106,1.055V26.664z"/>
	<path fill="#FFFFFF" d="M55.454,26.684c0,0.059-0.021,0.104-0.063,0.138c-0.042,0.033-0.107,0.058-0.197,0.071
		c-0.09,0.016-0.222,0.022-0.397,0.022c-0.188,0-0.324-0.007-0.41-0.022c-0.086-0.014-0.146-0.038-0.182-0.071
		c-0.035-0.034-0.053-0.079-0.053-0.138v-0.444c-0.229,0.246-0.492,0.438-0.785,0.575c-0.295,0.139-0.621,0.207-0.98,0.207
		c-0.296,0-0.568-0.039-0.816-0.115c-0.248-0.078-0.463-0.192-0.645-0.345c-0.181-0.152-0.322-0.341-0.422-0.566
		c-0.101-0.226-0.15-0.488-0.15-0.789c0-0.325,0.063-0.608,0.19-0.848c0.127-0.24,0.317-0.438,0.57-0.595
		c0.252-0.156,0.566-0.272,0.942-0.348s0.812-0.112,1.308-0.112h0.545v-0.339c0-0.175-0.018-0.328-0.053-0.459
		c-0.036-0.132-0.095-0.241-0.176-0.329c-0.082-0.087-0.189-0.152-0.326-0.194c-0.135-0.041-0.303-0.063-0.503-0.063
		c-0.263,0-0.498,0.029-0.704,0.088c-0.207,0.059-0.389,0.123-0.548,0.193c-0.159,0.072-0.292,0.137-0.397,0.195
		c-0.107,0.058-0.193,0.087-0.26,0.087c-0.046,0-0.087-0.015-0.123-0.044c-0.035-0.029-0.064-0.07-0.087-0.125
		s-0.041-0.121-0.053-0.2c-0.012-0.079-0.019-0.167-0.019-0.263c0-0.129,0.01-0.232,0.031-0.307
		c0.021-0.075,0.061-0.143,0.119-0.203c0.058-0.061,0.16-0.128,0.307-0.201c0.146-0.072,0.316-0.141,0.513-0.203
		s0.409-0.113,0.642-0.153c0.231-0.04,0.471-0.06,0.717-0.06c0.438,0,0.813,0.043,1.123,0.129c0.311,0.085,0.566,0.217,0.768,0.395
		c0.199,0.177,0.346,0.405,0.438,0.685c0.092,0.28,0.138,0.611,0.138,0.995V26.684z M53.908,24.293h-0.602
		c-0.254,0-0.471,0.018-0.65,0.056s-0.325,0.095-0.438,0.169c-0.113,0.075-0.195,0.166-0.248,0.272s-0.078,0.229-0.078,0.366
		c0,0.233,0.074,0.418,0.223,0.551c0.147,0.133,0.354,0.2,0.616,0.2c0.222,0,0.425-0.056,0.61-0.169s0.375-0.277,0.566-0.494V24.293
		z"/>
	<path fill="#FFFFFF" d="M60.611,21.602c0,0.149-0.004,0.273-0.012,0.369c-0.009,0.096-0.021,0.17-0.038,0.225
		s-0.038,0.092-0.065,0.113c-0.027,0.021-0.062,0.031-0.104,0.031c-0.033,0-0.07-0.008-0.112-0.021
		c-0.042-0.016-0.089-0.031-0.142-0.048c-0.052-0.017-0.109-0.032-0.172-0.047s-0.131-0.022-0.206-0.022
		c-0.088,0-0.175,0.019-0.263,0.054c-0.088,0.036-0.18,0.091-0.273,0.166s-0.191,0.175-0.293,0.3
		c-0.104,0.126-0.213,0.28-0.329,0.464v3.479c0,0.043-0.013,0.079-0.038,0.11c-0.024,0.031-0.067,0.058-0.128,0.078
		s-0.141,0.036-0.241,0.047c-0.1,0.011-0.227,0.016-0.381,0.016s-0.282-0.005-0.383-0.016c-0.1-0.011-0.18-0.026-0.24-0.047
		s-0.104-0.047-0.129-0.078s-0.037-0.067-0.037-0.11v-5.582c0-0.043,0.01-0.078,0.031-0.11c0.021-0.031,0.059-0.058,0.113-0.078
		c0.053-0.021,0.123-0.036,0.209-0.047s0.193-0.016,0.322-0.016c0.134,0,0.244,0.005,0.332,0.016s0.155,0.026,0.203,0.047
		s0.082,0.047,0.104,0.078c0.021,0.032,0.031,0.067,0.031,0.11v0.694c0.146-0.209,0.283-0.381,0.413-0.517
		c0.129-0.135,0.253-0.243,0.369-0.322s0.233-0.135,0.351-0.166s0.234-0.047,0.351-0.047c0.054,0,0.112,0.004,0.175,0.01
		s0.128,0.017,0.194,0.031c0.067,0.015,0.126,0.031,0.175,0.05c0.051,0.019,0.087,0.038,0.109,0.06
		c0.023,0.021,0.04,0.044,0.051,0.068c0.01,0.025,0.02,0.061,0.028,0.104c0.009,0.044,0.015,0.109,0.019,0.197
		S60.611,21.451,60.611,21.602z"/>
	<path fill="#FFFFFF" d="M63.278,19.191c0,0.316-0.065,0.536-0.194,0.657c-0.129,0.12-0.369,0.181-0.72,0.181
		c-0.354,0-0.594-0.058-0.717-0.175c-0.123-0.116-0.185-0.327-0.185-0.632c0-0.317,0.063-0.537,0.191-0.66
		c0.127-0.123,0.368-0.186,0.723-0.186c0.351,0,0.588,0.061,0.713,0.179C63.216,18.675,63.278,18.887,63.278,19.191z M63.159,26.664
		c0,0.043-0.013,0.079-0.038,0.11c-0.024,0.031-0.067,0.058-0.128,0.078s-0.141,0.036-0.241,0.047
		c-0.1,0.011-0.227,0.016-0.381,0.016s-0.282-0.005-0.383-0.016c-0.1-0.011-0.18-0.026-0.24-0.047s-0.104-0.047-0.129-0.078
		c-0.024-0.031-0.037-0.067-0.037-0.11v-5.57c0-0.041,0.013-0.078,0.037-0.109c0.025-0.031,0.068-0.059,0.129-0.082
		c0.061-0.021,0.141-0.04,0.24-0.053c0.101-0.012,0.229-0.019,0.383-0.019s0.281,0.007,0.381,0.019
		c0.101,0.013,0.181,0.031,0.241,0.053c0.061,0.023,0.104,0.051,0.128,0.082c0.025,0.031,0.038,0.068,0.038,0.109V26.664z"/>
	<path fill="#FFFFFF" d="M70.063,26.664c0,0.043-0.013,0.079-0.038,0.11s-0.066,0.058-0.125,0.078s-0.139,0.036-0.241,0.047
		s-0.228,0.016-0.378,0.016c-0.154,0-0.283-0.005-0.386-0.016s-0.183-0.026-0.241-0.047c-0.058-0.021-0.1-0.047-0.125-0.078
		c-0.024-0.031-0.037-0.067-0.037-0.11v-3.186c0-0.271-0.02-0.484-0.06-0.639s-0.097-0.287-0.172-0.396
		c-0.075-0.111-0.173-0.197-0.292-0.258c-0.118-0.06-0.257-0.09-0.416-0.09c-0.199,0-0.402,0.072-0.606,0.219
		s-0.417,0.359-0.639,0.639v3.711c0,0.043-0.013,0.079-0.038,0.11c-0.024,0.031-0.067,0.058-0.128,0.078s-0.141,0.036-0.241,0.047
		c-0.1,0.011-0.227,0.016-0.381,0.016s-0.282-0.005-0.383-0.016c-0.1-0.011-0.18-0.026-0.24-0.047s-0.104-0.047-0.129-0.078
		s-0.037-0.067-0.037-0.11v-5.582c0-0.043,0.01-0.078,0.031-0.11c0.021-0.031,0.059-0.058,0.113-0.078
		c0.054-0.021,0.123-0.036,0.209-0.047s0.193-0.016,0.322-0.016c0.134,0,0.244,0.005,0.332,0.016s0.155,0.026,0.203,0.047
		s0.082,0.047,0.104,0.078c0.021,0.032,0.031,0.067,0.031,0.11v0.645c0.309-0.334,0.623-0.584,0.941-0.752
		c0.319-0.166,0.652-0.25,0.999-0.25c0.38,0,0.7,0.063,0.96,0.188c0.262,0.125,0.473,0.295,0.633,0.51
		c0.16,0.216,0.276,0.467,0.348,0.755c0.07,0.288,0.106,0.634,0.106,1.039V26.664z"/>
	<path fill="#FFFFFF" d="M76.642,21.47c0,0.2-0.022,0.349-0.069,0.444c-0.045,0.096-0.102,0.145-0.168,0.145h-0.658
		c0.092,0.1,0.158,0.213,0.197,0.34c0.04,0.128,0.061,0.26,0.061,0.398c0,0.325-0.055,0.614-0.164,0.867
		c-0.107,0.252-0.264,0.465-0.466,0.638s-0.446,0.305-0.732,0.395s-0.604,0.134-0.954,0.134c-0.18,0-0.351-0.021-0.514-0.064
		c-0.162-0.045-0.287-0.096-0.375-0.154c-0.051,0.055-0.096,0.119-0.135,0.194c-0.04,0.075-0.06,0.159-0.06,0.251
		c0,0.121,0.054,0.22,0.159,0.297c0.106,0.077,0.256,0.119,0.447,0.129l1.359,0.049c0.316,0.014,0.6,0.059,0.848,0.135
		c0.248,0.078,0.457,0.186,0.626,0.326c0.169,0.14,0.298,0.308,0.388,0.504c0.09,0.195,0.135,0.419,0.135,0.67
		c0,0.275-0.061,0.535-0.182,0.779S76.082,28.4,75.84,28.58c-0.241,0.18-0.545,0.321-0.91,0.426
		c-0.365,0.104-0.791,0.156-1.279,0.156c-0.477,0-0.883-0.037-1.219-0.113c-0.336-0.074-0.611-0.179-0.826-0.313
		c-0.215-0.133-0.371-0.293-0.469-0.479s-0.146-0.389-0.146-0.61c0-0.138,0.018-0.269,0.053-0.395
		c0.035-0.125,0.088-0.245,0.156-0.36c0.068-0.114,0.153-0.224,0.254-0.328c0.1-0.104,0.215-0.205,0.344-0.301
		c-0.18-0.096-0.318-0.226-0.416-0.391s-0.146-0.346-0.146-0.541c0-0.246,0.056-0.471,0.168-0.674
		c0.113-0.202,0.26-0.385,0.438-0.547c-0.146-0.146-0.263-0.322-0.351-0.526s-0.131-0.459-0.131-0.764
		c0-0.325,0.057-0.616,0.172-0.873c0.114-0.257,0.273-0.474,0.479-0.651c0.205-0.177,0.449-0.313,0.732-0.406
		s0.597-0.141,0.939-0.141c0.175,0,0.342,0.01,0.503,0.031c0.161,0.021,0.31,0.05,0.448,0.088h1.771c0.07,0,0.127,0.045,0.172,0.137
		C76.619,21.098,76.642,21.252,76.642,21.47z M74.989,27.246c0-0.188-0.075-0.331-0.226-0.432c-0.15-0.1-0.356-0.154-0.619-0.162
		l-1.121-0.031c-0.107,0.079-0.195,0.155-0.26,0.229c-0.064,0.072-0.117,0.143-0.156,0.209c-0.039,0.067-0.065,0.132-0.078,0.194
		c-0.012,0.063-0.019,0.128-0.019,0.194c0,0.209,0.104,0.367,0.315,0.476s0.509,0.163,0.893,0.163c0.238,0,0.438-0.024,0.601-0.072
		c0.163-0.049,0.294-0.111,0.395-0.191c0.101-0.079,0.171-0.168,0.213-0.266S74.989,27.355,74.989,27.246z M74.62,22.79
		c0-0.3-0.083-0.534-0.251-0.7c-0.166-0.168-0.402-0.251-0.707-0.251c-0.154,0-0.29,0.026-0.406,0.078
		c-0.117,0.052-0.215,0.123-0.291,0.213c-0.078,0.09-0.135,0.194-0.172,0.313c-0.038,0.118-0.057,0.242-0.057,0.372
		c0,0.284,0.083,0.508,0.25,0.673s0.398,0.247,0.695,0.247c0.158,0,0.296-0.024,0.412-0.075c0.117-0.05,0.214-0.119,0.291-0.207
		c0.078-0.087,0.136-0.188,0.176-0.303C74.6,23.035,74.62,22.916,74.62,22.79z"/>
</g>
</svg>
