<?xml version="1.0" encoding="utf-8"?>
<!-- Generator: Adobe Illustrator 20.1.0, SVG Export Plug-In . SVG Version: 6.00 Build 0)  -->
<svg version="1.1" id="Ebene_1" xmlns="http://www.w3.org/2000/svg" xmlns:xlink="http://www.w3.org/1999/xlink" x="0px" y="0px"
	 viewBox="0 0 16 16" style="enable-background:new 0 0 16 16;" xml:space="preserve">
<style type="text/css">
	.st0{fill:#9A5A5C;}
</style>
<path class="st0" d="M13.2,9.2c-0.2-0.2-0.7-0.3-1.4-0.3c-0.5,0-1.1,0-1.7,0.1C9.8,8.8,9.5,8.7,9.3,8.5C8.7,7.9,8.2,7.1,7.9,6.3
	c0-0.1,0-0.2,0.1-0.2c0,0,0.3-1.9,0.2-2.6c0-0.1,0-0.1,0-0.2l0-0.1C8,3,7.8,2.8,7.5,2.8l-0.2,0C7,2.8,6.8,2.9,6.7,3.2
	c-0.2,0.8,0,1.9,0.4,3.4L7,6.8C6.7,7.4,6.4,8.1,6.1,8.7l0,0.1C5.7,9.4,5.4,10,5.2,10.4l-0.3,0.1c0,0-0.5,0.3-0.6,0.3
	c-0.9,0.6-1.5,1.2-1.6,1.7c0,0.2,0,0.4,0.2,0.5l0.3,0.1c0.1,0.1,0.2,0.1,0.4,0.1c0.7,0,1.4-0.8,2.5-2.7c1.2-0.4,2.6-0.7,3.8-0.9
	c0.9,0.5,2.1,0.9,2.8,0.9c0.1,0,0.2,0,0.3,0c0.1,0,0.3-0.1,0.3-0.2c0.1-0.2,0.2-0.5,0.1-0.8C13.3,9.4,13.2,9.3,13.2,9.2L13.2,9.2z
	 M3.3,12.7c0.1-0.3,0.6-1,1.3-1.6c0,0,0.2-0.1,0.3-0.2C4.1,12.1,3.6,12.6,3.3,12.7L3.3,12.7z M7.5,3.1c0.2,0,0.3,0.5,0.3,1
	S7.7,5,7.6,5.3c-0.1-0.4-0.2-1-0.2-1.4C7.4,3.9,7.4,3.1,7.5,3.1z M6.2,10c0.1-0.3,0.3-0.5,0.5-0.8c0.4-0.7,0.6-1.3,0.8-1.8
	C7.9,8,8.3,8.6,8.8,9C8.9,9.1,9,9.1,9,9.2C8,9.4,7,9.6,6.2,10L6.2,10z M13,9.9c-0.1,0-0.3,0.1-0.4,0.1c-0.4,0-0.9-0.2-1.5-0.5
	c0.3,0,0.5,0,0.7,0c0.4,0,0.5,0,0.9,0.1S13,9.9,13,9.9L13,9.9z M14.1,3.1l-2.2-2.2C11.4,0.4,10.4,0,9.8,0H2.2C1.6,0,1,0.6,1,1.2
	v13.5C1,15.4,1.6,16,2.2,16h11.5c0.7,0,1.2-0.6,1.2-1.2V5.2C15,4.6,14.6,3.6,14.1,3.1z M13.4,3.8c0,0,0.1,0.1,0.1,0.2H11V1.4
	c0.1,0,0.1,0.1,0.2,0.1C11.2,1.6,13.4,3.8,13.4,3.8z M14,14.7c0,0.1-0.1,0.2-0.2,0.2H2.2C2.1,15,2,14.9,2,14.7V1.2
	C2,1.1,2.1,1,2.2,1h7.5C9.8,1,9.9,1,10,1v4h4c0,0.1,0,0.2,0,0.2V14.7z"/>
</svg>
