<?xml version="1.0" encoding="utf-8"?>
<!-- Generator: Adobe Illustrator 20.1.0, SVG Export Plug-In . SVG Version: 6.00 Build 0)  -->
<svg version="1.1" id="Ebene_1" xmlns="http://www.w3.org/2000/svg" xmlns:xlink="http://www.w3.org/1999/xlink" x="0px" y="0px"
	 viewBox="0 0 16 16" style="enable-background:new 0 0 16 16;" xml:space="preserve">
<style type="text/css">
	.st0{fill:#F5884C;}
</style>
<g>
	<polygon class="st0" points="9.9,2.1 4.5,2.5 0,5.1 1.4,5.1 1.2,9.5 1.7,10.9 1.6,5.1 5.7,4.9 	"/>
	<polygon class="st0" points="7.8,4.4 5.9,5.7 3.6,5.7 3.3,7.2 6.4,8 8.6,5.6 	"/>
	<g>
		<path class="st0" d="M8.8,6.5L7.2,8.2c0,0-0.2,0-0.1,0c0.8,0,1,0.7,1,1.8v5h3V9.8c0-0.2,0-0.5,0.1-0.7c0.2-0.5,0.3-0.9,0.9-0.9
			c0.9,0,1,0.7,1,1.9V15h3V9.8c0-2.5-1.2-3.7-2.8-3.7c-0.6,0-1.1,0.1-1.6,0.3C11.2,6.7,10.9,7,10.6,8h0C10.2,7,9.7,6.6,9,6.4
			L8.8,6.5z"/>
		<path class="st0" d="M3,8v0.9V15h3V9.8c0-0.2-0.1-0.5,0-0.7c0-0.1,0.1-0.2,0.2-0.4L3.3,8.1L3,8z"/>
	</g>
</g>
</svg>
