<?xml version="1.0" encoding="utf-8"?>
<!-- Generator: Adobe Illustrator 21.0.0, SVG Export Plug-In . SVG Version: 6.00 Build 0)  -->
<svg version="1.1" id="Ebene_1" xmlns="http://www.w3.org/2000/svg" xmlns:xlink="http://www.w3.org/1999/xlink" x="0px" y="0px"
	 viewBox="0 0 200 150" style="enable-background:new 0 0 200 150;" xml:space="preserve">
<style type="text/css">
	.st0{fill:#49685A;}
	.st1{fill:#FFFFFF;}
</style>
<title>_ksnapshot-all</title>
<rect y="0" class="st0" width="200" height="150"/>
<circle class="st1" cx="100" cy="74.9" r="30.9"/>
<g>
	<path class="st0" d="M113.8,64.8l-4.6-4.6c-1.2-1.1-2.8-1.7-4.4-1.8H89.3c-1.4,0-2.6,1.2-2.6,2.6v27.9c0,1.4,1.2,2.6,2.6,2.6h23.8
		c1.4,0,2.6-1.2,2.6-2.6V69.2C115.5,67.6,114.9,66,113.8,64.8z M112.3,66.3c0.1,0.1,0.2,0.2,0.3,0.4h-5.3v-5.3
		c0.1,0.1,0.3,0.2,0.4,0.3L112.3,66.3z M113.5,88.8c0,0.3-0.2,0.5-0.5,0.5l0,0H89.3c-0.3,0-0.5-0.2-0.5-0.5V60.9
		c0-0.3,0.2-0.5,0.5-0.5h15.5c0.2,0,0.3,0,0.5,0.1v8.2h8.2c0,0.2,0,0.3,0.1,0.5L113.5,88.8L113.5,88.8z"/>
	<rect x="90.6" y="79" class="st0" width="8.3" height="8.3"/>
	<path class="st0" d="M103,79v8.3h8.3V79H103z M106.3,85.6l-0.3-0.2l0,0l-1.9-1.9l0.7-0.7l1.4,1.4l3.5-3.6l0.7,0.7L106.3,85.6z"/>
	<path class="st0" d="M90.6,66.5v8.3h8.3v-8.3H90.6z M93.6,72.9l-0.7-0.7l0,0l-1.4-1.4l0.7-0.7l1.4,1.4l3.6-3.5l0.7,0.7L93.6,72.9z"
		/>
</g>
</svg>
