<?xml version="1.0" encoding="utf-8"?>
<!-- Generator: Adobe Illustrator 21.0.0, SVG Export Plug-In . SVG Version: 6.00 Build 0)  -->
<svg version="1.1" id="Ebene_1" xmlns="http://www.w3.org/2000/svg" xmlns:xlink="http://www.w3.org/1999/xlink" x="0px" y="0px"
	 viewBox="0 0 200 150" style="enable-background:new 0 0 200 150;" xml:space="preserve">
<style type="text/css">
	.st0{fill:#62B583;}
	.st1{fill:#FFFFFF;}
</style>
<title>_ksnapshot-all</title>
<rect y="0" class="st0" width="200" height="150"/>
<circle class="st1" cx="100" cy="75" r="30.9"/>
<path class="st0" d="M85.5,64.1v21.8h29.1V64.1H85.5z M90.9,84.1h-3.6v-3.6h3.6V84.1L90.9,84.1z M90.9,76.8h-3.6v-3.6h3.6
	C90.9,73.2,90.9,76.8,90.9,76.8z M90.9,69.5h-3.6v-3.6h3.6C90.9,65.9,90.9,69.5,90.9,69.5z M107.3,84.1H92.7V65.9h14.5L107.3,84.1
	L107.3,84.1z M112.7,84.1h-3.6v-3.6h3.6V84.1L112.7,84.1z M112.7,76.8h-3.6v-3.6h3.6C112.7,73.2,112.7,76.8,112.7,76.8z M112.7,69.5
	h-3.6v-3.6h3.6C112.7,65.9,112.7,69.5,112.7,69.5z M96.4,69.5v10.9l7.3-5.4L96.4,69.5z"/>
</svg>
