<?xml version="1.0" encoding="utf-8"?>
<!-- Generator: Adobe Illustrator 21.0.0, SVG Export Plug-In . SVG Version: 6.00 Build 0)  -->
<svg version="1.1" id="Ebene_1" xmlns="http://www.w3.org/2000/svg" xmlns:xlink="http://www.w3.org/1999/xlink" x="0px" y="0px"
	 viewBox="0 0 200 150" style="enable-background:new 0 0 200 150;" xml:space="preserve">
<style type="text/css">
	.st0{fill:#659A60;}
	.st1{fill:#FFFFFF;}
</style>
<title>_ksnapshot-all</title>
<rect y="0" class="st0" width="200" height="150"/>
<circle class="st1" cx="100" cy="75" r="30.9"/>
<path class="st0" d="M97.9,77.1L95.8,75l-6.4,6.4l6.4,6.3l2.1-2.1l-4.2-4.2L97.9,77.1z M102.1,85.6l2.1,2.1l6.4-6.4l-6.4-6.4
	l-2.1,2.1l4.3,4.2L102.1,85.6z M113,64.6l-4.7-4.7c-1.3-1.1-2.9-1.8-4.5-1.9H87.8c-1.5,0-2.7,1.2-2.7,2.7v0v28.7
	c0,1.5,1.2,2.7,2.7,2.7h0h24.4c1.5,0,2.7-1.2,2.7-2.7v0V69.2C114.8,67.5,114.1,65.9,113,64.6L113,64.6z M111.5,66.1
	c0.1,0.1,0.2,0.2,0.3,0.4h-5.4v-5.4c0.1,0.1,0.3,0.2,0.4,0.3L111.5,66.1z M112.8,89.3c0,0.3-0.2,0.5-0.5,0.5H87.8
	c-0.3,0-0.5-0.2-0.5-0.5V60.7c0-0.3,0.2-0.5,0.5-0.5h15.9c0.2,0,0.4,0,0.5,0.1v8.4h8.4c0,0.2,0.1,0.4,0.1,0.5V89.3z"/>
</svg>
