<?xml version="1.0" encoding="utf-8"?>
<!-- Generator: Adobe Illustrator 16.0.0, SVG Export Plug-In . SVG Version: 6.00 Build 0)  -->
<!DOCTYPE svg PUBLIC "-//W3C//DTD SVG 1.1//EN" "http://www.w3.org/Graphics/SVG/1.1/DTD/svg11.dtd">
<svg version="1.1" id="Ebene_1" xmlns="http://www.w3.org/2000/svg" xmlns:xlink="http://www.w3.org/1999/xlink" x="0px" y="0px"
	 width="250px" height="103px" viewBox="0 0 250 103" enable-background="new 0 0 250 103" xml:space="preserve">
<rect fill="#E6E6E6" width="250" height="103"/>
<circle fill="#FFFFFF" cx="125.125" cy="53.626" r="30.875"/>
<path fill="#B3B3B3" d="M139.96,50.522c0,2.526-1.089,4.8-2.823,6.374h0.015l-9.362,9.362c-0.937,0.937-1.873,1.872-2.809,1.872
	c-0.937,0-1.873-0.936-2.809-1.872l-9.349-9.362c-1.734-1.574-2.823-3.848-2.823-6.374c0-4.753,3.853-8.606,8.606-8.606
	c2.526,0,4.8,1.089,6.374,2.823c1.574-1.734,3.847-2.823,6.373-2.823C136.106,41.916,139.96,45.77,139.96,50.522z"/>
</svg>
