<?xml version="1.0" encoding="utf-8"?>
<!-- Generator: Adobe Illustrator 21.0.0, SVG Export Plug-In . SVG Version: 6.00 Build 0)  -->
<svg version="1.1" id="Ebene_1" xmlns="http://www.w3.org/2000/svg" xmlns:xlink="http://www.w3.org/1999/xlink" x="0px" y="0px"
	 viewBox="0 0 200 150" style="enable-background:new 0 0 200 150;" xml:space="preserve">
<style type="text/css">
	.st0{fill:#F06249;}
	.st1{fill:#FFFFFF;}
</style>
<title>_ksnapshot-all</title>
<rect y="0" class="st0" width="200" height="150"/>
<circle class="st1" cx="100" cy="75" r="30.9"/>
<path class="st0" d="M90.6,75h6.2v2.1h-6.2V75z M90.6,79.1h6.2v2.1h-6.2V79.1L90.6,79.1z M90.6,83.3h6.2v2.1h-6.2V83.3z M113.7,64.8
	l-4.6-4.6c-1.2-1.1-2.8-1.7-4.4-1.8H89.1c-1.4,0-2.6,1.2-2.6,2.6v28c0,1.4,1.2,2.6,2.6,2.6H113c1.4,0,2.6-1.2,2.6-2.6V69.3
	C115.5,67.6,114.8,66.1,113.7,64.8L113.7,64.8z M112.2,66.3c0.1,0.1,0.2,0.2,0.3,0.4h-5.3v-5.3c0.1,0.1,0.3,0.2,0.4,0.3L112.2,66.3z
	 M113.5,89c0,0.3-0.2,0.5-0.5,0.5H89.1c-0.3,0-0.5-0.2-0.5-0.5V61c0-0.3,0.2-0.5,0.5-0.5h15.6c0.2,0,0.3,0,0.5,0.1v8.2h8.2
	c0,0.2,0.1,0.3,0.1,0.5L113.5,89L113.5,89L113.5,89z M103.1,81.2h6.1c-0.6,2.8-3.3,4.6-6.1,4c-2.8-0.6-4.6-3.3-4-6.1
	c0.4-2,2-3.6,4-4V81.2z M106.2,72.9c2.9,0,5.2,2.3,5.2,5.2l0,0c0,0.3,0,0.7-0.1,1h-6.1V73C105.5,73,105.8,72.9,106.2,72.9z"/>
</svg>
