<?xml version="1.0" encoding="utf-8"?>
<!-- Generator: Adobe Illustrator 22.0.1, SVG Export Plug-In . SVG Version: 6.00 Build 0)  -->
<svg version="1.1" id="Ebene_1" xmlns="http://www.w3.org/2000/svg" xmlns:xlink="http://www.w3.org/1999/xlink" x="0px" y="0px"
	 viewBox="0 0 200 150" style="enable-background:new 0 0 200 150;" xml:space="preserve">
<style type="text/css">
	.st0{fill:#2377CD;}
	.st1{fill:#FFFFFF;}
</style>
<title>_ksnapshot-all</title>
<rect y="0" class="st0" width="200" height="150"/>
<circle class="st1" cx="100" cy="75" r="30.9"/>
<g>
	<path class="st0" d="M121,68c-1.1-1-2.7-1.5-4.8-1.5h-5.7H109v4h-8.6l-0.7,2.9c0.6-0.3,1.4-0.5,2-0.7c0.6-0.1,1.1-0.1,1.7-0.1
		c1.9,0,3.5,0.6,4.6,1.7c1.2,1.1,1.8,2.6,1.8,4.4c0,1.2-0.3,2.4-0.9,3.5c-0.6,1.1-1.5,2-2.6,2.6c-0.4,0.2-0.8,0.4-1.3,0.5h5.5h1.8
		v-6.9h3.3c2.4,0,4.1-0.5,5.3-1.6c1.2-1.1,1.7-2.6,1.7-4.5C122.6,70.5,122,69,121,68z M116.1,74c-0.5,0.4-1.3,0.6-2.4,0.6h-1.5v-4.2
		h1.7c1.1,0,1.9,0.2,2.2,0.6c0.4,0.4,0.6,0.9,0.6,1.5C116.8,73.1,116.6,73.6,116.1,74z"/>
	<path class="st0" d="M101.5,76c-1,0-1.9,0.6-2.3,1.5L94,76.8l2.3-10.3h-3.1h-1.6v8.1h-6.5v-8.1h-5.7v18.9h5.7v-6.9h6.5v6.9h1.6h5.5
		c-0.9-0.3-1.6-0.6-2.2-1.1c-0.6-0.5-1.1-1-1.5-1.6c-0.4-0.6-0.7-1.3-1-2.2l5.2-0.7c0.4,0.9,1.3,1.4,2.3,1.4c1.4,0,2.6-1.2,2.6-2.6
		S102.9,76,101.5,76z"/>
</g>
</svg>
