<?xml version="1.0" encoding="utf-8"?>
<!-- Generator: Adobe Illustrator 21.0.0, SVG Export Plug-In . SVG Version: 6.00 Build 0)  -->
<svg version="1.1" id="Ebene_1" xmlns="http://www.w3.org/2000/svg" xmlns:xlink="http://www.w3.org/1999/xlink" x="0px" y="0px"
	 viewBox="0 0 200 150" style="enable-background:new 0 0 200 150;" xml:space="preserve">
<style type="text/css">
	.st0{fill:#DDD270;}
	.st1{fill:#FFFFFF;}
</style>
<title>_ksnapshot-all</title>
<rect y="0" class="st0" width="200" height="150"/>
<circle class="st1" cx="100" cy="75" r="30.9"/>
<path class="st0" d="M96.9,62.5h3.1v2.1h-3.1V62.5z M93.7,64.6h3.1v2.1h-3.1V64.6z M96.9,66.6h3.1v2.1h-3.1
	C96.9,68.7,96.9,66.6,96.9,66.6z M93.7,68.7h3.1v2.1h-3.1V68.7z M96.9,70.8h3.1v2.1h-3.1L96.9,70.8L96.9,70.8z M93.7,72.9h3.1V75
	h-3.1C93.7,75,93.7,72.9,93.7,72.9z M96.9,75v2.1h-3.1v7.3c0,0.6,0.4,1,1,1H99c0.6,0,1-0.4,1-1V75L96.9,75L96.9,75z M99,83.4h-4.2
	v-2.1H99V83.4z M112.8,64.8l-4.7-4.7c-1.2-1.1-2.8-1.8-4.5-1.8H88c-1.4,0-2.6,1.2-2.6,2.6v28.2c0,1.4,1.2,2.6,2.6,2.6c0,0,0,0,0,0
	h24c1.4,0,2.6-1.2,2.6-2.6V69.3C114.5,67.6,113.9,66,112.8,64.8L112.8,64.8z M111.3,66.3c0.1,0.1,0.2,0.2,0.3,0.4h-5.3v-5.3
	c0.1,0.1,0.3,0.2,0.4,0.3L111.3,66.3z M112.6,89.1c0,0.3-0.2,0.5-0.5,0.5H88c-0.3,0-0.5-0.2-0.5-0.5V60.9c0-0.3,0.2-0.5,0.5-0.5
	h15.7c0.2,0,0.3,0,0.5,0.1v8.3h8.3c0,0.2,0.1,0.3,0.1,0.5L112.6,89.1L112.6,89.1L112.6,89.1z"/>
</svg>
