<?xml version="1.0" encoding="utf-8"?>
<!-- Generator: Adobe Illustrator 21.0.0, SVG Export Plug-In . SVG Version: 6.00 Build 0)  -->
<svg version="1.1" id="Ebene_1" xmlns="http://www.w3.org/2000/svg" xmlns:xlink="http://www.w3.org/1999/xlink" x="0px" y="0px"
	 viewBox="0 0 200 150" style="enable-background:new 0 0 200 150;" xml:space="preserve">
<style type="text/css">
	.st0{fill:#659A60;}
	.st1{fill:#FFFFFF;}
</style>
<title>_ksnapshot-all</title>
<rect y="0" class="st0" width="200" height="150"/>
<circle class="st1" cx="100" cy="75" r="30.9"/>
<path class="st0" d="M97,78.5v-3.7c0-0.5,0.2-1,0.6-1.3c0.4-0.4,0.9-0.6,1.5-0.6V71c-2.2-0.1-4,1.6-4.2,3.7v2.8c0,0.5-0.5,0.9-1,0.9
	h-1v1.9h1c0.5,0,1,0.4,1,0.9v2.8c0.1,2.2,2,3.8,4.2,3.7v-1.9c-0.5,0-1.1-0.2-1.5-0.6C97.2,85,97,84.6,97,84.1v-3.7
	c0-0.5-0.5-0.9-1-0.9C96.5,79.4,97,79,97,78.5L97,78.5L97,78.5z M105.4,80.3v3.7c0,0.5-0.2,1-0.6,1.3c-0.4,0.4-0.9,0.6-1.5,0.6v1.9
	c2.2,0.1,4-1.6,4.2-3.7v-2.8c0-0.5,0.5-0.9,1-0.9h1v-1.9h-1c-0.5,0-1-0.4-1-0.9v-2.8c-0.1-2.2-2-3.8-4.2-3.7v1.9
	c0.5,0,1.1,0.2,1.5,0.6c0.4,0.3,0.6,0.8,0.6,1.3v3.7c0,0.5,0.5,0.9,1,0.9C105.8,79.4,105.4,79.8,105.4,80.3L105.4,80.3L105.4,80.3z
	 M114,65l-4.7-4.7c-1.2-1.1-2.8-1.8-4.5-1.8H89.2c-1.4,0-2.6,1.2-2.6,2.6v28.2c0,1.4,1.2,2.6,2.6,2.6h24c1.4,0,2.6-1.2,2.6-2.6V69.5
	C115.7,67.8,115.1,66.3,114,65z M112.5,66.5c0.1,0.1,0.2,0.2,0.3,0.4h-5.3v-5.3c0.1,0.1,0.3,0.2,0.4,0.3L112.5,66.5z M113.8,89.3
	c0,0.3-0.2,0.5-0.5,0.5h-24c-0.3,0-0.5-0.2-0.5-0.5V61.1c0-0.3,0.2-0.5,0.5-0.5h15.7c0.2,0,0.3,0,0.5,0.1V69h8.3
	c0,0.2,0.1,0.3,0.1,0.5L113.8,89.3L113.8,89.3z"/>
</svg>
