<?xml version="1.0" encoding="utf-8"?>
<!-- Generator: Adobe Illustrator 21.0.0, SVG Export Plug-In . SVG Version: 6.00 Build 0)  -->
<svg version="1.1" id="Ebene_1" xmlns="http://www.w3.org/2000/svg" xmlns:xlink="http://www.w3.org/1999/xlink" x="0px" y="0px"
	 viewBox="0 0 200 150" style="enable-background:new 0 0 200 150;" xml:space="preserve">
<style type="text/css">
	.st0{fill:#F78843;}
	.st1{fill:#FFFFFF;}
</style>
<title>_ksnapshot-all</title>
<rect y="0" class="st0" width="200" height="150"/>
<circle class="st1" cx="100" cy="75" r="30.9"/>
<polygon class="st0" points="104.9,58.5 90.8,59.6 79,66.3 82.8,66.2 82.2,77.9 83.4,81.5 83.2,66.2 94.1,65.8 "/>
<polygon class="st0" points="99.5,64.4 94.5,67.8 88.5,68 87.6,71.7 95.7,73.9 101.7,67.5 "/>
<path class="st0" d="M102,69.9l-4.2,4.6h0.1c2.2,0,3.1,1.9,3.1,4.8v12.3h7V78.6c0-0.6,0-1.2,0.2-1.8c0.5-1.4,1.8-2.4,3.4-2.4
	c2.2,0,3.4,1.9,3.4,5.1v12h6v-13c0-6.7-3.1-9.7-7.4-9.7c-1.5,0.1-2.9,0.6-4.2,1.5c-1.3,0.6-2.3,1.8-2.8,3.1h-0.1
	c-0.6-1.9-2.1-3.4-4-3.9L102,69.9z"/>
<path class="st0" d="M88,74v17.5h6V78.7c0-0.6,0.2-1.2,0.4-1.7c0.2-0.3,0.4-0.6,0.6-0.9L88,74L88,74z"/>
</svg>
