<?xml version="1.0" encoding="utf-8"?>
<!-- Generator: Adobe Illustrator 16.0.0, SVG Export Plug-In . SVG Version: 6.00 Build 0)  -->
<!DOCTYPE svg PUBLIC "-//W3C//DTD SVG 1.1//EN" "http://www.w3.org/Graphics/SVG/1.1/DTD/svg11.dtd">
<svg version="1.1" id="Ebene_1" xmlns="http://www.w3.org/2000/svg" xmlns:xlink="http://www.w3.org/1999/xlink" x="0px" y="0px"
	 width="250px" height="103px" viewBox="0 0 250 103" enable-background="new 0 0 250 103" xml:space="preserve">
<rect fill="#E6E6E6" width="250" height="103"/>
<circle fill="#FFFFFF" cx="125.125" cy="53.626" r="30.875"/>
<path fill="#B3B3B3" d="M135.701,43.05h-2.645v0.882c0,0.97-0.791,1.762-1.763,1.762c-0.971,0-1.763-0.792-1.763-1.762V43.05h-8.813
	v0.882c0,0.97-0.792,1.762-1.764,1.762c-0.971,0-1.762-0.792-1.762-1.762V43.05h-2.644c-0.97,0-1.763,0.794-1.763,1.763v19.39
	c0,0.97,0.793,1.763,1.763,1.763h21.152c0.969,0,1.762-0.793,1.762-1.763v-19.39C137.463,43.844,136.67,43.05,135.701,43.05z
	 M135.701,64.198c-0.002,0.003-0.002,0.003-0.004,0.004h-21.146c-0.001-0.001-0.001-0.001-0.002-0.004V48.339h21.152V64.198z
	 M118.955,44.812c0.486,0,0.882-0.396,0.882-0.881v-3.525c0-0.485-0.396-0.882-0.882-0.882c-0.485,0-0.881,0.396-0.881,0.882v3.525
	C118.073,44.417,118.469,44.812,118.955,44.812z M131.294,44.812c0.485,0,0.881-0.396,0.881-0.881v-3.525
	c0-0.485-0.396-0.882-0.881-0.882s-0.882,0.396-0.882,0.882v3.525C130.412,44.417,130.809,44.812,131.294,44.812z M126.887,50.101
	h-8.813v1.763h7.051v3.526h-7.051v1.762h7.051v3.525h-7.051v1.764h8.813V50.101z M130.412,62.44h1.763v-12.34h-3.524v1.763h1.762
	V62.44z M135.039,66.626h-19.83c-0.97,0-1.763-0.573-1.763-1.542v0.881c0,0.969,0.793,1.763,1.763,1.763h19.83
	c0.97,0,1.764-0.794,1.764-1.763v-0.881C136.803,66.053,136.009,66.626,135.039,66.626z"/>
</svg>
