<?xml version="1.0" encoding="UTF-8" standalone="no"?>
<!-- Generator: Adobe Illustrator 21.0.0, SVG Export Plug-In . SVG Version: 6.00 Build 0)  -->

<svg
   version="1.1"
   id="Ebene_1"
   x="0px"
   y="0px"
   viewBox="0 0 200 150"
   xml:space="preserve"
   width="200"
   height="150"
   xmlns="http://www.w3.org/2000/svg"
   xmlns:svg="http://www.w3.org/2000/svg"><defs
   id="defs1345" />
<style
   type="text/css"
   id="style1324">
	.st0{fill:#977866;}
	.st1{fill:#FFFFFF;}
</style>
<title
   id="title1326">_ksnapshot-all</title>
<rect
   y="0"
   class="st0"
   width="200"
   height="150"
   id="rect1328"
   style="fill:#16584b;fill-opacity:1"
   x="0" />
<circle
   class="st1"
   cx="100"
   cy="75"
   r="30.9"
   id="circle1330" />


<path
   class="st0"
   d="m 113.66781,65.103409 -4.53169,-4.53168 c -1.02992,-1.235913 -3.08978,-2.059855 -4.53167,-2.059855 H 89.361515 c -1.441898,0 -2.677811,1.235913 -2.677811,2.67781 v 27.808038 c 0,1.441898 1.235913,2.471825 2.677811,2.471825 h 23.688335 c 1.4419,0 2.47182,-1.235913 2.47182,-2.471825 V 69.429104 c 0,-1.441899 -0.82394,-3.501754 -1.85386,-4.325695 z m -1.4419,1.441897 c 0,0 0.20598,0.205986 0.20598,0.411971 h -5.14964 v -5.355622 c 0.20599,0 0.20599,0.205986 0.41198,0.205986 z m 1.2359,22.452416 c 0,0.205985 -0.20597,0.41197 -0.41196,0.41197 H 89.361515 c -0.411975,0 -0.617957,-0.205985 -0.617957,-0.41197 V 61.189684 c 0,-0.205985 0.205982,-0.617955 0.617957,-0.617955 h 15.448915 c 0.20598,0 0.41197,0 0.41197,0 v 8.239418 h 8.23941 c 0,0.205986 0,0.411971 0,0.411971 z"
   id="path72"
   style="fill:#16584b;fill-opacity:1;stroke-width:2.05986" /><path
   d="m 109.14239,74.07638 h -9.971193 c -1.096826,0 -1.994226,0.897405 -1.994226,1.994234 v 9.971164 c 0,1.09683 0.8974,1.994234 1.994226,1.994234 h 9.971193 c 1.0968,0 1.99422,-0.897404 1.99422,-1.994234 v -9.971164 c 0,-1.096829 -0.89742,-1.994234 -1.99422,-1.994234 z m 0,1.994234 v 1.994232 h -9.971193 v -1.994232 z m -5.98271,5.982699 v -1.994234 h 1.99423 v 1.994234 z m 1.99423,1.994235 v 1.99423 h -1.99423 v -1.99423 z m -3.98846,-1.994235 h -1.994253 v -1.994234 h 1.994253 z m 5.98269,-1.994234 h 1.99425 v 1.994234 h -1.99425 z m -7.976943,3.988469 h 1.994253 v 1.99423 h -1.994253 z m 7.976943,1.99423 v -1.99423 h 1.99425 v 1.99423 z m -10.968276,-1.99423 h -0.997119 c -1.096836,0 -1.994247,-0.897407 -1.994247,-1.994235 v -9.971166 c 0,-1.09683 0.897411,-1.994234 1.994247,-1.994234 h 9.971165 c 1.09683,0 1.99423,0.897404 1.99423,1.994234 v 0.997115 h -1.99423 v -0.997115 h -9.971165 v 9.971166 h 0.997119 z"
   id="path245"
   style="fill:#16584b;fill-opacity:1;stroke-width:0.997113" /></svg>
