<?xml version="1.0" encoding="utf-8"?>
<!-- Generator: Adobe Illustrator 16.0.3, SVG Export Plug-In . SVG Version: 6.00 Build 0)  -->
<!DOCTYPE svg PUBLIC "-//W3C//DTD SVG 1.1//EN" "http://www.w3.org/Graphics/SVG/1.1/DTD/svg11.dtd">
<svg version="1.1" id="Ebene_1" xmlns:serif="http://www.serif.com/"
	 xmlns="http://www.w3.org/2000/svg" xmlns:xlink="http://www.w3.org/1999/xlink" x="0px" y="0px" width="1000px" height="1000px"
	 viewBox="0 0 1000 1000" enable-background="new 0 0 1000 1000" xml:space="preserve">
<path d="M500,266.65l-105,46.7v70c0,64.75,45,125.3,105,140c60-14.7,105-75.25,105-140v-70L500,266.65z M500,395h81.649
	c-6.2,48.051-38.25,90.9-81.649,104.301V395h-81.65v-66.5L500,292.2V395z"/>
<g>
	<path d="M114.35,654.5H104l-11.2-18.05l-3.85,2.75v15.3H80v-42.85h9.1v19.6l3.55-5l11.601-14.55h10l-15,18.95L114.35,654.5
		L114.35,654.5z"/>
	<path d="M133.85,655c-4.53,0.271-8.985-1.3-12.35-4.35c-3.12-3.325-4.73-7.8-4.45-12.35c-0.305-4.615,1.165-9.176,4.1-12.75
		c2.96-3.09,7.125-4.74,11.4-4.5c3.99-0.235,7.905,1.194,10.8,3.949c2.7,2.985,4.09,6.936,3.851,10.95v4.351H126.1
		c-0.04,2.194,0.771,4.33,2.25,5.949c1.59,1.495,3.726,2.275,5.9,2.15c1.885,0.015,3.765-0.185,5.6-0.6
		c1.896-0.455,3.74-1.11,5.5-1.95v6.899c-1.585,0.79-3.265,1.381-5,1.75C138.205,654.89,136.03,655.06,133.85,655L133.85,655z
		 M132.6,627.4c-1.675-0.09-3.31,0.57-4.45,1.8c-1.145,1.42-1.795,3.176-1.85,5h12.55c0.05-1.824-0.575-3.604-1.75-5
		c-1.185-1.185-2.825-1.805-4.5-1.699V627.4L132.6,627.4z"/>
	<path d="M154.1,613.301c0-2.9,1.665-4.351,5-4.351s5,1.45,5,4.351c0.08,1.205-0.354,2.385-1.2,3.25
		c-1.015,0.85-2.33,1.265-3.649,1.149C155.815,617.666,154.1,616.2,154.1,613.301L154.1,613.301z M163.4,654.5h-8.949v-32.75h8.949
		V654.5z"/>
	<path d="M203,654.5h-8.9V635.35c0.13-1.851-0.31-3.7-1.25-5.3c-0.955-1.221-2.46-1.875-4-1.75c-2.11-0.17-4.165,0.779-5.399,2.5
		c-1.306,2.56-1.881,5.435-1.65,8.3v15.4h-9v-32.75h6.85l1.2,4.199h0.5c0.985-1.575,2.41-2.83,4.101-3.6
		c1.869-0.83,3.904-1.24,5.949-1.2c3.19-0.22,6.325,0.905,8.65,3.101c2.11,2.465,3.17,5.665,2.95,8.899V654.5L203,654.5z"/>
	<path d="M227.05,655c-4.53,0.271-8.985-1.3-12.35-4.35c-3.12-3.325-4.73-7.8-4.45-12.35c-0.306-4.615,1.165-9.176,4.1-12.75
		c2.96-3.09,7.125-4.74,11.4-4.5c3.989-0.235,7.904,1.194,10.8,3.949c2.7,2.985,4.09,6.936,3.85,10.95v4.351h-21.1
		c-0.04,2.194,0.77,4.33,2.25,5.949c1.59,1.495,3.725,2.275,5.9,2.15c1.885,0.015,3.765-0.185,5.6-0.6
		c1.895-0.455,3.74-1.11,5.5-1.95v6.899c-1.585,0.79-3.265,1.381-5,1.75C231.405,654.89,229.23,655.06,227.05,655L227.05,655z
		 M225.8,627.4c-1.675-0.09-3.311,0.57-4.45,1.8c-1.145,1.42-1.795,3.176-1.85,5H232c0.05-1.824-0.575-3.604-1.75-5
		c-1.175-1.17-2.795-1.79-4.45-1.699V627.4L225.8,627.4z"/>
	<path d="M284.05,654.5l-1.75-4.449c-1.22,1.66-2.815,3.015-4.65,3.949c-1.979,0.811-4.109,1.186-6.25,1.101
		c-2.75,0.165-5.444-0.815-7.449-2.7c-1.915-2.09-2.891-4.875-2.7-7.7c-0.221-3.024,1.17-5.955,3.649-7.7
		c3.351-1.899,7.15-2.85,11-2.75h5.7v-1.449c0.025-0.195,0.04-0.391,0.04-0.59c0-2.44-2.01-4.45-4.45-4.45
		c-0.2,0-0.395,0.015-0.59,0.04c-3.215,0.135-6.36,0.935-9.25,2.35l-2.95-6.05c3.88-1.995,8.19-3.01,12.551-2.95
		c3.56-0.22,7.09,0.785,10,2.851c2.47,2.21,3.765,5.449,3.5,8.75v21.85L284.05,654.5L284.05,654.5z M281.4,639.5h-3.449
		c-2.025-0.074-4.03,0.41-5.801,1.4c-1.29,0.885-2.015,2.39-1.899,3.95c0,2.535,1.45,3.8,4.35,3.8c1.84,0.095,3.646-0.55,5-1.8
		c1.26-1.25,1.93-2.98,1.851-4.75L281.4,639.5L281.4,639.5z"/>
	<path d="M322.699,654.5l-1.199-4.199h-0.45c-0.976,1.55-2.386,2.785-4.05,3.55c-1.881,0.86-3.931,1.285-6,1.25
		c-3.205,0.235-6.365-0.89-8.7-3.101c-2.105-2.47-3.165-5.664-2.95-8.899v-21.35h8.95V640.9c-0.13,1.851,0.31,3.7,1.25,5.3
		c0.955,1.221,2.46,1.875,4,1.75c2.109,0.17,4.165-0.779,5.399-2.5c1.306-2.56,1.881-5.435,1.65-8.3v-15.4h8.95v32.75H322.699z"/>
	<path d="M361.8,645c0.185,2.985-1.125,5.875-3.5,7.7c-3.11,1.976-6.775,2.9-10.45,2.65c-2.045,0.024-4.085-0.146-6.1-0.5
		c-1.61-0.3-3.19-0.771-4.7-1.4v-7.399c1.8,0.824,3.675,1.479,5.6,1.949c1.795,0.49,3.64,0.761,5.5,0.801c3.335,0,5-0.936,5-2.801
		c0.021-0.63-0.215-1.244-0.649-1.699c-0.676-0.605-1.431-1.11-2.25-1.5c-1.065-0.565-2.466-1.215-4.2-1.95
		c-1.96-0.76-3.825-1.75-5.55-2.95c-1.11-0.8-2.006-1.865-2.601-3.1c-0.58-1.355-0.854-2.825-0.8-4.3
		c-0.105-2.686,1.18-5.24,3.4-6.75c2.83-1.815,6.145-2.721,9.5-2.601c3.975,0.016,7.899,0.905,11.5,2.601l-2.75,6.25
		c-1.636-0.7-3.165-1.285-4.601-1.75c-1.41-0.436-2.875-0.655-4.35-0.65c-2.636,0-3.95,0.715-3.95,2.15
		c0.025,0.869,0.495,1.665,1.25,2.1c1.785,1.03,3.66,1.9,5.6,2.6c1.995,0.73,3.896,1.705,5.65,2.9c1.12,0.805,2.03,1.87,2.65,3.1
		C361.635,641.881,361.909,643.44,361.8,645L361.8,645z"/>
	<path d="M387.05,621.15c1.005-0.02,2.01,0.061,3,0.25l-0.65,8.601c-0.865-0.221-1.755-0.32-2.649-0.301
		c-2.415-0.14-4.796,0.646-6.65,2.2c-1.655,1.605-2.53,3.851-2.4,6.15V654.7h-8.949v-32.949h6.75l1.3,5.5h0.45
		c0.975-1.801,2.385-3.33,4.1-4.45C383.039,621.685,385.025,621.11,387.05,621.15L387.05,621.15z"/>
	<path d="M410.8,655c-4.53,0.271-8.985-1.3-12.351-4.35c-3.12-3.325-4.729-7.8-4.449-12.35c-0.306-4.615,1.164-9.176,4.1-12.75
		c2.96-3.09,7.125-4.74,11.4-4.5c3.989-0.235,7.904,1.194,10.8,3.949c2.7,2.985,4.09,6.936,3.85,10.95v4.351h-21.1
		c-0.04,2.194,0.77,4.33,2.25,5.949c1.59,1.495,3.725,2.275,5.899,2.15c1.885,0.015,3.766-0.185,5.601-0.6
		c1.895-0.455,3.739-1.11,5.5-1.95v6.899c-1.585,0.79-3.266,1.381-5,1.75C415.155,654.89,412.98,655.06,410.8,655L410.8,655z
		 M409.55,627.4c-1.675-0.09-3.311,0.57-4.45,1.8c-1.145,1.42-1.795,3.176-1.85,5h12.55c0.05-1.824-0.575-3.604-1.75-5
		c-1.186-1.185-2.825-1.805-4.5-1.699V627.4L409.55,627.4z"/>
	<path d="M431.05,613.301c0-2.9,1.665-4.351,5-4.351s5,1.45,5,4.351c0.08,1.205-0.355,2.385-1.2,3.25
		c-1.016,0.85-2.33,1.265-3.65,1.149C432.765,617.666,431.05,616.2,431.05,613.301L431.05,613.301z M440.35,654.5h-8.9v-32.75h8.95
		L440.35,654.5z"/>
	<path d="M463.05,655c-10.2,0-15.3-5.6-15.3-16.8c-0.32-4.625,1.17-9.2,4.149-12.75c3.165-3.085,7.49-4.685,11.9-4.399
		c3.46-0.021,6.88,0.75,10,2.25l-2.65,6.899c-1.399-0.564-2.715-1.035-3.95-1.399c-1.185-0.36-2.415-0.545-3.649-0.551
		c-4.636,0-6.95,3.336-6.95,10c0,6.665,2.314,9.865,6.95,9.601c1.694,0.035,3.38-0.2,5-0.7c1.56-0.505,3.045-1.23,4.399-2.15v7.65
		c-1.35,0.875-2.84,1.515-4.399,1.9C466.74,654.905,464.895,655.055,463.05,655L463.05,655z"/>
	<path d="M510.85,654.5h-8.95V635.35c0-4.735-1.75-7.101-5.25-7.101c-2.125-0.17-4.18,0.806-5.399,2.551
		c-1.301,2.545-1.87,5.399-1.65,8.25v15.399h-9V608.9h8.95v16.95h0.449c1.985-3.3,5.655-5.235,9.5-5
		c3.221-0.23,6.396,0.895,8.75,3.1c2.131,2.455,3.21,5.655,3,8.9L510.85,654.5L510.85,654.5z"/>
	<path d="M535,655c-4.53,0.271-8.985-1.3-12.351-4.35c-3.12-3.325-4.729-7.8-4.45-12.35c-0.305-4.615,1.165-9.176,4.101-12.75
		c2.96-3.09,7.125-4.74,11.399-4.5c3.99-0.235,7.905,1.194,10.801,3.949c2.699,2.985,4.09,6.936,3.85,10.95v4.351h-21.1
		c-0.041,2.194,0.77,4.33,2.25,5.949c1.59,1.495,3.725,2.275,5.899,2.15c1.885,0.015,3.765-0.185,5.601-0.6
		c1.895-0.455,3.739-1.11,5.5-1.95v6.899c-1.586,0.79-3.266,1.381-5,1.75C539.355,654.89,537.18,655.06,535,655L535,655z
		 M533.75,627.4c-1.676-0.09-3.311,0.57-4.45,1.8c-1.146,1.42-1.795,3.176-1.851,5H540c0.05-1.824-0.575-3.604-1.75-5
		c-1.221-1.225-2.926-1.85-4.65-1.699L533.75,627.4L533.75,627.4z"/>
	<path d="M585.699,654.5h-8.949V635.35c0.13-1.851-0.311-3.7-1.25-5.3c-0.955-1.221-2.461-1.875-4-1.75
		c-2.11-0.17-4.166,0.779-5.4,2.5c-1.305,2.56-1.88,5.435-1.65,8.3v15.4h-8.95v-32.75h6.851l1.2,4.199h0.5
		c0.984-1.575,2.409-2.83,4.1-3.6c1.87-0.83,3.905-1.24,5.95-1.2c3.189-0.22,6.325,0.905,8.65,3.101
		c2.109,2.465,3.17,5.665,2.949,8.899V654.5L585.699,654.5z"/>
	<path d="M605.3,655c-3.58,0.12-6.985-1.574-9.05-4.5c-4.461-7.725-4.461-17.274,0-25c2.135-2.949,5.609-4.64,9.25-4.5
		c3.81-0.14,7.42,1.771,9.449,5h0.301c-0.416-2.159-0.631-4.35-0.65-6.55v-10.5h8.95v45.601h-6.851L615,650h-0.4
		C612.704,653.296,609.095,655.24,605.3,655z M608.449,647.9c1.885,0.155,3.74-0.59,5-2c1.26-2.015,1.875-4.375,1.75-6.75v-0.95
		c0.205-2.625-0.37-5.25-1.649-7.55c-1.261-1.615-3.261-2.479-5.3-2.3c-1.905-0.11-3.716,0.885-4.65,2.55
		c-1.235,2.245-1.811,4.795-1.65,7.35c-0.18,2.525,0.396,5.051,1.65,7.25c1.064,1.62,2.915,2.556,4.85,2.45V647.9L608.449,647.9z"/>
	<path d="M647.699,655c-4.529,0.271-8.984-1.3-12.35-4.35c-3.12-3.325-4.73-7.8-4.45-12.35c-0.305-4.615,1.165-9.176,4.1-12.75
		c2.96-3.09,7.125-4.74,11.4-4.5c3.99-0.235,7.905,1.194,10.8,3.949c2.7,2.985,4.09,6.936,3.851,10.95v4.351H640
		c-0.041,2.194,0.77,4.33,2.25,5.949c1.59,1.495,3.725,2.275,5.899,2.15c1.885,0.015,3.765-0.185,5.6-0.6
		c1.896-0.455,3.74-1.11,5.5-1.95v6.899c-1.585,0.79-3.265,1.381-5,1.75C652.09,654.895,649.895,655.06,647.699,655L647.699,655z
		 M646.449,627.4c-1.675-0.09-3.31,0.57-4.449,1.8c-1.146,1.42-1.796,3.176-1.851,5h12.55c0.05-1.824-0.575-3.604-1.75-5
		c-1.185-1.185-2.825-1.805-4.5-1.699V627.4L646.449,627.4z"/>
	<path d="M698.55,654.5h-8.95V635.35c0.13-1.851-0.31-3.7-1.25-5.3c-0.955-1.221-2.46-1.875-4-1.75c-2.11-0.17-4.165,0.779-5.4,2.5
		c-1.305,2.56-1.88,5.435-1.649,8.3v15.4h-8.95v-32.75H675l1.199,4.199h0.5c0.985-1.575,2.41-2.83,4.101-3.6
		c1.87-0.83,3.905-1.24,5.95-1.2c3.189-0.22,6.324,0.905,8.649,3.101c2.11,2.465,3.17,5.665,2.95,8.899L698.55,654.5L698.55,654.5z"
		/>
	<path d="M733.15,638.051V654.5h-9.1v-42.85h12.5c4.529-0.335,9.05,0.79,12.899,3.2c4.65,4.17,5.551,11.189,2.101,16.399
		c-1.505,2.051-3.545,3.641-5.9,4.601c6.436,9.635,10.635,15.85,12.601,18.649h-10l-10-16.449H733.15z M733.15,630.65h2.95
		c2.215,0.155,4.425-0.35,6.35-1.45c1.426-1.029,2.21-2.745,2.051-4.5c0.154-1.725-0.655-3.399-2.101-4.35
		c-2.015-1-4.255-1.45-6.5-1.3h-2.75V630.65L733.15,630.65z"/>
	<path d="M777.8,655c-4.53,0.271-8.985-1.3-12.351-4.35c-3.12-3.325-4.729-7.8-4.449-12.35c-0.306-4.615,1.164-9.176,4.1-12.75
		c2.96-3.09,7.125-4.74,11.4-4.5c3.989-0.235,7.904,1.194,10.8,3.949c2.7,2.985,4.09,6.936,3.85,10.95v4.351H770
		c-0.04,2.194,0.77,4.33,2.25,5.949c1.59,1.495,3.725,2.275,5.899,2.15c1.885,0.015,3.765-0.185,5.601-0.6
		c1.895-0.455,3.739-1.11,5.5-1.95v6.899c-1.586,0.79-3.266,1.381-5,1.75C782.125,654.885,779.96,655.055,777.8,655L777.8,655z
		 M776.55,627.4c-1.676-0.09-3.311,0.57-4.45,1.8c-1.146,1.42-1.795,3.176-1.85,5h12.55c0.05-1.824-0.575-3.604-1.75-5
		c-1.186-1.185-2.825-1.805-4.5-1.699V627.4L776.55,627.4z"/>
	<path d="M811.699,655c-10.199,0-15.3-5.6-15.3-16.8c-0.32-4.625,1.17-9.2,4.15-12.75c3.165-3.085,7.489-4.685,11.899-4.399
		c3.46-0.021,6.881,0.75,10,2.25L819.8,630.2c-1.4-0.564-2.715-1.035-3.95-1.399c-1.186-0.36-2.415-0.545-3.65-0.551
		c-4.635,0-6.949,3.336-6.949,10c0,6.665,2.314,9.865,6.949,9.601c1.695,0.035,3.381-0.2,5-0.7c1.561-0.505,3.045-1.23,4.4-2.15
		v7.65c-1.35,0.875-2.84,1.515-4.4,1.9C815.39,654.905,813.545,655.055,811.699,655L811.699,655z"/>
	<path d="M859.5,654.5h-8.95V635.35c0-4.735-1.75-7.101-5.25-7.101c-2.125-0.17-4.181,0.806-5.4,2.551
		c-1.3,2.545-1.87,5.399-1.649,8.25v15.399h-8.95V608.9h8.95v16.95h0.449c1.985-3.3,5.655-5.235,9.5-5
		c3.221-0.23,6.396,0.895,8.75,3.1c2.13,2.455,3.21,5.655,3,8.9L859.5,654.5L859.5,654.5z"/>
	<path d="M882.5,647.95c1.925-0.064,3.83-0.42,5.649-1.05v6.65c-2.6,1.069-5.39,1.58-8.2,1.5c-2.865,0.265-5.71-0.721-7.8-2.7
		c-1.8-2.315-2.675-5.226-2.45-8.15v-15.8h-4.3v-3.8l5-3l2.601-6.9h5.699v6.95h9.15v6.7h-9.15v15.8
		c-0.085,1.045,0.301,2.07,1.051,2.8C880.515,647.6,881.494,647.955,882.5,647.95z"/>
	<path d="M909.55,655c-4.53,0.271-8.985-1.3-12.351-4.35c-3.119-3.325-4.729-7.8-4.449-12.35c-0.306-4.615,1.164-9.176,4.1-12.75
		c2.96-3.09,7.125-4.74,11.4-4.5c3.989-0.235,7.904,1.194,10.8,3.949c2.7,2.985,4.09,6.936,3.85,10.95v4.351h-21.1
		c-0.04,2.194,0.77,4.33,2.25,5.949c1.59,1.495,3.725,2.275,5.899,2.15c1.885,0.015,3.766-0.185,5.601-0.6
		c1.895-0.455,3.739-1.11,5.5-1.95v6.899c-1.585,0.79-3.266,1.381-5,1.75C913.905,654.89,911.73,655.06,909.55,655L909.55,655z
		 M908.3,627.4c-1.675-0.09-3.311,0.57-4.45,1.8c-1.145,1.42-1.795,3.176-1.85,5h12.55c0.05-1.824-0.575-3.604-1.75-5
		c-1.186-1.185-2.825-1.805-4.5-1.699V627.4L908.3,627.4z"/>
</g>
<g>
</g>
<g>
	<path d="M193.631,694.584c0.066,1.979-1.386,3.563-3.696,3.563c-2.046,0-3.498-1.584-3.498-3.563c0-2.047,1.518-3.63,3.629-3.63
		C192.245,690.954,193.631,692.537,193.631,694.584z M187.163,735.5v-31.941h5.808V735.5H187.163z"/>
	<path d="M202.607,712.204c0-3.3-0.066-6.005-0.264-8.646h5.147l0.33,5.279h0.132c1.584-3.035,5.28-6.005,10.559-6.005
		c4.422,0,11.285,2.64,11.285,13.595V735.5h-5.808v-18.412c0-5.148-1.914-9.438-7.391-9.438c-3.828,0-6.798,2.705-7.788,5.939
		c-0.264,0.727-0.396,1.716-0.396,2.706V735.5h-5.808V712.204z"/>
	<path d="M238.445,729.56c1.716,1.122,4.751,2.31,7.655,2.31c4.224,0,6.203-2.112,6.203-4.751c0-2.771-1.65-4.29-5.939-5.874
		c-5.741-2.046-8.447-5.214-8.447-9.041c0-5.147,4.158-9.371,11.021-9.371c3.234,0,6.072,0.924,7.854,1.979l-1.452,4.224
		c-1.254-0.792-3.564-1.848-6.534-1.848c-3.432,0-5.346,1.979-5.346,4.355c0,2.64,1.914,3.827,6.072,5.411
		c5.543,2.112,8.381,4.885,8.381,9.636c0,5.609-4.356,9.569-11.945,9.569c-3.498,0-6.731-0.857-8.975-2.178L238.445,729.56z"/>
	<path d="M292.1,726.789c0,3.299,0.066,6.203,0.264,8.711h-5.147l-0.33-5.213h-0.132c-1.518,2.573-4.884,5.939-10.559,5.939
		c-5.016,0-11.021-2.772-11.021-13.991v-18.677h5.808v17.687c0,6.071,1.848,10.163,7.127,10.163c3.894,0,6.599-2.705,7.655-5.279
		c0.33-0.857,0.528-1.914,0.528-2.97v-19.601h5.808V726.789z"/>
	<path d="M341.731,694.319c-1.452-0.924-3.828-1.716-6.467-1.716c-6.138,0-7.985,4.29-7.985,9.371v1.584h18.61V735.5h-5.808v-27.52
		h-12.737v27.52h-5.808v-27.52h-13.463v27.52h-5.741v-27.52h-4.488v-4.422h4.488v-1.188c0-4.025,1.056-7.92,3.828-10.625
		c1.848-1.914,4.62-3.102,8.183-3.102c2.178,0,4.422,0.791,5.61,1.385l-1.584,4.29c-0.99-0.528-2.508-1.122-4.026-1.122
		c-1.848,0-3.167,0.66-4.158,1.717c-1.583,1.715-2.112,4.619-2.112,7.391v1.254h13.463v-1.716c0-8.447,5.016-13.925,13.991-13.925
		c2.904,0,6.204,0.857,7.919,2.046L341.731,694.319z"/>
	<path d="M378.295,734.312c-1.518,0.791-4.883,1.848-9.173,1.848c-9.635,0-15.905-6.533-15.905-16.301
		c0-9.833,6.731-16.961,17.159-16.961c3.432,0,6.467,0.858,8.051,1.65l-1.32,4.487c-1.386-0.792-3.564-1.518-6.731-1.518
		c-7.326,0-11.285,5.411-11.285,12.077c0,7.391,4.751,11.945,11.087,11.945c3.3,0,5.478-0.858,7.127-1.584L378.295,734.312z"/>
	<path d="M391.563,694.584c0.066,1.979-1.386,3.563-3.696,3.563c-2.046,0-3.498-1.584-3.498-3.563c0-2.047,1.518-3.63,3.629-3.63
		C390.177,690.954,391.563,692.537,391.563,694.584z M385.095,735.5v-31.941h5.808V735.5H385.095z"/>
	<path d="M403.772,720.586c0.132,7.853,5.147,11.086,10.955,11.086c4.158,0,6.666-0.726,8.843-1.649l0.99,4.157
		c-2.046,0.924-5.543,1.98-10.625,1.98c-9.833,0-15.707-6.468-15.707-16.104c0-9.635,5.675-17.224,14.98-17.224
		c10.427,0,13.199,9.173,13.199,15.046c0,1.188-0.132,2.112-0.198,2.707H403.772z M420.799,716.427
		c0.066-3.695-1.518-9.438-8.051-9.438c-5.874,0-8.447,5.412-8.909,9.438H420.799z"/>
	<path d="M433.604,712.204c0-3.3-0.066-6.005-0.264-8.646h5.147l0.33,5.279h0.132c1.584-3.035,5.28-6.005,10.559-6.005
		c4.422,0,11.285,2.64,11.285,13.595V735.5h-5.808v-18.412c0-5.148-1.914-9.438-7.391-9.438c-3.828,0-6.798,2.705-7.788,5.939
		c-0.264,0.727-0.396,1.716-0.396,2.706V735.5h-5.808V712.204z"/>
	<path d="M476.965,694.385v9.173h8.315v4.422h-8.315v17.225c0,3.959,1.122,6.203,4.355,6.203c1.518,0,2.64-0.197,3.366-0.396
		l0.264,4.356c-1.122,0.462-2.904,0.792-5.147,0.792c-2.706,0-4.884-0.857-6.27-2.441c-1.65-1.717-2.244-4.555-2.244-8.316V707.98
		h-4.95v-4.422h4.95v-7.655L476.965,694.385z"/>
	<path d="M505.807,713.986c0-4.092-0.133-7.392-0.264-10.428h5.213l0.264,5.478h0.133c2.375-3.894,6.137-6.203,11.351-6.203
		c7.722,0,13.528,6.533,13.528,16.234c0,11.483-6.995,17.159-14.518,17.159c-4.225,0-7.92-1.849-9.834-5.016h-0.132v17.355h-5.741
		V713.986z M511.548,722.499c0,0.858,0.132,1.649,0.265,2.376c1.055,4.025,4.553,6.797,8.711,6.797c6.137,0,9.701-5.016,9.701-12.34
		c0-6.402-3.366-11.879-9.504-11.879c-3.959,0-7.654,2.837-8.777,7.193c-0.197,0.725-0.396,1.583-0.396,2.375V722.499z"/>
	<path d="M546.594,720.586c0.131,7.853,5.146,11.086,10.955,11.086c4.157,0,6.665-0.726,8.843-1.649l0.989,4.157
		c-2.045,0.924-5.543,1.98-10.625,1.98c-9.832,0-15.706-6.468-15.706-16.104c0-9.635,5.675-17.224,14.98-17.224
		c10.427,0,13.199,9.173,13.199,15.046c0,1.188-0.132,2.112-0.198,2.707H546.594z M563.619,716.427
		c0.066-3.695-1.518-9.438-8.051-9.438c-5.873,0-8.447,5.412-8.909,9.438H563.619z"/>
	<path d="M576.425,713.523c0-3.762-0.065-6.995-0.264-9.965h5.081l0.198,6.27h0.265c1.451-4.289,4.949-6.995,8.843-6.995
		c0.659,0,1.122,0.065,1.649,0.198v5.477c-0.594-0.131-1.188-0.197-1.979-0.197c-4.092,0-6.995,3.102-7.787,7.457
		c-0.132,0.792-0.265,1.716-0.265,2.706V735.5h-5.741V713.523z"/>
	<path d="M598.271,712.204c0-3.3-0.065-6.005-0.264-8.646h5.081l0.264,5.148h0.199c1.781-3.037,4.751-5.874,10.031-5.874
		c4.355,0,7.654,2.64,9.041,6.401h0.131c0.99-1.781,2.244-3.168,3.564-4.158c1.914-1.451,4.025-2.243,7.062-2.243
		c4.224,0,10.493,2.771,10.493,13.858V735.5h-5.676v-18.082c0-6.138-2.244-9.834-6.93-9.834c-3.299,0-5.873,2.442-6.863,5.279
		c-0.264,0.793-0.462,1.849-0.462,2.904V735.5h-5.675v-19.139c0-5.081-2.244-8.777-6.666-8.777c-3.63,0-6.27,2.904-7.193,5.809
		c-0.33,0.857-0.462,1.848-0.462,2.837V735.5h-5.676V712.204z"/>
	<path d="M659.782,694.584c0.065,1.979-1.386,3.563-3.696,3.563c-2.045,0-3.497-1.584-3.497-3.563c0-2.047,1.518-3.63,3.63-3.63
		C658.397,690.954,659.782,692.537,659.782,694.584z M653.315,735.5v-31.941h5.808V735.5H653.315z"/>
	<path d="M667.967,729.56c1.715,1.122,4.751,2.31,7.654,2.31c4.225,0,6.203-2.112,6.203-4.751c0-2.771-1.649-4.29-5.939-5.874
		c-5.74-2.046-8.447-5.214-8.447-9.041c0-5.147,4.158-9.371,11.021-9.371c3.234,0,6.072,0.924,7.854,1.979l-1.451,4.224
		c-1.254-0.792-3.564-1.848-6.534-1.848c-3.432,0-5.346,1.979-5.346,4.355c0,2.64,1.914,3.827,6.071,5.411
		c5.544,2.112,8.382,4.885,8.382,9.636c0,5.609-4.356,9.569-11.945,9.569c-3.497,0-6.731-0.857-8.976-2.178L667.967,729.56z"/>
	<path d="M694.102,729.56c1.717,1.122,4.752,2.31,7.656,2.31c4.223,0,6.203-2.112,6.203-4.751c0-2.771-1.65-4.29-5.939-5.874
		c-5.742-2.046-8.447-5.214-8.447-9.041c0-5.147,4.157-9.371,11.021-9.371c3.233,0,6.071,0.924,7.854,1.979l-1.452,4.224
		c-1.254-0.792-3.563-1.848-6.533-1.848c-3.432,0-5.346,1.979-5.346,4.355c0,2.64,1.914,3.827,6.072,5.411
		c5.543,2.112,8.381,4.885,8.381,9.636c0,5.609-4.355,9.569-11.945,9.569c-3.498,0-6.731-0.857-8.975-2.178L694.102,729.56z"/>
	<path d="M727.497,694.584c0.065,1.979-1.386,3.563-3.696,3.563c-2.045,0-3.497-1.584-3.497-3.563c0-2.047,1.518-3.63,3.63-3.63
		C726.112,690.954,727.497,692.537,727.497,694.584z M721.03,735.5v-31.941h5.808V735.5H721.03z"/>
	<path d="M765.379,719.265c0,11.813-8.184,16.961-15.905,16.961c-8.646,0-15.311-6.336-15.311-16.434
		c0-10.69,6.995-16.96,15.839-16.96C759.175,702.833,765.379,709.498,765.379,719.265z M740.037,719.595
		c0,6.995,4.025,12.274,9.701,12.274c5.543,0,9.701-5.214,9.701-12.407c0-5.411-2.707-12.274-9.57-12.274
		S740.037,713.523,740.037,719.595z"/>
	<path d="M772.707,712.204c0-3.3-0.066-6.005-0.264-8.646h5.146l0.33,5.279h0.133c1.584-3.035,5.279-6.005,10.559-6.005
		c4.422,0,11.285,2.64,11.285,13.595V735.5h-5.808v-18.412c0-5.148-1.914-9.438-7.392-9.438c-3.828,0-6.797,2.705-7.787,5.939
		c-0.264,0.727-0.396,1.716-0.396,2.706V735.5h-5.807V712.204z"/>
	<path d="M808.545,729.56c1.715,1.122,4.751,2.31,7.654,2.31c4.225,0,6.203-2.112,6.203-4.751c0-2.771-1.649-4.29-5.939-5.874
		c-5.74-2.046-8.447-5.214-8.447-9.041c0-5.147,4.158-9.371,11.021-9.371c3.234,0,6.072,0.924,7.854,1.979l-1.451,4.224
		c-1.254-0.792-3.564-1.848-6.534-1.848c-3.432,0-5.346,1.979-5.346,4.355c0,2.64,1.914,3.827,6.071,5.411
		c5.544,2.112,8.382,4.885,8.382,9.636c0,5.609-4.356,9.569-11.945,9.569c-3.497,0-6.731-0.857-8.976-2.178L808.545,729.56z"/>
</g>
</svg>
