<?xml version="1.0" encoding="UTF-8" standalone="no"?><!DOCTYPE svg PUBLIC "-//W3C//DTD SVG 1.1//EN" "http://www.w3.org/Graphics/SVG/1.1/DTD/svg11.dtd"><svg width="100%" height="100%" viewBox="0 0 200 150" version="1.1" xmlns="http://www.w3.org/2000/svg" xmlns:xlink="http://www.w3.org/1999/xlink" xml:space="preserve" xmlns:serif="http://www.serif.com/" style="fill-rule:evenodd;clip-rule:evenodd;stroke-linejoin:round;stroke-miterlimit:1.41421;"><rect x="-1.562" y="-0.694" width="203.125" height="153.125" style="fill:#fff;"/><g id="f7ebd85d-aa6c-4ed2-abf3-0c10b167102d"><path d="M32.15,106.219l-5.049,0l0,-8.767l5.049,0l0,1.523l-3.19,0l0,1.925l2.968,0l0,1.523l-2.968,0l0,2.261l3.19,0l0,1.535Z" style="fill-rule:nonzero;"/><rect x="33.835" y="96.888" width="1.829" height="9.331" style="fill-rule:nonzero;"/><path d="M40.36,100.69c-0.388,0 -0.692,0.123 -0.912,0.369c-0.22,0.246 -0.346,0.594 -0.377,1.046l2.566,0c-0.008,-0.452 -0.126,-0.8 -0.354,-1.046c-0.227,-0.246 -0.535,-0.369 -0.923,-0.369Zm0.258,5.649c-1.08,0 -1.923,-0.298 -2.531,-0.893c-0.608,-0.596 -0.912,-1.44 -0.912,-2.531c0,-1.124 0.281,-1.992 0.843,-2.606c0.562,-0.614 1.338,-0.92 2.33,-0.92c0.947,0 1.685,0.269 2.213,0.809c0.528,0.54 0.791,1.286 0.791,2.237l0,0.888l-4.323,0c0.02,0.519 0.173,0.925 0.461,1.217c0.288,0.292 0.692,0.438 1.212,0.438c0.403,0 0.785,-0.042 1.145,-0.126c0.36,-0.084 0.736,-0.218 1.128,-0.402l0,1.415c-0.32,0.16 -0.662,0.279 -1.026,0.357c-0.364,0.078 -0.808,0.117 -1.331,0.117Z" style="fill-rule:nonzero;"/><path d="M50.843,106.219l-1.829,0l0,-3.916c0,-0.484 -0.081,-0.846 -0.243,-1.088c-0.162,-0.242 -0.417,-0.363 -0.765,-0.363c-0.468,0 -0.808,0.172 -1.019,0.516c-0.212,0.343 -0.318,0.909 -0.318,1.697l0,3.154l-1.829,0l0,-6.704l1.397,0l0.246,0.857l0.102,0c0.18,-0.308 0.44,-0.549 0.779,-0.723c0.34,-0.173 0.73,-0.26 1.17,-0.26c1.003,0 1.683,0.327 2.039,0.983l0.162,0c0.18,-0.312 0.444,-0.554 0.794,-0.726c0.35,-0.171 0.745,-0.257 1.185,-0.257c0.759,0 1.334,0.195 1.724,0.584c0.39,0.39 0.585,1.015 0.585,1.874l0,4.372l-1.836,0l0,-3.916c0,-0.484 -0.081,-0.846 -0.242,-1.088c-0.162,-0.242 -0.417,-0.363 -0.765,-0.363c-0.448,0 -0.783,0.16 -1.005,0.48c-0.221,0.319 -0.332,0.827 -0.332,1.523l0,3.364Z" style="fill-rule:nonzero;"/><path d="M59.676,100.69c-0.388,0 -0.691,0.123 -0.911,0.369c-0.22,0.246 -0.346,0.594 -0.378,1.046l2.567,0c-0.008,-0.452 -0.126,-0.8 -0.354,-1.046c-0.228,-0.246 -0.536,-0.369 -0.924,-0.369Zm0.258,5.649c-1.079,0 -1.923,-0.298 -2.531,-0.893c-0.607,-0.596 -0.911,-1.44 -0.911,-2.531c0,-1.124 0.281,-1.992 0.842,-2.606c0.562,-0.614 1.339,-0.92 2.33,-0.92c0.948,0 1.685,0.269 2.213,0.809c0.528,0.54 0.792,1.286 0.792,2.237l0,0.888l-4.324,0c0.02,0.519 0.174,0.925 0.462,1.217c0.287,0.292 0.691,0.438 1.211,0.438c0.404,0 0.786,-0.042 1.145,-0.126c0.36,-0.084 0.736,-0.218 1.128,-0.402l0,1.415c-0.32,0.16 -0.662,0.279 -1.026,0.357c-0.363,0.078 -0.807,0.117 -1.331,0.117Z" style="fill-rule:nonzero;"/><path d="M70.345,106.219l-1.829,0l0,-3.916c0,-0.484 -0.086,-0.846 -0.258,-1.088c-0.172,-0.242 -0.446,-0.363 -0.822,-0.363c-0.511,0 -0.881,0.171 -1.109,0.513c-0.228,0.341 -0.342,0.908 -0.342,1.7l0,3.154l-1.829,0l0,-6.704l1.397,0l0.246,0.857l0.102,0c0.204,-0.324 0.485,-0.569 0.843,-0.735c0.357,-0.165 0.764,-0.248 1.22,-0.248c0.78,0 1.371,0.211 1.775,0.632c0.404,0.422 0.606,1.031 0.606,1.826l0,4.372Z" style="fill-rule:nonzero;"/><path d="M75.052,104.882c0.32,0 0.704,-0.07 1.152,-0.21l0,1.361c-0.456,0.204 -1.016,0.306 -1.679,0.306c-0.732,0 -1.265,-0.185 -1.598,-0.555c-0.334,-0.369 -0.501,-0.924 -0.501,-1.664l0,-3.232l-0.876,0l0,-0.774l1.008,-0.611l0.527,-1.416l1.17,0l0,1.428l1.877,0l0,1.373l-1.877,0l0,3.232c0,0.26 0.073,0.452 0.219,0.576c0.146,0.124 0.339,0.186 0.578,0.186Z" style="fill-rule:nonzero;"/><path d="M86.261,106.219l-0.516,-2.345l-0.696,-2.962l-0.041,0l-1.224,5.307l-1.967,0l-1.907,-6.704l1.823,0l0.774,2.968c0.124,0.532 0.25,1.265 0.378,2.201l0.036,0c0.016,-0.304 0.086,-0.786 0.209,-1.445l0.096,-0.51l0.828,-3.214l2.015,0l0.786,3.214c0.016,0.088 0.041,0.218 0.075,0.39c0.034,0.172 0.067,0.355 0.098,0.548c0.032,0.194 0.061,0.384 0.087,0.57c0.026,0.186 0.041,0.335 0.045,0.447l0.036,0c0.036,-0.288 0.1,-0.683 0.192,-1.184c0.092,-0.502 0.158,-0.841 0.198,-1.017l0.804,-2.968l1.793,0l-1.931,6.704l-1.991,0Z" style="fill-rule:nonzero;"/><path d="M96.012,106.219l-0.246,-0.857l-0.096,0c-0.196,0.311 -0.474,0.552 -0.833,0.722c-0.36,0.17 -0.77,0.255 -1.23,0.255c-0.787,0 -1.381,-0.211 -1.781,-0.633c-0.4,-0.421 -0.6,-1.028 -0.6,-1.82l0,-4.371l1.829,0l0,3.916c0,0.483 0.086,0.846 0.258,1.088c0.172,0.242 0.446,0.363 0.822,0.363c0.512,0 0.881,-0.171 1.109,-0.513c0.228,-0.342 0.342,-0.908 0.342,-1.7l0,-3.154l1.829,0l0,6.704l-1.403,0Z" style="fill-rule:nonzero;"/><path d="M103.076,99.389c0.248,0 0.454,0.018 0.618,0.054l-0.138,1.715c-0.148,-0.04 -0.328,-0.06 -0.54,-0.06c-0.583,0 -1.038,0.15 -1.364,0.45c-0.326,0.299 -0.489,0.719 -0.489,1.259l0,3.412l-1.829,0l0,-6.704l1.386,0l0.27,1.127l0.089,0c0.208,-0.376 0.489,-0.679 0.843,-0.909c0.354,-0.229 0.739,-0.344 1.154,-0.344Z" style="fill-rule:nonzero;"/><path d="M106.789,106.339c-0.788,0 -1.407,-0.306 -1.856,-0.917c-0.45,-0.612 -0.675,-1.46 -0.675,-2.543c0,-1.1 0.229,-1.956 0.687,-2.57c0.457,-0.614 1.088,-0.92 1.892,-0.92c0.843,0 1.487,0.327 1.931,0.983l0.06,0c-0.092,-0.5 -0.138,-0.945 -0.138,-1.337l0,-2.147l1.835,0l0,9.331l-1.404,0l-0.353,-0.869l-0.078,0c-0.416,0.659 -1.05,0.989 -1.901,0.989Zm0.641,-1.457c0.468,0 0.811,-0.136 1.029,-0.408c0.218,-0.272 0.337,-0.734 0.357,-1.385l0,-0.198c0,-0.72 -0.111,-1.236 -0.333,-1.547c-0.222,-0.312 -0.583,-0.468 -1.083,-0.468c-0.408,0 -0.724,0.173 -0.95,0.519c-0.226,0.345 -0.339,0.848 -0.339,1.508c0,0.66 0.114,1.154 0.342,1.484c0.228,0.33 0.553,0.495 0.977,0.495Z" style="fill-rule:nonzero;"/><path d="M115.214,100.69c-0.387,0 -0.691,0.123 -0.911,0.369c-0.22,0.246 -0.346,0.594 -0.378,1.046l2.567,0c-0.008,-0.452 -0.126,-0.8 -0.354,-1.046c-0.228,-0.246 -0.536,-0.369 -0.924,-0.369Zm0.258,5.649c-1.079,0 -1.923,-0.298 -2.53,-0.893c-0.608,-0.596 -0.912,-1.44 -0.912,-2.531c0,-1.124 0.281,-1.992 0.843,-2.606c0.561,-0.614 1.338,-0.92 2.329,-0.92c0.948,0 1.686,0.269 2.213,0.809c0.528,0.54 0.792,1.286 0.792,2.237l0,0.888l-4.324,0c0.02,0.519 0.174,0.925 0.462,1.217c0.288,0.292 0.691,0.438 1.211,0.438c0.404,0 0.786,-0.042 1.146,-0.126c0.359,-0.084 0.735,-0.218 1.127,-0.402l0,1.415c-0.32,0.16 -0.662,0.279 -1.025,0.357c-0.364,0.078 -0.808,0.117 -1.332,0.117Z" style="fill-rule:nonzero;"/><path d="M128.72,99.515l0,0.929l-1.05,0.27c0.192,0.3 0.288,0.636 0.288,1.007c0,0.72 -0.251,1.281 -0.753,1.683c-0.501,0.401 -1.198,0.602 -2.09,0.602l-0.329,-0.018l-0.27,-0.03c-0.188,0.144 -0.282,0.304 -0.282,0.48c0,0.264 0.336,0.396 1.007,0.396l1.14,0c0.735,0 1.296,0.158 1.682,0.474c0.386,0.315 0.579,0.779 0.579,1.391c0,0.784 -0.327,1.391 -0.981,1.823c-0.654,0.432 -1.592,0.648 -2.815,0.648c-0.936,0 -1.651,-0.163 -2.144,-0.489c-0.494,-0.326 -0.741,-0.783 -0.741,-1.37c0,-0.404 0.126,-0.742 0.378,-1.014c0.252,-0.272 0.622,-0.466 1.109,-0.582c-0.188,-0.08 -0.352,-0.21 -0.491,-0.392c-0.14,-0.182 -0.21,-0.375 -0.21,-0.579c0,-0.256 0.074,-0.469 0.221,-0.639c0.148,-0.17 0.362,-0.337 0.642,-0.5c-0.352,-0.152 -0.631,-0.396 -0.836,-0.732c-0.206,-0.336 -0.309,-0.732 -0.309,-1.188c0,-0.731 0.238,-1.297 0.713,-1.697c0.476,-0.399 1.156,-0.599 2.039,-0.599c0.188,0 0.411,0.017 0.669,0.051c0.258,0.034 0.423,0.059 0.495,0.075l2.339,0Zm-5.176,7.652c0,0.252 0.121,0.449 0.363,0.593c0.242,0.144 0.581,0.216 1.017,0.216c0.655,0 1.169,-0.09 1.541,-0.27c0.372,-0.179 0.557,-0.425 0.557,-0.737c0,-0.252 -0.109,-0.426 -0.329,-0.522c-0.22,-0.096 -0.56,-0.144 -1.02,-0.144l-0.947,0c-0.336,0 -0.617,0.079 -0.843,0.237c-0.226,0.158 -0.339,0.367 -0.339,0.627Zm0.666,-5.458c0,0.364 0.083,0.652 0.249,0.864c0.166,0.212 0.419,0.318 0.758,0.318c0.344,0 0.596,-0.106 0.756,-0.318c0.16,-0.212 0.24,-0.5 0.24,-0.864c0,-0.807 -0.332,-1.211 -0.996,-1.211c-0.671,0 -1.007,0.404 -1.007,1.211Z" style="fill-rule:nonzero;"/><path d="M132.6,100.69c-0.388,0 -0.692,0.123 -0.912,0.369c-0.22,0.246 -0.346,0.594 -0.378,1.046l2.567,0c-0.008,-0.452 -0.126,-0.8 -0.354,-1.046c-0.228,-0.246 -0.536,-0.369 -0.923,-0.369Zm0.258,5.649c-1.08,0 -1.923,-0.298 -2.531,-0.893c-0.608,-0.596 -0.912,-1.44 -0.912,-2.531c0,-1.124 0.281,-1.992 0.843,-2.606c0.562,-0.614 1.338,-0.92 2.33,-0.92c0.947,0 1.685,0.269 2.213,0.809c0.527,0.54 0.791,1.286 0.791,2.237l0,0.888l-4.324,0c0.02,0.519 0.174,0.925 0.462,1.217c0.288,0.292 0.692,0.438 1.212,0.438c0.403,0 0.785,-0.042 1.145,-0.126c0.36,-0.084 0.736,-0.218 1.127,-0.402l0,1.415c-0.319,0.16 -0.661,0.279 -1.025,0.357c-0.364,0.078 -0.808,0.117 -1.331,0.117Z" style="fill-rule:nonzero;"/><rect x="137.079" y="96.888" width="1.829" height="9.331" style="fill-rule:nonzero;"/><path d="M142.285,102.855c0,0.664 0.109,1.165 0.327,1.505c0.218,0.34 0.572,0.51 1.064,0.51c0.488,0 0.839,-0.169 1.053,-0.507c0.213,-0.338 0.32,-0.84 0.32,-1.508c0,-0.664 -0.108,-1.162 -0.323,-1.493c-0.216,-0.332 -0.57,-0.498 -1.062,-0.498c-0.488,0 -0.839,0.165 -1.055,0.495c-0.216,0.329 -0.324,0.828 -0.324,1.496Zm4.636,0c0,1.091 -0.288,1.945 -0.864,2.561c-0.576,0.615 -1.377,0.923 -2.405,0.923c-0.644,0 -1.211,-0.141 -1.703,-0.423c-0.492,-0.282 -0.87,-0.686 -1.133,-1.214c-0.264,-0.528 -0.396,-1.143 -0.396,-1.847c0,-1.096 0.286,-1.947 0.857,-2.555c0.572,-0.608 1.376,-0.911 2.411,-0.911c0.644,0 1.212,0.14 1.703,0.419c0.492,0.28 0.87,0.682 1.134,1.206c0.264,0.524 0.396,1.137 0.396,1.841Zm-5.308,-5.062c0,-0.259 0.075,-0.459 0.225,-0.599c0.15,-0.14 0.353,-0.21 0.609,-0.21c0.264,0 0.471,0.074 0.62,0.222c0.15,0.148 0.225,0.344 0.225,0.587c0,0.24 -0.076,0.433 -0.228,0.579c-0.151,0.146 -0.357,0.219 -0.617,0.219c-0.256,0 -0.459,-0.07 -0.609,-0.21c-0.15,-0.14 -0.225,-0.336 -0.225,-0.588Zm2.417,0c0,-0.279 0.081,-0.484 0.243,-0.614c0.162,-0.13 0.363,-0.195 0.603,-0.195c0.259,0 0.466,0.072 0.62,0.216c0.154,0.144 0.231,0.342 0.231,0.593c0,0.244 -0.078,0.438 -0.234,0.582c-0.156,0.144 -0.362,0.216 -0.617,0.216c-0.24,0 -0.441,-0.065 -0.603,-0.195c-0.162,-0.13 -0.243,-0.331 -0.243,-0.603Z" style="fill-rule:nonzero;"/><path d="M153.109,104.228c0,0.688 -0.238,1.212 -0.716,1.571c-0.478,0.36 -1.193,0.54 -2.144,0.54c-0.488,0 -0.904,-0.033 -1.248,-0.099c-0.343,-0.066 -0.665,-0.163 -0.965,-0.291l0,-1.511c0.34,0.16 0.723,0.294 1.148,0.402c0.426,0.108 0.801,0.162 1.125,0.162c0.663,0 0.995,-0.192 0.995,-0.576c0,-0.144 -0.044,-0.261 -0.132,-0.351c-0.088,-0.09 -0.24,-0.192 -0.455,-0.306c-0.216,-0.114 -0.504,-0.246 -0.864,-0.398c-0.516,-0.216 -0.895,-0.416 -1.136,-0.6c-0.242,-0.184 -0.418,-0.395 -0.528,-0.633c-0.11,-0.238 -0.165,-0.53 -0.165,-0.878c0,-0.596 0.231,-1.057 0.693,-1.383c0.461,-0.325 1.116,-0.488 1.964,-0.488c0.807,0 1.593,0.176 2.356,0.527l-0.551,1.32c-0.336,-0.144 -0.65,-0.262 -0.942,-0.354c-0.292,-0.092 -0.59,-0.138 -0.893,-0.138c-0.54,0 -0.81,0.146 -0.81,0.438c0,0.164 0.087,0.306 0.261,0.426c0.174,0.119 0.555,0.297 1.142,0.533c0.524,0.212 0.908,0.41 1.152,0.594c0.244,0.184 0.424,0.396 0.539,0.636c0.116,0.24 0.174,0.525 0.174,0.857Z" style="fill-rule:nonzero;"/><path d="M157.259,106.339c-2.087,0 -3.13,-1.145 -3.13,-3.436c0,-1.14 0.284,-2.01 0.851,-2.612c0.568,-0.602 1.382,-0.902 2.441,-0.902c0.776,0 1.472,0.152 2.087,0.455l-0.54,1.416c-0.287,-0.116 -0.555,-0.211 -0.803,-0.285c-0.248,-0.074 -0.496,-0.111 -0.744,-0.111c-0.951,0 -1.427,0.676 -1.427,2.027c0,1.311 0.476,1.967 1.427,1.967c0.352,0 0.678,-0.047 0.978,-0.141c0.3,-0.094 0.599,-0.241 0.899,-0.441l0,1.565c-0.296,0.188 -0.594,0.318 -0.896,0.39c-0.302,0.072 -0.683,0.108 -1.143,0.108Z" style="fill-rule:nonzero;"/><path d="M167.04,106.219l-1.829,0l0,-3.916c0,-0.967 -0.359,-1.451 -1.079,-1.451c-0.512,0 -0.882,0.174 -1.11,0.522c-0.227,0.347 -0.341,0.911 -0.341,1.691l0,3.154l-1.829,0l0,-9.331l1.829,0l0,1.901c0,0.148 -0.014,0.496 -0.042,1.043l-0.042,0.54l0.096,0c0.407,-0.656 1.055,-0.983 1.943,-0.983c0.787,0 1.385,0.212 1.793,0.635c0.408,0.424 0.611,1.032 0.611,1.823l0,4.372Z" style="fill-rule:nonzero;"/><path d="M171.748,104.882c0.32,0 0.704,-0.07 1.151,-0.21l0,1.361c-0.455,0.204 -1.015,0.306 -1.679,0.306c-0.731,0 -1.264,-0.185 -1.598,-0.555c-0.334,-0.369 -0.501,-0.924 -0.501,-1.664l0,-3.232l-0.875,0l0,-0.774l1.007,-0.611l0.528,-1.416l1.169,0l0,1.428l1.878,0l0,1.373l-1.878,0l0,3.232c0,0.26 0.073,0.452 0.219,0.576c0.146,0.124 0.339,0.186 0.579,0.186Z" style="fill-rule:nonzero;"/><path d="M47.456,122.882l-4.453,0l0,-8.402l4.266,0l0,0.891l-3.282,0l0,2.795l3.035,0l0,0.884l-3.035,0l0,2.942l3.469,0l0,0.89Z" style="fill-rule:nonzero;"/><rect x="48.944" y="114" width="0.961" height="8.883" style="fill-rule:nonzero;"/><path d="M56.673,120.123l-4.236,0c0.015,0.668 0.195,1.183 0.539,1.547c0.343,0.363 0.816,0.544 1.418,0.544c0.675,0 1.296,-0.222 1.863,-0.668l0,0.903c-0.528,0.383 -1.225,0.574 -2.092,0.574c-0.848,0 -1.514,-0.272 -1.998,-0.817c-0.484,-0.545 -0.727,-1.312 -0.727,-2.3c0,-0.934 0.265,-1.694 0.794,-2.282c0.53,-0.588 1.187,-0.882 1.972,-0.882c0.785,0 1.393,0.254 1.822,0.762c0.43,0.507 0.645,1.212 0.645,2.115l0,0.504Zm-0.985,-0.815c-0.003,-0.554 -0.137,-0.986 -0.401,-1.295c-0.264,-0.308 -0.63,-0.463 -1.099,-0.463c-0.453,0 -0.837,0.163 -1.154,0.487c-0.316,0.324 -0.512,0.748 -0.586,1.271l3.24,0Z" style="fill-rule:nonzero;"/><path d="M66.646,122.882l-0.961,0l0,-3.445c0,-0.664 -0.103,-1.144 -0.308,-1.441c-0.205,-0.297 -0.55,-0.446 -1.034,-0.446c-0.41,0 -0.759,0.188 -1.046,0.563c-0.287,0.375 -0.431,0.824 -0.431,1.348l0,3.421l-0.961,0l0,-3.562c0,-1.18 -0.455,-1.77 -1.365,-1.77c-0.422,0 -0.769,0.177 -1.043,0.531c-0.273,0.353 -0.41,0.813 -0.41,1.38l0,3.421l-0.961,0l0,-6l0.961,0l0,0.95l0.023,0c0.426,-0.727 1.047,-1.09 1.864,-1.09c0.41,0 0.767,0.114 1.072,0.343c0.305,0.228 0.514,0.528 0.627,0.899c0.445,-0.828 1.109,-1.242 1.992,-1.242c1.32,0 1.981,0.814 1.981,2.443l0,3.697Z" style="fill-rule:nonzero;"/><path d="M73.284,120.123l-4.236,0c0.015,0.668 0.195,1.183 0.539,1.547c0.344,0.363 0.816,0.544 1.418,0.544c0.676,0 1.297,-0.222 1.863,-0.668l0,0.903c-0.527,0.383 -1.224,0.574 -2.092,0.574c-0.847,0 -1.513,-0.272 -1.998,-0.817c-0.484,-0.545 -0.726,-1.312 -0.726,-2.3c0,-0.934 0.264,-1.694 0.794,-2.282c0.529,-0.588 1.186,-0.882 1.971,-0.882c0.786,0 1.393,0.254 1.823,0.762c0.429,0.507 0.644,1.212 0.644,2.115l0,0.504Zm-0.984,-0.815c-0.004,-0.554 -0.138,-0.986 -0.402,-1.295c-0.263,-0.308 -0.629,-0.463 -1.098,-0.463c-0.453,0 -0.838,0.163 -1.154,0.487c-0.317,0.324 -0.512,0.748 -0.586,1.271l3.24,0Z" style="fill-rule:nonzero;"/><path d="M79.718,122.882l-0.961,0l0,-3.421c0,-1.274 -0.465,-1.911 -1.395,-1.911c-0.48,0 -0.878,0.181 -1.192,0.542c-0.315,0.362 -0.472,0.818 -0.472,1.369l0,3.421l-0.961,0l0,-6l0.961,0l0,0.997l0.024,0c0.453,-0.758 1.109,-1.137 1.968,-1.137c0.657,0 1.159,0.212 1.506,0.636c0.348,0.423 0.522,1.036 0.522,1.836l0,3.668Z" style="fill-rule:nonzero;"/><path d="M84.312,122.824c-0.227,0.125 -0.526,0.187 -0.897,0.187c-1.051,0 -1.576,-0.586 -1.576,-1.757l0,-3.551l-1.031,0l0,-0.821l1.031,0l0,-1.464l0.961,-0.311l0,1.775l1.512,0l0,0.821l-1.512,0l0,3.381c0,0.402 0.068,0.689 0.205,0.861c0.137,0.172 0.363,0.258 0.68,0.258c0.242,0 0.451,-0.067 0.627,-0.199l0,0.82Z" style="fill-rule:nonzero;"/><path d="M96.44,116.882l-1.798,6l-0.996,0l-1.237,-4.294c-0.047,-0.165 -0.078,-0.35 -0.094,-0.557l-0.023,0c-0.012,0.14 -0.053,0.322 -0.123,0.545l-1.342,4.306l-0.961,0l-1.816,-6l1.008,0l1.242,4.512c0.039,0.137 0.066,0.317 0.082,0.539l0.047,0c0.011,-0.172 0.047,-0.355 0.105,-0.551l1.383,-4.5l0.879,0l1.242,4.524c0.039,0.144 0.068,0.324 0.088,0.539l0.047,0c0.008,-0.152 0.041,-0.332 0.099,-0.539l1.219,-4.524l0.949,0Z" style="fill-rule:nonzero;"/><path d="M101.849,122.882l-0.961,0l0,-0.937l-0.024,0c-0.418,0.719 -1.033,1.078 -1.845,1.078c-0.598,0 -1.066,-0.158 -1.404,-0.475c-0.338,-0.316 -0.507,-0.736 -0.507,-1.259c0,-1.121 0.661,-1.774 1.981,-1.957l1.799,-0.252c0,-1.02 -0.412,-1.53 -1.237,-1.53c-0.722,0 -1.375,0.246 -1.957,0.739l0,-0.985c0.59,-0.375 1.27,-0.562 2.039,-0.562c1.411,0 2.116,0.746 2.116,2.238l0,3.902Zm-0.961,-3.035l-1.448,0.199c-0.445,0.063 -0.781,0.173 -1.007,0.332c-0.227,0.158 -0.34,0.438 -0.34,0.84c0,0.293 0.104,0.533 0.313,0.718c0.209,0.186 0.488,0.278 0.835,0.278c0.477,0 0.87,-0.167 1.181,-0.501c0.31,-0.334 0.466,-0.756 0.466,-1.268l0,-0.598Z" style="fill-rule:nonzero;"/><path d="M103.296,122.666l0,-1.032c0.523,0.387 1.1,0.58 1.728,0.58c0.844,0 1.266,-0.281 1.266,-0.843c0,-0.16 -0.036,-0.296 -0.108,-0.408c-0.073,-0.111 -0.17,-0.209 -0.293,-0.295c-0.123,-0.086 -0.268,-0.164 -0.434,-0.232c-0.166,-0.068 -0.345,-0.14 -0.536,-0.214c-0.266,-0.105 -0.499,-0.212 -0.7,-0.319c-0.201,-0.107 -0.369,-0.229 -0.504,-0.363c-0.135,-0.135 -0.236,-0.288 -0.305,-0.46c-0.068,-0.172 -0.102,-0.373 -0.102,-0.604c0,-0.281 0.064,-0.53 0.193,-0.747c0.129,-0.217 0.301,-0.398 0.516,-0.545c0.214,-0.146 0.46,-0.257 0.735,-0.331c0.275,-0.074 0.56,-0.111 0.852,-0.111c0.52,0 0.985,0.09 1.395,0.269l0,0.973c-0.441,-0.289 -0.949,-0.434 -1.523,-0.434c-0.18,0 -0.342,0.021 -0.487,0.062c-0.144,0.041 -0.268,0.099 -0.372,0.173c-0.103,0.074 -0.183,0.163 -0.24,0.266c-0.057,0.104 -0.085,0.218 -0.085,0.343c0,0.156 0.028,0.287 0.085,0.393c0.057,0.105 0.14,0.199 0.249,0.281c0.109,0.082 0.242,0.156 0.398,0.223c0.157,0.066 0.334,0.138 0.534,0.216c0.265,0.102 0.504,0.206 0.714,0.314c0.211,0.107 0.391,0.228 0.54,0.363c0.148,0.135 0.262,0.29 0.342,0.466c0.08,0.176 0.12,0.385 0.12,0.627c0,0.297 -0.065,0.555 -0.196,0.773c-0.131,0.219 -0.306,0.401 -0.524,0.545c-0.219,0.145 -0.471,0.252 -0.756,0.323c-0.285,0.07 -0.584,0.105 -0.897,0.105c-0.617,0 -1.152,-0.119 -1.605,-0.357Z" style="fill-rule:nonzero;"/><path d="M115.167,117.855c-0.168,-0.129 -0.41,-0.193 -0.727,-0.193c-0.41,0 -0.752,0.193 -1.028,0.58c-0.275,0.387 -0.413,0.914 -0.413,1.582l0,3.058l-0.961,0l0,-6l0.961,0l0,1.237l0.023,0c0.137,-0.422 0.346,-0.751 0.627,-0.988c0.282,-0.236 0.596,-0.354 0.944,-0.354c0.25,0 0.441,0.027 0.574,0.082l0,0.996Z" style="fill-rule:nonzero;"/><path d="M121.032,120.123l-4.236,0c0.016,0.668 0.195,1.183 0.539,1.547c0.344,0.363 0.816,0.544 1.418,0.544c0.676,0 1.297,-0.222 1.863,-0.668l0,0.903c-0.527,0.383 -1.224,0.574 -2.092,0.574c-0.847,0 -1.513,-0.272 -1.998,-0.817c-0.484,-0.545 -0.726,-1.312 -0.726,-2.3c0,-0.934 0.264,-1.694 0.794,-2.282c0.529,-0.588 1.186,-0.882 1.971,-0.882c0.786,0 1.393,0.254 1.823,0.762c0.429,0.507 0.644,1.212 0.644,2.115l0,0.504Zm-0.984,-0.815c-0.004,-0.554 -0.138,-0.986 -0.402,-1.295c-0.263,-0.308 -0.629,-0.463 -1.098,-0.463c-0.453,0 -0.838,0.163 -1.154,0.487c-0.317,0.324 -0.512,0.748 -0.586,1.271l3.24,0Z" style="fill-rule:nonzero;"/><path d="M131.005,122.882l-0.961,0l0,-3.445c0,-0.664 -0.103,-1.144 -0.308,-1.441c-0.205,-0.297 -0.549,-0.446 -1.034,-0.446c-0.41,0 -0.759,0.188 -1.046,0.563c-0.287,0.375 -0.43,0.824 -0.43,1.348l0,3.421l-0.961,0l0,-3.562c0,-1.18 -0.455,-1.77 -1.366,-1.77c-0.421,0 -0.769,0.177 -1.043,0.531c-0.273,0.353 -0.41,0.813 -0.41,1.38l0,3.421l-0.961,0l0,-6l0.961,0l0,0.95l0.024,0c0.426,-0.727 1.047,-1.09 1.863,-1.09c0.41,0 0.768,0.114 1.072,0.343c0.305,0.228 0.514,0.528 0.627,0.899c0.446,-0.828 1.11,-1.242 1.992,-1.242c1.321,0 1.981,0.814 1.981,2.443l0,3.697Z" style="fill-rule:nonzero;"/><path d="M135.329,123.023c-0.887,0 -1.595,-0.28 -2.124,-0.841c-0.529,-0.56 -0.794,-1.303 -0.794,-2.229c0,-1.008 0.276,-1.795 0.826,-2.362c0.551,-0.566 1.295,-0.849 2.233,-0.849c0.894,0 1.593,0.275 2.094,0.826c0.502,0.551 0.753,1.314 0.753,2.291c0,0.957 -0.27,1.724 -0.811,2.3c-0.541,0.576 -1.267,0.864 -2.177,0.864Zm0.07,-5.473c-0.617,0 -1.105,0.21 -1.464,0.63c-0.36,0.42 -0.539,0.999 -0.539,1.738c0,0.711 0.181,1.271 0.544,1.681c0.364,0.41 0.85,0.615 1.459,0.615c0.622,0 1.099,-0.201 1.433,-0.603c0.334,-0.402 0.501,-0.975 0.501,-1.717c0,-0.75 -0.167,-1.328 -0.501,-1.734c-0.334,-0.406 -0.811,-0.61 -1.433,-0.61Z" style="fill-rule:nonzero;"/><path d="M144.569,116.882l-2.39,6l-0.944,0l-2.273,-6l1.055,0l1.523,4.36c0.113,0.32 0.184,0.599 0.211,0.838l0.023,0c0.039,-0.301 0.102,-0.573 0.188,-0.815l1.594,-4.383l1.013,0Z" style="fill-rule:nonzero;"/><path d="M150.423,120.123l-4.236,0c0.015,0.668 0.195,1.183 0.539,1.547c0.343,0.363 0.816,0.544 1.418,0.544c0.675,0 1.296,-0.222 1.863,-0.668l0,0.903c-0.528,0.383 -1.225,0.574 -2.092,0.574c-0.848,0 -1.514,-0.272 -1.998,-0.817c-0.484,-0.545 -0.727,-1.312 -0.727,-2.3c0,-0.934 0.265,-1.694 0.794,-2.282c0.53,-0.588 1.187,-0.882 1.972,-0.882c0.785,0 1.393,0.254 1.822,0.762c0.43,0.507 0.645,1.212 0.645,2.115l0,0.504Zm-0.985,-0.815c-0.003,-0.554 -0.137,-0.986 -0.401,-1.295c-0.264,-0.308 -0.63,-0.463 -1.099,-0.463c-0.453,0 -0.837,0.163 -1.154,0.487c-0.316,0.324 -0.512,0.748 -0.586,1.271l3.24,0Z" style="fill-rule:nonzero;"/><path d="M156.997,122.882l-0.961,0l0,-1.019l-0.023,0c-0.446,0.773 -1.133,1.16 -2.063,1.16c-0.754,0 -1.356,-0.269 -1.807,-0.806c-0.452,-0.537 -0.677,-1.268 -0.677,-2.194c0,-0.992 0.25,-1.787 0.75,-2.385c0.5,-0.597 1.166,-0.896 1.998,-0.896c0.824,0 1.424,0.324 1.799,0.972l0.023,0l0,-3.714l0.961,0l0,8.882Zm-0.961,-2.712l0,-0.885c0,-0.485 -0.16,-0.895 -0.48,-1.231c-0.321,-0.336 -0.727,-0.504 -1.219,-0.504c-0.586,0 -1.047,0.215 -1.383,0.645c-0.336,0.43 -0.504,1.023 -0.504,1.781c0,0.692 0.161,1.237 0.484,1.638c0.322,0.4 0.754,0.6 1.297,0.6c0.536,0 0.97,-0.193 1.304,-0.58c0.334,-0.386 0.501,-0.875 0.501,-1.464Z" style="fill-rule:nonzero;"/><path d="M82.883,73.927c0,3.138 2.567,5.705 5.705,5.705l22.824,0c3.138,0 5.705,-2.567 5.705,-5.705l0,-34.235l-34.234,0l0,34.235Zm37.087,-42.794l-9.985,0l-2.853,-2.853l-14.264,0l-2.853,2.853l-9.985,0l0,5.706l39.94,0l0,-5.706Z" style="fill-rule:nonzero;"/><rect x="65.765" y="19.722" width="68.469" height="68.469" style="fill:none;"/></g></svg>