<?xml version="1.0" encoding="utf-8"?>
<!-- Generator: Adobe Illustrator 21.0.2, SVG Export Plug-In . SVG Version: 6.00 Build 0)  -->
<svg version="1.1" id="Ebene_1" xmlns="http://www.w3.org/2000/svg" xmlns:xlink="http://www.w3.org/1999/xlink" x="0px" y="0px"
	 viewBox="0 0 200 150" style="enable-background:new 0 0 200 150;" xml:space="preserve">
<style type="text/css">
	.st0{fill:#34495E;}
	.st1{fill:#FFFFFF;}
</style>
<title>_ksnapshot-all</title>
<rect class="st0" width="200" height="150"/>
<circle class="st1" cx="100" cy="75.1" r="30.9"/>
<path class="st0" d="M112.3,73.4h-1.9v-4.9c0-1.4-1.1-2.5-2.5-2.5H103v-1.9c0-1.7-1.4-3.1-3.1-3.1s-3.1,1.4-3.1,3.1V66h-4.9
	c-1.4,0-2.5,1.1-2.5,2.5v4.7h1.8c1.8,0,3.3,1.5,3.3,3.3s-1.5,3.3-3.3,3.3h-1.9v4.7c0,1.4,1.1,2.5,2.5,2.5h4.7v-1.9
	c0-1.8,1.5-3.3,3.3-3.3s3.3,1.5,3.3,3.3V87h4.7c1.4,0,2.5-1.1,2.5-2.5v-4.9h1.9c1.7,0,3.1-1.4,3.1-3.1
	C115.4,74.8,114,73.4,112.3,73.4z"/>
</svg>
