<?xml version="1.0" encoding="utf-8"?>
<!-- Generator: Adobe Illustrator 20.1.0, SVG Export Plug-In . SVG Version: 6.00 Build 0)  -->
<svg version="1.1" id="Ebene_1" xmlns="http://www.w3.org/2000/svg" xmlns:xlink="http://www.w3.org/1999/xlink" x="0px" y="0px"
	 viewBox="0 0 16 16" style="enable-background:new 0 0 16 16;" xml:space="preserve">
<style type="text/css">
	.st0{fill:#AE64A0;}
</style>
<path class="st0" d="M16,4l-4-4v3c-2,0-3.6,0.5-4.7,1.5C7.2,4.6,7.1,4.7,7,4.7c0.4,0.6,0.8,1.2,1.1,1.8C8.8,5.6,9.9,5,12,5V11
	c-3.3,0-4.1-1.5-5.1-3.4c-0.5-1.1-1.1-2.2-2.1-3c-1.2-1-2.7-1.5-4.7-1.5v2c3.3,0,4.1,1.5,5.1,3.4c0.5,1.1,1.1,2.2,2.1,3
	c1.2,1,2.7,1.5,4.7,1.5v3l4-4l-4-4L16,4z M0.1,11v2c2,0,3.6-0.5,4.7-1.5c0.1-0.1,0.2-0.1,0.2-0.2c-0.4-0.6-0.8-1.2-1-1.8
	C3.3,10.4,2.2,11,0.1,11z"/>
</svg>
