<?xml version="1.0" encoding="utf-8"?>
<!-- Generator: Adobe Illustrator 20.1.0, SVG Export Plug-In . SVG Version: 6.00 Build 0)  -->
<svg version="1.1" id="Ebene_1" xmlns="http://www.w3.org/2000/svg" xmlns:xlink="http://www.w3.org/1999/xlink" x="0px" y="0px"
	 viewBox="0 0 16 16" style="enable-background:new 0 0 16 16;" xml:space="preserve">
<style type="text/css">
	.st0{fill:#D7A173;}
</style>
<path class="st0" d="M5,3.1l10.9-3v11.4c0,1.4-1.5,2.5-3.5,2.5C10.5,14,9,12.9,9,11.5C9,10.1,10.5,9,12.4,9c0.5,0,1,0.1,1.5,0.2V4.2
	L7,6.1v7.4c0,1.4-1.5,2.5-3.5,2.5c-1.9,0-3.5-1.1-3.5-2.5c0-1.4,1.5-2.5,3.5-2.5c0.5,0,1,0.1,1.5,0.2V3.1z"/>
</svg>
