<?xml version="1.0" encoding="utf-8"?>
<!-- Generator: Adobe Illustrator 20.1.0, SVG Export Plug-In . SVG Version: 6.00 Build 0)  -->
<svg version="1.1" id="Ebene_1" xmlns="http://www.w3.org/2000/svg" xmlns:xlink="http://www.w3.org/1999/xlink" x="0px" y="0px"
	 viewBox="0 0 16 16" style="enable-background:new 0 0 16 16;" xml:space="preserve">
<style type="text/css">
	.st0{fill:#4F868D;}
</style>
<path class="st0" d="M14.1,3.1l-2.2-2.2C11.4,0.4,10.4,0,9.7,0H2.3C1.6,0,1.1,0.6,1.1,1.2v13.4c0,0.7,0.6,1.2,1.2,1.2h11.4
	c0.7,0,1.2-0.6,1.2-1.2V5.2C14.9,4.5,14.5,3.6,14.1,3.1z M13.4,3.8c0.1,0,0.1,0.1,0.1,0.2H11V1.4c0.1,0,0.1,0.1,0.2,0.1L13.4,3.8z
	 M13.9,14.6c0,0.1-0.1,0.2-0.2,0.2H2.3c-0.1,0-0.2-0.1-0.2-0.2V1.2C2.1,1.1,2.2,1,2.3,1h7.4C9.8,1,9.9,1,10,1v3.9h3.9
	c0,0.1,0,0.2,0,0.2L13.9,14.6L13.9,14.6z"/>
<path class="st0" d="M4,7.9H12v1H4C4,8.9,4,7.9,4,7.9z"/>
<path class="st0" d="M4,11.9H12v1H4C4,12.9,4,11.9,4,11.9z"/>
<path class="st0" d="M4,9.9H11v1H4V9.9z"/>
<path class="st0" d="M4,5.9h4v1H4V5.9z"/>
</svg>
