<?xml version="1.0" encoding="utf-8"?>
<!-- Generator: Adobe Illustrator 20.1.0, SVG Export Plug-In . SVG Version: 6.00 Build 0)  -->
<svg version="1.1" id="Ebene_1" xmlns="http://www.w3.org/2000/svg" xmlns:xlink="http://www.w3.org/1999/xlink" x="0px" y="0px"
	 viewBox="0 0 16 16" style="enable-background:new 0 0 16 16;" xml:space="preserve">
<style type="text/css">
	.st0{fill:#967867;}
	.st1{font-family:'MyriadPro-Bold';}
	.st2{font-size:8.1118px;}
</style>
<path class="st0" d="M14.1,3.2l-2.2-2.2C11.4,0.4,10.4,0,9.7,0H2.3C1.6,0,1,0.6,1,1.3v13.5C1,15.5,1.6,16,2.3,16h11.5
	c0.7,0,1.2-0.6,1.2-1.2V5.3C15,4.6,14.6,3.6,14.1,3.2z M13.4,3.9c0,0,0.1,0.1,0.1,0.2H11V1.5c0.1,0,0.1,0.1,0.2,0.1L13.4,3.9z
	 M14,14.8c0,0.1-0.1,0.2-0.2,0.2H2.3C2.1,15,2,14.9,2,14.8V1.3C2,1.2,2.1,1,2.3,1h7.5c0.1,0,0.2,0,0.2,0v4h4c0,0.1,0,0.2,0,0.2V14.8
	z"/>
<text transform="matrix(1 0 0 1 2.7227 13.1904)" class="st0 st1 st2">txt</text>
</svg>
