<?xml version="1.0" encoding="utf-8"?>
<!-- Generator: Adobe Illustrator 20.1.0, SVG Export Plug-In . SVG Version: 6.00 Build 0)  -->
<svg version="1.1" id="Ebene_1" xmlns="http://www.w3.org/2000/svg" xmlns:xlink="http://www.w3.org/1999/xlink" x="0px" y="0px"
	 viewBox="0 0 16 16" style="enable-background:new 0 0 16 16;" xml:space="preserve">
<style type="text/css">
	.st0{fill:#DDD176;}
	.st1{fill:#FFFFFF;}
</style>
<g>
	<path class="st0" d="M14,2v13H3.5C2.7,15,2,14.3,2,13.5S2.7,12,3.5,12H13V0H3C1.9,0,1,0.9,1,2v12c0,1.1,0.9,2,2,2h12V2H14z M4,13h9
		v1H4V13z"/>
	<path class="st1" d="M5.5,0h1.4v0.9H5.5V0z M4.1,0.9h1.4v0.9H4.1V0.9z M5.5,1.9h1.4v0.9H5.5V1.9z M4.1,2.8h1.4v0.9H4.1V2.8z
		 M5.5,3.7h1.4v0.9H5.5V3.7z M4.1,4.6h1.4v0.9H4.1V4.6z M5.5,5.5v0.9H4.1v3.2c0,0.3,0.2,0.5,0.5,0.5h1.8c0.3,0,0.5-0.2,0.5-0.5V5.5
		H5.5z M6.4,9.2H4.6V8.3h1.8V9.2z"/>
</g>
</svg>
