<?xml version="1.0" encoding="utf-8"?>
<!-- Generator: Adobe Illustrator 21.0.0, SVG Export Plug-In . SVG Version: 6.00 Build 0)  -->
<svg version="1.1" id="Ebene_1" xmlns="http://www.w3.org/2000/svg" xmlns:xlink="http://www.w3.org/1999/xlink" x="0px" y="0px"
	 viewBox="0 0 16 16" style="enable-background:new 0 0 16 16;" xml:space="preserve">
<style type="text/css">
	.st0{fill:#4D799A;}
</style>
<path class="st0" d="M14.4,3.1l-2.2-2.2C11.7,0.4,10.8,0,10.1,0H2.6C1.9,0,1.3,0.6,1.3,1.2v13.5c0,0.7,0.6,1.2,1.2,1.2H14
	c0.7,0,1.2-0.6,1.2-1.2V5.2C15.3,4.6,14.9,3.6,14.4,3.1z M13.7,3.8c0,0,0.1,0.1,0.1,0.2h-2.6V1.4c0.1,0,0.1,0.1,0.2,0.1L13.7,3.8z
	 M14.3,14.7c0,0.1-0.1,0.2-0.2,0.2H2.6c-0.1,0-0.2-0.1-0.2-0.2V1.2C2.3,1.1,2.4,1,2.6,1h7.5c0.1,0,0.2,0,0.2,0v4h4
	c0,0.1,0,0.2,0,0.2V14.7z"/>
</svg>
