<?xml version="1.0" encoding="utf-8"?>
<!-- Generator: Adobe Illustrator 21.0.2, SVG Export Plug-In . SVG Version: 6.00 Build 0)  -->
<svg version="1.1" id="Ebene_1" xmlns="http://www.w3.org/2000/svg" xmlns:xlink="http://www.w3.org/1999/xlink" x="0px" y="0px"
	 viewBox="0 0 16 16" style="enable-background:new 0 0 16 16;" xml:space="preserve">
<style type="text/css">
	.st0{fill:#34495E;}
</style>
<path class="st0" d="M14.1,7.4H13v-3C13,3.6,12.4,3,11.5,3h-3V1.9c0-1-0.8-1.9-1.9-1.9S4.8,0.8,4.8,1.9V3h-3C1,3,0.4,3.6,0.4,4.5
	v2.8h1.1c1.1,0,2,0.9,2,2s-0.9,2-2,2H0.4v2.8c0,0.8,0.7,1.5,1.5,1.5h2.8v-1.1c0-1.1,0.9-2,2-2s2,0.9,2,2v1.1h2.8
	c0.8,0,1.5-0.7,1.5-1.5v-3h1.1c1,0,1.9-0.8,1.9-1.9S15.2,7.4,14.1,7.4z"/>
</svg>
