<svg id="3476b445-959d-4708-b162-17a20799c6ef" data-name="Ebene 1" xmlns="http://www.w3.org/2000/svg" xmlns:xlink="http://www.w3.org/1999/xlink" width="4.15cm" height="0.88cm" viewBox="0 0 117.65 25">
  <defs>
    <style>
      .be41f1cc-89a2-4678-8da5-3dd5eac26abc {
        fill: none;
      }

      .\31 0761497-4311-49da-bd44-82639e583e89 {
        clip-path: url(#03398085-7d2a-4d36-a75c-b5d198f35bcb);
      }
    </style>
    <clipPath id="03398085-7d2a-4d36-a75c-b5d198f35bcb">
      <rect class="be41f1cc-89a2-4678-8da5-3dd5eac26abc" x="62.04" y="0.16" width="24.82" height="24.82"/>
    </clipPath>
  </defs>
  <title>CC-Lizenz-Icons</title>
  <g class="10761497-4311-49da-bd44-82639e583e89">
    <path d="M74.47,2.6a9.44,9.44,0,0,0-7,2.94A11.64,11.64,0,0,0,66.1,7.17l4.65,2.09A2.86,2.86,0,0,1,71.9,7.72a3.84,3.84,0,0,1,2-.64V5.21h1.41V7.08a5.38,5.38,0,0,1,3,1.13L76.75,9.84a3.6,3.6,0,0,0-2.09-.72,2.28,2.28,0,0,0-1,.22.76.76,0,0,0-.45.74.52.52,0,0,0,.11.3l1.54.7,1.07.48,2,.87,6.24,2.78a11.26,11.26,0,0,0,.3-2.61,9.53,9.53,0,0,0-2.91-7.07,9.52,9.52,0,0,0-7-2.94M65,9.32a9.58,9.58,0,0,0-.54,3.28,9.57,9.57,0,0,0,3,7,9.92,9.92,0,0,0,14.13,0,8.94,8.94,0,0,0,1.67-2.13l-4.59-2a3.14,3.14,0,0,1-1.16,1.88,4,4,0,0,1-2.19.84V20H73.88V18.11a5.65,5.65,0,0,1-3.7-1.46L71.86,15a3.89,3.89,0,0,0,2.72,1.11,2,2,0,0,0,1.08-.28,1,1,0,0,0,.45-.94.93.93,0,0,0-.33-.74l-1.17-.5L73.16,13l-1.93-.85ZM74.42.43A11.77,11.77,0,0,1,83.08,4a11.73,11.73,0,0,1,3.54,8.65,11.48,11.48,0,0,1-3.48,8.55,12,12,0,0,1-8.72,3.63,11.7,11.7,0,0,1-8.57-3.61,11.69,11.69,0,0,1-3.59-8.57A11.94,11.94,0,0,1,65.86,4,11.66,11.66,0,0,1,74.42.43Z"/>
  </g>
  <path d="M43.34,0a12.07,12.07,0,0,1,8.88,3.61,12.08,12.08,0,0,1,3.64,8.88,11.77,11.77,0,0,1-3.57,8.76A12.34,12.34,0,0,1,43.34,25a12.09,12.09,0,0,1-8.79-3.68,12,12,0,0,1-3.68-8.81,12.24,12.24,0,0,1,3.68-8.88A12,12,0,0,1,43.34,0Zm0,2.25a9.72,9.72,0,0,0-7.2,3,10,10,0,0,0-3.06,7.25,9.81,9.81,0,0,0,3,7.18,9.87,9.87,0,0,0,7.23,3,10,10,0,0,0,7.27-3.06A9.51,9.51,0,0,0,53.6,12.5a9.87,9.87,0,0,0-3-7.25,9.84,9.84,0,0,0-7.23-3ZM46.73,9.4v5.11H45.3v6.07H41.42V14.51H40V9.4a.8.8,0,0,1,.8-.8h5.13a.79.79,0,0,1,.56.23.76.76,0,0,1,.25.57ZM41.62,6.19a1.74,1.74,0,1,1,3.48,0,1.54,1.54,0,0,1-1.74,1.74,1.54,1.54,0,0,1-1.74-1.74Z"/>
  <path d="M105.14,0A12.08,12.08,0,0,1,114,3.65a12,12,0,0,1,3.64,8.85,11.89,11.89,0,0,1-3.57,8.79,12.33,12.33,0,0,1-8.94,3.7,12.09,12.09,0,0,1-8.79-3.68,12,12,0,0,1-3.68-8.81,12.22,12.22,0,0,1,3.68-8.85A12,12,0,0,1,105.14,0Zm0,2.25a9.69,9.69,0,0,0-7.2,3,10,10,0,0,0-3.06,7.23,9.77,9.77,0,0,0,3,7.18,9.87,9.87,0,0,0,7.23,3,10,10,0,0,0,7.27-3.06,9.56,9.56,0,0,0,2.94-7.16,9.75,9.75,0,0,0-3-7.23,9.76,9.76,0,0,0-7.23-3Zm-5.58,8.47a5.58,5.58,0,0,1,1.85-3.56,5.45,5.45,0,0,1,3.64-1.26,6,6,0,0,1,4.68,1.9,6.91,6.91,0,0,1,1.74,4.86,6.68,6.68,0,0,1-1.81,4.78A6.16,6.16,0,0,1,105,19.37a5.56,5.56,0,0,1-3.66-1.27,5.4,5.4,0,0,1-1.85-3.61h3.14q.11,2.27,2.74,2.27a2.48,2.48,0,0,0,2.12-1.14,5.16,5.16,0,0,0,.8-3,5.2,5.2,0,0,0-.74-3,2.44,2.44,0,0,0-2.12-1q-2.5,0-2.81,2.21h.91l-2.48,2.48-2.48-2.48Z"/>
  <path d="M12.47,0a12.19,12.19,0,0,1,8.92,3.66,12,12,0,0,1,2.68,4A12.71,12.71,0,0,1,25,12.5a12.74,12.74,0,0,1-.9,4.81,11.46,11.46,0,0,1-2.67,4A12.83,12.83,0,0,1,17.26,24a12.43,12.43,0,0,1-4.79,1A12.14,12.14,0,0,1,7.73,24,12.55,12.55,0,0,1,3.67,21.3a12.44,12.44,0,0,1-2.73-4,12.47,12.47,0,0,1,0-9.51A12.53,12.53,0,0,1,3.7,3.65,11.8,11.8,0,0,1,12.47,0Zm0,2.25a9.68,9.68,0,0,0-7.2,3A10.74,10.74,0,0,0,3,8.61a9.91,9.91,0,0,0,0,7.76,10.57,10.57,0,0,0,5.59,5.55,10.13,10.13,0,0,0,7.77,0,10.77,10.77,0,0,0,3.4-2.25,9.6,9.6,0,0,0,2.92-7.16A10.26,10.26,0,0,0,22,8.57a10,10,0,0,0-2.21-3.3,9.88,9.88,0,0,0-7.25-3Zm-.16,8.16-1.67.87a1.71,1.71,0,0,0-.66-.78,1.48,1.48,0,0,0-.72-.22q-1.67,0-1.67,2.21a2.74,2.74,0,0,0,.42,1.61,1.43,1.43,0,0,0,1.25.6,1.56,1.56,0,0,0,1.54-1.07l1.54.78a3.68,3.68,0,0,1-3.28,2,3.65,3.65,0,0,1-2.7-1,3.86,3.86,0,0,1-1-2.85,3.85,3.85,0,0,1,1-2.83A3.53,3.53,0,0,1,9,8.62a3.5,3.5,0,0,1,3.32,1.81Zm7.2,0-1.65.87a1.71,1.71,0,0,0-.66-.78,1.51,1.51,0,0,0-.75-.22q-1.67,0-1.67,2.21a2.74,2.74,0,0,0,.42,1.61,1.43,1.43,0,0,0,1.25.6A1.56,1.56,0,0,0,18,13.64l1.56.78a3.83,3.83,0,0,1-1.38,1.44,3.6,3.6,0,0,1-1.9.52,3.64,3.64,0,0,1-2.71-1,3.88,3.88,0,0,1-1-2.85,3.85,3.85,0,0,1,1-2.83,3.53,3.53,0,0,1,2.62-1,3.45,3.45,0,0,1,3.3,1.81Z"/>
</svg>
