<svg xmlns="http://www.w3.org/2000/svg" xmlns:xlink="http://www.w3.org/1999/xlink" width="196.44mm" height="62.26mm" viewBox="0 0 556.83 176.49">
  <defs>
    <style>
      .\38 82ac7d6-54dc-47fe-8d26-22d611762f37 {
        fill: none;
      }

      .\31 a48aba4-3eb2-4cc6-9d3a-309b3ee2f23a {
        clip-path: url(#71d1d188-cc8c-4095-9454-a281fdc27e3e);
      }

      .\39 578c6e2-d79f-4b88-9525-e9620aea03bd {
        fill: #e40521;
      }

      .d7945ad2-7e74-416a-a198-a8ff91f3c8a1 {
        fill: #1d1d1b;
      }

      .daf018a4-28ec-48f6-80e9-39967b283f5a {
        fill: #fff;
      }

      .\35 e49edc7-b840-492b-9fd0-d5aeeef1b95d {
        clip-path: url(#bda661a7-6147-4cb3-9973-4f15514de7b4);
      }
    </style>
    <clipPath id="71d1d188-cc8c-4095-9454-a281fdc27e3e" transform="translate(0 0)">
      <rect class="882ac7d6-54dc-47fe-8d26-22d611762f37" width="556.83" height="176.69"/>
    </clipPath>
    <clipPath id="bda661a7-6147-4cb3-9973-4f15514de7b4" transform="translate(0 0)">
      <rect class="882ac7d6-54dc-47fe-8d26-22d611762f37" x="289.3" y="111.84" width="267.53" height="64.85"/>
    </clipPath>
  </defs>
  <title>Element 2</title>
  <g id="23d27887-11b0-4bc1-9aa5-269e512f2a55" data-name="Ebene 2">
    <g id="1f9696c6-bb35-4bc1-97b2-46e6fcd66b38" data-name="Ebene 1">
      <g class="1a48aba4-3eb2-4cc6-9d3a-309b3ee2f23a">
        <path class="9578c6e2-d79f-4b88-9525-e9620aea03bd" d="M35.65.72a58.42,58.42,0,0,0,7.45.89.8.8,0,0,0,.63.18,22.56,22.56,0,0,1,2.5.4c.09.49.71.27,1.12.4a2.21,2.21,0,0,1,.94,0l-.09.13a16.94,16.94,0,0,0,2.54.8c1.61.4,3,1,4.64,1.38a9.14,9.14,0,0,0,1.83.49c.27,0,.45.31.71.22a62.89,62.89,0,0,1,12.9,5.76c.31,0,.45.4.58.58s0,.4-.18.54,0,.4-.31.36c-.09.45-.49-.13-.58.31a.59.59,0,0,0-.45-.13.45.45,0,0,1-.58.18c-.76-.4-1.61-.71-2.36-1.07-.94-.4-1.83-.8-2.77-1.12-.18,0-.13-.36-.31-.18-.58-.45-1.29-.45-1.87-.8a14.16,14.16,0,0,0-1.47-.45A7.78,7.78,0,0,1,58.81,9,13,13,0,0,1,57,8.71c0,.13-.09,0-.18,0-1-.09-2-.13-2.94-.22-.45.22-.85.09-1.25.22-.8-.22-1.65,0-2.41-.22a22.31,22.31,0,0,1-3.08-.31,6,6,0,0,1-1.25-.09,11.33,11.33,0,0,1-2.14-.85c-.71-.31-1.52-.4-2.23-.76-.31,0-.45-.31-.76-.27-.49-.27-1.12-.4-1.61-.71-.71-.31-1.56-.4-2.27-.76a1.62,1.62,0,0,1-.8-.13c-.13-.13-.36,0-.49-.09a17.74,17.74,0,0,1-2.32-.85c-.94-.36-1.74-1.07-2.86-1.07A1.87,1.87,0,0,1,29.5.72c-.09-.36.45-.45.63-.71,2-.09,3.66.54,5.53.71" transform="translate(0 0)"/>
        <path class="9578c6e2-d79f-4b88-9525-e9620aea03bd" d="M36.5,11.74c0,.13-.22.18-.09.31s.4,0,.58,0c.31.18.76-.13.94.27-.13,0,0,.13,0,.18s.13,0,.22,0-.13.09,0,.18c.45.22.27-.54.71-.31,0,0,.09,0,0-.09s-.27,0-.36,0-.09,0-.09-.13a4.94,4.94,0,0,1,1.61.36c.09,0,.13-.09.22,0l0,.09c.31.13.89-.09,1,.36.45.18,1,.13,1.38.45.31,0,.54.31.85.27,0,.27.45,0,.58.22a.33.33,0,0,1,.27.09s-.09,0-.09.09l.49.09c-.13.18-.27.09-.49,0s-.54-.18-.85-.31-.49-.27-.67-.13c.36.36,1,.31,1.47.54a4.37,4.37,0,0,0,1,.36c0,.22.22,0,.36.13.36,0,.58.31.94.31,1.16.49,2.37.89,3.48,1.47.4,0,.58.36,1,.49a17.34,17.34,0,0,1,1.61.71,2.56,2.56,0,0,0,.76.54s-.18.18-.27.09v0l0,0c-.22,0-.45-.31-.67-.22.09-.13-.13-.13-.18-.18a2.49,2.49,0,0,1-.94-.4c-.13-.13-.36-.09-.49-.13.18.36.58.18.8.49.54.18,1,.54,1.52.71.18.36.54,0,.71.27.27-.13.4.31.71.27l.4.13,0,.13h.4c-.18.13-.31,0-.49,0-.18-.22-.45-.18-.67-.27-.09.22.18.22.27.36.31,0,.67.45.94,0a3.58,3.58,0,0,0,1.16.13c.13,0,0,.18,0,.27a2.8,2.8,0,0,0-1.21-.27c0,.13.13.13.18.22a5.58,5.58,0,0,0,.85.09c.27.09.58.31.85.27,0,0,0,0,0,0s.09,0,.13-.09c-.18-.13-.54-.27-.62-.54l.13,0a.21.21,0,0,0-.27-.09c.13-.18.4,0,.58,0,0,.18.22.09.36.13.36-.45.63.31.89.4a.93.93,0,0,0-.18-.45c-.22,0-.31-.4-.58-.36a.08.08,0,0,1,0-.13c.22-.13.31.18.49.22a1.35,1.35,0,0,1,.54,1.2c-.18.18-.09.36-.27.58a4.1,4.1,0,0,1-1,.76c-.13-.18.22-.22.09-.4s-.62.18-.8-.31c-.67-.22-1.43-.4-2.1-.67a.88.88,0,0,0-.67-.49c-.27.22-.49-.22-.8-.18-.18-.36-.71-.22-.8-.49.13-.09.18.13.31.13s0-.09,0-.13,0,.22.18.27.36-.18.63-.18a7.66,7.66,0,0,0,2,.58l0-.09L54,19.46c-.22.22-.18-.13-.36-.13-.36-.09-.71-.27-1-.31-.09.22-.18,0-.36.09s-.4-.18-.54,0l.09.13a.71.71,0,0,1-.31,0s-.09-.13-.18-.13c.09.18-.13,0-.18.18l.13-.18c0-.18-.36-.09-.27-.22a.86.86,0,0,0,.58,0c-.09-.13-.31-.18-.45-.27s-.49-.27-.62-.18-.49-.22-.67-.31l.09-.09c-.09,0-.09-.13-.18-.09s-.18,0-.31,0h-.31s0-.09,0-.13-.13,0-.18,0h0l0,0a.16.16,0,0,0,0-.09.2.2,0,0,0-.22,0c-.09-.18.45-.27,0-.36l-.22.09.09-.13c-.22-.13-.54,0-.76-.22l0,0c.36,0,.8.22,1-.22-.18,0-.22.09-.36,0-.36.22-.71,0-1.07,0l0-.13c-.13.22-.31-.22-.45,0-.18,0-.4-.18-.62-.18v-.09a5.69,5.69,0,0,1-1.47-.49c-.18-.13-.54,0-.54-.27-.27.18-.31-.18-.58-.22,0-.09,0,0,.09-.09s0,0,0,0,0-.09-.09-.13c-.13.18-.4.13-.58.09l-1.7-.54a1.77,1.77,0,0,0,.67-.27c-.13,0-.27-.13-.4,0s-.31.09-.4.18c-.49.09-.76-.31-1.25-.27-.49-.18-1-.22-1.47-.4a3.35,3.35,0,0,0-.67,0c-.18,0-.4-.18-.58,0-.36.09-.27-.4-.62-.13-.09-.18-.27,0-.4-.18,0,.09-.13,0-.18,0s0,0,.09,0,.09,0,.09,0-.09-.09-.13-.09-.27.13-.36,0-.27.13-.45,0c0-.4-.45,0-.62-.18-.58-.27-1.38-.18-1.78-.8.09-.18-.09-.4,0-.62.31.09.31-.22.53-.27.94,0,1.83.27,2.86.18" transform="translate(0 0)"/>
      </g>
      <rect class="9578c6e2-d79f-4b88-9525-e9620aea03bd" x="37.53" y="11.79" width="0.04" height="0.04"/>
      <polygon class="9578c6e2-d79f-4b88-9525-e9620aea03bd" points="33.29 12.06 33.2 11.97 33.29 11.97 33.29 12.06"/>
      <path class="9578c6e2-d79f-4b88-9525-e9620aea03bd" d="M38.29,12h0Z" transform="translate(0 0)"/>
      <g class="1a48aba4-3eb2-4cc6-9d3a-309b3ee2f23a">
        <path class="9578c6e2-d79f-4b88-9525-e9620aea03bd" d="M33.24,12.15s0,0,0,0h0V12.1a0,0,0,0,1,0,0" transform="translate(0 0)"/>
        <path class="9578c6e2-d79f-4b88-9525-e9620aea03bd" d="M73.63,12.46c.22,0,.49-.09.67,0,.13.45.67.8.89,1.29a72.53,72.53,0,0,1,6,10v0c.45.8.85,1.61,1.29,2.41-.09.09.18.18.09.27.36.54.58,1.16.89,1.7-.09.36.27.58.27.94l.13.13,0-.09,0,.09-.09.09c.22.49.49.85.76,1.34l0-.09c0,.09,0,.09,0,.18.54,1.07,1.16,2.19,1.74,3.26.22.13-.13.31,0,.45.67.67.54,1.61,1.29,2.23-.13.18.13.09.13.22.67,1.65,1.65,3.12,2.32,4.77,0,.13.31.13.13.31,0,.31.54.36.4.76.27,0,.36.4.45.58,0,0-.09,0-.13,0a.39.39,0,0,0,.18.31l0,0c.13.09.18.31.27.45-.09,0-.09,0-.13-.09a1.45,1.45,0,0,0,.18.58c.18-.13,0-.22,0-.36s0,.18.13.22,0,.13,0,.18h.18a7.79,7.79,0,0,0,.4.89c.36.8,1,1.65,1.29,2.5.31.49.58,1.16.85,1.7s.4.89.58,1.34c-.22-.18-.18-.54-.45-.76.09-.13-.18-.18-.09-.31-.36-.22-.31-.67-.53-.94.09-.18-.22-.4-.22-.54h-.09c0-.22-.13-.36-.13-.49s-.13-.18-.09-.22-.27-.31-.22-.49a.15.15,0,0,0-.09,0c-.13.22.13.45.13.67A15.88,15.88,0,0,1,94,49.67c.22.13.18.45.36.67s.18.67.45.94c0,.27.18.54.22.8.36.27.13.58.36.85,0,.36.4.63.4.94,0,.09.22.13.13.22A19.48,19.48,0,0,0,97,56.23l.18.22,0,0c.27.31.4.71.62,1l.22.31c0,.13.22.31.18.49s.49.36.54.67c.13-.22-.27-.36-.13-.58-.31-.18-.09-.45-.4-.54a1.06,1.06,0,0,0-.22-.45c0-.09-.13-.22-.13-.36s-.53-.13-.27-.4a3.76,3.76,0,0,0-.8-1.21c0-.18-.13-.45-.18-.62-.18-.36-.45-.85-.62-1.2.13-.13-.13-.22,0-.31a2,2,0,0,0-.36-.62c.09-.13-.18-.18-.09-.31-.18-.13-.09-.31-.22-.45.09-.13-.22-.18-.09-.31,0-.09-.18-.22-.18-.31s.09,0,.13,0a3.11,3.11,0,0,0,.36.89,32.55,32.55,0,0,0,2.72,5.22,4.27,4.27,0,0,0,.58,1.07l0,.09c.36.4.62,1,1.07,1.25.27.31.31.58.63.85,0,.22.31.22.36.49s.58.4.8.71c.71.54,1.21,1.56,2.14,1.61a.64.64,0,0,0,.49.13,14.39,14.39,0,0,0,1.78.67c1.16.18,2.23-.27,3.26,0,.67,0,1.56,0,2.23,0,.27,0,.58.09.8-.09,0,.13.18.09.31.09s.27.13.36,0c.18.18.4-.09.54,0,.36,0,.76-.27,1,.09.4,0,.67-.27,1.12-.18s1.12-.4,1.7-.09c0-.09.09-.09.13-.09.22.22.45,0,.62.09.76,0,1.52-.09,2.28-.13a.92.92,0,0,0,.58.13,5,5,0,0,0,.8-.13c.18.22.31-.18.45,0l1.34-.13a22.35,22.35,0,0,1,2.5-.4,2.25,2.25,0,0,0,.76-.13,15.79,15.79,0,0,1,2.5,0c1.21.13,2.46-.31,3.57.13a8,8,0,0,0,1.83.18c-.22,0-.18.45-.49.27,0,.09-.18.09-.13.22.31,0,.71-.13,1-.09a6.55,6.55,0,0,1,1.34.09l0-.09a1,1,0,0,0,.8.13c1.07.13,2.14.31,3.26.45.45.13,1.11.22,1.29.76l.18.22a1.65,1.65,0,0,0,.09.4c.13.27.18.54.31.85,0,.09,0,.13,0,.27.22.18,0,.4.13.58s0,.45.13.63c0,.45.09,1-.31,1.38.09.49-.31.71-.49,1.11-.4.18-.8-.13-1.07.27a.3.3,0,0,0-.4.22.16.16,0,0,1-.13,0c-.09-.09.13-.13,0-.27s0-.54.09-.67.09-.45,0-.58c0-.09.09-.13.09-.22s0-.45-.27-.58a1.11,1.11,0,0,0-.09-.76c0-.18.22-.45,0-.62a1,1,0,0,0-.45-.67c-.22,0-.36-.09-.54-.09s-.09-.31-.31-.31c-.85-.18-1.52.58-2.32.22,0-.13-.09.09-.18,0a6.2,6.2,0,0,0-1.65-.22c-1.16.45-2.14-.49-3.26-.4,0,0,.13.09.09.18-.27,0-.58.22-.8,0-.13.09-.18.22-.36.18s-.09-.13-.13-.09-.09-.09-.22,0a3.8,3.8,0,0,0-1.43-.09,3.27,3.27,0,0,0-1.47.09c-.49-.13-1,.18-1.43.31a5.44,5.44,0,0,0-1.92.36c-.31-.09-.49.18-.8.18a11,11,0,0,1-2.1,0,7.45,7.45,0,0,1-2.63.18c-.18,0-.36,0-.49,0a7.63,7.63,0,0,0-1.74.13.91.91,0,0,0-.76.13c-.49,0-.76.13-1.29.13-.22-.22-.18.18-.4.18s-.4-.13-.58,0l0,0c-.13.36-.49,0-.62.36-.13,0-.27,0-.36,0l0,0c-.31.13-.71,0-1,.09,0-.13-.09.09-.18,0-.62-.09-1.12.09-1.74,0-.22.18-.49-.13-.76,0,0-.13-.09.09-.18,0a6.41,6.41,0,0,0-1.29.13c-.31,0-.53.22-.8.22-.36-.18-.71.18-1.07,0-.18.09-.27,0-.45-.09a.19.19,0,0,0-.31,0c-.18-.18-.45-.18-.58-.4-.09,0-.18,0-.27,0s-.22-.18-.13-.31c-.31,0-.49-.13-.71-.22a3.57,3.57,0,0,0-1-.45,1.34,1.34,0,0,1-1-.36c.13-.13.22.09.36,0l-.22-.22h0c-.27-.18-.22-.54-.4-.67A8.05,8.05,0,0,1,99.37,65c.09-.18-.22-.22-.22-.36L99,64.4c0-.09-.13-.18-.13-.27L98.53,64c0-.13-.13-.31,0-.45s0-.13-.09-.13l0,0c-.27-.18-.4-.54-.67-.71a.27.27,0,0,0-.31-.13c-.27-.49-.89-.76-1.2-1.16a.56.56,0,0,1-.71.13c-.31-.27-.4-.71-.76-.94-.09-.31-.49-.54-.58-.85a4.26,4.26,0,0,0-1.16-1c0-.22-.31-.36-.4-.58s0-.36-.22-.49c0-.18-.22-.22-.18-.4-.53-.54-.31-1.12-.8-1.65-.22-.62-.49-1.21-.67-1.74-.09-.36-.4-.67-.49-1A.86.86,0,0,1,90,52.4c0-.18-.36-.22-.18-.45s-.31-.31-.18-.58c-.13-.4-.49-.76-.53-1.16-.31-.4-.18-.8-.54-1.21,0-.09,0-.18,0-.22-.18,0-.09-.22-.22-.31.18-.22-.18-.49-.18-.71-.27-.09-.13-.27-.36-.4.31-.27-.22-.49-.13-.76-.31-.22-.13-.45-.4-.67.09-.13-.27-.22-.09-.36s-.13-.13,0-.18l-.36-.4c.18-.27-.4-.36-.18-.67-.13-.13-.13-.45-.4-.54,0,0,0-.13,0-.22-.27-.27-.22-.58-.54-.85,0-.13-.18-.27-.22-.4s-.13-.13,0-.22c-.31-.13-.09-.45-.4-.58a2.39,2.39,0,0,0-.45-.8c0-.13-.18-.27-.13-.4-.27-.4-.54-.85-.76-1.25,0-.18-.18-.36-.18-.49A14.41,14.41,0,0,0,82.6,37c.13-.09-.18-.13,0-.22s-.31-.31-.27-.49a15.76,15.76,0,0,1-.94-1.74c-.45-1.16-1-2.14-1.38-3.3-.4-.22,0-.62-.45-.8a36.7,36.7,0,0,0-2.36-5A7.65,7.65,0,0,1,76.26,24h0c-.22-.18-.27-.54-.49-.76.22-.27-.27-.36-.27-.58h0a8.66,8.66,0,0,1-.71-1.2,12.67,12.67,0,0,0-1.52-1.87,2.26,2.26,0,0,0-1.92-1.07c-.36-.09-.22-.54-.58-.4a1.88,1.88,0,0,1-.31-1.2,1.35,1.35,0,0,1,.09-.94c0-.58.45-1,.49-1.47.09-.31.54-.49.4-.8.45-.13.31-.67.62-.85,0,0-.09.13,0,.18a1.06,1.06,0,0,1,.54-.62c.36,0,.63.36.94.09" transform="translate(0 0)"/>
        <path class="9578c6e2-d79f-4b88-9525-e9620aea03bd" d="M38.87,12.55s-.09,0-.13,0,.09-.09.13,0" transform="translate(0 0)"/>
        <path class="9578c6e2-d79f-4b88-9525-e9620aea03bd" d="M40.29,13a3.91,3.91,0,0,1-1.56-.22c0-.09-.18,0-.27,0a.84.84,0,0,1,.71.09,8.4,8.4,0,0,1,1.12.18" transform="translate(0 0)"/>
      </g>
      <rect class="9578c6e2-d79f-4b88-9525-e9620aea03bd" x="40.92" y="12.77" width="0.04" height="0.04"/>
      <g class="1a48aba4-3eb2-4cc6-9d3a-309b3ee2f23a">
        <path class="9578c6e2-d79f-4b88-9525-e9620aea03bd" d="M40.83,13s-.13,0-.22,0,.18,0,.22,0" transform="translate(0 0)"/>
        <path class="9578c6e2-d79f-4b88-9525-e9620aea03bd" d="M41.68,13.31l.18.09c-.45.22-.94-.13-1.38-.27.49-.13.76.27,1.21.18" transform="translate(0 0)"/>
        <path class="9578c6e2-d79f-4b88-9525-e9620aea03bd" d="M42.61,13.71c-.18.13-.31-.09-.54,0v-.13c.18,0,.36.13.54.18" transform="translate(0 0)"/>
      </g>
      <rect class="9578c6e2-d79f-4b88-9525-e9620aea03bd" x="41.77" y="13.53" width="0.04" height="0.04"/>
      <g class="1a48aba4-3eb2-4cc6-9d3a-309b3ee2f23a">
        <path class="9578c6e2-d79f-4b88-9525-e9620aea03bd" d="M45.74,14.64c.27-.18.45.22.71.09l.09.09c-.18,0-.4.18-.49,0-.09,0-.18.13-.27,0l.13,0c-.13-.13-.49,0-.62-.22H45a.27.27,0,0,0,0-.18,1.06,1.06,0,0,1,.71.31" transform="translate(0 0)"/>
        <path class="9578c6e2-d79f-4b88-9525-e9620aea03bd" d="M43.91,14.87c0,.13-.27,0-.36.18a.34.34,0,0,0-.09-.18c-.09,0-.09,0-.13,0l.09.13a.34.34,0,0,1-.22,0c0-.09.09-.13,0-.22.27,0,.45.18.71.09" transform="translate(0 0)"/>
        <path class="9578c6e2-d79f-4b88-9525-e9620aea03bd" d="M47.75,15.31c-.27.22-.36-.27-.62-.09a2.55,2.55,0,0,0-.54-.18c.18-.22.4,0,.67,0s.27.27.49.27" transform="translate(0 0)"/>
        <path class="9578c6e2-d79f-4b88-9525-e9620aea03bd" d="M44,15.31a.14.14,0,0,0-.09,0,.09.09,0,0,1,.13-.09Z" transform="translate(0 0)"/>
        <path class="9578c6e2-d79f-4b88-9525-e9620aea03bd" d="M48,15.27c0,.09-.18,0-.18,0Z" transform="translate(0 0)"/>
      </g>
      <rect class="9578c6e2-d79f-4b88-9525-e9620aea03bd" x="44.18" y="15.27" width="0.05" height="0.04"/>
      <rect class="9578c6e2-d79f-4b88-9525-e9620aea03bd" x="44.62" y="15.4" width="0.09" height="0.13"/>
      <g class="1a48aba4-3eb2-4cc6-9d3a-309b3ee2f23a">
        <path class="9578c6e2-d79f-4b88-9525-e9620aea03bd" d="M48.37,15.58c-.18,0-.31,0-.4-.13a.25.25,0,0,1,.4.13" transform="translate(0 0)"/>
        <path class="9578c6e2-d79f-4b88-9525-e9620aea03bd" d="M45.47,15.67l-.18,0v-.09c.09,0,.09.09.18.13" transform="translate(0 0)"/>
        <path class="9578c6e2-d79f-4b88-9525-e9620aea03bd" d="M48.73,15.58a.15.15,0,0,0,0,.09c0,.09-.18,0-.22,0s.09-.09.18-.09" transform="translate(0 0)"/>
        <path class="9578c6e2-d79f-4b88-9525-e9620aea03bd" d="M45.92,15.85c.09,0,.22,0,.31,0l-.18.09c.13,0,.22.22.4.13v.13c-.09,0-.27.09-.22-.09s-.4,0-.45-.22H45.6v-.22l.31.09Z" transform="translate(0 0)"/>
        <path class="9578c6e2-d79f-4b88-9525-e9620aea03bd" d="M49.53,15.94c-.18.13-.36,0-.49-.13v0c.13.09.36,0,.49.18" transform="translate(0 0)"/>
        <path class="9578c6e2-d79f-4b88-9525-e9620aea03bd" d="M50,16.12h0l0,0s0,0,.09,0" transform="translate(0 0)"/>
        <path class="9578c6e2-d79f-4b88-9525-e9620aea03bd" d="M50.47,16.34a2.48,2.48,0,0,1,.67.45l-.22.09c.13-.27-.36-.13-.49-.31-.18-.4-.58,0-.8-.36l0-.09c.27.31.62-.13.89.22" transform="translate(0 0)"/>
        <path class="9578c6e2-d79f-4b88-9525-e9620aea03bd" d="M47.79,16.65l-.18,0v0s.13,0,.18,0" transform="translate(0 0)"/>
      </g>
      <rect class="9578c6e2-d79f-4b88-9525-e9620aea03bd" x="47.97" y="16.7" width="0.05" height="0.04"/>
      <g class="1a48aba4-3eb2-4cc6-9d3a-309b3ee2f23a">
        <path class="9578c6e2-d79f-4b88-9525-e9620aea03bd" d="M52.25,17.28c0,.09-.13,0-.18,0a1.78,1.78,0,0,0-.8-.31l0-.13c.31.27.76,0,.94.4" transform="translate(0 0)"/>
        <path class="9578c6e2-d79f-4b88-9525-e9620aea03bd" d="M49.17,17.23c0,.22-.18-.13-.36,0v-.09c.13,0,.31,0,.36.09" transform="translate(0 0)"/>
        <path class="9578c6e2-d79f-4b88-9525-e9620aea03bd" d="M50.73,17.32s0,0-.09,0,.09,0,.09,0" transform="translate(0 0)"/>
      </g>
      <polygon class="9578c6e2-d79f-4b88-9525-e9620aea03bd" points="52.52 17.46 52.52 17.37 52.65 17.37 52.52 17.46"/>
      <g class="1a48aba4-3eb2-4cc6-9d3a-309b3ee2f23a">
        <path class="9578c6e2-d79f-4b88-9525-e9620aea03bd" d="M49.13,17.55h-.27c.09-.13.22-.13.27,0" transform="translate(0 0)"/>
      </g>
      <polygon class="9578c6e2-d79f-4b88-9525-e9620aea03bd" points="50.24 17.55 50.2 17.46 50.24 17.46 50.24 17.55"/>
      <rect class="9578c6e2-d79f-4b88-9525-e9620aea03bd" x="52.39" y="17.41" width="0.05" height="0.04"/>
      <polygon class="9578c6e2-d79f-4b88-9525-e9620aea03bd" points="50.51 17.64 50.47 17.59 50.51 17.59 50.51 17.64"/>
      <g class="1a48aba4-3eb2-4cc6-9d3a-309b3ee2f23a">
        <path class="9578c6e2-d79f-4b88-9525-e9620aea03bd" d="M53.46,17.77c-.09,0-.27,0-.27-.13s.27,0,.27.13" transform="translate(0 0)"/>
        <path class="9578c6e2-d79f-4b88-9525-e9620aea03bd" d="M51.4,18c-.18.13-.36-.09-.49-.13l-.13-.13c.22,0,.4.22.63.27" transform="translate(0 0)"/>
        <path class="9578c6e2-d79f-4b88-9525-e9620aea03bd" d="M53.77,17.86c0,.09-.09.09-.13.09s.09-.13.13-.09" transform="translate(0 0)"/>
        <path class="9578c6e2-d79f-4b88-9525-e9620aea03bd" d="M53,17.95s0,0,0,.09l0,0s-.13,0,0-.13Z" transform="translate(0 0)"/>
      </g>
      <rect class="9578c6e2-d79f-4b88-9525-e9620aea03bd" x="53.41" y="17.9" width="0.04" height="0.04"/>
      <rect class="9578c6e2-d79f-4b88-9525-e9620aea03bd" x="53.9" y="17.9" width="0.05" height="0.04"/>
      <rect class="9578c6e2-d79f-4b88-9525-e9620aea03bd" x="53.99" y="17.95" width="0.04" height="0.04"/>
      <g class="1a48aba4-3eb2-4cc6-9d3a-309b3ee2f23a">
        <path class="9578c6e2-d79f-4b88-9525-e9620aea03bd" d="M52.12,18.35c-.09,0-.13-.13-.22,0l-.36-.27,0,0c.09.22.45.18.53.31" transform="translate(0 0)"/>
        <path class="9578c6e2-d79f-4b88-9525-e9620aea03bd" d="M54.44,18.13c0,.09,0,.22-.13.22l0,0a.08.08,0,0,0,0-.13c.09,0,.09-.09.18,0" transform="translate(0 0)"/>
      </g>
      <path class="9578c6e2-d79f-4b88-9525-e9620aea03bd" d="M54.08,18.17h0Z" transform="translate(0 0)"/>
      <g class="1a48aba4-3eb2-4cc6-9d3a-309b3ee2f23a">
        <path class="9578c6e2-d79f-4b88-9525-e9620aea03bd" d="M54.71,18.26c0,.09-.13.09-.09,0Z" transform="translate(0 0)"/>
        <path class="9578c6e2-d79f-4b88-9525-e9620aea03bd" d="M49.66,18.53v0a.27.27,0,0,1-.31-.13c.09.09.22,0,.31.09" transform="translate(0 0)"/>
        <path class="9578c6e2-d79f-4b88-9525-e9620aea03bd" d="M51.76,18.62v0l-.49,0c0-.22.27-.09.4-.09a.09.09,0,0,0,.09.09" transform="translate(0 0)"/>
        <path class="9578c6e2-d79f-4b88-9525-e9620aea03bd" d="M53.81,19l.18.13c-.36.22-.58-.22-.94-.13-.31-.09-.36-.4-.67-.4l-.09-.13c.58,0,.89.58,1.52.54" transform="translate(0 0)"/>
      </g>
      <polygon class="9578c6e2-d79f-4b88-9525-e9620aea03bd" points="53.99 18.57 53.9 18.48 53.99 18.53 53.99 18.57"/>
      <g class="1a48aba4-3eb2-4cc6-9d3a-309b3ee2f23a">
        <path class="9578c6e2-d79f-4b88-9525-e9620aea03bd" d="M52.07,18.75h-.22c0-.13.18-.13.22-.09Z" transform="translate(0 0)"/>
        <path class="9578c6e2-d79f-4b88-9525-e9620aea03bd" d="M55.87,18.66c0,.09,0,0-.09.09h0s0-.13.13-.09" transform="translate(0 0)"/>
        <path class="9578c6e2-d79f-4b88-9525-e9620aea03bd" d="M52.39,18.8h-.13v0s.13,0,.13,0" transform="translate(0 0)"/>
        <path class="9578c6e2-d79f-4b88-9525-e9620aea03bd" d="M50.87,18.84h-.18l0-.09s.09.09.13.09" transform="translate(0 0)"/>
        <path class="9578c6e2-d79f-4b88-9525-e9620aea03bd" d="M44,18.88c-.22.13,0,.22,0,.36.54,0,.94.45,1.43.58l.22.22a1.56,1.56,0,0,1-.58-.22c-.31.22-.67-.27-1-.22-.09,0-.18,0-.27.13.27.22.54.71.94.76a25.53,25.53,0,0,1,3.12,1.92,1.23,1.23,0,0,1,.4,0l-.13.13s.13.09,0,.18c-.18-.13-.49-.18-.71-.36,0,0,0-.13,0-.13a2.07,2.07,0,0,1-.8-.45c-.45-.09-.76-.54-1.2-.49.09.4.67.13.67.49.31.13.63.49,1,.58a6.65,6.65,0,0,0,1.87,1.16l.09,0c-.18-.22-.45-.22-.62-.4,0-.09.09.09.09,0s-.18-.18-.27-.22c.22-.22.45.27.8.09l.18.13s-.13,0-.18,0a.4.4,0,0,0,.58.13v0c0,.13.22.22.31.36.09-.22.27,0,.45,0,.13.18.4.18.58.4-.13,0-.18-.18-.31-.09l-.09.09c.13.18.36.36.54.31h.09l-.09.09c.62.45,1.25,1,1.87,1.43l-.13.13c-.18,0-.13-.27-.31-.18s-.09.22.09.31l.31.09,0-.13.31.31a0,0,0,0,0,0,0c-.13,0-.09-.22-.27-.13a1.6,1.6,0,0,0,1.16.71c.09-.09.27.09.4,0l-.13-.18s.09.09.18.13-.13,0-.09.13l0,0,.13-.09c0,.18.4.27.18.49s.22.09.13.27.13.13.22.27a1.22,1.22,0,0,0,.36-.45c.09,0-.18.13,0,.22,0-.13.18-.27.09-.36l0,0c-.13-.09.09-.13,0-.27.09.13.36.18.45.4.13,0-.13-.22.09-.22.09.27-.27.45-.36.71.13,0,0,.18,0,.22s-.18-.13-.22,0,0,.22.09.27c-.27.18-.09.67-.13.89a1.33,1.33,0,0,1-.53-.67c-.09.18,0,.45,0,.67-.18-.13.09-.49-.22-.27-.18,0-.09-.13-.22-.18s0,.13,0,.22c.27.09.09.27.27.4a.3.3,0,0,0,.13.31c0,.13-.09.31,0,.45s-.4,0-.36.18l.18.09c-.09,0-.18.18-.27,0-.13.13,0,.27.13.4-.13-.09-.49-.31-.45-.54a.34.34,0,0,0,.36,0c-.27-.09-.31-.58-.76-.4-.13,0-.31-.36-.4-.13l-.27-.36.18-.09c-.49-.31-.85-.85-1.43-1.07l-.22-.22.27-.09c0-.22-.27-.09-.4-.09s0-.22-.09-.22-.4,0-.58-.18l0-.13c-.31-.13-.62-.49-.94-.67.22,0,.36.36.62.27a.27.27,0,0,0,.18,0s0-.13,0-.13c-.09-.18-.18.09-.27,0l.09-.13c-.09-.13-.22-.22-.36-.09,0,0,0-.18-.09-.18-.22.22-.18-.13-.4-.13s-.4-.31-.67-.13l-.13-.09s.13,0,.13,0c-.22-.09-.58.13-.67-.22.22,0,.31.13.53,0-.13-.22-.36-.27-.53-.36l0-.09c-.13-.18-.18,0-.31,0a1.48,1.48,0,0,1-.45,0c0-.18.4.09.36-.18-.27-.18-.67,0-.8-.22a.5.5,0,0,0,.36,0L47.39,25s.09-.09,0-.09a1.58,1.58,0,0,0-.76-.18c-.13-.13-.36-.13-.54-.22.18,0,.45-.09.58.09a.27.27,0,0,0,.18,0,8.75,8.75,0,0,0-1.34-.89.25.25,0,0,0-.22-.13h0l.09.09h-.13s0-.09,0-.09l-.18.13.09.13c-.22,0-.4-.22-.62-.22l-.09-.13a3.12,3.12,0,0,1,.58.09l-.13-.13s.09,0,.09,0-.22,0-.36,0-.67,0-.8-.27-.22.13-.31-.13a1.05,1.05,0,0,1-.71-.31c.49.27,1.25.22,1.7.67l.27-.09a4.06,4.06,0,0,0-.76-.4c-.09-.18-.36-.09-.54-.18a1.24,1.24,0,0,0-.89-.13l.18.09c0,.09-.22,0-.31,0,.18-.13-.09-.22-.13-.31-.13.13-.27,0-.4,0s.13-.13,0-.18l-.49.09c0-.18.27-.18.4-.18,0-.13-.22-.27-.31-.13-.13-.09-.31-.27-.22-.4h0l0-.18c.09-.09.31,0,.36-.09-.18-.09-.09-.27-.18-.36a.18.18,0,0,0-.09-.18c-.27.09-.45,0-.62.22.09-.31.54-.53.89-.62,0,.09-.13.13-.18.13.09.18.22-.13.31,0l.71-.85c-.09.31.31,0,.36.31a3.69,3.69,0,0,0,.67-.49c-.13-.13.18-.18.09-.31.13-.18.22-.31.45-.18" transform="translate(0 0)"/>
      </g>
      <path class="9578c6e2-d79f-4b88-9525-e9620aea03bd" d="M54.88,19h0Z" transform="translate(0 0)"/>
      <rect class="9578c6e2-d79f-4b88-9525-e9620aea03bd" x="54.66" y="18.97" width="0.04" height="0.04"/>
      <g class="1a48aba4-3eb2-4cc6-9d3a-309b3ee2f23a">
        <path class="9578c6e2-d79f-4b88-9525-e9620aea03bd" d="M56.31,19.33s-.13,0-.18,0,.22,0,.27.13-.22,0-.36.09a1,1,0,0,1-.22-.18c0-.31.4-.31.49-.09" transform="translate(0 0)"/>
        <path class="9578c6e2-d79f-4b88-9525-e9620aea03bd" d="M52.7,19.29l-.22.13-.09-.18c.09,0,.22,0,.31,0" transform="translate(0 0)"/>
      </g>
      <rect class="9578c6e2-d79f-4b88-9525-e9620aea03bd" x="52.83" y="19.2" width="0.05" height="0.04"/>
      <g class="1a48aba4-3eb2-4cc6-9d3a-309b3ee2f23a">
        <path class="9578c6e2-d79f-4b88-9525-e9620aea03bd" d="M55.42,19.33c0,.09-.09,0-.13,0l0-.09a.27.27,0,0,1,.18,0" transform="translate(0 0)"/>
      </g>
      <rect class="9578c6e2-d79f-4b88-9525-e9620aea03bd" x="56" y="19.29" width="0.04" height="0.04"/>
      <rect class="9578c6e2-d79f-4b88-9525-e9620aea03bd" x="51.85" y="19.42" width="0.09" height="0.05"/>
      <g class="1a48aba4-3eb2-4cc6-9d3a-309b3ee2f23a">
        <path class="9578c6e2-d79f-4b88-9525-e9620aea03bd" d="M51.85,20H52c0,.18-.18,0-.27,0a.23.23,0,0,0-.31-.13c0-.18-.18-.18-.27-.22v-.09c.22.22.67,0,.71.49" transform="translate(0 0)"/>
      </g>
      <path class="9578c6e2-d79f-4b88-9525-e9620aea03bd" d="M52.12,19.51h0Z" transform="translate(0 0)"/>
      <rect class="9578c6e2-d79f-4b88-9525-e9620aea03bd" x="52.88" y="19.46" width="0.04" height="0.04"/>
      <g class="1a48aba4-3eb2-4cc6-9d3a-309b3ee2f23a">
        <path class="9578c6e2-d79f-4b88-9525-e9620aea03bd" d="M53.19,19.64s0,.09,0,.09-.09,0-.09,0,.09-.13.13,0" transform="translate(0 0)"/>
      </g>
      <path class="9578c6e2-d79f-4b88-9525-e9620aea03bd" d="M56.94,19.69h0Z" transform="translate(0 0)"/>
      <path class="9578c6e2-d79f-4b88-9525-e9620aea03bd" d="M45.83,20.09h0Z" transform="translate(0 0)"/>
      <g class="1a48aba4-3eb2-4cc6-9d3a-309b3ee2f23a">
        <path class="9578c6e2-d79f-4b88-9525-e9620aea03bd" d="M54.22,20.4c-.09,0-.22.09-.22,0v-.13c.09.09.31,0,.22.18" transform="translate(0 0)"/>
        <path class="9578c6e2-d79f-4b88-9525-e9620aea03bd" d="M58.41,20.67l0-.45c.13.09,0,.31,0,.45" transform="translate(0 0)"/>
        <path class="9578c6e2-d79f-4b88-9525-e9620aea03bd" d="M56.36,20.36l.18.18c-.22.09-.36-.13-.53,0-.09,0-.18-.18-.13-.27s.31.27.49.09" transform="translate(0 0)"/>
        <path class="9578c6e2-d79f-4b88-9525-e9620aea03bd" d="M46.63,20.58c-.09.09-.18-.09-.27-.09l0-.13a.69.69,0,0,1,.31.22" transform="translate(0 0)"/>
        <path class="9578c6e2-d79f-4b88-9525-e9620aea03bd" d="M46.9,20.76v0s-.22,0-.13-.13.09.09.13.09" transform="translate(0 0)"/>
        <path class="9578c6e2-d79f-4b88-9525-e9620aea03bd" d="M58,20.76s0,.13,0,.18v-.18Z" transform="translate(0 0)"/>
      </g>
      <rect class="9578c6e2-d79f-4b88-9525-e9620aea03bd" x="53.1" y="20.76" width="0.04" height="0.04"/>
      <path class="9578c6e2-d79f-4b88-9525-e9620aea03bd" d="M53.19,20.8h0Z" transform="translate(0 0)"/>
      <g class="1a48aba4-3eb2-4cc6-9d3a-309b3ee2f23a">
        <path class="9578c6e2-d79f-4b88-9525-e9620aea03bd" d="M53.81,21c-.13.09-.36,0-.4.18-.13-.22-.58,0-.58-.36.27.27.58,0,1,.18" transform="translate(0 0)"/>
        <path class="9578c6e2-d79f-4b88-9525-e9620aea03bd" d="M56.49,20.94c0,.09-.09,0-.13,0s-.13-.09,0-.13a.23.23,0,0,1,.18.09" transform="translate(0 0)"/>
      </g>
      <polygon class="9578c6e2-d79f-4b88-9525-e9620aea03bd" points="45.02 21.03 44.98 20.94 45.02 20.94 45.02 21.03"/>
      <g class="1a48aba4-3eb2-4cc6-9d3a-309b3ee2f23a">
        <path class="9578c6e2-d79f-4b88-9525-e9620aea03bd" d="M47.57,21.07a.19.19,0,0,1-.31,0Z" transform="translate(0 0)"/>
        <path class="9578c6e2-d79f-4b88-9525-e9620aea03bd" d="M54.08,21.16a2.08,2.08,0,0,0,.4.13c.13.22.49,0,.67.27.27-.4.67.13,1.07-.13,0,.22.4.22.4.4s-.22,0-.27.18c.22.09.4.4.13.58,0,.13.13.22-.09.31-.45,0-.85.49-1.25.22-.27-.09.09-.36-.22-.31-.13,0-.22.18-.27,0a.16.16,0,0,1,.09,0l0,0,.09,0c-.13-.27-.54-.22-.67-.45-.09.09-.22,0-.31,0l0,0c.36-.22.85.18,1.21.18,0-.09-.09-.18-.18-.13s-.13,0-.18,0c.13-.18.4,0,.58-.09v0c.13,0,.4.22.58,0-.09-.13-.31,0-.36-.18-.31-.13-.54,0-.8-.13,0,0,0-.09,0-.09s-.36,0-.54,0l-.62-.58c.09-.13.49.09.4-.18.18,0,0,.09.13.13" transform="translate(0 0)"/>
      </g>
      <path class="9578c6e2-d79f-4b88-9525-e9620aea03bd" d="M45.16,21.12l.09.09Z" transform="translate(0 0)"/>
      <rect class="9578c6e2-d79f-4b88-9525-e9620aea03bd" x="47.75" y="21.25" width="0.04" height="0.04"/>
      <g class="1a48aba4-3eb2-4cc6-9d3a-309b3ee2f23a">
        <path class="9578c6e2-d79f-4b88-9525-e9620aea03bd" d="M41.63,21.34s-.09.09-.09.13-.09,0-.09,0a.23.23,0,0,1,.18-.09" transform="translate(0 0)"/>
      </g>
      <rect class="9578c6e2-d79f-4b88-9525-e9620aea03bd" x="47.97" y="21.34" width="0.05" height="0.04"/>
      <g class="1a48aba4-3eb2-4cc6-9d3a-309b3ee2f23a">
        <path class="9578c6e2-d79f-4b88-9525-e9620aea03bd" d="M41.63,21.61c0,.09-.09,0-.13.09v-.09s.09,0,.13,0" transform="translate(0 0)"/>
      </g>
      <polygon class="9578c6e2-d79f-4b88-9525-e9620aea03bd" points="42.08 21.83 42.08 21.87 41.99 21.83 42.08 21.83"/>
      <g class="1a48aba4-3eb2-4cc6-9d3a-309b3ee2f23a">
        <path class="9578c6e2-d79f-4b88-9525-e9620aea03bd" d="M42.61,21.87c-.09,0-.22.22-.31.09s.18-.22.31-.09" transform="translate(0 0)"/>
      </g>
      <rect class="9578c6e2-d79f-4b88-9525-e9620aea03bd" x="48.5" y="21.78" width="0.04" height="0.04"/>
      <polygon class="9578c6e2-d79f-4b88-9525-e9620aea03bd" points="54.35 21.87 54.35 21.92 54.26 21.87 54.35 21.87"/>
      <g class="1a48aba4-3eb2-4cc6-9d3a-309b3ee2f23a">
        <path class="9578c6e2-d79f-4b88-9525-e9620aea03bd" d="M53.81,22.1h-.36c.09,0,.22-.13.36,0" transform="translate(0 0)"/>
      </g>
      <polygon class="9578c6e2-d79f-4b88-9525-e9620aea03bd" points="49.17 22.36 48.99 22.14 49.08 22.14 49.17 22.36"/>
      <g class="1a48aba4-3eb2-4cc6-9d3a-309b3ee2f23a">
        <path class="9578c6e2-d79f-4b88-9525-e9620aea03bd" d="M50.07,22.81a1.05,1.05,0,0,1-.62-.31c.22,0,.54.09.63.31" transform="translate(0 0)"/>
        <path class="9578c6e2-d79f-4b88-9525-e9620aea03bd" d="M42.21,22.81c-.18,0-.54.09-.67,0a3.35,3.35,0,0,0,.67,0" transform="translate(0 0)"/>
      </g>
      <rect class="9578c6e2-d79f-4b88-9525-e9620aea03bd" x="55.96" y="22.72" width="0.04" height="0.04"/>
      <g class="1a48aba4-3eb2-4cc6-9d3a-309b3ee2f23a">
        <path class="9578c6e2-d79f-4b88-9525-e9620aea03bd" d="M50.78,23.08c.13.13.4.22.4.36-.18-.27-.54-.09-.71-.36-.13,0-.27,0-.36-.13.09,0,.13-.13.27,0s.27.13.4.18" transform="translate(0 0)"/>
      </g>
      <rect class="9578c6e2-d79f-4b88-9525-e9620aea03bd" x="49.89" y="23.3" width="0.04" height="0.04"/>
      <g class="1a48aba4-3eb2-4cc6-9d3a-309b3ee2f23a">
        <path class="9578c6e2-d79f-4b88-9525-e9620aea03bd" d="M49.31,23.75c0,.09.18,0,.18.09a.9.9,0,0,1-.49-.27c0,.13.4-.09.31.18" transform="translate(0 0)"/>
        <path class="9578c6e2-d79f-4b88-9525-e9620aea03bd" d="M50.15,23.7s0-.09.09-.09l.09.09c-.09-.09-.22,0-.27-.09s0,0,.09.09" transform="translate(0 0)"/>
        <path class="9578c6e2-d79f-4b88-9525-e9620aea03bd" d="M51.67,23.75h0l-.13,0s.09,0,.13,0" transform="translate(0 0)"/>
      </g>
      <polygon class="9578c6e2-d79f-4b88-9525-e9620aea03bd" points="45.51 23.84 45.51 23.84 45.51 23.79 45.51 23.84"/>
      <rect class="9578c6e2-d79f-4b88-9525-e9620aea03bd" x="51.81" y="23.79" width="0.04" height="0.05"/>
      <g class="1a48aba4-3eb2-4cc6-9d3a-309b3ee2f23a">
        <path class="9578c6e2-d79f-4b88-9525-e9620aea03bd" d="M46,24s-.13,0-.18,0-.09-.09,0-.13Z" transform="translate(0 0)"/>
        <path class="9578c6e2-d79f-4b88-9525-e9620aea03bd" d="M50.42,24.28c-.09.18-.18,0-.31,0s-.31-.22-.45-.31c0,0,.13,0,.22,0s.45.09.54.27" transform="translate(0 0)"/>
        <path class="9578c6e2-d79f-4b88-9525-e9620aea03bd" d="M52.52,24.33c-.09.09-.22,0-.31-.09,0-.27-.4,0-.31-.27.22,0,.4.22.63.36" transform="translate(0 0)"/>
        <path class="9578c6e2-d79f-4b88-9525-e9620aea03bd" d="M45.92,24.37v0l-.09-.09a.16.16,0,0,1,.09,0" transform="translate(0 0)"/>
      </g>
      <rect class="9578c6e2-d79f-4b88-9525-e9620aea03bd" x="52.65" y="24.51" width="0.05" height="0.04"/>
      <path class="9578c6e2-d79f-4b88-9525-e9620aea03bd" d="M51.85,24.6h0Z" transform="translate(0 0)"/>
      <g class="1a48aba4-3eb2-4cc6-9d3a-309b3ee2f23a">
        <path class="9578c6e2-d79f-4b88-9525-e9620aea03bd" d="M53.06,24.86v0s0,0,0,0" transform="translate(0 0)"/>
        <path class="9578c6e2-d79f-4b88-9525-e9620aea03bd" d="M47.17,25a.14.14,0,0,1,.09,0c-.13,0-.31.18-.49,0,0,0-.13-.09,0-.13s.31.27.45,0" transform="translate(0 0)"/>
        <path class="9578c6e2-d79f-4b88-9525-e9620aea03bd" d="M53.28,25.76a4.72,4.72,0,0,1-.89-.76v0a5.2,5.2,0,0,1,.89.8" transform="translate(0 0)"/>
      </g>
      <path class="9578c6e2-d79f-4b88-9525-e9620aea03bd" d="M53.15,25h0Z" transform="translate(0 0)"/>
      <polygon class="9578c6e2-d79f-4b88-9525-e9620aea03bd" points="53.55 25.22 53.55 25.22 53.55 25.18 53.55 25.22"/>
      <g class="1a48aba4-3eb2-4cc6-9d3a-309b3ee2f23a">
        <path class="9578c6e2-d79f-4b88-9525-e9620aea03bd" d="M52.25,25.58c-.13,0,0,.09,0,.18-.18-.09-.45,0-.49-.27,0,.09.18.09.27.09l0-.09-.18-.13c.22-.13.18.18.31.22" transform="translate(0 0)"/>
        <path class="9578c6e2-d79f-4b88-9525-e9620aea03bd" d="M54,25.71l0,0c0-.18-.31-.13-.27-.31.13,0,.27.18.31.27" transform="translate(0 0)"/>
      </g>
      <rect class="9578c6e2-d79f-4b88-9525-e9620aea03bd" x="52.39" y="25.53" width="0.05" height="0.04"/>
      <g class="1a48aba4-3eb2-4cc6-9d3a-309b3ee2f23a">
        <path class="9578c6e2-d79f-4b88-9525-e9620aea03bd" d="M54.22,25.84v.09c-.09,0-.13-.09-.18-.09l0-.09s.09.09.13.09" transform="translate(0 0)"/>
        <path class="9578c6e2-d79f-4b88-9525-e9620aea03bd" d="M54,26.42h-.13l.09.09c-.27.18-.4-.18-.62,0v-.22c.09,0,.18,0,.22,0s.13.09.22,0c0-.27-.36-.18-.4-.4a1.44,1.44,0,0,1,.63.53" transform="translate(0 0)"/>
        <path class="9578c6e2-d79f-4b88-9525-e9620aea03bd" d="M53.19,26s-.09,0-.13,0l0-.09s.13,0,.18,0" transform="translate(0 0)"/>
      </g>
      <rect class="9578c6e2-d79f-4b88-9525-e9620aea03bd" x="48.24" y="25.94" width="0.04" height="0.04"/>
      <g class="1a48aba4-3eb2-4cc6-9d3a-309b3ee2f23a">
        <path class="9578c6e2-d79f-4b88-9525-e9620aea03bd" d="M54.75,26.42c-.22-.09-.31-.27-.49-.4.13-.09.22.18.36.18Z" transform="translate(0 0)"/>
      </g>
      <rect class="9578c6e2-d79f-4b88-9525-e9620aea03bd" x="54.22" y="26.6" width="0.05" height="0.04"/>
      <g class="1a48aba4-3eb2-4cc6-9d3a-309b3ee2f23a">
        <path class="9578c6e2-d79f-4b88-9525-e9620aea03bd" d="M55.06,26.69c0,.18-.09,0-.18,0l0,0s.09,0,.13,0" transform="translate(0 0)"/>
        <path class="9578c6e2-d79f-4b88-9525-e9620aea03bd" d="M53,26.78h0s-.18,0-.18-.09.13,0,.18.09" transform="translate(0 0)"/>
      </g>
      <polygon class="9578c6e2-d79f-4b88-9525-e9620aea03bd" points="50.07 27.5 50.07 27.5 50.07 27.45 50.07 27.5"/>
      <g class="1a48aba4-3eb2-4cc6-9d3a-309b3ee2f23a">
        <path class="9578c6e2-d79f-4b88-9525-e9620aea03bd" d="M55.33,27.67v0l-.13-.13s.09,0,.13.09" transform="translate(0 0)"/>
        <path class="9578c6e2-d79f-4b88-9525-e9620aea03bd" d="M50.51,27.81c0,.09-.13,0-.13-.09Z" transform="translate(0 0)"/>
      </g>
      <rect class="9578c6e2-d79f-4b88-9525-e9620aea03bd" x="50.91" y="27.67" width="0.04" height="0.05"/>
      <g class="1a48aba4-3eb2-4cc6-9d3a-309b3ee2f23a">
        <path class="9578c6e2-d79f-4b88-9525-e9620aea03bd" d="M55.24,28.12s-.09,0-.09,0l.18-.18c0,.09,0,.18-.09.22" transform="translate(0 0)"/>
        <path class="9578c6e2-d79f-4b88-9525-e9620aea03bd" d="M54.71,28.75c-.22,0-.18-.18-.31-.27l0-.13c0,.22.36.18.27.4" transform="translate(0 0)"/>
      </g>
      <rect class="9578c6e2-d79f-4b88-9525-e9620aea03bd" x="51.45" y="28.66" width="0.04" height="0.13"/>
      <g class="1a48aba4-3eb2-4cc6-9d3a-309b3ee2f23a">
        <path class="9578c6e2-d79f-4b88-9525-e9620aea03bd" d="M54.35,28.84c-.09,0-.13-.09-.22-.13l0,0c.13,0,.09.13.18.18" transform="translate(0 0)"/>
        <path class="9578c6e2-d79f-4b88-9525-e9620aea03bd" d="M51.85,29.06h0V29s0,0,0,.09" transform="translate(0 0)"/>
      </g>
      <polygon class="9578c6e2-d79f-4b88-9525-e9620aea03bd" points="52.07 29.24 52.03 29.28 52.03 29.19 52.07 29.24"/>
      <rect class="9578c6e2-d79f-4b88-9525-e9620aea03bd" x="52.34" y="29.46" width="0.05" height="0.05"/>
      <g class="1a48aba4-3eb2-4cc6-9d3a-309b3ee2f23a">
        <path class="9578c6e2-d79f-4b88-9525-e9620aea03bd" d="M52.79,29.91h0l-.18-.13c.09,0,.18,0,.18.13" transform="translate(0 0)"/>
        <path class="9578c6e2-d79f-4b88-9525-e9620aea03bd" d="M53.59,29.82s0,.09,0,.09-.09,0-.13,0,.09-.09.13,0" transform="translate(0 0)"/>
        <path class="9578c6e2-d79f-4b88-9525-e9620aea03bd" d="M53.37,30.22s-.13.09,0,.18h0a.09.09,0,0,1-.13,0c-.13.09-.09-.09-.09-.13L52.83,30c.18.09.31.31.54.22" transform="translate(0 0)"/>
      </g>
      <polygon class="9578c6e2-d79f-4b88-9525-e9620aea03bd" points="84.33 30.13 84.33 30.13 84.33 30.04 84.33 30.13"/>
      <g class="1a48aba4-3eb2-4cc6-9d3a-309b3ee2f23a">
        <path class="9578c6e2-d79f-4b88-9525-e9620aea03bd" d="M47.57,30.44h0l-.13-.13c.09,0,.09.09.13.13" transform="translate(0 0)"/>
        <path class="9578c6e2-d79f-4b88-9525-e9620aea03bd" d="M48.5,31.33c.22.09.31.27.54.4s.22.13.36.18c-.4,0-.58-.49-1-.4-.22.18-.58-.27-.58.13.94.58,1.92,1.12,2.81,1.74l-.22.18a7.34,7.34,0,0,1-.62-.49s-.22.13-.09.18l.36.13c-.27.22-.45-.09-.67-.18-.27.09-.4-.31-.62-.22,1,.71,2.05,1.56,3.08,2.32.18.36.76.54.63,1a1.33,1.33,0,0,1,.27.49c-.13.45.13.8.09,1.2,0,.18.13.36,0,.58.09.22-.09.63,0,.94-.13.13,0,.45-.13.54,0,.31.13.63-.09.8.18.27-.22.4,0,.63-.13,0,0,.13-.13.18a.76.76,0,0,1,0,.63,4.61,4.61,0,0,1,0,1.12c-.09.36.18.62,0,.89,0,.22-.09.49.09.67a2.4,2.4,0,0,0,.22,1.25c-.09.22.09.31,0,.54.09,0,.09.13.18.09s0-.18.09-.22c-.18.27.22.27.09.54.09.22,0,.4.18.63,0,.45.09.94.13,1.38.09.22,0,.49.22.67h-.13a1.72,1.72,0,0,0,.13.45A27.49,27.49,0,0,0,55,52.75a54.21,54.21,0,0,1,4.6,5.67c-.22,0-.45-.13-.45-.4H59l0-.09c-.13-.13-.36-.18-.4-.36-.09,0,0,.13,0,.22.18.22.4.63.67.76,0,.31.27.4.45.63s.13-.09.22-.13c.18.13.58.4.58.71.58.71,1.34,1.21,1.92,1.92-.22,0,0,.13,0,.22s.22,0,.13.18c1.43.94,2.68,2.45,4.19,3.44-.18.09-.22-.22-.4-.18s-.36.09-.4-.13h.22c-.22-.13-.36-.36-.58-.49-.22.22-.18-.13-.36-.13.09,0,0-.09,0-.13s-.18,0-.22,0l0,0,1,.94c.13,0,.22.31.45.13,0,0,.09,0,.13,0-.13.13,0,.31,0,.4-.4.09-.4-.58-.76-.45.13.45.58.54.8.94.13-.13.27.09.4.13l-.13.18a.76.76,0,0,0,.45.13,1.26,1.26,0,0,0,.45.63l0,0a3,3,0,0,0,1,.63c-.31.18.09.31.18.45.31,0,.4.49.8.45a7.65,7.65,0,0,1,1.47,1.25l0,0c.27.18.22.45.58.45.13.09.18-.13.27,0l-.22,0c.09.13.27,0,.36.13-.13.18-.27,0-.4,0s0-.13-.13-.09.13.13,0,.27c.22.13.13.31.13.54s0,.36-.09.49a1.27,1.27,0,0,1-.18.54c.09,0,0,.09,0,.13l.31.4-.09.09.18.13s0-.09.09,0h0c-.22,0-.09.27-.13.36v0a3.91,3.91,0,0,0-.4.89.27.27,0,0,0,.18,0c.09-.09,0-.18.13-.27,0,0,0-.18,0-.22.27.45-.31.58-.4.89v0c-.18,0,0,.22-.18.31.13.18-.13.31-.09.45-.27.36-.18.67-.49.94,0,.18-.22.31-.31.49s-.18.27-.27.31a1,1,0,0,0-.76.45c-.13,0-.18-.27-.36-.27-.18.18-.4-.18-.54.09-.13,0-.27,0-.36-.18.09-.09,0-.18.09-.27-.18-.22-.49,0-.67-.22a2.49,2.49,0,0,1-1.29-.22c-.58.09-1.25-.18-1.87,0-.22.27-.71,0-.94.31a8.88,8.88,0,0,0-1,.36c-.45-.18-.31.54-.76.4a6.24,6.24,0,0,1-3.93.58c-.18-.09-.22.18-.4.09,0,0,0-.13-.13-.09-.36.13-.8,0-1.21.09-.09-.18-.36,0-.54-.09-.67.36-1.47,0-2.14.4-.4,0-.54.45-.94.31-.58.58-1.38.67-2,1.16a10.37,10.37,0,0,1-2,.71c-.36.18-.8,0-1.12.31-.27.09-.53,0-.8.13A9.53,9.53,0,0,0,45,82c-.13-.09-.22.13-.36,0a7.57,7.57,0,0,0-2.1.8c-.49.18-.94.58-1.43.76.09.27.4.09.54.27,1.74.54,3.44,1.07,5.13,1.65a1.72,1.72,0,0,0,.8.27c2.1.71,4,1.79,6.07,2.41.67,0,1.16.13,1.74-.13,1.25-.22,2.59-.27,3.84-.4,1.83-.45,3.66-.89,5.44-1.38,2.1-.58,4.15-1.21,6.29-1.7l0,0a4.49,4.49,0,0,1,1.34-.27A3.45,3.45,0,0,1,73.54,84a20.35,20.35,0,0,1,2.28-.4c.58,0,1.07-.22,1.56-.18a35.57,35.57,0,0,1,5.36-.18c0-.18.09.09.18,0a5.12,5.12,0,0,1,1.16.09c-.22.22-.58.18-.85.27a8.12,8.12,0,0,0-1.83.09,10.08,10.08,0,0,1-1.61.22,12.22,12.22,0,0,1-1.83.22c-.58.18-1.25,0-1.74.36.18.18.49,0,.71,0h.36c-.09.13-.36,0-.49.09-.45.13-1,.09-1.38.22s-.58,0-.71.22c-.22,0-.31.13-.45.18-.36,0-.58.31-1,.22a1.64,1.64,0,0,1-.67.18,14.94,14.94,0,0,0-1.79.71c0,.36-.4.18-.58.36-.58,0-.89.63-1.52.63a13.84,13.84,0,0,0-2.19,1,12.13,12.13,0,0,0-1.34.45,4.89,4.89,0,0,0-1.07.18,3.55,3.55,0,0,0-1.21.13c-.09-.13-.13.09-.22,0-.49-.09-.89.18-1.34.22-.09,0-.18-.18-.27,0-.36,0-.71-.22-1.07,0-.27-.13-.49.09-.71.09a11.18,11.18,0,0,0-3,.36c-.31-.13-.45.27-.67.4-.18,0-.27-.49-.54-.31-.22-.18-.58-.09-.85-.27s-.45-.22-.67-.09a15.06,15.06,0,0,1-3.17-.85c-.54-.09-1.07-.18-1.61-.31-.13-.4-.62-.13-.8-.4-.31,0-.49-.31-.76-.13-.22-.27-.49,0-.71-.22a2,2,0,0,0-1.16-.31.4.4,0,0,0-.45,0,5.46,5.46,0,0,0-1.7-.31c-.09-.09-.09-.18-.18-.22-.31.18-.54-.18-.8,0a3,3,0,0,1-1.12-.31c-.67,0-1.38-.4-2,0-.54,0-1.07-.22-1.65-.27a11.72,11.72,0,0,1-3-1c-.4-.13-.94-.58-1.34-.09-.09-.09-.22-.09-.27-.22.13-.13,0-.27.13-.4-.18-.18.13-.36.09-.62a.52.52,0,0,0,.09-.45c.22-.09,0-.4.18-.54s0-.36,0-.54.09-.49.4-.58l.54-.58s0-.09,0-.09c.4,0,1.07.13,1.47-.13a18.63,18.63,0,0,1,2.68-.45,20,20,0,0,0,4.64-1c.49-.09,1-.18,1.47-.31a61.35,61.35,0,0,0,8.48-2.41c1.29-.4,2.77-.62,4.11-1.12.27.09.53-.18.85-.18l.8-.13c.22-.18.58-.09.8-.27,1.43-.27,2.72-.89,4.19-1,.18-.22.49,0,.71-.18,1.21-.22,2.81.18,3.35-1.12-.27,0-.09-.36-.4-.36l.18-.18s0-.09-.09-.13c-.22.27-.36-.27-.58,0-.31-.18-.27-.58-.71-.49-.22-.18-.27-.4-.58-.4l-.09.09-.27-.18c.13-.18.31.09.45-.09l-.27-.18.09,0a.3.3,0,0,0-.36-.13c0-.18-.18-.22-.18-.36s.13,0,.18,0-.27-.09-.36-.27c-.09.31-.22-.13-.36,0-.13,0-.22-.18-.36-.27,0,0,.13-.09.18-.18s.22.13.36.13.09-.09,0-.13-.22,0-.27-.13h.09a1.46,1.46,0,0,0-1-.62c.09-.22-.27-.18-.27-.4l.13-.22c0-.09-.27-.18-.18-.31.09.09.18,0,.27,0-.18-.13-.27-.49-.58-.4,0,0-.18,0-.18.13s.22,0,.31,0-.18,0-.13.13v0c0-.09,0-.22-.18-.18,0,.22-.27.09-.4.13s0-.18,0-.27c.45-.18-.13-.4-.13-.54a.61.61,0,0,0,.58.13.83.83,0,0,0-.53-.31c-.27.09-.54-.31-.8-.49,0,0,.09,0,.13,0,.13.18.4.27.63.49a.6.6,0,0,0,.4-.09c0-.13-.22,0-.31-.09s.22-.18.09-.22-.09-.09-.13-.09a.69.69,0,0,1-.49-.13.27.27,0,0,1,.18,0l0,0,0,0-.4-.31.13-.18c-.22,0-.4,0-.54-.18l.09-.13L61.18,65c0-.09.13,0,.18-.13l-.13-.18c.27-.09.45.4.71.27a1.53,1.53,0,0,0,1.07.18c-.09.09.09.22.18.27l0,.09a1.32,1.32,0,0,1,.58.27c.31-.22.54.4.67,0-.27-.22-.58-.54-.94-.54,0-.13-.18-.13-.27-.22l0,0c-.4-.22-.67-.49-1-.67s-.4-.54-.85-.63c-.09.22-.27-.18-.4.13-.18,0-.36-.27-.58-.13,0,.09,0,.13-.09.13a.16.16,0,0,1,0-.13.94.94,0,0,1,1.07,0s.09-.09.13-.09c-.13-.18-.45-.09-.58-.31-.13.09-.27-.13-.45-.09,0-.09.18,0,.27-.09L60.42,63c.09-.09.22.18.36,0-.13-.22-.54-.09-.62-.45-.18,0-.54-.09-.58-.4l-.49-.49v0L58.41,61s0-.09,0-.09,0,0-.13,0-.18,0-.27,0a.89.89,0,0,0-.36-.45s.09,0,0-.13c.13,0,.27.45.45.18L58,60.25c.36-.22.54.31.85.13,0-.13-.18-.09-.27-.13.13-.18,0-.27-.18-.36a2.1,2.1,0,0,1-.89-.45,1.42,1.42,0,0,1,.71.4l0-.09L58,59.45v0l-.54-.58c-.22-.13-.22-.58-.58-.45,0,.09-.22,0-.22.13s-.09-.18-.22-.09c.13.36.54.22.71.54A1.82,1.82,0,0,1,56,58.38c.09-.13.22.13.31-.09s-.27,0-.31-.18.18,0,.31,0c0,.22.27,0,.4.18l.22-.09L56.8,58h0c0-.13-.4-.13-.18-.31-.22-.09-.36-.49-.58-.36-.09,0-.22,0-.27,0l.13-.09c0-.36-.49.09-.49-.13.18,0,.27-.13.4,0-.09-.13-.31-.13-.4-.27-.09,0-.22.22-.31.09s-.09,0-.13,0c0,.18.18.13.22.18a.48.48,0,0,1-.36.09s-.09,0-.13,0c-.22,0-.4-.27-.62-.31.22,0,.49.31.8.18l-.18-.18c0-.22-.31,0-.4-.18l.09-.09c-.09-.45-.71,0-.76-.4,0,.13.27,0,.4.13.13-.13.31.09.45,0s-.09.09,0,.09c0,.18.18,0,.27,0l0,0c-.22-.13-.49-.45-.76-.27,0-.09-.18-.27-.27-.22v0s-.18-.09-.13-.22l0,0c.22.27.63,0,.89.18l0,0a.91.91,0,0,0-.89-.36c-.09-.13-.31-.09-.4-.18l0,0c-.09,0-.18-.18,0-.22-.13-.18-.31-.13-.36-.31.09,0,.31.09.4.09-.09-.36-.62-.09-.58-.54L52.52,54s.13-.09,0-.13l-.31-.13.09-.13c-.31-.13-.54-.54-.76-.76a1.61,1.61,0,0,0-.31-.8l.18-.18c0-.09-.18,0-.22.09-.27-.18.09-.4-.09-.53s-.36-.36-.18-.49a.17.17,0,0,0,.27,0c0,.18.18.36-.09.45l.18.18h0c0,.09.13.13.18.18l0,0c.22.09,0,.27.22.31l0,.13c.13.09.4.09.45.31.13,0,0-.09,0-.18l.18-.18c-.09-.27-.62-.31-.36-.62,0-.27-.45-.13-.36-.45l-.13-.09c0-.18.36,0,.27-.27-.13,0-.27,0-.4-.09a2,2,0,0,1-.13-.49.16.16,0,0,1,.09,0c.09-.13,0-.31,0-.4.27.13,0,.4.27.63l0,0c.09,0,0-.09.09-.18-.22-.09-.09-.22-.13-.36.13-.13,0-.22,0-.4,0,0,.09,0,.13,0a2.48,2.48,0,0,1-.27-.94c-.22.22.18.71-.18.71-.09.13.31.4,0,.4s0-.22-.09-.31c.18-.13-.18-.22-.09-.36s-.09-.4-.13-.58A.88.88,0,0,0,51,48c-.18-.18-.13-.45-.22-.62s0-.36-.22-.36c.13-.09,0-.18,0-.27l-.13-.13.13-.18c-.18-.09,0-.22-.13-.36s-.18-.36-.31-.54c.13-.09,0-.22.09-.36a.87.87,0,0,1,0-.67c-.13-.18.09-.67-.18-.85.27-.09-.09-.27.13-.4-.36-.13.22-.27-.09-.4a2,2,0,0,1,.13-.49,1.86,1.86,0,0,1,0-.71c0-.27.09-.4,0-.62a4.15,4.15,0,0,0,0-1.07c.18-.13-.09-.31.09-.4,0,0-.13-.13,0-.18a.4.4,0,0,1-.13-.31c.09-.13,0-.18,0-.36-.31-.09-.18-.36-.27-.54s-.13-.13-.27-.13c0-.36-.31-.4-.49-.62a2.77,2.77,0,0,1-.58-.13c-.09,0-.18,0-.27.09-.22-.13-.45-.27-.71-.4a.49.49,0,0,1,.67,0c.22,0,.13-.22,0-.36l0,0c-.18.36-.4-.18-.62-.18l-.18,0c0-.09.27,0,.31-.09a5.82,5.82,0,0,0-1.61-.94,1.66,1.66,0,0,1-.54-.31c-.09.13-.22,0-.36,0l-.27-.22c.13,0-.09-.18.09-.18-.18-.13-.45-.36-.31-.67.13-.13.4.18.4-.09-.18,0-.27-.18-.36-.27.18-.13-.31-.27,0-.45-.27-.09.18-.22-.09-.36.18-.27.71-.45.4-.89.09-.13-.18-.36.13-.36.09,0,.22.18.31,0s0,0,.09,0,.09-.09,0-.13.27-.09.27-.22-.18-.13-.09-.22c.13.09.27.22.49.13,0-.18.27-.18.45-.09-.13.18.18.22.27.31s0-.13,0-.22c0,.09-.18,0-.13-.09v0c.13,0,.22-.31.49-.22.27.31.63.31.85.58Z" transform="translate(0 0)"/>
        <path class="9578c6e2-d79f-4b88-9525-e9620aea03bd" d="M53.81,31.11h0L53.68,31c.09,0,.09,0,.13.09" transform="translate(0 0)"/>
      </g>
      <polygon class="9578c6e2-d79f-4b88-9525-e9620aea03bd" points="46.32 31.33 46.32 31.33 46.32 31.29 46.32 31.33"/>
      <path class="9578c6e2-d79f-4b88-9525-e9620aea03bd" d="M47,31.33h0Z" transform="translate(0 0)"/>
      <path class="9578c6e2-d79f-4b88-9525-e9620aea03bd" d="M46.41,31.65h0Z" transform="translate(0 0)"/>
      <rect class="9578c6e2-d79f-4b88-9525-e9620aea03bd" x="85.18" y="31.6" width="0.04" height="0.04"/>
      <g class="1a48aba4-3eb2-4cc6-9d3a-309b3ee2f23a">
        <path class="9578c6e2-d79f-4b88-9525-e9620aea03bd" d="M45.78,32l-.09,0c0-.09,0-.22.09-.27Z" transform="translate(0 0)"/>
      </g>
      <polygon class="9578c6e2-d79f-4b88-9525-e9620aea03bd" points="85.27 31.91 85.27 31.87 85.32 32 85.27 31.91"/>
      <g class="1a48aba4-3eb2-4cc6-9d3a-309b3ee2f23a">
        <path class="9578c6e2-d79f-4b88-9525-e9620aea03bd" d="M49.8,32.23v0l-.09-.09s.09,0,.09,0" transform="translate(0 0)"/>
      </g>
      <rect class="9578c6e2-d79f-4b88-9525-e9620aea03bd" x="85.45" y="32.14" width="0.04" height="0.05"/>
      <path class="9578c6e2-d79f-4b88-9525-e9620aea03bd" d="M85.54,32.4l0,0Z" transform="translate(0 0)"/>
      <g class="1a48aba4-3eb2-4cc6-9d3a-309b3ee2f23a">
        <path class="9578c6e2-d79f-4b88-9525-e9620aea03bd" d="M45.34,32.63c-.09,0-.22,0-.22-.18.09.09.22,0,.22.18" transform="translate(0 0)"/>
        <path class="9578c6e2-d79f-4b88-9525-e9620aea03bd" d="M49.13,32.72a.43.43,0,0,1-.4-.27c.09.13.27.13.4.27" transform="translate(0 0)"/>
      </g>
      <polygon class="9578c6e2-d79f-4b88-9525-e9620aea03bd" points="85.63 32.58 85.67 32.58 85.72 32.67 85.63 32.58"/>
      <g class="1a48aba4-3eb2-4cc6-9d3a-309b3ee2f23a">
        <path class="9578c6e2-d79f-4b88-9525-e9620aea03bd" d="M48.68,32.9a1.05,1.05,0,0,1-.45-.22.85.85,0,0,1,.45.22" transform="translate(0 0)"/>
        <path class="9578c6e2-d79f-4b88-9525-e9620aea03bd" d="M49.58,33c-.09-.09-.27-.09-.31-.18.13,0,.22.13.31.18" transform="translate(0 0)"/>
      </g>
      <rect class="9578c6e2-d79f-4b88-9525-e9620aea03bd" x="85.76" y="32.76" width="0.04" height="0.05"/>
      <g class="1a48aba4-3eb2-4cc6-9d3a-309b3ee2f23a">
        <path class="9578c6e2-d79f-4b88-9525-e9620aea03bd" d="M85.9,33h0l-.09,0s.09,0,.09,0" transform="translate(0 0)"/>
      </g>
      <path class="9578c6e2-d79f-4b88-9525-e9620aea03bd" d="M86,33.34h0Z" transform="translate(0 0)"/>
      <g class="1a48aba4-3eb2-4cc6-9d3a-309b3ee2f23a">
        <path class="9578c6e2-d79f-4b88-9525-e9620aea03bd" d="M51.27,34.28c-.27.27-.27-.36-.54-.13-.13-.13-.31-.13-.49-.22l.09-.18c-.13,0-.36,0-.49-.09.18,0,.31-.13.54,0s.54.54.89.67" transform="translate(0 0)"/>
        <path class="9578c6e2-d79f-4b88-9525-e9620aea03bd" d="M86.34,33.74h0l-.09,0a.14.14,0,0,1,.09,0" transform="translate(0 0)"/>
        <path class="9578c6e2-d79f-4b88-9525-e9620aea03bd" d="M86.61,34.23l0,0v-.09a0,0,0,0,1,0,0" transform="translate(0 0)"/>
        <path class="9578c6e2-d79f-4b88-9525-e9620aea03bd" d="M86.75,34.55c-.09,0-.09-.13-.13-.22.13.09.09.18.13.22" transform="translate(0 0)"/>
        <path class="9578c6e2-d79f-4b88-9525-e9620aea03bd" d="M52.21,35s.09.09,0,.18-.4-.22-.54-.4c.18,0,.27.22.49.22" transform="translate(0 0)"/>
      </g>
      <rect class="9578c6e2-d79f-4b88-9525-e9620aea03bd" x="52.39" y="35.17" width="0.05" height="0.05"/>
      <g class="1a48aba4-3eb2-4cc6-9d3a-309b3ee2f23a">
        <path class="9578c6e2-d79f-4b88-9525-e9620aea03bd" d="M87.15,35.26h0v0a0,0,0,0,1,0,0" transform="translate(0 0)"/>
        <path class="9578c6e2-d79f-4b88-9525-e9620aea03bd" d="M53.19,37.09h0c0-.4,0-.8-.27-1.07.09-.13-.18-.18-.09-.27.45.31.31.89.4,1.34" transform="translate(0 0)"/>
        <path class="9578c6e2-d79f-4b88-9525-e9620aea03bd" d="M53.23,37.27a0,0,0,0,1,0,0h0v-.09s.09,0,.09,0" transform="translate(0 0)"/>
      </g>
      <polygon class="9578c6e2-d79f-4b88-9525-e9620aea03bd" points="49.26 37.54 49.26 37.54 49.26 37.49 49.26 37.54"/>
      <path class="9578c6e2-d79f-4b88-9525-e9620aea03bd" d="M53.15,37.54h0Z" transform="translate(0 0)"/>
      <g class="1a48aba4-3eb2-4cc6-9d3a-309b3ee2f23a">
        <path class="9578c6e2-d79f-4b88-9525-e9620aea03bd" d="M53.23,38.25s-.09,0-.09,0a.09.09,0,0,1,0-.13c.09.09,0,.13,0,.18" transform="translate(0 0)"/>
      </g>
      <rect class="9578c6e2-d79f-4b88-9525-e9620aea03bd" x="88.26" y="38.21" width="0.04" height="0.04"/>
      <g class="1a48aba4-3eb2-4cc6-9d3a-309b3ee2f23a">
        <path class="9578c6e2-d79f-4b88-9525-e9620aea03bd" d="M53.1,39.19c0-.18-.09-.45,0-.58,0,.18,0,.45,0,.58" transform="translate(0 0)"/>
        <path class="9578c6e2-d79f-4b88-9525-e9620aea03bd" d="M53.1,39.63c.09.27-.09.54,0,.8h0c0-.27.13-.54,0-.8Z" transform="translate(0 0)"/>
        <path class="9578c6e2-d79f-4b88-9525-e9620aea03bd" d="M51.81,40.88c-.4.22,0,.58-.22.89-.09.13,0,.4,0,.58l-.13.13c0-.09,0-.13,0-.27.22-.18-.13-.27.09-.4,0-.18-.09-.45,0-.58v-.09c.18,0,0-.4.13-.54s0-.4.09-.49c.13.22-.13.54,0,.76" transform="translate(0 0)"/>
        <path class="9578c6e2-d79f-4b88-9525-e9620aea03bd" d="M52.92,41.06c-.09-.13,0-.27.09-.45,0,.13.09.31-.09.45" transform="translate(0 0)"/>
        <path class="9578c6e2-d79f-4b88-9525-e9620aea03bd" d="M52.88,41.73l0,0v-.13s0,0,0,.09" transform="translate(0 0)"/>
      </g>
      <rect class="9578c6e2-d79f-4b88-9525-e9620aea03bd" x="52.79" y="42.22" width="0.04" height="0.04"/>
      <g class="1a48aba4-3eb2-4cc6-9d3a-309b3ee2f23a">
        <path class="9578c6e2-d79f-4b88-9525-e9620aea03bd" d="M52.79,43.16c-.22,0-.09-.22-.13-.31.13-.13,0-.27.13-.36Z" transform="translate(0 0)"/>
      </g>
      <path class="9578c6e2-d79f-4b88-9525-e9620aea03bd" d="M51.4,43.11v0Z" transform="translate(0 0)"/>
      <rect class="9578c6e2-d79f-4b88-9525-e9620aea03bd" x="52.79" y="43.2" width="0.04" height="0.04"/>
      <rect class="9578c6e2-d79f-4b88-9525-e9620aea03bd" x="90.94" y="43.25" width="0.04" height="0.04"/>
      <g class="1a48aba4-3eb2-4cc6-9d3a-309b3ee2f23a">
        <path class="9578c6e2-d79f-4b88-9525-e9620aea03bd" d="M51.4,43.43v-.09s0,0,0,.09" transform="translate(0 0)"/>
        <path class="9578c6e2-d79f-4b88-9525-e9620aea03bd" d="M52.79,43.34c0,.31-.13.54,0,.85l-.09.09c0-.27-.09-.76.13-.94" transform="translate(0 0)"/>
        <path class="9578c6e2-d79f-4b88-9525-e9620aea03bd" d="M91.21,43.6l0,0v-.09a0,0,0,0,1,0,0" transform="translate(0 0)"/>
      </g>
      <rect class="9578c6e2-d79f-4b88-9525-e9620aea03bd" x="91.25" y="43.87" width="0.04" height="0.04"/>
      <g class="1a48aba4-3eb2-4cc6-9d3a-309b3ee2f23a">
        <path class="9578c6e2-d79f-4b88-9525-e9620aea03bd" d="M52.65,44.72c0-.09-.09-.22.09-.27-.09.09.09.27-.09.27" transform="translate(0 0)"/>
        <path class="9578c6e2-d79f-4b88-9525-e9620aea03bd" d="M52.79,46c0,.18,0,.4.09.54-.13-.13-.13-.36-.18-.67s0-.62,0-.94c.09.36,0,.71.13,1.07" transform="translate(0 0)"/>
      </g>
      <rect class="9578c6e2-d79f-4b88-9525-e9620aea03bd" x="91.92" y="45.17" width="0.04" height="0.05"/>
      <g class="1a48aba4-3eb2-4cc6-9d3a-309b3ee2f23a">
        <path class="9578c6e2-d79f-4b88-9525-e9620aea03bd" d="M92.37,46.15a3.76,3.76,0,0,1,.54,1A8,8,0,0,1,92,45.43a2.13,2.13,0,0,1,.36.71" transform="translate(0 0)"/>
      </g>
      <rect class="9578c6e2-d79f-4b88-9525-e9620aea03bd" x="51.05" y="46.41" width="0.04" height="0.04"/>
      <g class="1a48aba4-3eb2-4cc6-9d3a-309b3ee2f23a">
        <path class="9578c6e2-d79f-4b88-9525-e9620aea03bd" d="M52.92,47.58c.18.09,0,.27.13.4,0,0,0,.09.09.13a4.8,4.8,0,0,0,0,.8c.09.13,0,.31,0,.49.18,0,.09.18.09.31a2.67,2.67,0,0,1-.22-.54c0-.36-.18-.62,0-1a1.21,1.21,0,0,1-.13-.76.41.41,0,0,1,0-.45c-.09.18.27.31.09.58" transform="translate(0 0)"/>
        <path class="9578c6e2-d79f-4b88-9525-e9620aea03bd" d="M51.32,47.26s0,0,0,0h0v-.13a.1.1,0,0,1,.09.09" transform="translate(0 0)"/>
        <path class="9578c6e2-d79f-4b88-9525-e9620aea03bd" d="M53.46,47.35l0,0v-.09a0,0,0,0,1,0,0" transform="translate(0 0)"/>
        <path class="9578c6e2-d79f-4b88-9525-e9620aea03bd" d="M51.32,47.58h0v-.13s0,.09,0,.13" transform="translate(0 0)"/>
        <path class="9578c6e2-d79f-4b88-9525-e9620aea03bd" d="M53.55,47.71h-.09v-.09s.09,0,.09.09" transform="translate(0 0)"/>
      </g>
      <rect class="9578c6e2-d79f-4b88-9525-e9620aea03bd" x="53.46" y="47.75" width="0.05" height="0.04"/>
      <path class="9578c6e2-d79f-4b88-9525-e9620aea03bd" d="M53.46,47.89h0Z" transform="translate(0 0)"/>
      <polygon class="9578c6e2-d79f-4b88-9525-e9620aea03bd" points="50.6 48.34 50.6 48.34 50.6 48.29 50.6 48.34"/>
      <rect class="9578c6e2-d79f-4b88-9525-e9620aea03bd" x="50.91" y="48.83" width="0.04" height="0.04"/>
      <polygon class="9578c6e2-d79f-4b88-9525-e9620aea03bd" points="50.91 49.14 50.91 49.18 50.87 49.14 50.91 49.14"/>
      <rect class="9578c6e2-d79f-4b88-9525-e9620aea03bd" x="53.63" y="49.18" width="0.05" height="0.05"/>
      <g class="1a48aba4-3eb2-4cc6-9d3a-309b3ee2f23a">
        <path class="9578c6e2-d79f-4b88-9525-e9620aea03bd" d="M51,49.27s0,0,0,0,0,0-.09,0v-.09Z" transform="translate(0 0)"/>
        <path class="9578c6e2-d79f-4b88-9525-e9620aea03bd" d="M50.78,49.41h0v-.09s.09,0,0,.09" transform="translate(0 0)"/>
      </g>
      <rect class="9578c6e2-d79f-4b88-9525-e9620aea03bd" x="53.68" y="49.27" width="0.04" height="0.04"/>
      <g class="1a48aba4-3eb2-4cc6-9d3a-309b3ee2f23a">
        <path class="9578c6e2-d79f-4b88-9525-e9620aea03bd" d="M53.77,49.58l0,0v-.09a0,0,0,0,1,0,0" transform="translate(0 0)"/>
        <path class="9578c6e2-d79f-4b88-9525-e9620aea03bd" d="M51,49.81s0,0-.09,0-.09-.13,0-.13.09,0,.09.09" transform="translate(0 0)"/>
        <path class="9578c6e2-d79f-4b88-9525-e9620aea03bd" d="M54,50.25c.27.49.63.94.89,1.43a4.9,4.9,0,0,1-1.07-1.87c0,.09.27.27.18.45" transform="translate(0 0)"/>
        <path class="9578c6e2-d79f-4b88-9525-e9620aea03bd" d="M50.87,50.34v-.09s0,0,0,.09" transform="translate(0 0)"/>
        <path class="9578c6e2-d79f-4b88-9525-e9620aea03bd" d="M51.23,50.74c-.13,0-.27.09-.36-.09s.31-.09.36.09" transform="translate(0 0)"/>
      </g>
      <rect class="9578c6e2-d79f-4b88-9525-e9620aea03bd" x="53.9" y="50.61" width="0.05" height="0.04"/>
      <path class="9578c6e2-d79f-4b88-9525-e9620aea03bd" d="M55.2,52.13l.09.09Z" transform="translate(0 0)"/>
      <g class="1a48aba4-3eb2-4cc6-9d3a-309b3ee2f23a">
        <path class="9578c6e2-d79f-4b88-9525-e9620aea03bd" d="M55.38,52.4h0v0s0,0,0,0" transform="translate(0 0)"/>
        <path class="9578c6e2-d79f-4b88-9525-e9620aea03bd" d="M55.73,52.84c-.18,0-.18-.22-.27-.31a1.68,1.68,0,0,0,.27.31" transform="translate(0 0)"/>
        <path class="9578c6e2-d79f-4b88-9525-e9620aea03bd" d="M53.28,53.64c-.09.09.13.13.09.27-.18,0-.18-.18-.36-.22a.14.14,0,0,1,.27,0" transform="translate(0 0)"/>
        <path class="9578c6e2-d79f-4b88-9525-e9620aea03bd" d="M51.36,54h0v-.09s0,0,0,.09" transform="translate(0 0)"/>
        <path class="9578c6e2-d79f-4b88-9525-e9620aea03bd" d="M51.54,54.22h0v-.09s0,0,0,.09" transform="translate(0 0)"/>
        <path class="9578c6e2-d79f-4b88-9525-e9620aea03bd" d="M53.68,54.27h-.09v-.13s.09.09.09.13" transform="translate(0 0)"/>
      </g>
      <path class="9578c6e2-d79f-4b88-9525-e9620aea03bd" d="M51.85,54.8h0Z" transform="translate(0 0)"/>
      <g class="1a48aba4-3eb2-4cc6-9d3a-309b3ee2f23a">
        <path class="9578c6e2-d79f-4b88-9525-e9620aea03bd" d="M54.13,54.8s0,.13,0,.13-.09,0-.09,0,.09-.13.13-.09" transform="translate(0 0)"/>
      </g>
      <path class="9578c6e2-d79f-4b88-9525-e9620aea03bd" d="M52.07,54.94h0Z" transform="translate(0 0)"/>
      <rect class="9578c6e2-d79f-4b88-9525-e9620aea03bd" x="52.65" y="54.98" width="0.05" height="0.04"/>
      <rect class="9578c6e2-d79f-4b88-9525-e9620aea03bd" x="52.07" y="55.03" width="0.04" height="0.04"/>
      <polygon class="9578c6e2-d79f-4b88-9525-e9620aea03bd" points="58.28 55.16 58.23 55.21 58.23 55.12 58.28 55.16"/>
      <g class="1a48aba4-3eb2-4cc6-9d3a-309b3ee2f23a">
        <path class="9578c6e2-d79f-4b88-9525-e9620aea03bd" d="M96.65,55.21l0,0v-.09a0,0,0,0,1,0,0" transform="translate(0 0)"/>
        <path class="9578c6e2-d79f-4b88-9525-e9620aea03bd" d="M52.25,55.34h0v0s0,0,0,0" transform="translate(0 0)"/>
      </g>
      <path class="9578c6e2-d79f-4b88-9525-e9620aea03bd" d="M53.41,55.88l0,0Z" transform="translate(0 0)"/>
      <g class="1a48aba4-3eb2-4cc6-9d3a-309b3ee2f23a">
        <path class="9578c6e2-d79f-4b88-9525-e9620aea03bd" d="M57.65,56.37h0v-.09s0,0,0,.09" transform="translate(0 0)"/>
        <path class="9578c6e2-d79f-4b88-9525-e9620aea03bd" d="M55.6,56.37s0,.13,0,.13-.13,0-.13-.09.13-.09.18,0" transform="translate(0 0)"/>
        <path class="9578c6e2-d79f-4b88-9525-e9620aea03bd" d="M54.26,56.5v0h-.13s.09-.13.13,0" transform="translate(0 0)"/>
        <path class="9578c6e2-d79f-4b88-9525-e9620aea03bd" d="M54.53,56.59v0l-.09-.09s0,0,.09,0" transform="translate(0 0)"/>
        <path class="9578c6e2-d79f-4b88-9525-e9620aea03bd" d="M55.73,56.77c-.09,0-.09-.09-.13-.09v0c0,.09.22,0,.13.13" transform="translate(0 0)"/>
        <path class="9578c6e2-d79f-4b88-9525-e9620aea03bd" d="M58.28,57c-.09.09-.18-.09-.27,0s-.18-.18-.13-.27.31.22.4.31" transform="translate(0 0)"/>
        <path class="9578c6e2-d79f-4b88-9525-e9620aea03bd" d="M56,56.86v0h-.09v-.09s.09,0,.09,0" transform="translate(0 0)"/>
        <path class="9578c6e2-d79f-4b88-9525-e9620aea03bd" d="M56.09,57.08h0L56,57a.14.14,0,0,1,.09,0" transform="translate(0 0)"/>
      </g>
      <rect class="9578c6e2-d79f-4b88-9525-e9620aea03bd" x="55.6" y="57.21" width="0.04" height="0.04"/>
      <g class="1a48aba4-3eb2-4cc6-9d3a-309b3ee2f23a">
        <path class="9578c6e2-d79f-4b88-9525-e9620aea03bd" d="M55.82,57.57l0,0-.18-.13a.34.34,0,0,1,.22.09" transform="translate(0 0)"/>
      </g>
      <rect class="9578c6e2-d79f-4b88-9525-e9620aea03bd" x="55.06" y="57.66" width="0.04" height="0.04"/>
      <path class="9578c6e2-d79f-4b88-9525-e9620aea03bd" d="M55.29,57.84h0Z" transform="translate(0 0)"/>
      <g class="1a48aba4-3eb2-4cc6-9d3a-309b3ee2f23a">
        <path class="9578c6e2-d79f-4b88-9525-e9620aea03bd" d="M54.66,58s-.27,0-.18-.12.13.08.18.12" transform="translate(0 0)"/>
        <path class="9578c6e2-d79f-4b88-9525-e9620aea03bd" d="M56,58.51s-.09,0-.13,0v-.09c.09,0,.09,0,.13.09" transform="translate(0 0)"/>
        <path class="9578c6e2-d79f-4b88-9525-e9620aea03bd" d="M57.12,58.55v.09c-.09,0-.18,0-.22-.13v-.09c.09.09.13.18.22.13" transform="translate(0 0)"/>
        <path class="9578c6e2-d79f-4b88-9525-e9620aea03bd" d="M59.88,58.91s-.09.09-.13.09v-.09Z" transform="translate(0 0)"/>
        <path class="9578c6e2-d79f-4b88-9525-e9620aea03bd" d="M60.42,59.58h-.27V59.4c.09,0,.22,0,.27.18" transform="translate(0 0)"/>
      </g>
      <path class="9578c6e2-d79f-4b88-9525-e9620aea03bd" d="M57.21,59.67h0Z" transform="translate(0 0)"/>
      <g class="1a48aba4-3eb2-4cc6-9d3a-309b3ee2f23a">
        <path class="9578c6e2-d79f-4b88-9525-e9620aea03bd" d="M57.56,59.94s-.13,0-.18,0-.13-.09,0-.13.13,0,.22.09" transform="translate(0 0)"/>
        <path class="9578c6e2-d79f-4b88-9525-e9620aea03bd" d="M57.52,60.12h0V60s0,0,0,.09" transform="translate(0 0)"/>
      </g>
      <rect class="9578c6e2-d79f-4b88-9525-e9620aea03bd" x="57.88" y="60.07" width="0.04" height="0.04"/>
      <g class="1a48aba4-3eb2-4cc6-9d3a-309b3ee2f23a">
        <path class="9578c6e2-d79f-4b88-9525-e9620aea03bd" d="M58.72,60.7s0,0,0,.09V60.7Z" transform="translate(0 0)"/>
        <path class="9578c6e2-d79f-4b88-9525-e9620aea03bd" d="M58.95,61.72a.19.19,0,0,1-.27-.13c.13,0,.22,0,.27.13" transform="translate(0 0)"/>
      </g>
      <path class="9578c6e2-d79f-4b88-9525-e9620aea03bd" d="M59.08,62h0Z" transform="translate(0 0)"/>
      <g class="1a48aba4-3eb2-4cc6-9d3a-309b3ee2f23a">
        <path class="9578c6e2-d79f-4b88-9525-e9620aea03bd" d="M59.84,63a.27.27,0,0,1,.18,0s-.09.09-.13.09l-.13-.09a.16.16,0,0,1,.09,0" transform="translate(0 0)"/>
      </g>
      <rect class="9578c6e2-d79f-4b88-9525-e9620aea03bd" x="60.11" y="63.06" width="0.04" height="0.04"/>
      <g class="1a48aba4-3eb2-4cc6-9d3a-309b3ee2f23a">
        <path class="9578c6e2-d79f-4b88-9525-e9620aea03bd" d="M134.89,63.73h0l-.09,0s.09,0,.09,0" transform="translate(0 0)"/>
        <path class="9578c6e2-d79f-4b88-9525-e9620aea03bd" d="M135.12,63.82v0l-.09-.09a.14.14,0,0,1,.09,0" transform="translate(0 0)"/>
      </g>
      <path class="9578c6e2-d79f-4b88-9525-e9620aea03bd" d="M61.4,63.86h0Z" transform="translate(0 0)"/>
      <g class="1a48aba4-3eb2-4cc6-9d3a-309b3ee2f23a">
        <path class="9578c6e2-d79f-4b88-9525-e9620aea03bd" d="M61.22,64l.09,0V64h-.18v-.09s0,0,.09,0" transform="translate(0 0)"/>
        <path class="9578c6e2-d79f-4b88-9525-e9620aea03bd" d="M119.68,63.91c0,.13-.13,0-.18,0s.13,0,.18,0" transform="translate(0 0)"/>
        <path class="9578c6e2-d79f-4b88-9525-e9620aea03bd" d="M60.55,64v0s0,0,0,0" transform="translate(0 0)"/>
        <path class="9578c6e2-d79f-4b88-9525-e9620aea03bd" d="M64.88,64.13h0V64s0,0,0,.09" transform="translate(0 0)"/>
      </g>
      <rect class="9578c6e2-d79f-4b88-9525-e9620aea03bd" x="133.78" y="64" width="0.04" height="0.04"/>
      <g class="1a48aba4-3eb2-4cc6-9d3a-309b3ee2f23a">
        <path class="9578c6e2-d79f-4b88-9525-e9620aea03bd" d="M60.82,64.18a.6.6,0,0,1,.63.22.77.77,0,0,1,.45,0l-.09.09c0,.09.27.22.22.27s-.13-.18-.27-.18l.09,0a1.71,1.71,0,0,0-.67,0l0,.09c-.18-.09-.4-.31-.36-.45Z" transform="translate(0 0)"/>
        <path class="9578c6e2-d79f-4b88-9525-e9620aea03bd" d="M61,64.22s0,0-.09.09h0v-.09Z" transform="translate(0 0)"/>
        <path class="9578c6e2-d79f-4b88-9525-e9620aea03bd" d="M60.28,65s-.09,0-.13,0L60,64.76a.67.67,0,0,1,.31.22" transform="translate(0 0)"/>
      </g>
      <polygon class="9578c6e2-d79f-4b88-9525-e9620aea03bd" points="62.29 64.84 62.25 64.89 62.25 64.8 62.29 64.84"/>
      <g class="1a48aba4-3eb2-4cc6-9d3a-309b3ee2f23a">
        <path class="9578c6e2-d79f-4b88-9525-e9620aea03bd" d="M62.43,64.84a.15.15,0,0,1,0,.09v-.09Z" transform="translate(0 0)"/>
      </g>
      <rect class="9578c6e2-d79f-4b88-9525-e9620aea03bd" x="61.44" y="64.89" width="0.05" height="0.04"/>
      <g class="1a48aba4-3eb2-4cc6-9d3a-309b3ee2f23a">
        <path class="9578c6e2-d79f-4b88-9525-e9620aea03bd" d="M60.73,65.11c0,.13-.13.22.09.36,0,0,.18,0,.22,0s0,0-.09.09c-.27,0-.4-.36-.67-.49.13-.18.27,0,.45,0" transform="translate(0 0)"/>
        <path class="9578c6e2-d79f-4b88-9525-e9620aea03bd" d="M62.65,65.34s-.13,0-.18,0c0-.18-.18-.09-.27-.13L61.71,65c.27.13.67,0,.94.31" transform="translate(0 0)"/>
      </g>
      <rect class="9578c6e2-d79f-4b88-9525-e9620aea03bd" x="61.35" y="65.02" width="0.04" height="0.04"/>
      <g class="1a48aba4-3eb2-4cc6-9d3a-309b3ee2f23a">
        <path class="9578c6e2-d79f-4b88-9525-e9620aea03bd" d="M67.2,65.34a.85.85,0,0,1-.36-.09v0Z" transform="translate(0 0)"/>
        <path class="9578c6e2-d79f-4b88-9525-e9620aea03bd" d="M63.68,65.47h-.09v-.13s.09,0,.09.13" transform="translate(0 0)"/>
        <path class="9578c6e2-d79f-4b88-9525-e9620aea03bd" d="M51.81,65.6h0v-.09a.15.15,0,0,1,0,.09" transform="translate(0 0)"/>
        <path class="9578c6e2-d79f-4b88-9525-e9620aea03bd" d="M63.85,65.6h0v-.09a.15.15,0,0,1,0,.09" transform="translate(0 0)"/>
        <path class="9578c6e2-d79f-4b88-9525-e9620aea03bd" d="M64.39,66.32c-.4.27-.49-.4-.89-.4-.09,0,0-.18-.13-.18V65.6a5.32,5.32,0,0,0,1,.71" transform="translate(0 0)"/>
        <path class="9578c6e2-d79f-4b88-9525-e9620aea03bd" d="M67,65.78c-.13.09-.31-.09-.27-.18Z" transform="translate(0 0)"/>
        <path class="9578c6e2-d79f-4b88-9525-e9620aea03bd" d="M61.62,65.87c-.13,0-.45.13-.49-.09.13.13.31.09.49.09" transform="translate(0 0)"/>
        <path class="9578c6e2-d79f-4b88-9525-e9620aea03bd" d="M67.83,65.83c0,.09-.13-.09-.18,0s.13,0,.18,0" transform="translate(0 0)"/>
        <path class="9578c6e2-d79f-4b88-9525-e9620aea03bd" d="M67.38,65.92c0,.09,0,0-.09,0l0,0s0,0-.13,0v0c.09-.09.18,0,.27,0" transform="translate(0 0)"/>
        <path class="9578c6e2-d79f-4b88-9525-e9620aea03bd" d="M65,66.18c.13,0,.27,0,.36.09-.31,0-.76.09-.89-.27.13.22.45,0,.54.18" transform="translate(0 0)"/>
        <path class="9578c6e2-d79f-4b88-9525-e9620aea03bd" d="M68.67,66.18c-.22,0-.58,0-.62-.18.22,0,.4.18.63.18" transform="translate(0 0)"/>
        <path class="9578c6e2-d79f-4b88-9525-e9620aea03bd" d="M65.06,66.63c.13,0,.18,0,.31.09.13-.27.27.09.49,0l-.13.13c0,.09.09,0,.18,0s-.18,0-.27.09l-.22-.22s-.18.09-.09.18.18,0,.18,0-.27-.18-.4,0c0,0,0-.09-.13-.09s0,.13-.09.13l0,0a.27.27,0,0,1-.18,0,.88.88,0,0,0-.49-.27c.22-.22.67.09.89-.09" transform="translate(0 0)"/>
        <path class="9578c6e2-d79f-4b88-9525-e9620aea03bd" d="M67.87,67.66c-.4,0-.62-.58-1-.62a.4.4,0,0,0-.22-.36c.22,0,.4.22.63.27s.4.53.63.71" transform="translate(0 0)"/>
      </g>
      <path class="9578c6e2-d79f-4b88-9525-e9620aea03bd" d="M69.16,66.94h0Z" transform="translate(0 0)"/>
      <path class="9578c6e2-d79f-4b88-9525-e9620aea03bd" d="M69.39,67h0Z" transform="translate(0 0)"/>
      <g class="1a48aba4-3eb2-4cc6-9d3a-309b3ee2f23a">
        <path class="9578c6e2-d79f-4b88-9525-e9620aea03bd" d="M62.69,67.43s-.18,0-.27,0a.27.27,0,0,1,0-.18l.13-.13c.13,0,.13.18.18.27" transform="translate(0 0)"/>
        <path class="9578c6e2-d79f-4b88-9525-e9620aea03bd" d="M69.48,67.21v0l-.09-.09a.15.15,0,0,1,.09,0" transform="translate(0 0)"/>
        <path class="9578c6e2-d79f-4b88-9525-e9620aea03bd" d="M66.53,67.48c-.09.13.13.18.27.18a.57.57,0,0,1-.54.09c-.13-.31-.45-.13-.58-.36.18-.36.49.18.85.09" transform="translate(0 0)"/>
        <path class="9578c6e2-d79f-4b88-9525-e9620aea03bd" d="M62.52,67.34s.09,0,.13,0-.13,0-.18,0v-.13h.09Z" transform="translate(0 0)"/>
      </g>
      <rect class="9578c6e2-d79f-4b88-9525-e9620aea03bd" x="64.7" y="67.21" width="0.04" height="0.04"/>
      <g class="1a48aba4-3eb2-4cc6-9d3a-309b3ee2f23a">
        <path class="9578c6e2-d79f-4b88-9525-e9620aea03bd" d="M65.33,67.48s0,0,0,0h.18a1.34,1.34,0,0,1-.58,0l-.13-.09c.13,0,.45-.18.54.09" transform="translate(0 0)"/>
      </g>
      <rect class="9578c6e2-d79f-4b88-9525-e9620aea03bd" x="63.05" y="67.48" width="0.05" height="0.04"/>
      <rect class="9578c6e2-d79f-4b88-9525-e9620aea03bd" x="66.22" y="67.48" width="0.05" height="0.04"/>
      <polygon class="9578c6e2-d79f-4b88-9525-e9620aea03bd" points="69.88 67.66 69.88 67.52 70.15 67.66 69.88 67.66"/>
      <polygon class="9578c6e2-d79f-4b88-9525-e9620aea03bd" points="68 67.61 68 67.61 68 67.57 68 67.61"/>
      <rect class="9578c6e2-d79f-4b88-9525-e9620aea03bd" x="62.83" y="67.7" width="0.22" height="0.22"/>
      <g class="1a48aba4-3eb2-4cc6-9d3a-309b3ee2f23a">
        <path class="9578c6e2-d79f-4b88-9525-e9620aea03bd" d="M63,67.88h0v-.13s0,.09,0,.13" transform="translate(0 0)"/>
        <path class="9578c6e2-d79f-4b88-9525-e9620aea03bd" d="M70.59,68.06c-.13,0-.45-.09-.45-.27.13.09.36.09.45.27" transform="translate(0 0)"/>
      </g>
      <rect class="9578c6e2-d79f-4b88-9525-e9620aea03bd" x="63.27" y="67.83" width="0.04" height="0.05"/>
      <polygon class="9578c6e2-d79f-4b88-9525-e9620aea03bd" points="63.19 67.92 63.19 67.92 63.19 67.88 63.19 67.92"/>
      <g class="1a48aba4-3eb2-4cc6-9d3a-309b3ee2f23a">
        <path class="9578c6e2-d79f-4b88-9525-e9620aea03bd" d="M140,69c0,.09.09.22,0,.31-.31,0-.45.36-.76.36l0,0c-.31,0-.53.22-.85.27l-.31.36,0,0c0,.18-.58,0-.31.27-.27,0,0,.27-.27.18-.09.27-.22,0-.36,0s-.76,0-.62.45c-.22.18-.09.49-.45.49-.22.4-.67.36-1.07.36a1.33,1.33,0,0,0-.58.09c-.09.18-.27.36-.45.22-.18.09-.18.4-.45.31-.67.36-1,1.12-1.56,1.65-1.52,1.21-2.59,2.77-4.19,3.79-.54.4-1.07.85-1.61,1.25a4.71,4.71,0,0,0-1.07,1c.31.27.76.36,1,.71.71.54,1.52.76,2.23,1.25a3.91,3.91,0,0,1,1.07.67,1.6,1.6,0,0,0,.62.49c.09.45.49.54.76.89.45.22.85.63,1.34.67.31.13.45.36.76.49a15.33,15.33,0,0,1,2.41,1.78c-.36-.18-.71-.45-1.07-.62l0,0c.09.27.49.22.45.49,1,.8,2,1.29,2.95,2.14.45.09.58.49,1,.54.45.54,1.12.71,1.56,1.21a12.18,12.18,0,0,0,1.92,1.16,1.91,1.91,0,0,0,1.07.89c.22.54.94.36,1.21.94a3,3,0,0,0,.4.22,9.77,9.77,0,0,1,.76.63A30.14,30.14,0,0,1,149,97.82c.76.27,1.16,1,1.83,1.34l.18.22s0,.09,0,.13a3.35,3.35,0,0,1,.94.85,1.46,1.46,0,0,1,.67.49c0,.13.13.13.27.13.31.27.45.85.94.8-.09.18.13.27.22.4s.4-.13.58.13a.35.35,0,0,0-.22,0,15.45,15.45,0,0,0,2,1.79c.13.27.67.31.49.71a3.13,3.13,0,0,1,1.47,1.16c.13.22.09.8.58.67.09.09,0,.13,0,.18-.36.13-.4-.4-.71-.49s-.36-.36-.58-.27a3.32,3.32,0,0,0,.76.58c-.09.13.09.18.13.27.31.27.45.71.94.63,0,0-.09.13-.13,0s-.18,0-.27,0c.22.27.63.58.71.94.27.4.85.71.89,1.16.53.36.58.85,1.07,1.16.18.31.45.67.63,1,.4.13.31.63.63.89,0,.22.4.18.13.4a.36.36,0,0,1,.13.4c.27.27,0,.54.13.85a.29.29,0,0,0,.27.27c.13,0,.18.18.31.13,0,.18-.31.36-.22.54s.18.18,0,.27c0,0,0,0,0,.09l-.09-.09c-.13.36-.53,0-.49.45l0,0c0,.27.58,0,.4.4-.18-.09-.22-.36-.49-.22,0,.18-.27.27-.13.45a11.44,11.44,0,0,1-1.38,2.32c0,.45-.62.62-.89,1.07l0,0c-.18.27-.62.22-.85.49a2.48,2.48,0,0,0-.76.4c-.22-.22-.49.09-.76,0,0-.09.18-.09.18-.22-.27-.09-.49.13-.76,0,0-.27.45-.45.71-.54.49-.58,1.25-.8,1.61-1.43.22-.31.58-.49.54-.94a3.31,3.31,0,0,0-1.07,1.34,3,3,0,0,1-1.34.8v.09a3.35,3.35,0,0,0-1.12.13c.36-.18.89-.36,1.12-.85l-.09-.09a6.52,6.52,0,0,1-1.38.67,14.07,14.07,0,0,0,1.83-2.14c0-.13.22-.13.22-.31.27-.27.31-.71.58-.89-.13-.4.36-.58.45-.89-.36-.09.13-.31-.13-.49.18-.22-.31-.31-.09-.49a.08.08,0,0,1,0-.13c-.13-.13-.36-.31-.18-.49-.4-.09-.22-.49-.62-.58,0-.18-.13-.4-.13-.54s-.13-.36-.36-.36c0-.09.09-.13.18-.13,0-.4-.62.13-.49-.4,0,0,.18.13.22,0s-.27-.13-.4-.18c-.36-.49-.76-.8-1.07-1.21,0,0-.09.09-.13,0,.18-.13,0-.27-.13-.36-.31,0-.27-.31-.54-.45-.49,0-.54-.54-.89-.76a1.3,1.3,0,0,1,.45-.13l-.13-.13,0,0a.17.17,0,0,0-.27,0c0,.09-.13.09-.22,0l-.58-.71c0-.27.31.13.4-.18-.09-.09-.22-.22-.36-.18.18-.13,0-.27-.13-.27l.13,0c.09-.27-.18-.18-.31-.27l-.4-.54.14,0c0-.18-.45-.22-.31-.4-.13,0-.22-.22-.18-.31-.54-.45-.94-.89-1.38-1.34.31.31.89,0,1.07.49l.22,0c-.09-.36-.31-.49-.67-.71-.18,0-.31-.13-.4,0,0-.09-.27-.09-.31-.22.13-.18.31,0,.4-.09-.22-.18-.13-.54-.45-.58,0,0,0,0-.09,0-.27-.58-1.21-.27-1.61-.8a.16.16,0,0,1,0,.09,1.83,1.83,0,0,1-.49-.31,4.37,4.37,0,0,0,.76.09c.27.09.36.4.67.36,0-.09.13-.22,0-.36-.31.22-.49-.36-.85-.31s-.67-.54-1.21-.36a1.2,1.2,0,0,1-.36-.31c.18,0,.4.18.67.22s.49,0,.58.27c.09,0,.18,0,.22,0l-.54-.4,0,0c-.4-.31-.62-.94-1.29-.89l.27-.13c-.27-.31-.67-.27-1-.36s-.27.27-.45,0-.36-.18-.49-.4c.09,0,.22.13.36.22a2.33,2.33,0,0,1,.8.18c.09,0,.22,0,.27-.13s-.18,0-.27,0c-.27-.22-.62-.27-.89-.58-.18,0-.22-.22-.36-.31-.58-.13-.85-.58-1.34-.8a3,3,0,0,1-.71-.54c-.18,0-.18-.18-.31-.18s-.09.27-.13.31-.4-.13-.4-.31.31,0,.4-.09-.36,0-.45-.31a.65.65,0,0,0,.31,0c-.22-.45-.67-.45-.94-.94-.18.09-.09-.22-.31-.13-.09-.22-.45-.22-.4-.45l-.13,0a2.59,2.59,0,0,0-.76-.62,8.82,8.82,0,0,1-1.07-.85c-.18.09-.22-.18-.4-.18l.13-.13c-.36-.18-.71-.71-1.12-.8,0-.13-.22-.18-.36-.22-.31-.45-.85-.4-1.21-.85-.09,0-.18-.18-.36-.13-.09-.45-.71-.18-.71-.62a.59.59,0,0,0-.36-.13,3.39,3.39,0,0,1-.67-.4c0-.18-.27-.13-.4-.22l0-.09a8.44,8.44,0,0,1-1.56-1,.5.5,0,0,1-.22,0l.13-.13c-.13-.22-.36-.22-.53-.36-.13,0-.18-.13-.22-.22a1.75,1.75,0,0,1-.62-.36s0,0-.13,0-.09-.13,0-.18a8.54,8.54,0,0,0-1.56-.8,11.79,11.79,0,0,0-1.65-.89,7,7,0,0,1-2.63-1c-.58-.09-1.12-.36-1.7-.45-.27-.09-.45-.36-.8-.27l-.31-.27c-.18.09-.45-.22-.54.09a3.81,3.81,0,0,0-1.74-.09c-.13-.09-.22,0-.36,0-.49,0-.85-.58-1.29-.27-.22-.22-.45-.09-.67-.27-.31-.36-.89-.49-.8-1,.4-.4.63-1,1.11-1.25a21.41,21.41,0,0,1,3.08-2.95l.4-.45,0,0c.36-.18.63-.58,1-.71l2.1-2.19a5.64,5.64,0,0,0,1.21-1.12c0-.22.27-.4.31-.62s-.13-.13-.18-.18c.09-.4.54-.76.63-1.16s.45-.54.49-.71c.22-.54.71.18.71-.45.85-.85,2.1-.94,3-1.65.13-.22.36-.22.63-.31s.22.31.4.13c.27.09.4-.18.58-.27a9.39,9.39,0,0,0,1.34-.45,2,2,0,0,0,1.29-.58c.4,0,.62-.49,1.07-.4.49-.31,1.12,0,1.65,0A2.11,2.11,0,0,1,140,69" transform="translate(0 0)"/>
        <path class="9578c6e2-d79f-4b88-9525-e9620aea03bd" d="M64.61,68.33c0,.09-.13,0-.22,0s-.13-.09,0-.13.18,0,.27.09" transform="translate(0 0)"/>
        <path class="9578c6e2-d79f-4b88-9525-e9620aea03bd" d="M64.84,68.55l-.13.13h0c0-.09.09-.13.18-.13" transform="translate(0 0)"/>
      </g>
      <path class="9578c6e2-d79f-4b88-9525-e9620aea03bd" d="M70.5,68.59h0Z" transform="translate(0 0)"/>
      <g class="1a48aba4-3eb2-4cc6-9d3a-309b3ee2f23a">
        <path class="9578c6e2-d79f-4b88-9525-e9620aea03bd" d="M64,68.91c-.18.09,0,.31-.13.36s-.18,0-.22-.13c.13-.09,0-.18,0-.27s.27,0,.36,0" transform="translate(0 0)"/>
        <path class="9578c6e2-d79f-4b88-9525-e9620aea03bd" d="M65.1,69.49c-.22,0-.27.36-.45.13.13,0,.22-.22.45-.13" transform="translate(0 0)"/>
        <path class="9578c6e2-d79f-4b88-9525-e9620aea03bd" d="M72.51,70.11l-.45-.45c.13.13.49.18.45.45" transform="translate(0 0)"/>
        <path class="9578c6e2-d79f-4b88-9525-e9620aea03bd" d="M72.06,70.56c-.09.09-.13-.13-.22,0-.09-.18-.36-.13-.31-.36.09.22.49,0,.54.36" transform="translate(0 0)"/>
      </g>
      <rect class="9578c6e2-d79f-4b88-9525-e9620aea03bd" x="72.6" y="70.24" width="0.04" height="0.04"/>
      <rect class="9578c6e2-d79f-4b88-9525-e9620aea03bd" x="72.64" y="70.56" width="0.05" height="0.04"/>
      <g class="1a48aba4-3eb2-4cc6-9d3a-309b3ee2f23a">
        <path class="9578c6e2-d79f-4b88-9525-e9620aea03bd" d="M72.47,71.23l0,.13c-.13,0-.4-.09-.31-.27a.37.37,0,0,1,.36.13" transform="translate(0 0)"/>
        <path class="9578c6e2-d79f-4b88-9525-e9620aea03bd" d="M72.73,71.18l0,0v-.13s0,0,0,.09" transform="translate(0 0)"/>
      </g>
      <path class="9578c6e2-d79f-4b88-9525-e9620aea03bd" d="M69.61,71.4h0Z" transform="translate(0 0)"/>
      <g class="1a48aba4-3eb2-4cc6-9d3a-309b3ee2f23a">
        <path class="9578c6e2-d79f-4b88-9525-e9620aea03bd" d="M72.6,71.76v0s0,0,0,0" transform="translate(0 0)"/>
        <path class="9578c6e2-d79f-4b88-9525-e9620aea03bd" d="M70.1,71.85c0,.09-.09,0-.13,0s.09-.13.13,0" transform="translate(0 0)"/>
      </g>
      <polygon class="9578c6e2-d79f-4b88-9525-e9620aea03bd" points="67.74 71.98 67.74 71.98 67.74 71.94 67.74 71.98"/>
      <g class="1a48aba4-3eb2-4cc6-9d3a-309b3ee2f23a">
        <path class="9578c6e2-d79f-4b88-9525-e9620aea03bd" d="M127.48,72.21s0,0-.09.09v-.09Z" transform="translate(0 0)"/>
        <path class="9578c6e2-d79f-4b88-9525-e9620aea03bd" d="M72.42,72.43s0,.09,0,.13h0v-.13Z" transform="translate(0 0)"/>
        <path class="9578c6e2-d79f-4b88-9525-e9620aea03bd" d="M72.24,73h0v-.09s0,0,0,.09" transform="translate(0 0)"/>
      </g>
      <rect class="9578c6e2-d79f-4b88-9525-e9620aea03bd" x="71.93" y="73.99" width="0.04" height="0.05"/>
      <rect class="9578c6e2-d79f-4b88-9525-e9620aea03bd" x="72.33" y="74.57" width="0.04" height="0.04"/>
      <path class="9578c6e2-d79f-4b88-9525-e9620aea03bd" d="M72.11,75h0Z" transform="translate(0 0)"/>
      <rect class="9578c6e2-d79f-4b88-9525-e9620aea03bd" x="130.74" y="84.26" width="0.04" height="0.04"/>
      <g class="1a48aba4-3eb2-4cc6-9d3a-309b3ee2f23a">
        <path class="9578c6e2-d79f-4b88-9525-e9620aea03bd" d="M133.11,86c-.18,0-.36-.22-.4-.36Z" transform="translate(0 0)"/>
      </g>
      <rect class="9578c6e2-d79f-4b88-9525-e9620aea03bd" x="133.38" y="86.13" width="0.04" height="0.04"/>
      <path class="9578c6e2-d79f-4b88-9525-e9620aea03bd" d="M133.51,86.26l0,.09Z" transform="translate(0 0)"/>
      <path class="9578c6e2-d79f-4b88-9525-e9620aea03bd" d="M133.78,86.49l.22.13Z" transform="translate(0 0)"/>
      <rect class="9578c6e2-d79f-4b88-9525-e9620aea03bd" x="134.49" y="87.16" width="0.04" height="0.04"/>
      <g class="1a48aba4-3eb2-4cc6-9d3a-309b3ee2f23a">
        <path class="9578c6e2-d79f-4b88-9525-e9620aea03bd" d="M134.94,87.47h0v0s0,0,0,0" transform="translate(0 0)"/>
        <path class="9578c6e2-d79f-4b88-9525-e9620aea03bd" d="M137.84,89.39s-.13,0-.13,0,.13,0,.13,0" transform="translate(0 0)"/>
        <path class="9578c6e2-d79f-4b88-9525-e9620aea03bd" d="M138.37,89.74v0l-.13-.13c.09,0,.09,0,.13.09" transform="translate(0 0)"/>
      </g>
      <path class="9578c6e2-d79f-4b88-9525-e9620aea03bd" d="M134.53,90.55h0Z" transform="translate(0 0)"/>
      <g class="1a48aba4-3eb2-4cc6-9d3a-309b3ee2f23a">
        <path class="9578c6e2-d79f-4b88-9525-e9620aea03bd" d="M142.66,92.42l0,0v-.09a0,0,0,0,1,0,0" transform="translate(0 0)"/>
      </g>
      <rect class="9578c6e2-d79f-4b88-9525-e9620aea03bd" x="142.66" y="92.78" width="0.04" height="0.04"/>
      <g class="1a48aba4-3eb2-4cc6-9d3a-309b3ee2f23a">
        <path class="9578c6e2-d79f-4b88-9525-e9620aea03bd" d="M144.75,94s0,0,0,.09V94Z" transform="translate(0 0)"/>
        <path class="9578c6e2-d79f-4b88-9525-e9620aea03bd" d="M140.34,94.56s0,0,0,0-.31,0-.22-.18.13,0,.22.13" transform="translate(0 0)"/>
      </g>
      <path class="9578c6e2-d79f-4b88-9525-e9620aea03bd" d="M142.3,96.62h0Z" transform="translate(0 0)"/>
      <g class="1a48aba4-3eb2-4cc6-9d3a-309b3ee2f23a">
        <path class="9578c6e2-d79f-4b88-9525-e9620aea03bd" d="M142.08,96.88h0v0a0,0,0,0,1,0,0" transform="translate(0 0)"/>
      </g>
      <path class="9578c6e2-d79f-4b88-9525-e9620aea03bd" d="M142.75,96.84h0Z" transform="translate(0 0)"/>
      <g class="1a48aba4-3eb2-4cc6-9d3a-309b3ee2f23a">
        <path class="9578c6e2-d79f-4b88-9525-e9620aea03bd" d="M142.21,97s0,0,0,0l-.09-.09s.09,0,.09,0" transform="translate(0 0)"/>
      </g>
      <path class="9578c6e2-d79f-4b88-9525-e9620aea03bd" d="M142.52,97.2h0Z" transform="translate(0 0)"/>
      <rect class="9578c6e2-d79f-4b88-9525-e9620aea03bd" x="143.46" y="97.42" width="0.04" height="0.04"/>
      <rect class="9578c6e2-d79f-4b88-9525-e9620aea03bd" x="150.15" y="97.91" width="0.05" height="0.04"/>
      <g class="1a48aba4-3eb2-4cc6-9d3a-309b3ee2f23a">
        <path class="9578c6e2-d79f-4b88-9525-e9620aea03bd" d="M145,98.76a.42.42,0,0,0,.13.22h.09c.09.09.27.31.45.36-.22.09-.36-.22-.53-.31-.31.13-.4-.36-.71-.27a.61.61,0,0,1-.36-.22c.36-.36.58.27.94.22" transform="translate(0 0)"/>
      </g>
      <polygon class="9578c6e2-d79f-4b88-9525-e9620aea03bd" points="152.52 99.92 152.43 99.83 152.52 99.83 152.52 99.92"/>
      <path class="9578c6e2-d79f-4b88-9525-e9620aea03bd" d="M147,100h0Z" transform="translate(0 0)"/>
      <g class="1a48aba4-3eb2-4cc6-9d3a-309b3ee2f23a">
        <path class="9578c6e2-d79f-4b88-9525-e9620aea03bd" d="M152.65,100.41a.1.1,0,0,1-.09.09v-.09Z" transform="translate(0 0)"/>
        <path class="9578c6e2-d79f-4b88-9525-e9620aea03bd" d="M152.79,100.59s0,0-.09,0v-.09a.1.1,0,0,1,.09.09" transform="translate(0 0)"/>
      </g>
      <polygon class="9578c6e2-d79f-4b88-9525-e9620aea03bd" points="148.1 100.85 148.06 100.85 148.1 100.77 148.1 100.85"/>
      <g class="1a48aba4-3eb2-4cc6-9d3a-309b3ee2f23a">
        <path class="9578c6e2-d79f-4b88-9525-e9620aea03bd" d="M148.37,101.48v0l-.18-.13c.09,0,.09,0,.18.09" transform="translate(0 0)"/>
        <path class="9578c6e2-d79f-4b88-9525-e9620aea03bd" d="M154.48,101.66h0v-.09s0,0,0,.09" transform="translate(0 0)"/>
        <path class="9578c6e2-d79f-4b88-9525-e9620aea03bd" d="M149.31,101.84h0l-.09,0a.14.14,0,0,1,.09,0" transform="translate(0 0)"/>
      </g>
      <path class="9578c6e2-d79f-4b88-9525-e9620aea03bd" d="M155,102.1h0Z" transform="translate(0 0)"/>
      <g class="1a48aba4-3eb2-4cc6-9d3a-309b3ee2f23a">
        <path class="9578c6e2-d79f-4b88-9525-e9620aea03bd" d="M153.72,102.37c0,.09-.09,0-.13,0v-.09s.09,0,.13,0" transform="translate(0 0)"/>
        <path class="9578c6e2-d79f-4b88-9525-e9620aea03bd" d="M155.91,102.64c0,.09-.13,0-.18,0l0-.18c.18-.09.13.13.22.18" transform="translate(0 0)"/>
      </g>
      <polygon class="9578c6e2-d79f-4b88-9525-e9620aea03bd" points="156.09 103.13 156.04 103.04 156.09 103.04 156.09 103.13"/>
      <g class="1a48aba4-3eb2-4cc6-9d3a-309b3ee2f23a">
        <path class="9578c6e2-d79f-4b88-9525-e9620aea03bd" d="M150.46,103.31l-.27-.18c.09,0,.27,0,.27.18" transform="translate(0 0)"/>
        <path class="9578c6e2-d79f-4b88-9525-e9620aea03bd" d="M155.06,103.67a.52.52,0,0,1-.22-.31c.09.09.22.18.22.31" transform="translate(0 0)"/>
        <path class="9578c6e2-d79f-4b88-9525-e9620aea03bd" d="M157,103.67h.09v0c-.18.13-.13-.13-.31-.13l0,0Z" transform="translate(0 0)"/>
      </g>
      <path class="9578c6e2-d79f-4b88-9525-e9620aea03bd" d="M156.4,103.71h0Z" transform="translate(0 0)"/>
      <g class="1a48aba4-3eb2-4cc6-9d3a-309b3ee2f23a">
        <path class="9578c6e2-d79f-4b88-9525-e9620aea03bd" d="M151.22,103.89c-.13.09-.27,0-.31-.09a.64.64,0,0,1,.31.09" transform="translate(0 0)"/>
      </g>
      <rect class="9578c6e2-d79f-4b88-9525-e9620aea03bd" x="151.63" y="103.84" width="0.04" height="0.04"/>
      <path class="9578c6e2-d79f-4b88-9525-e9620aea03bd" d="M157.25,103.89h0Z" transform="translate(0 0)"/>
      <g class="1a48aba4-3eb2-4cc6-9d3a-309b3ee2f23a">
        <path class="9578c6e2-d79f-4b88-9525-e9620aea03bd" d="M157.56,104.07s0,0-.09,0-.09,0-.09,0,.13-.13.18,0" transform="translate(0 0)"/>
        <path class="9578c6e2-d79f-4b88-9525-e9620aea03bd" d="M151.63,104.25c-.13.13-.18-.09-.31-.13v0a1.09,1.09,0,0,0,.31.18" transform="translate(0 0)"/>
        <path class="9578c6e2-d79f-4b88-9525-e9620aea03bd" d="M157.6,104.25s-.13.09-.13,0Z" transform="translate(0 0)"/>
        <path class="9578c6e2-d79f-4b88-9525-e9620aea03bd" d="M151.89,104.6s-.09,0-.13,0l0-.09,0,0Z" transform="translate(0 0)"/>
      </g>
      <rect class="9578c6e2-d79f-4b88-9525-e9620aea03bd" x="158.14" y="104.91" width="0.04" height="0.04"/>
      <path class="9578c6e2-d79f-4b88-9525-e9620aea03bd" d="M158.32,105h0Z" transform="translate(0 0)"/>
      <g class="1a48aba4-3eb2-4cc6-9d3a-309b3ee2f23a">
        <path class="9578c6e2-d79f-4b88-9525-e9620aea03bd" d="M156.18,105.45c-.18-.13-.49-.22-.49-.45.13.18.4.22.49.45" transform="translate(0 0)"/>
        <path class="9578c6e2-d79f-4b88-9525-e9620aea03bd" d="M153.59,105.41a0,0,0,0,1,0,0h0v-.13c.09,0,0,.09.09.09" transform="translate(0 0)"/>
        <path class="9578c6e2-d79f-4b88-9525-e9620aea03bd" d="M153.77,105.54h-.13v0c.09,0,.09,0,.13,0" transform="translate(0 0)"/>
        <path class="9578c6e2-d79f-4b88-9525-e9620aea03bd" d="M157.65,106h0l-.27-.22c.13,0,.22.18.31.22" transform="translate(0 0)"/>
      </g>
      <path class="9578c6e2-d79f-4b88-9525-e9620aea03bd" d="M160.24,107h0Z" transform="translate(0 0)"/>
      <g class="1a48aba4-3eb2-4cc6-9d3a-309b3ee2f23a">
        <path class="9578c6e2-d79f-4b88-9525-e9620aea03bd" d="M159.39,107.32v.09a.54.54,0,0,1-.22-.22c.13,0,.13.09.22.13" transform="translate(0 0)"/>
        <path class="9578c6e2-d79f-4b88-9525-e9620aea03bd" d="M160.15,107.95a.78.78,0,0,1-.54-.22c.18-.27.36.27.54.22" transform="translate(0 0)"/>
      </g>
      <polygon class="9578c6e2-d79f-4b88-9525-e9620aea03bd" points="159.7 108 159.7 108.04 159.61 108 159.7 108"/>
      <g class="1a48aba4-3eb2-4cc6-9d3a-309b3ee2f23a">
        <path class="9578c6e2-d79f-4b88-9525-e9620aea03bd" d="M160.28,108.26v.09l-.31-.27c.18-.09.22.13.31.18" transform="translate(0 0)"/>
      </g>
      <polygon class="9578c6e2-d79f-4b88-9525-e9620aea03bd" points="159.93 108.35 159.88 108.35 159.88 108.26 159.93 108.35"/>
      <g class="1a48aba4-3eb2-4cc6-9d3a-309b3ee2f23a">
        <path class="9578c6e2-d79f-4b88-9525-e9620aea03bd" d="M160.91,109v0l-.09-.13s0,0,.09.09" transform="translate(0 0)"/>
        <path class="9578c6e2-d79f-4b88-9525-e9620aea03bd" d="M156.67,110.32c-.09.13-.22,0-.36,0,.09-.22.22,0,.36,0" transform="translate(0 0)"/>
        <path class="9578c6e2-d79f-4b88-9525-e9620aea03bd" d="M162.42,110.85c-.22,0-.36-.27-.58-.36.22-.22.45.18.58.36" transform="translate(0 0)"/>
      </g>
      <polygon class="d7945ad2-7e74-416a-a198-a8ff91f3c8a1" points="41.1 130.57 48.82 130.57 48.82 133.7 37.62 133.7 37.62 111.61 41.05 111.61 41.1 130.57"/>
      <g class="1a48aba4-3eb2-4cc6-9d3a-309b3ee2f23a">
        <path class="d7945ad2-7e74-416a-a198-a8ff91f3c8a1" d="M62,111.61c3,7.36,6,14.73,8.88,22.09H67.11l-2.05-5.18H55.6l-2,5.18H49.8c3-7.36,6-14.77,9.06-22.09Z" transform="translate(0 0)"/>
        <path class="d7945ad2-7e74-416a-a198-a8ff91f3c8a1" d="M87.59,128.3l0-16.69h3.39v22H87.73c-3.84-5.58-7.67-11.11-11.51-16.69l.09,16.69H72.87l0-22h3.26Z" transform="translate(0 0)"/>
        <path class="d7945ad2-7e74-416a-a198-a8ff91f3c8a1" d="M110.75,115.36c3,3.62,2.94,9.91.63,13.83-3.52,5.71-10.53,4.24-16.6,4.51V111.61c5.71.36,12.32-1.29,16,3.75" transform="translate(0 0)"/>
        <path class="9578c6e2-d79f-4b88-9525-e9620aea03bd" d="M163.94,112.9h0l0-.09s0,0,0,.09" transform="translate(0 0)"/>
        <path class="9578c6e2-d79f-4b88-9525-e9620aea03bd" d="M163.81,113.84a.91.91,0,0,1-.18-.36c.13.09.13.22.18.36" transform="translate(0 0)"/>
        <path class="9578c6e2-d79f-4b88-9525-e9620aea03bd" d="M164.48,114.29c-.13-.09-.27-.09-.4-.18a1.5,1.5,0,0,1,.27-.13c.13.09,0,.18.13.31" transform="translate(0 0)"/>
        <path class="9578c6e2-d79f-4b88-9525-e9620aea03bd" d="M163.63,114.24h-.09v-.13c.09,0,0,.09.09.13" transform="translate(0 0)"/>
        <path class="9578c6e2-d79f-4b88-9525-e9620aea03bd" d="M163.63,114.38v.09s-.09-.09-.09-.09Z" transform="translate(0 0)"/>
        <path class="daf018a4-28ec-48f6-80e9-39967b283f5a" d="M108.61,118.44c1.43,3.12,1.29,7.67-1.25,10.26-2.32,2.32-5.8,1.79-9.06,1.88v-15.8c4-.18,8.43-.36,10.31,3.66" transform="translate(0 0)"/>
      </g>
      <rect class="9578c6e2-d79f-4b88-9525-e9620aea03bd" x="164.3" y="115.36" width="0.04" height="0.04"/>
      <polygon class="daf018a4-28ec-48f6-80e9-39967b283f5a" points="56.63 125.62 60.28 115.85 64.03 125.62 56.63 125.62"/>
      <rect class="9578c6e2-d79f-4b88-9525-e9620aea03bd" x="163.81" y="115.8" width="0.04" height="0.04"/>
      <g class="1a48aba4-3eb2-4cc6-9d3a-309b3ee2f23a">
        <path class="9578c6e2-d79f-4b88-9525-e9620aea03bd" d="M163.36,117.05c-.18.09-.13.36-.31.45,0-.18,0-.31.18-.45-.18,0-.09-.22-.09-.36.18.09.13.22.22.36" transform="translate(0 0)"/>
        <path class="9578c6e2-d79f-4b88-9525-e9620aea03bd" d="M160.86,117.77c0,.09,0,0-.13.09s.09-.09.13-.09" transform="translate(0 0)"/>
      </g>
      <polygon class="9578c6e2-d79f-4b88-9525-e9620aea03bd" points="163.23 118.12 163.14 118.03 163.23 118.03 163.23 118.12"/>
      <rect class="9578c6e2-d79f-4b88-9525-e9620aea03bd" x="162.74" y="118.79" width="0.04" height="0.05"/>
      <g class="1a48aba4-3eb2-4cc6-9d3a-309b3ee2f23a">
        <path class="9578c6e2-d79f-4b88-9525-e9620aea03bd" d="M162,119.6a.67.67,0,0,1-.45.4l0,0,.18-.22c-.09,0,0-.13,0-.18s.18,0,.27,0" transform="translate(0 0)"/>
        <path class="9578c6e2-d79f-4b88-9525-e9620aea03bd" d="M162.33,119.64s0,.13,0,.13h0a.08.08,0,0,1,0-.13" transform="translate(0 0)"/>
      </g>
      <polygon class="9578c6e2-d79f-4b88-9525-e9620aea03bd" points="162.2 119.86 162.16 119.82 162.2 119.82 162.2 119.86"/>
      <g class="1a48aba4-3eb2-4cc6-9d3a-309b3ee2f23a">
        <path class="9578c6e2-d79f-4b88-9525-e9620aea03bd" d="M161.53,120.09c.09.09-.22.13,0,.22s.13-.13.27-.09c-.45.22-.89.58-1.43.8.13.13.31-.09.49-.09-.36.36-1.07.31-1.56.54,0,0,.09-.09,0-.13l-.18-.09c.22-.18.58-.22.85-.4s.36.27.54,0l0-.18c.18.13.22-.13.4-.09-.13-.09,0-.13,0-.27s.18,0,.27.09l.09-.09-.09-.09c.09,0,.13-.27.27-.09" transform="translate(0 0)"/>
        <path class="9578c6e2-d79f-4b88-9525-e9620aea03bd" d="M158,120.31l-.09.09v-.09s.09,0,.09,0" transform="translate(0 0)"/>
        <path class="9578c6e2-d79f-4b88-9525-e9620aea03bd" d="M161.22,120.44s-.09.09-.09.09,0-.09,0-.13a.14.14,0,0,1,.09,0" transform="translate(0 0)"/>
      </g>
      <rect class="9578c6e2-d79f-4b88-9525-e9620aea03bd" x="158.77" y="121.43" width="0.04" height="0.04"/>
      <g class="1a48aba4-3eb2-4cc6-9d3a-309b3ee2f23a">
        <path class="d7945ad2-7e74-416a-a198-a8ff91f3c8a1" d="M217.35,148.6l-3.93,0a8.24,8.24,0,0,0-7.81-3.57,8.12,8.12,0,0,0-6.07,4.2,9.25,9.25,0,0,0,.54,9.06,8.19,8.19,0,0,0,8.3,3.21c2.63-.45,5.49-2.68,6-5.4h-9.55v-2.86l13.56,0a10.77,10.77,0,0,1-5.93,10.13c-3.57,2-9,1.92-12.36-.54a11.4,11.4,0,0,1,4.33-20.7,11.66,11.66,0,0,1,12.9,6.47" transform="translate(0 0)"/>
      </g>
      <polygon class="d7945ad2-7e74-416a-a198-a8ff91f3c8a1" points="55.78 164.35 51.94 164.35 49.89 159.22 40.47 159.22 38.42 164.35 34.63 164.35 43.69 142.26 46.85 142.26 55.78 164.35"/>
      <g class="1a48aba4-3eb2-4cc6-9d3a-309b3ee2f23a">
        <path class="d7945ad2-7e74-416a-a198-a8ff91f3c8a1" d="M61,142.26q5.69,8.37,11.42,16.73l0-16.69h3.39v22H72.56c-3.79-5.58-7.68-11.16-11.47-16.73v16.73H57.74V142.26Z" transform="translate(0 0)"/>
        <path class="d7945ad2-7e74-416a-a198-a8ff91f3c8a1" d="M120.26,142.26q5.69,8.37,11.42,16.73l0-16.69H135v22h-3.26c-3.79-5.58-7.63-11.16-11.47-16.73l0,16.73H117V142.26Z" transform="translate(0 0)"/>
        <path class="d7945ad2-7e74-416a-a198-a8ff91f3c8a1" d="M161.35,157.52a4.48,4.48,0,0,0,2.28,3.71,4.44,4.44,0,0,0,4.82-.71,5,5,0,0,0,1.25-3.12V142.31h3.52l0,14.95a7.27,7.27,0,0,1-4.37,6.87c-2.81,1.12-6.56.76-8.75-1.43a7.43,7.43,0,0,1-2.23-5.67l0-14.77h3.44Z" transform="translate(0 0)"/>
        <path class="d7945ad2-7e74-416a-a198-a8ff91f3c8a1" d="M7.76,142.35c2.28.13,4.73,1.34,5.44,3.66A5.41,5.41,0,0,1,12,151.68a12.46,12.46,0,0,1-1.25.89,5.56,5.56,0,0,1,3.66,3.53,6.41,6.41,0,0,1-1.25,6.11,7.67,7.67,0,0,1-5.35,2.14H0v-22Z" transform="translate(0 0)"/>
        <path class="d7945ad2-7e74-416a-a198-a8ff91f3c8a1" d="M31.06,143.69c2.36,1.79,3.08,4.73,2.59,7.63a6.07,6.07,0,0,1-3.3,4.28,8,8,0,0,1-2,.58l5.13,8.17h-3.7l-6.07-10c2.41,0,5.36.18,6.34-2.54a5,5,0,0,0-1-5.31c-1.87-1.7-4.77-.94-7.27-1.12l0,18.92H18.25v-22c4.33.31,9.24-.8,12.81,1.38" transform="translate(0 0)"/>
        <path class="d7945ad2-7e74-416a-a198-a8ff91f3c8a1" d="M96.07,146.1c2.9,3.66,2.95,9.9.54,13.83-3.53,5.62-10.53,4.24-16.56,4.42v-22c5.71.36,12.36-1.34,16,3.79" transform="translate(0 0)"/>
      </g>
      <polygon class="d7945ad2-7e74-416a-a198-a8ff91f3c8a1" points="113.83 145.43 105.13 145.43 105.08 151.63 113.74 151.72 113.74 154.76 105.08 154.8 105.08 161.23 113.87 161.27 113.87 164.35 101.6 164.35 101.6 142.31 113.83 142.31 113.83 145.43"/>
      <g class="1a48aba4-3eb2-4cc6-9d3a-309b3ee2f23a">
        <path class="d7945ad2-7e74-416a-a198-a8ff91f3c8a1" d="M147.65,142.35c2.19.13,4.46,1.16,5.31,3.35.71,1.87.58,4.37-1,5.8a4.68,4.68,0,0,1-1.34,1c.27.18.76.36,1.11.54a5.52,5.52,0,0,1,2.81,5.27,6,6,0,0,1-3.88,5.44,8.38,8.38,0,0,1-3.21.58h-7.63l0-22Z" transform="translate(0 0)"/>
        <path class="d7945ad2-7e74-416a-a198-a8ff91f3c8a1" d="M190.27,143.42a7.45,7.45,0,0,1,3,7.81,6,6,0,0,1-4.33,4.73l-1,.22,5.13,8.17h-3.7l-6.11-10c2.19-.09,4.55.22,5.89-1.7a5,5,0,0,0,.63-4.28,4,4,0,0,0-3.12-2.86,40.82,40.82,0,0,0-5.27-.13l0,18.92h-3.48v-22c4.19.27,8.88-.71,12.41,1.12" transform="translate(0 0)"/>
        <path class="daf018a4-28ec-48f6-80e9-39967b283f5a" d="M9.68,146.82a3.57,3.57,0,0,1-.13,3.48c-1.43,1.74-4,.89-6,1.12v-6c2.14.22,4.86-.62,6.16,1.38" transform="translate(0 0)"/>
        <path class="daf018a4-28ec-48f6-80e9-39967b283f5a" d="M93.26,148.07a10,10,0,0,1,.22,10.31c-2.23,3.3-6.2,2.9-9.91,2.86V145.43c3.57,0,7.45-.49,9.68,2.63" transform="translate(0 0)"/>
        <path class="daf018a4-28ec-48f6-80e9-39967b283f5a" d="M149.88,147.57a3.18,3.18,0,0,1-.89,3.17c-1.52,1.12-3.7.49-5.58.67v-6c2.36.18,5.67-.71,6.47,2.14" transform="translate(0 0)"/>
      </g>
      <polygon class="daf018a4-28ec-48f6-80e9-39967b283f5a" points="41.45 156.28 45.11 146.5 48.86 156.28 41.45 156.28"/>
      <g class="1a48aba4-3eb2-4cc6-9d3a-309b3ee2f23a">
        <path class="daf018a4-28ec-48f6-80e9-39967b283f5a" d="M11.11,156.68a3.46,3.46,0,0,1-.94,3.66c-1.74,1.38-4.37.71-6.65.89v-6.78c2.72.27,6.47-.94,7.59,2.23" transform="translate(0 0)"/>
        <path class="daf018a4-28ec-48f6-80e9-39967b283f5a" d="M151,156.94a3.4,3.4,0,0,1-1.29,3.66c-1.79,1-4.19.49-6.34.63v-6.78c2.77.22,6.74-.89,7.63,2.5" transform="translate(0 0)"/>
      </g>
      <polygon class="d7945ad2-7e74-416a-a198-a8ff91f3c8a1" points="0 172.92 0 176.4 217.35 176.4 217.31 172.92 0 172.92"/>
      <g class="5e49edc7-b840-492b-9fd0-d5aeeef1b95d">
        <path class="9578c6e2-d79f-4b88-9525-e9620aea03bd" d="M556.83,164V111.84H415v24.88h18.88V143H402.09v33.45h6.1V148.95H415v27.51h6.09V148.95h6.7v27.51h6.09V164Zm-99-25.91a6.1,6.1,0,0,1,5.2,6.42c-.25,8-10.12,7.44-10.12,7.44h-9.64v-2.06l3.17-.61V128.39s-.58,0-1.72-.21a11.19,11.19,0,0,1-1.45-.29v-2.12l3.65.06c2,0,3.65-.12,6-.12,4.42,0,9.25.61,9.49,6.19.21,4.82-4.62,6.21-4.62,6.21m24,4.47H469.77s-.66,6.93,5.63,6.83a15.51,15.51,0,0,0,5.61-1.14v2.87a21.2,21.2,0,0,1-5.17,1.19,11.53,11.53,0,0,1-6.24-1.3c-3-2-3.54-6-3.5-8.34,0-2.84.83-9.62,8.4-9.8,8.52-.2,7.33,9.7,7.33,9.7m14.61-6s-2.76-.56-4.08.85c-1.88,2-1.72,6-1.72,6V152H487v-16l-3.12-.41v-2s1.9-.13,3.12-.18c1.38-.05,3.55-.05,3.55-.05v3.65a5.37,5.37,0,0,1,2-3.13,6.77,6.77,0,0,1,3.88-.73ZM507,152H497v-2.06l3.12-.51V127.07s-.89-.14-1.47-.21-1.65-.17-1.65-.17v-1.93s2.28-.15,3.73-.18c1.23,0,3.15,0,3.15,0v24.82l3.15.51Zm10.09-24a2.5,2.5,0,1,1-2.5-2.5,2.5,2.5,0,0,1,2.5,2.5m2.79,24H509.73v-2.06l3.2-.51V136l-3.2-.43v-2c1.25-.11,1.87-.16,3.2-.22,1.61-.06,2.83-.11,3.63-.06v16.12l3.35.51Zm21-13.35V152h-3.73V139s.19-3.54-3-3.35a5.24,5.24,0,0,0-4.69,3.86A9.27,9.27,0,0,0,529,143v9h-3.71V136l-3.12-.37v-2s1.44-.13,3.43-.25,3.4-.07,3.4-.07v3.36s1.18-3.81,7.23-3.57c5,.21,4.67,5.54,4.67,5.54m-62.74,1.18s.42-4.28-3.73-4.42c-4-.12-4.39,4.42-4.39,4.42Zm-19,4.41c-.15-2.81-2.14-4.1-5.17-4.36-1.4-.12-3.63,0-3.63,0V149s1.94.07,3.17,0c3.63-.15,5.79-1.9,5.63-4.78m-.48-11.68a3.65,3.65,0,0,0-3.7-3.78c-1.8-.12-4.63-.08-4.63-.08V137s1.43,0,2.48,0c3-.08,5.74-1.07,5.85-4.49" transform="translate(0 0)"/>
      </g>
      <rect class="9578c6e2-d79f-4b88-9525-e9620aea03bd" x="362.86" y="148.76" width="6.1" height="27.73"/>
      <rect class="9578c6e2-d79f-4b88-9525-e9620aea03bd" x="375.73" y="148.76" width="6.1" height="27.73"/>
      <rect class="9578c6e2-d79f-4b88-9525-e9620aea03bd" x="388.59" y="148.76" width="6.1" height="27.73"/>
      <rect class="9578c6e2-d79f-4b88-9525-e9620aea03bd" x="362.86" y="136.8" width="38.55" height="6.32"/>
      <g class="1a48aba4-3eb2-4cc6-9d3a-309b3ee2f23a">
        <path class="9578c6e2-d79f-4b88-9525-e9620aea03bd" d="M393.65,128.71a4.48,4.48,0,1,1,4.48,4.48,4.48,4.48,0,0,1-4.48-4.48" transform="translate(0 0)"/>
        <path class="9578c6e2-d79f-4b88-9525-e9620aea03bd" d="M307.37,120.6V112H291.26v8.61h5.93l-8.24,43.49h5.2c2.82,0,5.93.73,9.47.73,12.43,0,19.66-13.31,19.66-24,0-8.18-3.4-11.87-7.59-11.87-4.41,0-8.67,3-11,5.14Zm-4,21.49c1.73-1.88,4.92-3.55,6.72-3.55,2.31,0,3.11,2.17,3.11,4,0,4.48-3.4,14.4-9.39,14.4-.94,0-3.47-.36-3.47-.36Zm33.75,2.68c.79-4.56,4-7.67,6.43-7.67a2.28,2.28,0,0,1,2.53,2.53c0,2.46-2.46,5.14-5.92,5.14Zm4.63,5.64c9.68,0,14.74-4.42,14.74-11.51,0-6.37-4.34-10-11.13-10-12.79,0-19.37,11.15-19.37,21.56,0,8.61,5.35,14.33,13.08,14.33a46.59,46.59,0,0,0,11.64-2.1v-6.95a43.5,43.5,0,0,1-9,1.16c-4.2,0-5.71-3.26-5.71-6.51Z" transform="translate(0 0)"/>
      </g>
    </g>
  </g>
</svg>
