<?xml version="1.0" encoding="utf-8"?>
<!-- Generator: Adobe Illustrator 20.1.0, SVG Export Plug-In . SVG Version: 6.00 Build 0)  -->
<svg version="1.1" id="Ebene_1" xmlns="http://www.w3.org/2000/svg" xmlns:xlink="http://www.w3.org/1999/xlink" x="0px" y="0px"
	 viewBox="0 0 16 16" style="enable-background:new 0 0 16 16;" xml:space="preserve">
<style type="text/css">
	.st0{fill:#DDD176;}
</style>
<path class="st0" d="M6.5,2H8v1H6.5V2z M5,3h1.5v1H5V3z M6.5,4H8v1H6.5V4z M5,5h1.5v1H5V5z M6.5,6H8v1H6.5V6z M5,7h1.5v1H5V7z
	 M6.5,8v1H5v3.5C5,12.8,5.2,13,5.5,13h2C7.8,13,8,12.8,8,12.5V8H6.5z M7.5,12h-2v-1h2V12z M14.1,3.1l-2.2-2.2C11.4,0.4,10.4,0,9.8,0
	H2.2C1.6,0,1,0.6,1,1.2v13.5C1,15.4,1.6,16,2.2,16h11.5c0.7,0,1.2-0.6,1.2-1.2V5.2C15,4.6,14.6,3.6,14.1,3.1z M13.4,3.8
	c0,0,0.1,0.1,0.1,0.2H11V1.4c0.1,0,0.1,0.1,0.2,0.1C11.2,1.6,13.4,3.8,13.4,3.8z M14,14.7c0,0.1-0.1,0.2-0.2,0.2H2.2
	C2.1,15,2,14.9,2,14.7V1.2C2,1.1,2.1,1,2.2,1h7.5C9.8,1,9.9,1,10,1v4h4c0,0.1,0,0.2,0,0.2V14.7z"/>
</svg>
