<?xml version="1.0" encoding="utf-8"?>
<!-- Generator: Adobe Illustrator 20.1.0, SVG Export Plug-In . SVG Version: 6.00 Build 0)  -->
<svg version="1.1" id="Ebene_1" xmlns="http://www.w3.org/2000/svg" xmlns:xlink="http://www.w3.org/1999/xlink" x="0px" y="0px"
	 viewBox="0 0 16 16" style="enable-background:new 0 0 16 16;" xml:space="preserve">
<style type="text/css">
	.st0{fill:#679962;}
</style>
<path class="st0" d="M6,9.6V7.8c0-0.2,0.1-0.5,0.3-0.6S6.7,6.9,7,6.9V6C5.9,6,5,6.8,5,7.8v1.3c0,0.2-0.2,0.4-0.5,0.4H4v0.9h0.5
	c0.3,0,0.5,0.2,0.5,0.4v1.3c0,1,0.9,1.8,2,1.8v-0.9c-0.3,0-0.5-0.1-0.7-0.3S6,12.5,6,12.2v-1.8C6,10.2,5.8,10,5.5,10
	C5.8,10,6,9.8,6,9.6L6,9.6z M10,10.4v1.8c0,0.2-0.1,0.5-0.3,0.6S9.3,13.1,9,13.1V14c1.1,0,2-0.8,2-1.8v-1.3c0-0.2,0.2-0.4,0.5-0.4
	H12V9.6h-0.5c-0.3,0-0.5-0.2-0.5-0.4V7.8c0-1-0.9-1.8-2-1.8v0.9c0.3,0,0.5,0.1,0.7,0.3S10,7.5,10,7.8v1.8c0,0.2,0.2,0.4,0.5,0.4
	C10.2,10,10,10.2,10,10.4L10,10.4z M14.1,3.1l-2.2-2.2C11.4,0.4,10.4,0,9.8,0H2.2C1.6,0,1,0.6,1,1.2v13.5C1,15.4,1.6,16,2.2,16h11.5
	c0.7,0,1.2-0.6,1.2-1.2V5.2C15,4.6,14.6,3.6,14.1,3.1z M13.4,3.8c0,0,0.1,0.1,0.1,0.2H11V1.4c0.1,0,0.1,0.1,0.2,0.1
	C11.2,1.6,13.4,3.8,13.4,3.8z M14,14.7c0,0.1-0.1,0.2-0.2,0.2H2.2C2.1,15,2,14.9,2,14.7V1.2C2,1.1,2.1,1,2.2,1h7.5C9.8,1,9.9,1,10,1
	v4h4c0,0.1,0,0.2,0,0.2V14.7z"/>
</svg>
