<?xml version="1.0" encoding="utf-8"?>
<!-- Generator: Adobe Illustrator 20.1.0, SVG Export Plug-In . SVG Version: 6.00 Build 0)  -->
<svg version="1.1" id="Ebene_1" xmlns="http://www.w3.org/2000/svg" xmlns:xlink="http://www.w3.org/1999/xlink" x="0px" y="0px"
	 viewBox="0 0 16 16" style="enable-background:new 0 0 16 16;" xml:space="preserve">
<style type="text/css">
	.st0{fill:#4A685A;}
	.st1{fill:none;stroke:#FFFFFF;stroke-width:0.6097;stroke-miterlimit:10;}
</style>
<g>
	<path class="st0" d="M14.2,3.2L12,0.9C11.5,0.4,10.5,0,9.9,0H2.4C1.7,0,1.1,0.6,1.1,1.3v13.5c0,0.7,0.6,1.2,1.2,1.2h11.5
		c0.7,0,1.2-0.6,1.2-1.2V5.3C15.1,4.6,14.7,3.6,14.2,3.2z M13.5,3.9c0,0,0.1,0.1,0.1,0.2h-2.5V1.5c0.1,0,0.1,0.1,0.2,0.1L13.5,3.9z
		 M14.1,14.8c0,0.1-0.1,0.2-0.2,0.2H2.4c-0.1,0-0.2-0.1-0.2-0.2V1.3C2.1,1.2,2.2,1,2.4,1h7.5c0.1,0,0.2,0,0.2,0v4h4
		c0,0.1,0,0.2,0,0.2C14.1,5.3,14.1,14.8,14.1,14.8z"/>
	<rect x="3" y="10" class="st0" width="4" height="4"/>
	<rect x="9" y="10" class="st0" width="4" height="4"/>
	<rect x="3" y="4" class="st0" width="4" height="4"/>
</g>
<line class="st1" x1="10.8" y1="13" x2="9.7" y2="12"/>
<line class="st1" x1="10.4" y1="13" x2="12.5" y2="11"/>
<line class="st1" x1="4.7" y1="6.9" x2="3.6" y2="5.9"/>
<line class="st1" x1="4.3" y1="6.9" x2="6.4" y2="4.9"/>
</svg>
