<?xml version="1.0" encoding="UTF-8" standalone="no"?>
<!DOCTYPE svg PUBLIC "-//W3C//DTD SVG 1.1//EN" "http://www.w3.org/Graphics/SVG/1.1/DTD/svg11.dtd">
<svg width="100%" height="100%" viewBox="0 0 16 16" version="1.1" xmlns="http://www.w3.org/2000/svg" xmlns:xlink="http://www.w3.org/1999/xlink" xml:space="preserve" xmlns:serif="http://www.serif.com/" style="fill-rule:evenodd;clip-rule:evenodd;stroke-linecap:round;stroke-linejoin:round;">
    <g transform="matrix(0.0362425,0,0,0.0362425,7.61957,7.71006)">
        <g transform="matrix(1.0156,0.01389,-0.20152,0.9924,-208.18,-237.82)">
            <path d="M432.345,250.876C432.345,338.186 356.365,408.964 262.64,408.964C168.914,408.964 92.934,338.186 92.934,250.876C92.934,163.566 168.914,92.786 262.64,92.786C356.365,92.786 432.345,163.566 432.345,250.876Z" style="fill:none;fill-rule:nonzero;stroke:rgb(102,102,102);stroke-width:33.34px;"/>
        </g>
        <g transform="matrix(0.96842,0,0,0.91438,-476.694,-3.77417)">
            <path d="M644.286,145.571C644.286,172.002 623.499,193.429 597.857,193.429C572.215,193.429 551.429,172.002 551.429,145.571C551.429,119.141 572.215,97.714 597.857,97.714C623.499,97.714 644.286,119.141 644.286,145.571Z" style="fill:rgb(153,153,255);fill-rule:nonzero;stroke:black;stroke-width:15.55px;"/>
        </g>
        <g transform="matrix(0.96842,0,0,0.91438,-402.224,-174.566)">
            <path d="M644.286,145.571C644.286,172.002 623.499,193.429 597.857,193.429C572.215,193.429 551.429,172.002 551.429,145.571C551.429,119.141 572.215,97.714 597.857,97.714C623.499,97.714 644.286,119.141 644.286,145.571Z" style="fill:rgb(153,153,255);fill-rule:nonzero;stroke:black;stroke-width:15.55px;"/>
        </g>
        <g transform="matrix(0.96842,0,0,0.91438,-672.394,20.0038)">
            <path d="M644.286,145.571C644.286,172.002 623.499,193.429 597.857,193.429C572.215,193.429 551.429,172.002 551.429,145.571C551.429,119.141 572.215,97.714 597.857,97.714C623.499,97.714 644.286,119.141 644.286,145.571Z" style="fill:rgb(153,153,255);fill-rule:nonzero;stroke:black;stroke-width:15.55px;"/>
        </g>
        <g transform="matrix(0.96842,0,0,0.91438,-734.736,-146.208)">
            <path d="M644.286,145.571C644.286,172.002 623.499,193.429 597.857,193.429C572.215,193.429 551.429,172.002 551.429,145.571C551.429,119.141 572.215,97.714 597.857,97.714C623.499,97.714 644.286,119.141 644.286,145.571Z" style="fill:rgb(153,153,255);fill-rule:nonzero;stroke:black;stroke-width:15.55px;"/>
        </g>
        <g transform="matrix(0.96842,0,0,0.91438,-580.156,-270.219)">
            <path d="M644.286,145.571C644.286,172.002 623.499,193.429 597.857,193.429C572.215,193.429 551.429,172.002 551.429,145.571C551.429,119.141 572.215,97.714 597.857,97.714C623.499,97.714 644.286,119.141 644.286,145.571Z" style="fill:rgb(153,153,255);fill-rule:nonzero;stroke:black;stroke-width:15.55px;"/>
        </g>
    </g>
</svg>
