<?xml version="1.0" encoding="UTF-8" standalone="no"?>
<!DOCTYPE svg PUBLIC "-//W3C//DTD SVG 1.1//EN" "http://www.w3.org/Graphics/SVG/1.1/DTD/svg11.dtd">
<svg width="100%" height="100%" viewBox="0 0 16 16" version="1.1" xmlns="http://www.w3.org/2000/svg" xmlns:xlink="http://www.w3.org/1999/xlink" xml:space="preserve" xmlns:serif="http://www.serif.com/" style="fill-rule:evenodd;clip-rule:evenodd;stroke-linejoin:round;stroke-miterlimit:2;">
    <g transform="matrix(1.24568,0,0,1.24568,-0.7282,0.706019)">
        <g transform="matrix(0.0808452,0,0,0.0808452,-0.731016,-1.38681)">
            <path d="M97.65,105.51C97.65,105.477 97.643,105.447 97.63,105.42C97.61,105.387 97.583,105.363 97.55,105.35C92.27,102.87 86.653,101.32 80.7,100.7C80.367,100.667 80.087,100.533 79.86,100.3C76.5,96.82 73.22,93.223 70.02,89.51C60.07,77.98 50.56,61.97 50.51,46.22C50.477,32.633 55.82,21.12 66.54,11.68C67.533,10.807 67.847,11.007 67.48,12.28C62.68,28.69 65.61,44.95 74.16,59.44C78.28,66.433 84.097,74.263 91.61,82.93C95.957,87.937 100.45,93.893 105.09,100.8C108.217,105.447 110.78,110.13 112.78,114.85C116.71,124.14 117.62,135.95 116.36,145.84C115.51,152.55 113.21,159.87 111.45,166.75C111.01,168.463 110.733,168.437 110.62,166.67C110.473,164.37 110.25,162.03 109.95,159.65C109.783,158.377 109.927,157.13 110.38,155.91C111.133,153.857 111.763,151.72 112.27,149.5C112.703,147.587 112.633,145.723 112.06,143.91C109.19,134.84 103.42,127.12 93.65,125.25C93.64,125.248 93.631,125.246 93.621,125.244C93.383,125.181 93.239,124.928 93.303,124.684C93.305,124.676 93.307,124.668 93.31,124.66C94.51,121.16 94.183,117.783 92.33,114.53C92.289,114.46 92.261,114.384 92.246,114.304C92.17,113.911 92.436,113.524 92.834,113.448C92.912,113.433 92.992,113.43 93.07,113.44L98.54,114.18C99.613,114.32 99.64,114.207 98.62,113.84C96.367,113.02 94.007,112.57 91.54,112.49C91.193,112.477 90.917,112.33 90.71,112.05C88.59,109.23 86.26,106.597 83.72,104.15C82.827,103.283 83.003,102.877 84.25,102.93C88.543,103.097 92.97,103.98 97.53,105.58C97.597,105.607 97.637,105.583 97.65,105.51Z" style="fill:rgb(3,127,195);fill-rule:nonzero;"/>
        </g>
        <g transform="matrix(0.0808452,0,0,0.0808452,-0.731016,-1.38681)">
            <path d="M125.04,111.71C127.793,110.797 130.62,110.203 133.52,109.93C133.867,109.897 134.103,110.043 134.23,110.37C135.57,113.937 136.647,117.507 137.46,121.08C137.474,121.142 137.482,121.206 137.482,121.27C137.482,121.726 137.115,122.105 136.66,122.12C133.26,122.26 130.427,122.9 128.16,124.04C127.66,124.287 127.69,124.42 128.25,124.44C132.71,124.59 137.47,125.53 140.75,128.81C140.854,128.912 140.912,129.051 140.912,129.196C140.912,129.463 140.714,129.691 140.45,129.73C134.3,130.72 126.17,133.1 122.63,138.67C121.717,140.103 121.24,139.97 121.2,138.27C120.927,125.077 117.3,113.123 110.32,102.41C103.7,92.26 95.89,83.6 88.22,74.5C82.413,67.607 77.367,60.093 73.08,51.96C70.9,47.84 69.373,43.547 68.5,39.08C66.813,30.48 66.597,22.66 67.85,15.62C67.943,15.087 68.213,14.677 68.66,14.39C69.033,14.157 69.263,14.257 69.35,14.69C70.49,20.217 72.467,25.443 75.28,30.37C79.38,37.53 84.613,44.433 90.98,51.08C101.927,62.487 107.42,68.213 107.46,68.26C118.56,79.96 127.2,93.27 133.44,108.01C133.468,108.076 133.482,108.146 133.482,108.217C133.482,108.475 133.294,108.697 133.04,108.74C130.067,109.24 127.373,110.17 124.96,111.53C124.353,111.877 124.38,111.937 125.04,111.71Z" style="fill:rgb(3,127,195);fill-rule:nonzero;"/>
        </g>
    </g>
</svg>
