<?xml version="1.0" encoding="UTF-8" standalone="no"?>
<!DOCTYPE svg PUBLIC "-//W3C//DTD SVG 1.1//EN" "http://www.w3.org/Graphics/SVG/1.1/DTD/svg11.dtd">
<svg width="100%" height="100%" viewBox="0 0 16 16" version="1.1" xmlns="http://www.w3.org/2000/svg" xmlns:xlink="http://www.w3.org/1999/xlink" xml:space="preserve" xmlns:serif="http://www.serif.com/" style="fill-rule:evenodd;clip-rule:evenodd;stroke-linejoin:round;stroke-miterlimit:2;">
    <g transform="matrix(0.0503001,-7.54831e-34,-7.54831e-34,-0.0503001,-8.32923,16.0344)">
        <path d="M341.287,315.2C340.73,314.852 337.948,310.052 335.026,304.557L329.739,294.609L325.565,293.704C314.922,291.478 302.957,288.417 299.13,287.026L294.957,285.565L285.565,291.617C274.713,298.713 273.53,298.922 267.548,295.583C253.565,287.652 234.017,271.722 232.904,267.27C232.696,266.296 233.67,261.843 235.409,256.07C237.009,250.852 238.4,245.913 238.4,245.148C238.47,244.383 236.452,240.626 233.948,236.87C231.443,233.043 227.409,226.296 225.043,221.913C222.678,217.53 220.522,213.635 220.174,213.357C219.896,213.009 215.304,211.826 210.017,210.713C197.704,208.139 196.87,207.791 195.617,204.661C194.017,200.557 191.791,190.261 190.678,181.565C189.357,171.478 188.591,157.078 189.357,156.104C189.635,155.687 194.296,153.113 199.652,150.33C205.009,147.548 209.739,144.904 210.157,144.487C210.574,144 211.687,139.409 212.73,134.261C213.704,129.113 215.583,121.6 216.904,117.565C218.157,113.461 218.991,109.913 218.643,109.565C218.296,109.148 215.374,104.835 212.174,99.826C207.93,93.357 206.261,90.157 206.261,88.626C206.261,84.104 220.383,63.235 230.609,52.73C235.409,47.722 236.035,47.304 238.609,47.304C240.139,47.304 244.87,48.348 249.043,49.67C261.357,53.426 260.035,53.496 267.27,48.765C270.748,46.4 277.009,42.713 281.183,40.417C292.104,34.435 291.548,35.13 293.565,25.113C296.348,11.478 296.348,11.409 299.339,10.226C302.957,8.765 316.73,5.774 323.757,4.939C332.035,3.896 348.383,3.27 349.287,3.965C349.774,4.243 352.487,8.904 355.409,14.261C358.33,19.617 361.183,24.348 361.809,24.765C362.365,25.183 364.452,25.809 366.47,26.017C371.061,26.643 382.33,29.426 389.704,31.791L395.409,33.67L405.009,27.27C410.296,23.722 415.374,20.87 416.278,20.87C421.635,20.87 453.148,43.826 456.348,50.157C457.948,53.148 457.6,56.487 454.887,65.53C453.565,70.122 452.383,74.365 452.383,74.991C452.313,75.617 454.052,78.817 456.209,82.017C460.035,87.722 461.009,90.783 459.617,92.939C458.991,93.983 431.374,110.609 430.33,110.609C429.913,110.609 426.852,112.209 423.513,114.087C416.278,118.261 414.191,118.47 411.617,115.339C407.652,110.678 393.809,97.6 389.704,94.748C361.252,74.783 323.061,76.104 295.861,98.017C277.287,113.043 267.687,130.087 265.322,152.696C262.748,176.626 271.861,200.348 290.365,217.948C314.435,240.835 348.174,246.47 378.713,232.557C383.652,230.33 387.27,229.704 388.939,230.817C389.426,231.096 393.043,236.661 397.009,243.13C414.191,271.096 415.374,273.391 413.704,275.896C413.426,276.313 409.878,278.47 405.774,280.626C401.67,282.852 398.191,285.148 397.983,285.774C397.774,286.4 396.661,291.2 395.617,296.348C394.504,301.565 393.252,306.504 392.765,307.27C391.374,309.983 380.104,312.765 362.435,314.783C352.348,315.965 342.748,316.104 341.287,315.2Z" style="fill:rgb(203,217,0);fill-rule:nonzero;"/>
    </g>
</svg>
