<?xml version="1.0" encoding="utf-8"?>
<!-- Generator: Adobe Illustrator 22.1.0, SVG Export Plug-In . SVG Version: 6.00 Build 0)  -->
<svg version="1.1" id="Ebene_1" xmlns="http://www.w3.org/2000/svg" xmlns:xlink="http://www.w3.org/1999/xlink" x="0px" y="0px"
	 viewBox="0 0 16 16" style="enable-background:new 0 0 16 16;" xml:space="preserve">
<style type="text/css">
	.st0{fill:#68BCA2;}
</style>
<g>
	<g>
		<g>
			<path class="st0" d="M7.6,8.1c0-0.5-0.3-1-0.8-1.2L1.4,4.3c-0.4-0.2-0.7,0-0.7,0.5l0.8,6c0.1,0.5,0.4,1.1,0.8,1.3l4.7,3.2
				c0.4,0.3,0.7,0.1,0.7-0.4L7.6,8.1z"/>
		</g>
		<g>
			<path class="st0" d="M7.4,5.9c0.4,0.2,1.1,0.2,1.5,0l5-2.6c0.4-0.2,0.4-0.5,0-0.7L8.8,0.7c-0.4-0.2-1.2-0.2-1.6,0L1.9,2.6
				C1.4,2.7,1.4,3,1.8,3.2L7.4,5.9z"/>
		</g>
		<g>
			<path class="st0" d="M9.6,6.8C9.1,7,8.8,7.6,8.8,8.1l0,6.9c0,0.5,0.3,0.6,0.7,0.3l4.4-3.3c0.4-0.3,0.7-0.9,0.8-1.4l0.6-6
				c0-0.5-0.3-0.7-0.7-0.4L9.6,6.8z"/>
		</g>
	</g>
</g>
</svg>
