<?xml version="1.0" encoding="utf-8"?>
<!-- Generator: Adobe Illustrator 22.0.1, SVG Export Plug-In . SVG Version: 6.00 Build 0)  -->
<svg version="1.1" id="Ebene_1" xmlns="http://www.w3.org/2000/svg" xmlns:xlink="http://www.w3.org/1999/xlink" x="0px" y="0px"
	 viewBox="0 0 16 16" style="enable-background:new 0 0 16 16;" xml:space="preserve">
<style type="text/css">
	.st0{fill:#2377CD;}
</style>
<g>
	<path class="st0" d="M15.4,5.1c-0.4-0.4-1-0.6-1.8-0.6h-2.1H11V6H7.8L7.5,7.1C7.7,7,8.1,6.9,8.3,6.8s0.4,0,0.6,0
		c0.7,0,1.3,0.2,1.7,0.6c0.4,0.4,0.7,1,0.7,1.6c0,0.5-0.1,0.9-0.3,1.3c-0.2,0.4-0.5,0.7-1,1c-0.1,0.1-0.3,0.1-0.5,0.2h2.1h0.7V8.9
		h1.2c0.9,0,1.5-0.2,2-0.6c0.4-0.4,0.6-1,0.6-1.7C16,6,15.8,5.4,15.4,5.1z M13.6,7.3c-0.2,0.1-0.5,0.2-0.9,0.2h-0.6V5.9h0.6
		c0.4,0,0.7,0.1,0.8,0.2c0.1,0.2,0.2,0.3,0.2,0.6C13.9,7,13.8,7.1,13.6,7.3z"/>
	<path class="st0" d="M8.2,8C7.8,8,7.5,8.3,7.3,8.6L5.4,8.3l0.9-3.8H5.1H4.5v3H2.1v-3H0v7h2.1V8.9h2.4v2.6h0.6h2
		c-0.3-0.1-0.6-0.2-0.8-0.4c-0.2-0.2-0.4-0.4-0.6-0.6s-0.3-0.5-0.4-0.8l1.9-0.3C7.5,9.8,7.8,10,8.2,10c0.5,0,1-0.4,1-1
		C9.2,8.5,8.7,8,8.2,8z"/>
</g>
</svg>
