<?xml version="1.0" encoding="utf-8"?>
<!-- Generator: Adobe Illustrator 20.1.0, SVG Export Plug-In . SVG Version: 6.00 Build 0)  -->
<svg version="1.1" id="Ebene_1" xmlns="http://www.w3.org/2000/svg" xmlns:xlink="http://www.w3.org/1999/xlink" x="0px" y="0px"
	 viewBox="0 0 16 16" style="enable-background:new 0 0 16 16;" xml:space="preserve">
<style type="text/css">
	.st0{fill:#EE634F;}
</style>
<path class="st0" d="M3,8h3v1H3V8z M3,10h3v1H3V10z M3,12h3v1H3V12z M14.1,3.1l-2.2-2.2C11.4,0.4,10.4,0,9.8,0H2.2
	C1.6,0,1,0.6,1,1.2v13.5C1,15.4,1.6,16,2.2,16h11.5c0.7,0,1.2-0.6,1.2-1.2V5.2C15,4.6,14.6,3.6,14.1,3.1z M13.4,3.8
	c0,0,0.1,0.1,0.1,0.2H11V1.4c0.1,0,0.1,0.1,0.2,0.1C11.2,1.6,13.4,3.8,13.4,3.8z M14,14.7c0,0.1-0.1,0.2-0.2,0.2H2.2
	C2.1,15,2,14.9,2,14.7V1.2C2,1.1,2.1,1,2.2,1h7.5C9.8,1,9.9,1,10,1v4h4c0,0.1,0,0.2,0,0.2V14.7z M9,11h2.9c-0.2,1.1-1.2,2-2.4,2
	C8.1,13,7,11.9,7,10.5C7,9.3,7.9,8.3,9,8V11z M10.5,7C11.9,7,13,8.1,13,9.5c0,0.2,0,0.3-0.1,0.5H10V7C10.2,7,10.3,7,10.5,7z"/>
</svg>
