<?xml version="1.0" encoding="utf-8"?>
<!-- Generator: Adobe Illustrator 20.1.0, SVG Export Plug-In . SVG Version: 6.00 Build 0)  -->
<svg version="1.1" id="Ebene_1" xmlns="http://www.w3.org/2000/svg" xmlns:xlink="http://www.w3.org/1999/xlink" x="0px" y="0px"
	 viewBox="0 0 16 16" style="enable-background:new 0 0 16 16;" xml:space="preserve">
<style type="text/css">
	.st0{fill:#73B5B4;}
</style>
<path class="st0" d="M14.9,1.2L14.9,1.2C13.4-0.4,11-0.4,9.5,1.1L6.1,4.5C4.6,6,4.6,8.4,6.1,9.9l0.1,0.1c0.1,0.1,0.3,0.2,0.4,0.3
	L7.8,9C7.6,8.9,7.5,8.8,7.4,8.7L7.3,8.6c-0.8-0.8-0.8-2.1,0-2.9l3.4-3.4c0.8-0.8,2.1-0.8,2.9,0l0.1,0.1c0.8,0.8,0.8,2.1,0,2.9
	l-1.5,1.5c0.3,0.7,0.4,1.4,0.4,2.1l2.4-2.4C16.4,5,16.4,2.6,14.9,1.2L14.9,1.2z M9.9,6.1C9.7,6,9.6,5.8,9.5,5.7L8.2,7
	c0.1,0.1,0.3,0.2,0.4,0.3l0.1,0.1c0.8,0.8,0.8,2.1,0,2.9l-3.4,3.4c-0.8,0.8-2.1,0.8-2.9,0l-0.1-0.1c-0.8-0.8-0.8-2.1,0-2.9l1.5-1.5
	C3.6,8.5,3.5,7.8,3.5,7.1L1.1,9.5c-1.5,1.5-1.5,3.9,0,5.3l0.1,0.1c1.5,1.5,3.9,1.5,5.3,0l3.4-3.4C11.4,10,11.4,7.6,9.9,6.1L9.9,6.1
	L9.9,6.1z"/>
</svg>
