<?xml version="1.0" encoding="utf-8"?>
<!-- Generator: Adobe Illustrator 21.1.0, SVG Export Plug-In . SVG Version: 6.00 Build 0)  -->
<svg version="1.1" id="Ebene_1" xmlns="http://www.w3.org/2000/svg" xmlns:xlink="http://www.w3.org/1999/xlink" x="0px" y="0px"
	 viewBox="0 0 16 16" style="enable-background:new 0 0 16 16;" xml:space="preserve">
<style type="text/css">
	.st0{fill:#BD3E25;}
</style>
<path class="st0" d="M6.5,2.1c1.2,0,2.3,0.5,3.1,1.3L7.4,5.6h5.2V0.4l-1.8,1.8C9.7,1.1,8.2,0.4,6.5,0.4c-3.1,0-5.6,2.3-6,5.2h1.8
	C2.6,3.6,4.4,2.1,6.5,2.1z M11.4,10.1c0.6-0.8,1-1.7,1.1-2.7h-1.8c-0.4,2-2.2,3.5-4.3,3.5c-1.2,0-2.3-0.5-3.1-1.3l2.2-2.2H0.4v5.2
	l1.8-1.8c1.1,1.1,2.6,1.8,4.3,1.8c1.4,0,2.6-0.4,3.6-1.2l4.2,4.2l1.3-1.3C15.6,14.3,11.4,10.1,11.4,10.1z"/>
</svg>
